<svg xmlns="http://www.w3.org/2000/svg" width="283" height="50" fill="none" viewBox="0 0 283 50"><path fill="#000" d="M46.7623 46C46.6183 46 46.5063 45.964 46.4263 45.892C46.3463 45.812 46.3063 45.704 46.3063 45.568C46.3063 45.432 46.3463 45.332 46.4263 45.268C46.5063 45.196 46.6183 45.16 46.7623 45.16H48.3223V38.356H48.8383L47.0983 39.508C46.9943 39.564 46.8943 39.588 46.7983 39.58C46.7103 39.572 46.6343 39.54 46.5703 39.484C46.5143 39.42 46.4743 39.348 46.4503 39.268C46.4263 39.18 46.4303 39.092 46.4623 39.004C46.4943 38.908 46.5623 38.828 46.6663 38.764L48.3223 37.672C48.4263 37.608 48.5263 37.556 48.6223 37.516C48.7183 37.476 48.8143 37.456 48.9103 37.456C49.0223 37.456 49.1143 37.492 49.1863 37.564C49.2663 37.628 49.3063 37.732 49.3063 37.876V45.16H50.7463C50.8903 45.16 51.0023 45.196 51.0823 45.268C51.1623 45.332 51.2023 45.432 51.2023 45.568C51.2023 45.712 51.1623 45.82 51.0823 45.892C51.0023 45.964 50.8903 46 50.7463 46H46.7623Z"/><path fill="#000" d="M232.45 46C232.274 46 232.142 45.96 232.054 45.88C231.974 45.792 231.934 45.676 231.934 45.532C231.934 45.444 231.954 45.36 231.994 45.28C232.042 45.192 232.106 45.104 232.186 45.016L234.874 42.136C235.282 41.696 235.574 41.292 235.75 40.924C235.934 40.548 236.026 40.168 236.026 39.784C236.026 39.304 235.878 38.94 235.582 38.692C235.294 38.436 234.87 38.308 234.31 38.308C233.95 38.308 233.61 38.364 233.29 38.476C232.97 38.588 232.662 38.76 232.366 38.992C232.262 39.072 232.166 39.108 232.078 39.1C231.998 39.092 231.926 39.06 231.862 39.004C231.798 38.948 231.754 38.876 231.73 38.788C231.706 38.7 231.706 38.612 231.73 38.524C231.762 38.436 231.826 38.356 231.922 38.284C232.234 38.028 232.61 37.824 233.05 37.672C233.49 37.512 233.938 37.432 234.394 37.432C234.962 37.432 235.442 37.52 235.834 37.696C236.226 37.872 236.522 38.132 236.722 38.476C236.922 38.812 237.022 39.224 237.022 39.712C237.022 40.048 236.966 40.38 236.854 40.708C236.75 41.028 236.586 41.356 236.362 41.692C236.146 42.028 235.862 42.376 235.51 42.736L232.954 45.436V45.16H236.998C237.15 45.16 237.262 45.196 237.334 45.268C237.414 45.332 237.454 45.432 237.454 45.568C237.454 45.712 237.414 45.82 237.334 45.892C237.262 45.964 237.15 46 236.998 46H232.45Z"/><path stroke="#DBE9F5" stroke-width=".5" d="M49 15L237 15"/><circle cx="236.5" cy="14.5" r="14.5" fill="#00BD79"/><circle cx="48.5" cy="14.5" r="14.5" fill="#DBE9F5"/></svg>