<svg xmlns="http://www.w3.org/2000/svg" width="363" height="50" fill="none" viewBox="0 0 363 50"><path fill="#000" d="M46.7623 46C46.6183 46 46.5063 45.964 46.4263 45.892C46.3463 45.812 46.3063 45.704 46.3063 45.568C46.3063 45.432 46.3463 45.332 46.4263 45.268C46.5063 45.196 46.6183 45.16 46.7623 45.16H48.3223V38.356H48.8383L47.0983 39.508C46.9943 39.564 46.8943 39.588 46.7983 39.58C46.7103 39.572 46.6343 39.54 46.5703 39.484C46.5143 39.42 46.4743 39.348 46.4503 39.268C46.4263 39.18 46.4303 39.092 46.4623 39.004C46.4943 38.908 46.5623 38.828 46.6663 38.764L48.3223 37.672C48.4263 37.608 48.5263 37.556 48.6223 37.516C48.7183 37.476 48.8143 37.456 48.9103 37.456C49.0223 37.456 49.1143 37.492 49.1863 37.564C49.2663 37.628 49.3063 37.732 49.3063 37.876V45.16H50.7463C50.8903 45.16 51.0023 45.196 51.0823 45.268C51.1623 45.332 51.2023 45.432 51.2023 45.568C51.2023 45.712 51.1623 45.82 51.0823 45.892C51.0023 45.964 50.8903 46 50.7463 46H46.7623Z"/><path fill="#000" d="M180.45 46C180.274 46 180.142 45.96 180.054 45.88C179.974 45.792 179.934 45.676 179.934 45.532C179.934 45.444 179.954 45.36 179.994 45.28C180.042 45.192 180.106 45.104 180.186 45.016L182.874 42.136C183.282 41.696 183.574 41.292 183.75 40.924C183.934 40.548 184.026 40.168 184.026 39.784C184.026 39.304 183.878 38.94 183.582 38.692C183.294 38.436 182.87 38.308 182.31 38.308C181.95 38.308 181.61 38.364 181.29 38.476C180.97 38.588 180.662 38.76 180.366 38.992C180.262 39.072 180.166 39.108 180.078 39.1C179.998 39.092 179.926 39.06 179.862 39.004C179.798 38.948 179.754 38.876 179.73 38.788C179.706 38.7 179.706 38.612 179.73 38.524C179.762 38.436 179.826 38.356 179.922 38.284C180.234 38.028 180.61 37.824 181.05 37.672C181.49 37.512 181.938 37.432 182.394 37.432C182.962 37.432 183.442 37.52 183.834 37.696C184.226 37.872 184.522 38.132 184.722 38.476C184.922 38.812 185.022 39.224 185.022 39.712C185.022 40.048 184.966 40.38 184.854 40.708C184.75 41.028 184.586 41.356 184.362 41.692C184.146 42.028 183.862 42.376 183.51 42.736L180.954 45.436V45.16H184.998C185.15 45.16 185.262 45.196 185.334 45.268C185.414 45.332 185.454 45.432 185.454 45.568C185.454 45.712 185.414 45.82 185.334 45.892C185.262 45.964 185.15 46 184.998 46H180.45Z"/><path fill="#000" d="M314.406 46.108C313.942 46.108 313.474 46.04 313.002 45.904C312.538 45.768 312.134 45.568 311.79 45.304C311.686 45.232 311.618 45.152 311.586 45.064C311.554 44.968 311.546 44.88 311.562 44.8C311.586 44.712 311.63 44.64 311.694 44.584C311.758 44.52 311.834 44.484 311.922 44.476C312.018 44.468 312.122 44.5 312.234 44.572C312.586 44.804 312.938 44.972 313.29 45.076C313.642 45.18 314.006 45.232 314.382 45.232C314.79 45.232 315.134 45.172 315.414 45.052C315.694 44.932 315.906 44.756 316.05 44.524C316.194 44.284 316.266 43.992 316.266 43.648C316.266 43.152 316.102 42.776 315.774 42.52C315.446 42.264 314.97 42.136 314.346 42.136H313.494C313.342 42.136 313.226 42.1 313.146 42.028C313.066 41.948 313.026 41.84 313.026 41.704C313.026 41.576 313.066 41.476 313.146 41.404C313.226 41.324 313.342 41.284 313.494 41.284H314.262C314.63 41.284 314.942 41.22 315.198 41.092C315.462 40.964 315.666 40.784 315.81 40.552C315.954 40.312 316.026 40.024 316.026 39.688C316.026 39.24 315.882 38.9 315.594 38.668C315.306 38.428 314.89 38.308 314.346 38.308C313.986 38.308 313.646 38.36 313.326 38.464C313.006 38.568 312.69 38.744 312.378 38.992C312.282 39.064 312.186 39.1 312.09 39.1C312.002 39.092 311.926 39.064 311.862 39.016C311.806 38.96 311.762 38.888 311.73 38.8C311.706 38.712 311.71 38.624 311.742 38.536C311.774 38.44 311.842 38.352 311.946 38.272C312.266 38 312.642 37.792 313.074 37.648C313.506 37.504 313.95 37.432 314.406 37.432C314.95 37.432 315.414 37.52 315.798 37.696C316.19 37.864 316.49 38.112 316.698 38.44C316.906 38.76 317.01 39.148 317.01 39.604C317.01 39.948 316.942 40.264 316.806 40.552C316.678 40.832 316.494 41.072 316.254 41.272C316.022 41.472 315.738 41.616 315.402 41.704V41.572C315.986 41.668 316.438 41.908 316.758 42.292C317.086 42.668 317.25 43.144 317.25 43.72C317.25 44.208 317.134 44.632 316.902 44.992C316.678 45.344 316.354 45.62 315.93 45.82C315.506 46.012 314.998 46.108 314.406 46.108Z"/><path stroke="#DBE9F5" stroke-width=".5" d="M52 15H317"/><circle cx="316.5" cy="14.5" r="14.5" fill="#00BD79"/><circle cx="48.5" cy="14.5" r="14.5" fill="#DBE9F5"/><circle cx="182.5" cy="14.5" r="14.5" fill="#DBE9F5"/></svg>