<svg width="64" height="64" viewBox="0 0 64 64" fill="none" xmlns="http://www.w3.org/2000/svg">
<g id="Group 364">
<g id="Group 323">
<circle id="Ellipse 41" cx="32" cy="32" r="31.75" fill="white" stroke="#FFE7A6" stroke-width="0.5"/>
</g>
<g id="Group 343">
<path id="Vector 43" d="M29.4181 39.6723L27.5674 36.5781C28.9554 36.4332 29.6644 37.008 29.8808 37.3588C30.5922 38.5118 29.851 39.4968 29.4181 39.6723Z" fill="#2255A4"/>
<path id="Vector 44" d="M28.9451 27.6519C27.9376 28.6404 25.2513 28.4655 23.8272 28.1964C23.6593 28.1647 23.5209 28.3407 23.5973 28.4936L27.0491 35.3971C27.083 35.4648 27.1512 35.5075 27.2269 35.5078C28.253 35.5115 30.8248 35.6023 31.2685 37.8211C31.6332 39.6441 30.2319 40.719 29.4528 41.0455C29.4294 41.0554 29.4047 41.0599 29.3793 41.0599H20.3641C20.2536 41.0599 20.1641 41.1494 20.1641 41.2599V47.8002C20.1641 47.9106 20.2536 48.0002 20.3641 48.0002H25.0536C25.1641 48.0002 25.2536 47.9106 25.2536 47.8002V44.036C25.2536 43.9255 25.3432 43.836 25.4536 43.836H26.4417C26.5521 43.836 26.6417 43.9255 26.6417 44.036V47.8002C26.6417 47.9106 26.7312 48.0002 26.8417 48.0002H31.5312C31.6417 48.0002 31.7312 47.9106 31.7312 47.8002V40.7972C31.7312 40.6867 31.8208 40.5972 31.9312 40.5972H32.2721C32.4831 40.5972 32.6721 40.1527 32.584 39.9609C32.2829 39.3053 32.1939 38.3556 32.1939 37.8211V29.6927C32.1939 29.5822 32.2835 29.4927 32.3939 29.4927H34.6464C34.7951 29.4927 34.8885 29.3376 34.8044 29.215C34.3555 28.5608 33.5245 27.9121 33.1193 27.6419C31.2795 26.5381 29.5921 27.1717 28.9662 27.6337C28.9586 27.6393 28.9519 27.6452 28.9451 27.6519Z" fill="#2255A4"/>
<path id="Vector 45" d="M22.779 39.376L17.4682 29.6395C17.4218 29.5545 17.3196 29.5128 17.2399 29.5679C16 30.4267 16 36.4842 16 37.821C16 39.3016 16.9254 39.6718 17.3881 39.6718H22.6034C22.7552 39.6718 22.8517 39.5093 22.779 39.376Z" fill="#2255A4"/>
<circle id="Ellipse 56" cx="26.1784" cy="22.0896" r="5.08955" fill="#2255A4"/>
<path id="Vector 46" d="M27.885 39.3822L22.0488 27.7098C22.0269 27.666 21.9892 27.6313 21.9434 27.6141C20.2191 26.9655 18.6397 27.8521 17.9585 28.4653C17.8927 28.5245 17.8795 28.6208 17.9216 28.6986L23.8088 39.5669C23.8437 39.6314 23.9112 39.6716 23.9846 39.6716H27.7061C27.8548 39.6716 27.9515 39.5152 27.885 39.3822Z" fill="#2255A4"/>
<path id="Vector 47" d="M40.5223 28.5674C39.0417 29.6778 35.2785 30.5724 33.582 30.8808V36.4331C33.9522 43.4659 38.3631 46.1495 40.5223 46.6122C46.0746 44.7614 47.4626 39.0549 47.4626 36.4331V30.8808C44.1313 30.5107 41.4477 29.1843 40.5223 28.5674Z" fill="#D6B268"/>
<path id="Vector" d="M39.1104 39.0823L37.5668 37.537C37.5264 37.4961 37.4783 37.4636 37.4253 37.4414C37.3723 37.4192 37.3155 37.4078 37.258 37.4078C37.2006 37.4078 37.1437 37.4192 37.0907 37.4414C37.0377 37.4636 36.9897 37.4961 36.9493 37.537C36.9084 37.5774 36.876 37.6255 36.8539 37.6786C36.8317 37.7316 36.8203 37.7885 36.8203 37.846C36.8203 37.9035 36.8317 37.9605 36.8539 38.0135C36.876 38.0666 36.9084 38.1147 36.9493 38.1551L38.7973 40.0051C38.9693 40.1773 39.2472 40.1773 39.4192 40.0051L44.0943 35.3293C44.1352 35.2889 44.1676 35.2408 44.1898 35.1877C44.2119 35.1347 44.2233 35.0777 44.2233 35.0202C44.2233 34.9627 44.2119 34.9058 44.1898 34.8527C44.1676 34.7997 44.1352 34.7516 44.0943 34.7112C44.054 34.6702 44.0059 34.6378 43.9529 34.6156C43.8999 34.5934 43.843 34.582 43.7856 34.582C43.7281 34.582 43.6713 34.5934 43.6183 34.6156C43.5653 34.6378 43.5172 34.6702 43.4768 34.7112L39.1104 39.0823Z" fill="white" stroke="white" stroke-width="0.5"/>
</g>
</g>
</svg>
