<svg width="70" height="70" viewBox="0 0 70 70" fill="none" xmlns="http://www.w3.org/2000/svg">
<g clip-path="url(#clip0_16_2984)">
<path d="M45.7252 34.6799C45.7804 40.5708 50.9427 42.531 50.9998 42.556C50.956 42.6942 50.1749 45.3496 48.2802 48.0923C46.6422 50.4636 44.942 52.8262 42.2639 52.8751C39.6327 52.9231 38.7864 51.3296 35.7779 51.3296C32.7703 51.3296 31.8302 52.8262 29.3392 52.9231C26.7542 53.0201 24.7857 50.359 23.1342 47.9964C19.7592 43.1637 17.18 34.3402 20.6432 28.3842C22.3635 25.4264 25.4382 23.5535 28.7752 23.5055C31.3135 23.4576 33.7095 25.197 35.2613 25.197C36.812 25.197 39.7237 23.1052 42.7845 23.4124C44.0658 23.4652 47.6628 23.9249 49.9724 27.2735C49.7862 27.3878 45.6805 29.7551 45.7252 34.68M40.7798 20.2151C42.1523 18.5697 43.0759 16.2792 42.8239 14C40.8457 14.0787 38.4537 15.3057 37.0347 16.9501C35.763 18.4065 34.6494 20.7373 34.9499 22.9714C37.1549 23.1404 39.4074 21.8615 40.7799 20.2151" fill="black"/>
</g>
<circle cx="35" cy="35" r="34.5" stroke="#DBE9F5"/>
<defs>
<clipPath id="clip0_16_2984">
<rect width="32" height="39" fill="white" transform="translate(19 14)"/>
</clipPath>
</defs>
</svg>
