<svg xmlns="http://www.w3.org/2000/svg" width="14" height="21" fill="none" viewBox="0 0 14 21"><path fill="#939EAA" d="M6.66667 0C4.10667 0 2 2.07375 2 4.59375V4.59375C2 6.40531 1.82672 8.71254 0.929648 10.2864C0.333772 11.3318 0 12.5277 0 13.7812C0 17.7581 3.29333 21 7.33333 21C9.22892 21 11.1071 20.606 12.8133 19.8458C13.484 19.5469 13.6971 18.7255 13.3253 18.0923V18.0923C12.9598 17.4698 12.165 17.2637 11.4985 17.5411C10.182 18.0891 8.76554 18.375 7.33333 18.375C4.74667 18.375 2.66667 16.3406 2.66667 13.7812C2.6643 12.7703 3.00173 11.787 3.62637 10.9846C4.25101 10.1822 5.12776 9.60569 6.12 9.345L11.7882 7.84568C12.4925 7.65938 12.9099 6.93464 12.7175 6.23194V6.23194C12.5271 5.53627 11.8106 5.125 11.1138 5.31149L7.01545 6.40848C6.63552 6.51017 6.22815 6.56132 5.86772 6.40395C5.15981 6.09487 4.66667 5.41127 4.66667 4.59375C4.66667 3.49125 5.54667 2.625 6.66667 2.625V2.625C7.25279 2.625 7.89854 2.49263 8.19533 1.9872L8.31119 1.78989C8.69065 1.14368 8.46808 0.291426 7.73801 0.122424C7.38707 0.0411882 7.02687 0 6.66667 0Z"/></svg>