<svg width="64" height="64" viewBox="0 0 64 64" fill="none" xmlns="http://www.w3.org/2000/svg">
<g id="Group 372">
<circle id="Ellipse 43" cx="32" cy="32" r="31.75" fill="white" stroke="#FFE7A6" stroke-width="0.5"/>
<g id="Group 371">
<circle id="Ellipse 53" cx="17.756" cy="37.3658" r="1.90244" fill="url(#paint0_linear_16_12652)"/>
<circle id="Ellipse 54" cx="43.4391" cy="37.3658" r="1.90244" fill="url(#paint1_linear_16_12652)"/>
<path id="Vector" d="M27.0433 25.0002C24.7351 24.9937 22.1351 25.1884 19.1093 25.677C18.7521 25.7293 15.3112 27.7874 14.3835 29.2078C13.4558 30.6283 13.1385 33.3322 13.1385 33.3322C12.888 34.4395 13.0401 36.2698 13.11 36.4477C13.2043 36.833 13.737 37.1564 14.6518 37.3902C14.7585 35.611 16.1647 34.2246 17.865 34.2224C19.6453 34.2224 21.0884 35.7357 21.0884 37.6022C21.0873 37.7512 21.0767 37.9 21.0568 38.0476C21.1044 38.0483 21.1584 38.0496 21.2035 38.0502L40.4845 38.2183C40.448 38.0151 40.4293 37.8089 40.4287 37.6022C40.4287 35.7357 41.872 34.2224 43.6521 34.2224C45.4323 34.2224 46.8754 35.7357 46.8754 37.6022C46.8754 37.8276 46.854 38.0525 46.8113 38.2734L51.8225 38.3171C51.9287 36.3896 52.3753 34.3653 51.2565 32.6796C50.8168 32.0172 48.6834 30.8175 43.2762 29.92C40.4825 28.449 37.756 26.781 34.7867 25.8252C32.4973 25.3491 30.0113 25.0083 27.0433 25.0002ZM25.6575 26.0127C26.1409 26.0165 26.5843 26.0372 26.948 26.0812L27.5352 30.1667C24.1966 29.7363 20.7946 29.3502 18.9962 27.8431C19.0244 27.3783 19.6377 26.7056 20.3263 26.4484C20.7164 26.3027 23.5631 25.9967 25.6575 26.0127ZM28.4478 26.0421C30.4633 26.0644 33.4466 26.2694 35.499 27.22C36.4823 27.6974 38.3335 28.8147 39.5715 29.8013L39.0598 30.6914C35.699 30.5326 31.2199 30.3363 29.3817 30.1186L28.4478 26.0421Z" fill="#2255A4"/>
</g>
</g>
<defs>
<linearGradient id="paint0_linear_16_12652" x1="17.756" y1="35.4634" x2="17.756" y2="39.2683" gradientUnits="userSpaceOnUse">
<stop stop-color="#D6B268"/>
<stop offset="1" stop-color="#D6B268" stop-opacity="0"/>
</linearGradient>
<linearGradient id="paint1_linear_16_12652" x1="43.4391" y1="35.4634" x2="43.4391" y2="39.2683" gradientUnits="userSpaceOnUse">
<stop stop-color="#D6B268"/>
<stop offset="1" stop-color="#D6B268" stop-opacity="0"/>
</linearGradient>
</defs>
</svg>
