<svg xmlns="http://www.w3.org/2000/svg" width="27" height="17" fill="none" viewBox="0 0 27 17"><path fill="#000" stroke="#000" d="M25 7.59244H4.41244L9.29244 2.71244C9.68244 2.32244 9.68244 1.68244 9.29244 1.29244C9.19993 1.19974 9.09004 1.12619 8.96907 1.07601C8.8481 1.02583 8.71841 1 8.58744 1C8.45648 1 8.32679 1.02583 8.20582 1.07601C8.08485 1.12619 7.97496 1.19974 7.88244 1.29244L1.29244 7.88244C1.19974 7.97496 1.12619 8.08485 1.07601 8.20582C1.02583 8.32679 1 8.45648 1 8.58744C1 8.71841 1.02583 8.84809 1.07601 8.96907C1.12619 9.09004 1.19974 9.19993 1.29244 9.29244L7.88244 15.8824C7.97503 15.975 8.08494 16.0485 8.2059 16.0986C8.32687 16.1487 8.45651 16.1745 8.58744 16.1745C8.71837 16.1745 8.84802 16.1487 8.96899 16.0986C9.08995 16.0485 9.19986 15.975 9.29244 15.8824C9.38503 15.7899 9.45847 15.68 9.50857 15.559C9.55868 15.438 9.58447 15.3084 9.58447 15.1774C9.58447 15.0465 9.55868 14.9169 9.50857 14.7959C9.45847 14.6749 9.38503 14.565 9.29244 14.4724L4.41244 9.59244H25C25.55 9.59244 26 9.05 26 8.5C26 7.95 25.55 7.59244 25 7.59244Z"/></svg>