<svg width="383" height="151" viewBox="0 0 383 151" fill="none" xmlns="http://www.w3.org/2000/svg">
<rect y="1" width="383" height="150" rx="10" fill="url(#paint0_linear_183_2784)"/>
<mask id="mask0_183_2784" style="mask-type:alpha" maskUnits="userSpaceOnUse" x="0" y="1" width="383" height="150">
<rect y="1" width="383" height="150" rx="10" fill="#2688BE"/>
</mask>
<g mask="url(#mask0_183_2784)">
<g filter="url(#filter0_d_183_2784)">
<path d="M-12.5 57.6327L71 -13.2856L-6.5 -4.10197L-12.5 57.6327Z" fill="url(#paint1_linear_183_2784)"/>
</g>
</g>
<path d="M37.466 52.144C37.13 52.144 36.872 52.048 36.692 51.856C36.512 51.664 36.422 51.4 36.422 51.064V40.246C36.422 39.898 36.518 39.634 36.71 39.454C36.902 39.262 37.166 39.166 37.502 39.166C37.802 39.166 38.036 39.226 38.204 39.346C38.384 39.454 38.546 39.646 38.69 39.922L43.136 48.148H42.56L47.006 39.922C47.15 39.646 47.306 39.454 47.474 39.346C47.642 39.226 47.876 39.166 48.176 39.166C48.512 39.166 48.77 39.262 48.95 39.454C49.13 39.634 49.22 39.898 49.22 40.246V51.064C49.22 51.4 49.13 51.664 48.95 51.856C48.782 52.048 48.524 52.144 48.176 52.144C47.84 52.144 47.582 52.048 47.402 51.856C47.222 51.664 47.132 51.4 47.132 51.064V42.73H47.528L43.748 49.624C43.628 49.828 43.502 49.978 43.37 50.074C43.238 50.17 43.058 50.218 42.83 50.218C42.602 50.218 42.416 50.17 42.272 50.074C42.128 49.966 42.002 49.816 41.894 49.624L38.078 42.712H38.51V51.064C38.51 51.4 38.42 51.664 38.24 51.856C38.072 52.048 37.814 52.144 37.466 52.144ZM54.695 52.18C54.059 52.18 53.489 52.06 52.985 51.82C52.493 51.568 52.103 51.232 51.815 50.812C51.539 50.392 51.401 49.918 51.401 49.39C51.401 48.742 51.569 48.232 51.905 47.86C52.241 47.476 52.787 47.2 53.543 47.032C54.299 46.864 55.313 46.78 56.585 46.78H57.485V48.076H56.603C55.859 48.076 55.265 48.112 54.821 48.184C54.377 48.256 54.059 48.382 53.867 48.562C53.687 48.73 53.597 48.97 53.597 49.282C53.597 49.678 53.735 50.002 54.011 50.254C54.287 50.506 54.671 50.632 55.163 50.632C55.559 50.632 55.907 50.542 56.207 50.362C56.519 50.17 56.765 49.912 56.945 49.588C57.125 49.264 57.215 48.892 57.215 48.472V46.402C57.215 45.802 57.083 45.37 56.819 45.106C56.555 44.842 56.111 44.71 55.487 44.71C55.139 44.71 54.761 44.752 54.353 44.836C53.957 44.92 53.537 45.064 53.093 45.268C52.865 45.376 52.661 45.406 52.481 45.358C52.313 45.31 52.181 45.214 52.085 45.07C51.989 44.914 51.941 44.746 51.941 44.566C51.941 44.386 51.989 44.212 52.085 44.044C52.181 43.864 52.343 43.732 52.571 43.648C53.123 43.42 53.651 43.258 54.155 43.162C54.671 43.066 55.139 43.018 55.559 43.018C56.423 43.018 57.131 43.15 57.683 43.414C58.247 43.678 58.667 44.08 58.943 44.62C59.219 45.148 59.357 45.832 59.357 46.672V50.992C59.357 51.364 59.267 51.652 59.087 51.856C58.907 52.048 58.649 52.144 58.313 52.144C57.977 52.144 57.713 52.048 57.521 51.856C57.341 51.652 57.251 51.364 57.251 50.992V50.128H57.395C57.311 50.548 57.143 50.914 56.891 51.226C56.651 51.526 56.345 51.76 55.973 51.928C55.601 52.096 55.175 52.18 54.695 52.18ZM62.7567 52.144C62.3967 52.144 62.1207 52.048 61.9287 51.856C61.7367 51.652 61.6407 51.364 61.6407 50.992V44.188C61.6407 43.816 61.7367 43.534 61.9287 43.342C62.1207 43.15 62.3907 43.054 62.7387 43.054C63.0867 43.054 63.3567 43.15 63.5487 43.342C63.7407 43.534 63.8367 43.816 63.8367 44.188V45.412L63.6387 44.962C63.9027 44.326 64.3107 43.846 64.8627 43.522C65.4267 43.186 66.0627 43.018 66.7707 43.018C67.4787 43.018 68.0607 43.15 68.5167 43.414C68.9727 43.678 69.3147 44.08 69.5427 44.62C69.7707 45.148 69.8847 45.82 69.8847 46.636V50.992C69.8847 51.364 69.7887 51.652 69.5967 51.856C69.4047 52.048 69.1287 52.144 68.7687 52.144C68.4087 52.144 68.1267 52.048 67.9227 51.856C67.7307 51.652 67.6347 51.364 67.6347 50.992V46.744C67.6347 46.06 67.5027 45.562 67.2387 45.25C66.9867 44.938 66.5907 44.782 66.0507 44.782C65.3907 44.782 64.8627 44.992 64.4667 45.412C64.0827 45.82 63.8907 46.366 63.8907 47.05V50.992C63.8907 51.76 63.5127 52.144 62.7567 52.144ZM75.392 52.18C74.876 52.18 74.33 52.126 73.754 52.018C73.178 51.91 72.662 51.724 72.206 51.46C72.014 51.34 71.876 51.202 71.792 51.046C71.72 50.878 71.69 50.716 71.702 50.56C71.726 50.392 71.786 50.248 71.882 50.128C71.99 50.008 72.122 49.93 72.278 49.894C72.446 49.858 72.626 49.888 72.818 49.984C73.298 50.212 73.748 50.374 74.168 50.47C74.588 50.554 75.002 50.596 75.41 50.596C75.986 50.596 76.412 50.5 76.688 50.308C76.976 50.104 77.12 49.84 77.12 49.516C77.12 49.24 77.024 49.03 76.832 48.886C76.652 48.73 76.376 48.616 76.004 48.544L74.204 48.202C73.46 48.058 72.89 47.788 72.494 47.392C72.11 46.984 71.918 46.462 71.918 45.826C71.918 45.25 72.074 44.752 72.386 44.332C72.71 43.912 73.154 43.588 73.718 43.36C74.282 43.132 74.93 43.018 75.662 43.018C76.19 43.018 76.682 43.078 77.138 43.198C77.606 43.306 78.056 43.48 78.488 43.72C78.668 43.816 78.788 43.942 78.848 44.098C78.92 44.254 78.938 44.416 78.902 44.584C78.866 44.74 78.794 44.884 78.686 45.016C78.578 45.136 78.44 45.214 78.272 45.25C78.116 45.274 77.936 45.238 77.732 45.142C77.36 44.95 77 44.812 76.652 44.728C76.316 44.644 75.992 44.602 75.68 44.602C75.092 44.602 74.654 44.704 74.366 44.908C74.09 45.112 73.952 45.382 73.952 45.718C73.952 45.97 74.036 46.18 74.204 46.348C74.372 46.516 74.63 46.63 74.978 46.69L76.778 47.032C77.558 47.176 78.146 47.44 78.542 47.824C78.95 48.208 79.154 48.724 79.154 49.372C79.154 50.248 78.812 50.938 78.128 51.442C77.444 51.934 76.532 52.18 75.392 52.18ZM82.0751 52.126C81.7151 52.126 81.4391 52.018 81.2471 51.802C81.0551 51.586 80.9591 51.286 80.9591 50.902V44.296C80.9591 43.9 81.0551 43.6 81.2471 43.396C81.4391 43.18 81.7151 43.072 82.0751 43.072C82.4351 43.072 82.7111 43.18 82.9031 43.396C83.1071 43.6 83.2091 43.9 83.2091 44.296V50.902C83.2091 51.286 83.1131 51.586 82.9211 51.802C82.7291 52.018 82.4471 52.126 82.0751 52.126ZM82.0751 41.398C81.6551 41.398 81.3251 41.296 81.0851 41.092C80.8571 40.876 80.7431 40.582 80.7431 40.21C80.7431 39.826 80.8571 39.532 81.0851 39.328C81.3251 39.124 81.6551 39.022 82.0751 39.022C82.5071 39.022 82.8371 39.124 83.0651 39.328C83.2931 39.532 83.4071 39.826 83.4071 40.21C83.4071 40.582 83.2931 40.876 83.0651 41.092C82.8371 41.296 82.5071 41.398 82.0751 41.398ZM86.627 48.346C86.399 48.346 86.219 48.274 86.087 48.13C85.967 47.986 85.895 47.782 85.871 47.518L85.331 40.642C85.295 40.198 85.391 39.844 85.619 39.58C85.847 39.304 86.183 39.166 86.627 39.166C87.059 39.166 87.383 39.304 87.599 39.58C87.827 39.844 87.923 40.198 87.887 40.642L87.347 47.518C87.335 47.782 87.263 47.986 87.131 48.13C87.011 48.274 86.843 48.346 86.627 48.346ZM86.627 52.09C86.219 52.09 85.889 51.964 85.637 51.712C85.397 51.46 85.277 51.136 85.277 50.74C85.277 50.356 85.397 50.044 85.637 49.804C85.889 49.552 86.219 49.426 86.627 49.426C87.047 49.426 87.371 49.552 87.599 49.804C87.839 50.044 87.959 50.356 87.959 50.74C87.959 51.136 87.839 51.46 87.599 51.712C87.371 51.964 87.047 52.09 86.627 52.09ZM95.2405 52.144C94.9525 52.144 94.7185 52.078 94.5385 51.946C94.3705 51.814 94.2685 51.64 94.2325 51.424C94.1965 51.196 94.2385 50.944 94.3585 50.668L99.1105 40.138C99.2665 39.79 99.4525 39.544 99.6685 39.4C99.8965 39.244 100.155 39.166 100.443 39.166C100.719 39.166 100.965 39.244 101.181 39.4C101.409 39.544 101.601 39.79 101.757 40.138L106.527 50.668C106.659 50.944 106.707 51.196 106.671 51.424C106.635 51.652 106.533 51.832 106.365 51.964C106.197 52.084 105.975 52.144 105.699 52.144C105.363 52.144 105.099 52.066 104.907 51.91C104.727 51.742 104.565 51.49 104.421 51.154L103.251 48.436L104.223 49.066H96.6265L97.5985 48.436L96.4465 51.154C96.2905 51.502 96.1285 51.754 95.9605 51.91C95.7925 52.066 95.5525 52.144 95.2405 52.144ZM100.407 41.812L97.8865 47.806L97.4185 47.23H103.431L102.981 47.806L100.443 41.812H100.407ZM109.445 52.144C109.073 52.144 108.785 52.048 108.581 51.856C108.389 51.652 108.293 51.364 108.293 50.992V44.188C108.293 43.816 108.389 43.534 108.581 43.342C108.773 43.15 109.043 43.054 109.391 43.054C109.739 43.054 110.009 43.15 110.201 43.342C110.393 43.534 110.489 43.816 110.489 44.188V45.322H110.309C110.477 44.602 110.807 44.056 111.299 43.684C111.791 43.312 112.445 43.09 113.261 43.018C113.513 42.994 113.711 43.06 113.855 43.216C114.011 43.36 114.101 43.588 114.125 43.9C114.149 44.2 114.077 44.446 113.909 44.638C113.753 44.818 113.513 44.926 113.189 44.962L112.793 44.998C112.061 45.07 111.509 45.298 111.137 45.682C110.765 46.054 110.579 46.582 110.579 47.266V50.992C110.579 51.364 110.483 51.652 110.291 51.856C110.099 52.048 109.817 52.144 109.445 52.144ZM119.539 52.18C118.543 52.18 117.685 51.994 116.965 51.622C116.245 51.25 115.687 50.722 115.291 50.038C114.907 49.354 114.715 48.544 114.715 47.608C114.715 46.696 114.901 45.898 115.273 45.214C115.657 44.53 116.179 43.996 116.839 43.612C117.511 43.216 118.273 43.018 119.125 43.018C119.749 43.018 120.307 43.12 120.799 43.324C121.303 43.528 121.729 43.822 122.077 44.206C122.437 44.59 122.707 45.058 122.887 45.61C123.079 46.15 123.175 46.762 123.175 47.446C123.175 47.662 123.097 47.83 122.941 47.95C122.797 48.058 122.587 48.112 122.311 48.112H116.533V46.816H121.591L121.303 47.086C121.303 46.534 121.219 46.072 121.051 45.7C120.895 45.328 120.661 45.046 120.349 44.854C120.049 44.65 119.671 44.548 119.215 44.548C118.711 44.548 118.279 44.668 117.919 44.908C117.571 45.136 117.301 45.466 117.109 45.898C116.929 46.318 116.839 46.822 116.839 47.41V47.536C116.839 48.52 117.067 49.258 117.523 49.75C117.991 50.23 118.675 50.47 119.575 50.47C119.887 50.47 120.235 50.434 120.619 50.362C121.015 50.278 121.387 50.14 121.735 49.948C121.987 49.804 122.209 49.744 122.401 49.768C122.593 49.78 122.743 49.846 122.851 49.966C122.971 50.086 123.043 50.236 123.067 50.416C123.091 50.584 123.055 50.758 122.959 50.938C122.875 51.118 122.725 51.274 122.509 51.406C122.089 51.67 121.603 51.868 121.051 52C120.511 52.12 120.007 52.18 119.539 52.18ZM134.236 52.144C133.864 52.144 133.576 52.042 133.372 51.838C133.18 51.622 133.084 51.322 133.084 50.938V45.466L133.57 46.852L129.232 40.75C129.076 40.534 129.004 40.306 129.016 40.066C129.04 39.814 129.142 39.604 129.322 39.436C129.502 39.256 129.754 39.166 130.078 39.166C130.318 39.166 130.534 39.226 130.726 39.346C130.93 39.466 131.122 39.652 131.302 39.904L134.524 44.476H134.02L137.26 39.904C137.452 39.64 137.638 39.454 137.818 39.346C137.998 39.226 138.22 39.166 138.484 39.166C138.796 39.166 139.036 39.25 139.204 39.418C139.384 39.574 139.474 39.772 139.474 40.012C139.486 40.252 139.402 40.504 139.222 40.768L134.92 46.852L135.388 45.466V50.938C135.388 51.742 135.004 52.144 134.236 52.144ZM143.491 52.18C142.579 52.18 141.787 51.994 141.115 51.622C140.443 51.25 139.921 50.722 139.549 50.038C139.177 49.342 138.991 48.526 138.991 47.59C138.991 46.882 139.093 46.252 139.297 45.7C139.513 45.136 139.819 44.656 140.215 44.26C140.611 43.852 141.085 43.546 141.637 43.342C142.189 43.126 142.807 43.018 143.491 43.018C144.403 43.018 145.195 43.204 145.867 43.576C146.539 43.948 147.061 44.476 147.433 45.16C147.805 45.844 147.991 46.654 147.991 47.59C147.991 48.298 147.883 48.934 147.667 49.498C147.463 50.062 147.163 50.548 146.767 50.956C146.371 51.352 145.897 51.658 145.345 51.874C144.793 52.078 144.175 52.18 143.491 52.18ZM143.491 50.47C143.935 50.47 144.325 50.362 144.661 50.146C144.997 49.93 145.255 49.612 145.435 49.192C145.627 48.76 145.723 48.226 145.723 47.59C145.723 46.63 145.519 45.916 145.111 45.448C144.703 44.968 144.163 44.728 143.491 44.728C143.047 44.728 142.657 44.836 142.321 45.052C141.985 45.256 141.721 45.574 141.529 46.006C141.349 46.426 141.259 46.954 141.259 47.59C141.259 48.538 141.463 49.258 141.871 49.75C142.279 50.23 142.819 50.47 143.491 50.47ZM153.034 52.18C152.302 52.18 151.696 52.048 151.216 51.784C150.736 51.508 150.376 51.1 150.136 50.56C149.908 50.02 149.794 49.348 149.794 48.544V44.188C149.794 43.804 149.89 43.522 150.082 43.342C150.274 43.15 150.55 43.054 150.91 43.054C151.27 43.054 151.546 43.15 151.738 43.342C151.942 43.522 152.044 43.804 152.044 44.188V48.58C152.044 49.204 152.17 49.666 152.422 49.966C152.674 50.266 153.076 50.416 153.628 50.416C154.228 50.416 154.72 50.212 155.104 49.804C155.488 49.384 155.68 48.832 155.68 48.148V44.188C155.68 43.804 155.776 43.522 155.968 43.342C156.16 43.15 156.436 43.054 156.796 43.054C157.156 43.054 157.432 43.15 157.624 43.342C157.828 43.522 157.93 43.804 157.93 44.188V50.992C157.93 51.76 157.564 52.144 156.832 52.144C156.484 52.144 156.214 52.048 156.022 51.856C155.83 51.652 155.734 51.364 155.734 50.992V49.624L155.986 50.164C155.734 50.812 155.35 51.31 154.834 51.658C154.33 52.006 153.73 52.18 153.034 52.18ZM166.274 55.384C165.914 55.384 165.638 55.288 165.446 55.096C165.254 54.904 165.158 54.622 165.158 54.25V44.188C165.158 43.816 165.254 43.534 165.446 43.342C165.638 43.15 165.908 43.054 166.256 43.054C166.616 43.054 166.892 43.15 167.084 43.342C167.276 43.534 167.372 43.816 167.372 44.188V45.592L167.174 45.052C167.354 44.44 167.72 43.948 168.272 43.576C168.836 43.204 169.49 43.018 170.234 43.018C171.002 43.018 171.674 43.204 172.25 43.576C172.838 43.948 173.294 44.476 173.618 45.16C173.942 45.832 174.104 46.642 174.104 47.59C174.104 48.526 173.942 49.342 173.618 50.038C173.294 50.722 172.844 51.25 172.268 51.622C171.692 51.994 171.014 52.18 170.234 52.18C169.502 52.18 168.86 52 168.308 51.64C167.756 51.268 167.384 50.788 167.192 50.2H167.408V54.25C167.408 54.622 167.306 54.904 167.102 55.096C166.91 55.288 166.634 55.384 166.274 55.384ZM169.604 50.47C170.048 50.47 170.438 50.362 170.774 50.146C171.11 49.93 171.368 49.612 171.548 49.192C171.74 48.76 171.836 48.226 171.836 47.59C171.836 46.63 171.632 45.916 171.224 45.448C170.816 44.968 170.276 44.728 169.604 44.728C169.16 44.728 168.77 44.836 168.434 45.052C168.098 45.256 167.834 45.574 167.642 46.006C167.462 46.426 167.372 46.954 167.372 47.59C167.372 48.538 167.576 49.258 167.984 49.75C168.392 50.23 168.932 50.47 169.604 50.47ZM177.103 52.144C176.731 52.144 176.443 52.048 176.239 51.856C176.047 51.652 175.951 51.364 175.951 50.992V44.188C175.951 43.816 176.047 43.534 176.239 43.342C176.431 43.15 176.701 43.054 177.049 43.054C177.397 43.054 177.667 43.15 177.859 43.342C178.051 43.534 178.147 43.816 178.147 44.188V45.322H177.967C178.135 44.602 178.465 44.056 178.957 43.684C179.449 43.312 180.103 43.09 180.919 43.018C181.171 42.994 181.369 43.06 181.513 43.216C181.669 43.36 181.759 43.588 181.783 43.9C181.807 44.2 181.735 44.446 181.567 44.638C181.411 44.818 181.171 44.926 180.847 44.962L180.451 44.998C179.719 45.07 179.167 45.298 178.795 45.682C178.423 46.054 178.237 46.582 178.237 47.266V50.992C178.237 51.364 178.141 51.652 177.949 51.856C177.757 52.048 177.475 52.144 177.103 52.144ZM186.873 52.18C185.961 52.18 185.169 51.994 184.497 51.622C183.825 51.25 183.303 50.722 182.931 50.038C182.559 49.342 182.373 48.526 182.373 47.59C182.373 46.882 182.475 46.252 182.679 45.7C182.895 45.136 183.201 44.656 183.597 44.26C183.993 43.852 184.467 43.546 185.019 43.342C185.571 43.126 186.189 43.018 186.873 43.018C187.785 43.018 188.577 43.204 189.249 43.576C189.921 43.948 190.443 44.476 190.815 45.16C191.187 45.844 191.373 46.654 191.373 47.59C191.373 48.298 191.265 48.934 191.049 49.498C190.845 50.062 190.545 50.548 190.149 50.956C189.753 51.352 189.279 51.658 188.727 51.874C188.175 52.078 187.557 52.18 186.873 52.18ZM186.873 50.47C187.317 50.47 187.707 50.362 188.043 50.146C188.379 49.93 188.637 49.612 188.817 49.192C189.009 48.76 189.105 48.226 189.105 47.59C189.105 46.63 188.901 45.916 188.493 45.448C188.085 44.968 187.545 44.728 186.873 44.728C186.429 44.728 186.039 44.836 185.703 45.052C185.367 45.256 185.103 45.574 184.911 46.006C184.731 46.426 184.641 46.954 184.641 47.59C184.641 48.538 184.845 49.258 185.253 49.75C185.661 50.23 186.201 50.47 186.873 50.47ZM197.175 52.18C196.395 52.18 195.741 52.048 195.213 51.784C194.697 51.52 194.313 51.136 194.061 50.632C193.809 50.116 193.683 49.48 193.683 48.724V44.89H192.747C192.459 44.89 192.237 44.818 192.081 44.674C191.925 44.518 191.847 44.308 191.847 44.044C191.847 43.768 191.925 43.558 192.081 43.414C192.237 43.27 192.459 43.198 192.747 43.198H193.683V41.56C193.683 41.188 193.779 40.906 193.971 40.714C194.175 40.522 194.457 40.426 194.817 40.426C195.177 40.426 195.453 40.522 195.645 40.714C195.837 40.906 195.933 41.188 195.933 41.56V43.198H197.841C198.129 43.198 198.351 43.27 198.507 43.414C198.663 43.558 198.741 43.768 198.741 44.044C198.741 44.308 198.663 44.518 198.507 44.674C198.351 44.818 198.129 44.89 197.841 44.89H195.933V48.598C195.933 49.174 196.059 49.606 196.311 49.894C196.563 50.182 196.971 50.326 197.535 50.326C197.739 50.326 197.919 50.308 198.075 50.272C198.231 50.236 198.369 50.212 198.489 50.2C198.633 50.188 198.753 50.236 198.849 50.344C198.945 50.44 198.993 50.644 198.993 50.956C198.993 51.196 198.951 51.412 198.867 51.604C198.795 51.784 198.657 51.91 198.453 51.982C198.297 52.03 198.093 52.072 197.841 52.108C197.589 52.156 197.367 52.18 197.175 52.18ZM204.301 52.18C203.305 52.18 202.447 51.994 201.727 51.622C201.007 51.25 200.449 50.722 200.053 50.038C199.669 49.354 199.477 48.544 199.477 47.608C199.477 46.696 199.663 45.898 200.035 45.214C200.419 44.53 200.941 43.996 201.601 43.612C202.273 43.216 203.035 43.018 203.887 43.018C204.511 43.018 205.069 43.12 205.561 43.324C206.065 43.528 206.491 43.822 206.839 44.206C207.199 44.59 207.469 45.058 207.649 45.61C207.841 46.15 207.937 46.762 207.937 47.446C207.937 47.662 207.859 47.83 207.703 47.95C207.559 48.058 207.349 48.112 207.073 48.112H201.295V46.816H206.353L206.065 47.086C206.065 46.534 205.981 46.072 205.813 45.7C205.657 45.328 205.423 45.046 205.111 44.854C204.811 44.65 204.433 44.548 203.977 44.548C203.473 44.548 203.041 44.668 202.681 44.908C202.333 45.136 202.063 45.466 201.871 45.898C201.691 46.318 201.601 46.822 201.601 47.41V47.536C201.601 48.52 201.829 49.258 202.285 49.75C202.753 50.23 203.437 50.47 204.337 50.47C204.649 50.47 204.997 50.434 205.381 50.362C205.777 50.278 206.149 50.14 206.497 49.948C206.749 49.804 206.971 49.744 207.163 49.768C207.355 49.78 207.505 49.846 207.613 49.966C207.733 50.086 207.805 50.236 207.829 50.416C207.853 50.584 207.817 50.758 207.721 50.938C207.637 51.118 207.487 51.274 207.271 51.406C206.851 51.67 206.365 51.868 205.813 52C205.273 52.12 204.769 52.18 204.301 52.18ZM213.787 52.18C212.863 52.18 212.059 51.994 211.375 51.622C210.691 51.238 210.163 50.698 209.791 50.002C209.419 49.306 209.233 48.49 209.233 47.554C209.233 46.846 209.335 46.216 209.539 45.664C209.755 45.1 210.061 44.626 210.457 44.242C210.853 43.846 211.333 43.546 211.897 43.342C212.461 43.126 213.091 43.018 213.787 43.018C214.183 43.018 214.609 43.072 215.065 43.18C215.533 43.288 215.971 43.468 216.379 43.72C216.571 43.84 216.697 43.984 216.757 44.152C216.817 44.32 216.829 44.494 216.793 44.674C216.757 44.842 216.679 44.992 216.559 45.124C216.451 45.244 216.313 45.322 216.145 45.358C215.977 45.382 215.791 45.34 215.587 45.232C215.323 45.076 215.053 44.962 214.777 44.89C214.501 44.806 214.237 44.764 213.985 44.764C213.589 44.764 213.241 44.83 212.941 44.962C212.641 45.082 212.383 45.262 212.167 45.502C211.963 45.73 211.807 46.018 211.699 46.366C211.591 46.714 211.537 47.116 211.537 47.572C211.537 48.46 211.747 49.162 212.167 49.678C212.599 50.182 213.205 50.434 213.985 50.434C214.237 50.434 214.495 50.398 214.759 50.326C215.035 50.254 215.311 50.14 215.587 49.984C215.791 49.876 215.971 49.84 216.127 49.876C216.295 49.912 216.433 49.996 216.541 50.128C216.649 50.248 216.715 50.398 216.739 50.578C216.763 50.746 216.739 50.914 216.667 51.082C216.607 51.25 216.487 51.388 216.307 51.496C215.911 51.736 215.491 51.91 215.047 52.018C214.603 52.126 214.183 52.18 213.787 52.18ZM222.276 52.18C221.496 52.18 220.842 52.048 220.314 51.784C219.798 51.52 219.414 51.136 219.162 50.632C218.91 50.116 218.784 49.48 218.784 48.724V44.89H217.848C217.56 44.89 217.338 44.818 217.182 44.674C217.026 44.518 216.948 44.308 216.948 44.044C216.948 43.768 217.026 43.558 217.182 43.414C217.338 43.27 217.56 43.198 217.848 43.198H218.784V41.56C218.784 41.188 218.88 40.906 219.072 40.714C219.276 40.522 219.558 40.426 219.918 40.426C220.278 40.426 220.554 40.522 220.746 40.714C220.938 40.906 221.034 41.188 221.034 41.56V43.198H222.942C223.23 43.198 223.452 43.27 223.608 43.414C223.764 43.558 223.842 43.768 223.842 44.044C223.842 44.308 223.764 44.518 223.608 44.674C223.452 44.818 223.23 44.89 222.942 44.89H221.034V48.598C221.034 49.174 221.16 49.606 221.412 49.894C221.664 50.182 222.072 50.326 222.636 50.326C222.84 50.326 223.02 50.308 223.176 50.272C223.332 50.236 223.47 50.212 223.59 50.2C223.734 50.188 223.854 50.236 223.95 50.344C224.046 50.44 224.094 50.644 224.094 50.956C224.094 51.196 224.052 51.412 223.968 51.604C223.896 51.784 223.758 51.91 223.554 51.982C223.398 52.03 223.194 52.072 222.942 52.108C222.69 52.156 222.468 52.18 222.276 52.18ZM229.403 52.18C228.407 52.18 227.549 51.994 226.829 51.622C226.109 51.25 225.551 50.722 225.155 50.038C224.771 49.354 224.579 48.544 224.579 47.608C224.579 46.696 224.765 45.898 225.137 45.214C225.521 44.53 226.043 43.996 226.703 43.612C227.375 43.216 228.137 43.018 228.989 43.018C229.613 43.018 230.171 43.12 230.663 43.324C231.167 43.528 231.593 43.822 231.941 44.206C232.301 44.59 232.571 45.058 232.751 45.61C232.943 46.15 233.039 46.762 233.039 47.446C233.039 47.662 232.961 47.83 232.805 47.95C232.661 48.058 232.451 48.112 232.175 48.112H226.397V46.816H231.455L231.167 47.086C231.167 46.534 231.083 46.072 230.915 45.7C230.759 45.328 230.525 45.046 230.213 44.854C229.913 44.65 229.535 44.548 229.079 44.548C228.575 44.548 228.143 44.668 227.783 44.908C227.435 45.136 227.165 45.466 226.973 45.898C226.793 46.318 226.703 46.822 226.703 47.41V47.536C226.703 48.52 226.931 49.258 227.387 49.75C227.855 50.23 228.539 50.47 229.439 50.47C229.751 50.47 230.099 50.434 230.483 50.362C230.879 50.278 231.251 50.14 231.599 49.948C231.851 49.804 232.073 49.744 232.265 49.768C232.457 49.78 232.607 49.846 232.715 49.966C232.835 50.086 232.907 50.236 232.931 50.416C232.955 50.584 232.919 50.758 232.823 50.938C232.739 51.118 232.589 51.274 232.373 51.406C231.953 51.67 231.467 51.868 230.915 52C230.375 52.12 229.871 52.18 229.403 52.18ZM238.204 52.18C237.436 52.18 236.758 51.994 236.17 51.622C235.594 51.25 235.144 50.722 234.82 50.038C234.496 49.342 234.334 48.526 234.334 47.59C234.334 46.642 234.496 45.832 234.82 45.16C235.144 44.476 235.594 43.948 236.17 43.576C236.758 43.204 237.436 43.018 238.204 43.018C238.936 43.018 239.572 43.198 240.112 43.558C240.664 43.918 241.036 44.392 241.228 44.98H241.03V40.3C241.03 39.928 241.126 39.646 241.318 39.454C241.51 39.262 241.786 39.166 242.146 39.166C242.506 39.166 242.782 39.262 242.974 39.454C243.178 39.646 243.28 39.928 243.28 40.3V50.992C243.28 51.364 243.184 51.652 242.992 51.856C242.8 52.048 242.524 52.144 242.164 52.144C241.804 52.144 241.528 52.048 241.336 51.856C241.144 51.652 241.048 51.364 241.048 50.992V49.588L241.246 50.128C241.066 50.752 240.7 51.25 240.148 51.622C239.596 51.994 238.948 52.18 238.204 52.18ZM238.834 50.47C239.278 50.47 239.668 50.362 240.004 50.146C240.34 49.93 240.598 49.612 240.778 49.192C240.97 48.76 241.066 48.226 241.066 47.59C241.066 46.63 240.862 45.916 240.454 45.448C240.046 44.968 239.506 44.728 238.834 44.728C238.39 44.728 238 44.836 237.664 45.052C237.328 45.256 237.064 45.574 236.872 46.006C236.692 46.426 236.602 46.954 236.602 47.59C236.602 48.538 236.806 49.258 237.214 49.75C237.622 50.23 238.162 50.47 238.834 50.47ZM39.068 75.18C38.432 75.18 37.862 75.06 37.358 74.82C36.866 74.568 36.476 74.232 36.188 73.812C35.912 73.392 35.774 72.918 35.774 72.39C35.774 71.742 35.942 71.232 36.278 70.86C36.614 70.476 37.16 70.2 37.916 70.032C38.672 69.864 39.686 69.78 40.958 69.78H41.858V71.076H40.976C40.232 71.076 39.638 71.112 39.194 71.184C38.75 71.256 38.432 71.382 38.24 71.562C38.06 71.73 37.97 71.97 37.97 72.282C37.97 72.678 38.108 73.002 38.384 73.254C38.66 73.506 39.044 73.632 39.536 73.632C39.932 73.632 40.28 73.542 40.58 73.362C40.892 73.17 41.138 72.912 41.318 72.588C41.498 72.264 41.588 71.892 41.588 71.472V69.402C41.588 68.802 41.456 68.37 41.192 68.106C40.928 67.842 40.484 67.71 39.86 67.71C39.512 67.71 39.134 67.752 38.726 67.836C38.33 67.92 37.91 68.064 37.466 68.268C37.238 68.376 37.034 68.406 36.854 68.358C36.686 68.31 36.554 68.214 36.458 68.07C36.362 67.914 36.314 67.746 36.314 67.566C36.314 67.386 36.362 67.212 36.458 67.044C36.554 66.864 36.716 66.732 36.944 66.648C37.496 66.42 38.024 66.258 38.528 66.162C39.044 66.066 39.512 66.018 39.932 66.018C40.796 66.018 41.504 66.15 42.056 66.414C42.62 66.678 43.04 67.08 43.316 67.62C43.592 68.148 43.73 68.832 43.73 69.672V73.992C43.73 74.364 43.64 74.652 43.46 74.856C43.28 75.048 43.022 75.144 42.686 75.144C42.35 75.144 42.086 75.048 41.894 74.856C41.714 74.652 41.624 74.364 41.624 73.992V73.128H41.768C41.684 73.548 41.516 73.914 41.264 74.226C41.024 74.526 40.718 74.76 40.346 74.928C39.974 75.096 39.548 75.18 39.068 75.18ZM50.1178 78.42C49.4698 78.42 48.8398 78.36 48.2278 78.24C47.6278 78.12 47.0818 77.934 46.5898 77.682C46.3618 77.562 46.2058 77.418 46.1218 77.25C46.0498 77.082 46.0258 76.908 46.0498 76.728C46.0858 76.56 46.1578 76.41 46.2658 76.278C46.3858 76.146 46.5298 76.056 46.6978 76.008C46.8658 75.96 47.0398 75.984 47.2197 76.08C47.7478 76.344 48.2458 76.512 48.7138 76.584C49.1938 76.668 49.6018 76.71 49.9378 76.71C50.7418 76.71 51.3418 76.512 51.7378 76.116C52.1458 75.732 52.3498 75.156 52.3498 74.388V72.768H52.5118C52.3318 73.38 51.9538 73.872 51.3778 74.244C50.8138 74.604 50.1718 74.784 49.4518 74.784C48.6598 74.784 47.9698 74.604 47.3818 74.244C46.7938 73.872 46.3378 73.356 46.0138 72.696C45.6898 72.036 45.5278 71.268 45.5278 70.392C45.5278 69.732 45.6178 69.138 45.7978 68.61C45.9898 68.07 46.2538 67.608 46.5898 67.224C46.9378 66.84 47.3518 66.546 47.8318 66.342C48.3238 66.126 48.8638 66.018 49.4518 66.018C50.1958 66.018 50.8438 66.204 51.3958 66.576C51.9598 66.936 52.3258 67.416 52.4938 68.016L52.3138 68.466V67.188C52.3138 66.816 52.4098 66.534 52.6018 66.342C52.8058 66.15 53.0818 66.054 53.4298 66.054C53.7898 66.054 54.0658 66.15 54.2578 66.342C54.4498 66.534 54.5458 66.816 54.5458 67.188V74.118C54.5458 75.546 54.1678 76.62 53.4118 77.34C52.6558 78.06 51.5578 78.42 50.1178 78.42ZM50.0638 73.074C50.5318 73.074 50.9338 72.966 51.2698 72.75C51.6058 72.534 51.8638 72.228 52.0438 71.832C52.2358 71.424 52.3318 70.944 52.3318 70.392C52.3318 69.564 52.1278 68.916 51.7198 68.448C51.3118 67.968 50.7598 67.728 50.0638 67.728C49.5958 67.728 49.1938 67.836 48.8578 68.052C48.5218 68.268 48.2578 68.574 48.0658 68.97C47.8858 69.366 47.7958 69.84 47.7958 70.392C47.7958 71.22 47.9998 71.874 48.4078 72.354C48.8158 72.834 49.3678 73.074 50.0638 73.074ZM59.775 75.18C59.139 75.18 58.569 75.06 58.065 74.82C57.573 74.568 57.183 74.232 56.895 73.812C56.619 73.392 56.481 72.918 56.481 72.39C56.481 71.742 56.649 71.232 56.985 70.86C57.321 70.476 57.867 70.2 58.623 70.032C59.379 69.864 60.393 69.78 61.665 69.78H62.565V71.076H61.683C60.939 71.076 60.345 71.112 59.901 71.184C59.457 71.256 59.139 71.382 58.947 71.562C58.767 71.73 58.677 71.97 58.677 72.282C58.677 72.678 58.815 73.002 59.091 73.254C59.367 73.506 59.751 73.632 60.243 73.632C60.639 73.632 60.987 73.542 61.287 73.362C61.599 73.17 61.845 72.912 62.025 72.588C62.205 72.264 62.295 71.892 62.295 71.472V69.402C62.295 68.802 62.163 68.37 61.899 68.106C61.635 67.842 61.191 67.71 60.567 67.71C60.219 67.71 59.841 67.752 59.433 67.836C59.037 67.92 58.617 68.064 58.173 68.268C57.945 68.376 57.741 68.406 57.561 68.358C57.393 68.31 57.261 68.214 57.165 68.07C57.069 67.914 57.021 67.746 57.021 67.566C57.021 67.386 57.069 67.212 57.165 67.044C57.261 66.864 57.423 66.732 57.651 66.648C58.203 66.42 58.731 66.258 59.235 66.162C59.751 66.066 60.219 66.018 60.639 66.018C61.503 66.018 62.211 66.15 62.763 66.414C63.327 66.678 63.747 67.08 64.023 67.62C64.299 68.148 64.437 68.832 64.437 69.672V73.992C64.437 74.364 64.347 74.652 64.167 74.856C63.987 75.048 63.729 75.144 63.393 75.144C63.057 75.144 62.793 75.048 62.601 74.856C62.421 74.652 62.331 74.364 62.331 73.992V73.128H62.475C62.391 73.548 62.223 73.914 61.971 74.226C61.731 74.526 61.425 74.76 61.053 74.928C60.681 75.096 60.255 75.18 59.775 75.18ZM67.8368 75.126C67.4768 75.126 67.2008 75.018 67.0088 74.802C66.8168 74.586 66.7208 74.286 66.7208 73.902V67.296C66.7208 66.9 66.8168 66.6 67.0088 66.396C67.2008 66.18 67.4768 66.072 67.8368 66.072C68.1968 66.072 68.4728 66.18 68.6648 66.396C68.8688 66.6 68.9708 66.9 68.9708 67.296V73.902C68.9708 74.286 68.8748 74.586 68.6828 74.802C68.4908 75.018 68.2088 75.126 67.8368 75.126ZM67.8368 64.398C67.4168 64.398 67.0868 64.296 66.8468 64.092C66.6188 63.876 66.5048 63.582 66.5048 63.21C66.5048 62.826 66.6188 62.532 66.8468 62.328C67.0868 62.124 67.4168 62.022 67.8368 62.022C68.2688 62.022 68.5988 62.124 68.8268 62.328C69.0548 62.532 69.1688 62.826 69.1688 63.21C69.1688 63.582 69.0548 63.876 68.8268 64.092C68.5988 64.296 68.2688 64.398 67.8368 64.398ZM72.4247 75.144C72.0647 75.144 71.7887 75.048 71.5967 74.856C71.4047 74.652 71.3087 74.364 71.3087 73.992V67.188C71.3087 66.816 71.4047 66.534 71.5967 66.342C71.7887 66.15 72.0587 66.054 72.4067 66.054C72.7547 66.054 73.0247 66.15 73.2167 66.342C73.4087 66.534 73.5047 66.816 73.5047 67.188V68.412L73.3067 67.962C73.5707 67.326 73.9787 66.846 74.5307 66.522C75.0947 66.186 75.7307 66.018 76.4387 66.018C77.1467 66.018 77.7287 66.15 78.1847 66.414C78.6407 66.678 78.9827 67.08 79.2107 67.62C79.4387 68.148 79.5527 68.82 79.5527 69.636V73.992C79.5527 74.364 79.4567 74.652 79.2647 74.856C79.0727 75.048 78.7967 75.144 78.4367 75.144C78.0767 75.144 77.7947 75.048 77.5907 74.856C77.3987 74.652 77.3027 74.364 77.3027 73.992V69.744C77.3027 69.06 77.1707 68.562 76.9067 68.25C76.6547 67.938 76.2587 67.782 75.7187 67.782C75.0587 67.782 74.5307 67.992 74.1347 68.412C73.7507 68.82 73.5587 69.366 73.5587 70.05V73.992C73.5587 74.76 73.1807 75.144 72.4247 75.144ZM85.06 75.18C84.544 75.18 83.998 75.126 83.422 75.018C82.846 74.91 82.33 74.724 81.874 74.46C81.682 74.34 81.544 74.202 81.46 74.046C81.388 73.878 81.358 73.716 81.37 73.56C81.394 73.392 81.454 73.248 81.55 73.128C81.658 73.008 81.79 72.93 81.946 72.894C82.114 72.858 82.294 72.888 82.486 72.984C82.966 73.212 83.416 73.374 83.836 73.47C84.256 73.554 84.67 73.596 85.078 73.596C85.654 73.596 86.08 73.5 86.356 73.308C86.644 73.104 86.788 72.84 86.788 72.516C86.788 72.24 86.692 72.03 86.5 71.886C86.32 71.73 86.044 71.616 85.672 71.544L83.872 71.202C83.128 71.058 82.558 70.788 82.162 70.392C81.778 69.984 81.586 69.462 81.586 68.826C81.586 68.25 81.742 67.752 82.054 67.332C82.378 66.912 82.822 66.588 83.386 66.36C83.95 66.132 84.598 66.018 85.33 66.018C85.858 66.018 86.35 66.078 86.806 66.198C87.274 66.306 87.724 66.48 88.156 66.72C88.336 66.816 88.456 66.942 88.516 67.098C88.588 67.254 88.606 67.416 88.57 67.584C88.534 67.74 88.462 67.884 88.354 68.016C88.246 68.136 88.108 68.214 87.94 68.25C87.784 68.274 87.604 68.238 87.4 68.142C87.028 67.95 86.668 67.812 86.32 67.728C85.984 67.644 85.66 67.602 85.348 67.602C84.76 67.602 84.322 67.704 84.034 67.908C83.758 68.112 83.62 68.382 83.62 68.718C83.62 68.97 83.704 69.18 83.872 69.348C84.04 69.516 84.298 69.63 84.646 69.69L86.446 70.032C87.226 70.176 87.814 70.44 88.21 70.824C88.618 71.208 88.822 71.724 88.822 72.372C88.822 73.248 88.48 73.938 87.796 74.442C87.112 74.934 86.2 75.18 85.06 75.18ZM94.5711 75.18C93.7911 75.18 93.1371 75.048 92.6091 74.784C92.0931 74.52 91.7091 74.136 91.4571 73.632C91.2051 73.116 91.0791 72.48 91.0791 71.724V67.89H90.1431C89.8551 67.89 89.6331 67.818 89.4771 67.674C89.3211 67.518 89.2431 67.308 89.2431 67.044C89.2431 66.768 89.3211 66.558 89.4771 66.414C89.6331 66.27 89.8551 66.198 90.1431 66.198H91.0791V64.56C91.0791 64.188 91.1751 63.906 91.3671 63.714C91.5711 63.522 91.8531 63.426 92.2131 63.426C92.5731 63.426 92.8491 63.522 93.0411 63.714C93.2331 63.906 93.3291 64.188 93.3291 64.56V66.198H95.2371C95.5251 66.198 95.7471 66.27 95.9031 66.414C96.0591 66.558 96.1371 66.768 96.1371 67.044C96.1371 67.308 96.0591 67.518 95.9031 67.674C95.7471 67.818 95.5251 67.89 95.2371 67.89H93.3291V71.598C93.3291 72.174 93.4551 72.606 93.7071 72.894C93.9591 73.182 94.3671 73.326 94.9311 73.326C95.1351 73.326 95.3151 73.308 95.4711 73.272C95.6271 73.236 95.7651 73.212 95.8851 73.2C96.0291 73.188 96.1491 73.236 96.2451 73.344C96.3411 73.44 96.3891 73.644 96.3891 73.956C96.3891 74.196 96.3471 74.412 96.2631 74.604C96.1911 74.784 96.0531 74.91 95.8491 74.982C95.6931 75.03 95.4891 75.072 95.2371 75.108C94.9851 75.156 94.7631 75.18 94.5711 75.18ZM103.45 75.144C103.09 75.144 102.814 75.048 102.622 74.856C102.43 74.652 102.334 74.364 102.334 73.992V63.3C102.334 62.928 102.43 62.646 102.622 62.454C102.814 62.262 103.09 62.166 103.45 62.166C103.81 62.166 104.086 62.262 104.278 62.454C104.482 62.646 104.584 62.928 104.584 63.3V67.962H104.332C104.596 67.326 105.004 66.846 105.556 66.522C106.12 66.186 106.756 66.018 107.464 66.018C108.172 66.018 108.754 66.15 109.21 66.414C109.666 66.678 110.008 67.08 110.236 67.62C110.464 68.148 110.578 68.82 110.578 69.636V73.992C110.578 74.364 110.482 74.652 110.29 74.856C110.098 75.048 109.822 75.144 109.462 75.144C109.102 75.144 108.82 75.048 108.616 74.856C108.424 74.652 108.328 74.364 108.328 73.992V69.744C108.328 69.06 108.196 68.562 107.932 68.25C107.68 67.938 107.284 67.782 106.744 67.782C106.084 67.782 105.556 67.992 105.16 68.412C104.776 68.82 104.584 69.366 104.584 70.05V73.992C104.584 74.76 104.206 75.144 103.45 75.144ZM113.979 75.126C113.619 75.126 113.343 75.018 113.151 74.802C112.959 74.586 112.863 74.286 112.863 73.902V67.296C112.863 66.9 112.959 66.6 113.151 66.396C113.343 66.18 113.619 66.072 113.979 66.072C114.339 66.072 114.615 66.18 114.807 66.396C115.011 66.6 115.113 66.9 115.113 67.296V73.902C115.113 74.286 115.017 74.586 114.825 74.802C114.633 75.018 114.351 75.126 113.979 75.126ZM113.979 64.398C113.559 64.398 113.229 64.296 112.989 64.092C112.761 63.876 112.647 63.582 112.647 63.21C112.647 62.826 112.761 62.532 112.989 62.328C113.229 62.124 113.559 62.022 113.979 62.022C114.411 62.022 114.741 62.124 114.969 62.328C115.197 62.532 115.311 62.826 115.311 63.21C115.311 63.582 115.197 63.876 114.969 64.092C114.741 64.296 114.411 64.398 113.979 64.398ZM121.555 78.42C120.907 78.42 120.277 78.36 119.665 78.24C119.065 78.12 118.519 77.934 118.027 77.682C117.799 77.562 117.643 77.418 117.559 77.25C117.487 77.082 117.463 76.908 117.487 76.728C117.523 76.56 117.595 76.41 117.703 76.278C117.823 76.146 117.967 76.056 118.135 76.008C118.303 75.96 118.477 75.984 118.657 76.08C119.185 76.344 119.683 76.512 120.151 76.584C120.631 76.668 121.039 76.71 121.375 76.71C122.179 76.71 122.779 76.512 123.175 76.116C123.583 75.732 123.787 75.156 123.787 74.388V72.768H123.949C123.769 73.38 123.391 73.872 122.815 74.244C122.251 74.604 121.609 74.784 120.889 74.784C120.097 74.784 119.407 74.604 118.819 74.244C118.231 73.872 117.775 73.356 117.451 72.696C117.127 72.036 116.965 71.268 116.965 70.392C116.965 69.732 117.055 69.138 117.235 68.61C117.427 68.07 117.691 67.608 118.027 67.224C118.375 66.84 118.789 66.546 119.269 66.342C119.761 66.126 120.301 66.018 120.889 66.018C121.633 66.018 122.281 66.204 122.833 66.576C123.397 66.936 123.763 67.416 123.931 68.016L123.751 68.466V67.188C123.751 66.816 123.847 66.534 124.039 66.342C124.243 66.15 124.519 66.054 124.867 66.054C125.227 66.054 125.503 66.15 125.695 66.342C125.887 66.534 125.983 66.816 125.983 67.188V74.118C125.983 75.546 125.605 76.62 124.849 77.34C124.093 78.06 122.995 78.42 121.555 78.42ZM121.501 73.074C121.969 73.074 122.371 72.966 122.707 72.75C123.043 72.534 123.301 72.228 123.481 71.832C123.673 71.424 123.769 70.944 123.769 70.392C123.769 69.564 123.565 68.916 123.157 68.448C122.749 67.968 122.197 67.728 121.501 67.728C121.033 67.728 120.631 67.836 120.295 68.052C119.959 68.268 119.695 68.574 119.503 68.97C119.323 69.366 119.233 69.84 119.233 70.392C119.233 71.22 119.437 71.874 119.845 72.354C120.253 72.834 120.805 73.074 121.501 73.074ZM129.431 75.144C129.071 75.144 128.795 75.048 128.603 74.856C128.411 74.652 128.315 74.364 128.315 73.992V63.3C128.315 62.928 128.411 62.646 128.603 62.454C128.795 62.262 129.071 62.166 129.431 62.166C129.791 62.166 130.067 62.262 130.259 62.454C130.463 62.646 130.565 62.928 130.565 63.3V67.962H130.313C130.577 67.326 130.985 66.846 131.537 66.522C132.101 66.186 132.737 66.018 133.445 66.018C134.153 66.018 134.735 66.15 135.191 66.414C135.647 66.678 135.989 67.08 136.217 67.62C136.445 68.148 136.559 68.82 136.559 69.636V73.992C136.559 74.364 136.463 74.652 136.271 74.856C136.079 75.048 135.803 75.144 135.443 75.144C135.083 75.144 134.801 75.048 134.597 74.856C134.405 74.652 134.309 74.364 134.309 73.992V69.744C134.309 69.06 134.177 68.562 133.913 68.25C133.661 67.938 133.265 67.782 132.725 67.782C132.065 67.782 131.537 67.992 131.141 68.412C130.757 68.82 130.565 69.366 130.565 70.05V73.992C130.565 74.76 130.187 75.144 129.431 75.144ZM139.672 71.076C139.408 71.076 139.186 70.992 139.006 70.824C138.838 70.644 138.754 70.428 138.754 70.176C138.754 69.912 138.838 69.696 139.006 69.528C139.186 69.36 139.408 69.276 139.672 69.276H143.506C143.758 69.276 143.968 69.36 144.136 69.528C144.316 69.696 144.406 69.912 144.406 70.176C144.406 70.428 144.316 70.644 144.136 70.824C143.968 70.992 143.758 71.076 143.506 71.076H139.672ZM147.801 75.144C147.429 75.144 147.141 75.048 146.937 74.856C146.745 74.652 146.649 74.364 146.649 73.992V67.188C146.649 66.816 146.745 66.534 146.937 66.342C147.129 66.15 147.399 66.054 147.747 66.054C148.095 66.054 148.365 66.15 148.557 66.342C148.749 66.534 148.845 66.816 148.845 67.188V68.322H148.665C148.833 67.602 149.163 67.056 149.655 66.684C150.147 66.312 150.801 66.09 151.617 66.018C151.869 65.994 152.067 66.06 152.211 66.216C152.367 66.36 152.457 66.588 152.481 66.9C152.505 67.2 152.433 67.446 152.265 67.638C152.109 67.818 151.869 67.926 151.545 67.962L151.149 67.998C150.417 68.07 149.865 68.298 149.493 68.682C149.121 69.054 148.935 69.582 148.935 70.266V73.992C148.935 74.364 148.839 74.652 148.647 74.856C148.455 75.048 148.173 75.144 147.801 75.144ZM154.813 75.126C154.453 75.126 154.177 75.018 153.985 74.802C153.793 74.586 153.697 74.286 153.697 73.902V67.296C153.697 66.9 153.793 66.6 153.985 66.396C154.177 66.18 154.453 66.072 154.813 66.072C155.173 66.072 155.449 66.18 155.641 66.396C155.845 66.6 155.947 66.9 155.947 67.296V73.902C155.947 74.286 155.851 74.586 155.659 74.802C155.467 75.018 155.185 75.126 154.813 75.126ZM154.813 64.398C154.393 64.398 154.063 64.296 153.823 64.092C153.595 63.876 153.481 63.582 153.481 63.21C153.481 62.826 153.595 62.532 153.823 62.328C154.063 62.124 154.393 62.022 154.813 62.022C155.245 62.022 155.575 62.124 155.803 62.328C156.031 62.532 156.145 62.826 156.145 63.21C156.145 63.582 156.031 63.876 155.803 64.092C155.575 64.296 155.245 64.398 154.813 64.398ZM161.507 75.18C160.991 75.18 160.445 75.126 159.869 75.018C159.293 74.91 158.777 74.724 158.321 74.46C158.129 74.34 157.991 74.202 157.907 74.046C157.835 73.878 157.805 73.716 157.817 73.56C157.841 73.392 157.901 73.248 157.997 73.128C158.105 73.008 158.237 72.93 158.393 72.894C158.561 72.858 158.741 72.888 158.933 72.984C159.413 73.212 159.863 73.374 160.283 73.47C160.703 73.554 161.117 73.596 161.525 73.596C162.101 73.596 162.527 73.5 162.803 73.308C163.091 73.104 163.235 72.84 163.235 72.516C163.235 72.24 163.139 72.03 162.947 71.886C162.767 71.73 162.491 71.616 162.119 71.544L160.319 71.202C159.575 71.058 159.005 70.788 158.609 70.392C158.225 69.984 158.033 69.462 158.033 68.826C158.033 68.25 158.189 67.752 158.501 67.332C158.825 66.912 159.269 66.588 159.833 66.36C160.397 66.132 161.045 66.018 161.777 66.018C162.305 66.018 162.797 66.078 163.253 66.198C163.721 66.306 164.171 66.48 164.603 66.72C164.783 66.816 164.903 66.942 164.963 67.098C165.035 67.254 165.053 67.416 165.017 67.584C164.981 67.74 164.909 67.884 164.801 68.016C164.693 68.136 164.555 68.214 164.387 68.25C164.231 68.274 164.051 68.238 163.847 68.142C163.475 67.95 163.115 67.812 162.767 67.728C162.431 67.644 162.107 67.602 161.795 67.602C161.207 67.602 160.769 67.704 160.481 67.908C160.205 68.112 160.067 68.382 160.067 68.718C160.067 68.97 160.151 69.18 160.319 69.348C160.487 69.516 160.745 69.63 161.093 69.69L162.893 70.032C163.673 70.176 164.261 70.44 164.657 70.824C165.065 71.208 165.269 71.724 165.269 72.372C165.269 73.248 164.927 73.938 164.243 74.442C163.559 74.934 162.647 75.18 161.507 75.18ZM168.19 75.144C167.83 75.144 167.554 75.048 167.362 74.856C167.17 74.652 167.074 74.364 167.074 73.992V63.3C167.074 62.928 167.17 62.646 167.362 62.454C167.554 62.262 167.83 62.166 168.19 62.166C168.55 62.166 168.826 62.262 169.018 62.454C169.222 62.646 169.324 62.928 169.324 63.3V69.942H169.36L172.33 66.81C172.57 66.57 172.78 66.384 172.96 66.252C173.14 66.12 173.386 66.054 173.698 66.054C174.01 66.054 174.244 66.138 174.4 66.306C174.568 66.462 174.652 66.654 174.652 66.882C174.652 67.11 174.544 67.338 174.328 67.566L171.196 70.878V69.942L174.634 73.65C174.85 73.878 174.946 74.112 174.922 74.352C174.91 74.58 174.814 74.772 174.634 74.928C174.454 75.072 174.226 75.144 173.95 75.144C173.614 75.144 173.344 75.078 173.14 74.946C172.948 74.814 172.732 74.616 172.492 74.352L169.36 71.076H169.324V73.992C169.324 74.76 168.946 75.144 168.19 75.144ZM183.051 75C182.655 75 182.349 74.898 182.133 74.694C181.929 74.478 181.827 74.172 181.827 73.776V63.534C181.827 63.138 181.929 62.838 182.133 62.634C182.349 62.418 182.655 62.31 183.051 62.31H186.543C188.667 62.31 190.305 62.856 191.457 63.948C192.621 65.04 193.203 66.606 193.203 68.646C193.203 69.666 193.053 70.572 192.753 71.364C192.465 72.144 192.033 72.804 191.457 73.344C190.893 73.884 190.197 74.298 189.369 74.586C188.553 74.862 187.611 75 186.543 75H183.051ZM184.131 73.092H186.399C187.143 73.092 187.785 73.002 188.325 72.822C188.877 72.63 189.333 72.354 189.693 71.994C190.065 71.622 190.341 71.16 190.521 70.608C190.701 70.044 190.791 69.39 190.791 68.646C190.791 67.158 190.425 66.048 189.693 65.316C188.961 64.584 187.863 64.218 186.399 64.218H184.131V73.092ZM196.438 75.126C196.078 75.126 195.802 75.018 195.61 74.802C195.418 74.586 195.322 74.286 195.322 73.902V67.296C195.322 66.9 195.418 66.6 195.61 66.396C195.802 66.18 196.078 66.072 196.438 66.072C196.798 66.072 197.074 66.18 197.266 66.396C197.47 66.6 197.572 66.9 197.572 67.296V73.902C197.572 74.286 197.476 74.586 197.284 74.802C197.092 75.018 196.81 75.126 196.438 75.126ZM196.438 64.398C196.018 64.398 195.688 64.296 195.448 64.092C195.22 63.876 195.106 63.582 195.106 63.21C195.106 62.826 195.22 62.532 195.448 62.328C195.688 62.124 196.018 62.022 196.438 62.022C196.87 62.022 197.2 62.124 197.428 62.328C197.656 62.532 197.77 62.826 197.77 63.21C197.77 63.582 197.656 63.876 197.428 64.092C197.2 64.296 196.87 64.398 196.438 64.398ZM203.132 75.18C202.616 75.18 202.07 75.126 201.494 75.018C200.918 74.91 200.402 74.724 199.946 74.46C199.754 74.34 199.616 74.202 199.532 74.046C199.46 73.878 199.43 73.716 199.442 73.56C199.466 73.392 199.526 73.248 199.622 73.128C199.73 73.008 199.862 72.93 200.018 72.894C200.186 72.858 200.366 72.888 200.558 72.984C201.038 73.212 201.488 73.374 201.908 73.47C202.328 73.554 202.742 73.596 203.15 73.596C203.726 73.596 204.152 73.5 204.428 73.308C204.716 73.104 204.86 72.84 204.86 72.516C204.86 72.24 204.764 72.03 204.572 71.886C204.392 71.73 204.116 71.616 203.744 71.544L201.944 71.202C201.2 71.058 200.63 70.788 200.234 70.392C199.85 69.984 199.658 69.462 199.658 68.826C199.658 68.25 199.814 67.752 200.126 67.332C200.45 66.912 200.894 66.588 201.458 66.36C202.022 66.132 202.67 66.018 203.402 66.018C203.93 66.018 204.422 66.078 204.878 66.198C205.346 66.306 205.796 66.48 206.228 66.72C206.408 66.816 206.528 66.942 206.588 67.098C206.66 67.254 206.678 67.416 206.642 67.584C206.606 67.74 206.534 67.884 206.426 68.016C206.318 68.136 206.18 68.214 206.012 68.25C205.856 68.274 205.676 68.238 205.472 68.142C205.1 67.95 204.74 67.812 204.392 67.728C204.056 67.644 203.732 67.602 203.42 67.602C202.832 67.602 202.394 67.704 202.106 67.908C201.83 68.112 201.692 68.382 201.692 68.718C201.692 68.97 201.776 69.18 201.944 69.348C202.112 69.516 202.37 69.63 202.718 69.69L204.518 70.032C205.298 70.176 205.886 70.44 206.282 70.824C206.69 71.208 206.894 71.724 206.894 72.372C206.894 73.248 206.552 73.938 205.868 74.442C205.184 74.934 204.272 75.18 203.132 75.18ZM213.037 75.18C212.041 75.18 211.183 74.994 210.463 74.622C209.743 74.25 209.185 73.722 208.789 73.038C208.405 72.354 208.213 71.544 208.213 70.608C208.213 69.696 208.399 68.898 208.771 68.214C209.155 67.53 209.677 66.996 210.337 66.612C211.009 66.216 211.771 66.018 212.623 66.018C213.247 66.018 213.805 66.12 214.297 66.324C214.801 66.528 215.227 66.822 215.575 67.206C215.935 67.59 216.205 68.058 216.385 68.61C216.577 69.15 216.673 69.762 216.673 70.446C216.673 70.662 216.595 70.83 216.439 70.95C216.295 71.058 216.085 71.112 215.809 71.112H210.031V69.816H215.089L214.801 70.086C214.801 69.534 214.717 69.072 214.549 68.7C214.393 68.328 214.159 68.046 213.847 67.854C213.547 67.65 213.169 67.548 212.713 67.548C212.209 67.548 211.777 67.668 211.417 67.908C211.069 68.136 210.799 68.466 210.607 68.898C210.427 69.318 210.337 69.822 210.337 70.41V70.536C210.337 71.52 210.565 72.258 211.021 72.75C211.489 73.23 212.173 73.47 213.073 73.47C213.385 73.47 213.733 73.434 214.117 73.362C214.513 73.278 214.885 73.14 215.233 72.948C215.485 72.804 215.707 72.744 215.899 72.768C216.091 72.78 216.241 72.846 216.349 72.966C216.469 73.086 216.541 73.236 216.565 73.416C216.589 73.584 216.553 73.758 216.457 73.938C216.373 74.118 216.223 74.274 216.007 74.406C215.587 74.67 215.101 74.868 214.549 75C214.009 75.12 213.505 75.18 213.037 75.18ZM221.353 75.18C220.717 75.18 220.147 75.06 219.643 74.82C219.151 74.568 218.761 74.232 218.473 73.812C218.197 73.392 218.059 72.918 218.059 72.39C218.059 71.742 218.227 71.232 218.563 70.86C218.899 70.476 219.445 70.2 220.201 70.032C220.957 69.864 221.971 69.78 223.243 69.78H224.143V71.076H223.261C222.517 71.076 221.923 71.112 221.479 71.184C221.035 71.256 220.717 71.382 220.525 71.562C220.345 71.73 220.255 71.97 220.255 72.282C220.255 72.678 220.393 73.002 220.669 73.254C220.945 73.506 221.329 73.632 221.821 73.632C222.217 73.632 222.565 73.542 222.865 73.362C223.177 73.17 223.423 72.912 223.603 72.588C223.783 72.264 223.873 71.892 223.873 71.472V69.402C223.873 68.802 223.741 68.37 223.477 68.106C223.213 67.842 222.769 67.71 222.145 67.71C221.797 67.71 221.419 67.752 221.011 67.836C220.615 67.92 220.195 68.064 219.751 68.268C219.523 68.376 219.319 68.406 219.139 68.358C218.971 68.31 218.839 68.214 218.743 68.07C218.647 67.914 218.599 67.746 218.599 67.566C218.599 67.386 218.647 67.212 218.743 67.044C218.839 66.864 219.001 66.732 219.229 66.648C219.781 66.42 220.309 66.258 220.813 66.162C221.329 66.066 221.797 66.018 222.217 66.018C223.081 66.018 223.789 66.15 224.341 66.414C224.905 66.678 225.325 67.08 225.601 67.62C225.877 68.148 226.015 68.832 226.015 69.672V73.992C226.015 74.364 225.925 74.652 225.745 74.856C225.565 75.048 225.307 75.144 224.971 75.144C224.635 75.144 224.371 75.048 224.179 74.856C223.999 74.652 223.909 74.364 223.909 73.992V73.128H224.053C223.969 73.548 223.801 73.914 223.549 74.226C223.309 74.526 223.003 74.76 222.631 74.928C222.259 75.096 221.833 75.18 221.353 75.18ZM231.521 75.18C231.005 75.18 230.459 75.126 229.883 75.018C229.307 74.91 228.791 74.724 228.335 74.46C228.143 74.34 228.005 74.202 227.921 74.046C227.849 73.878 227.819 73.716 227.831 73.56C227.855 73.392 227.915 73.248 228.011 73.128C228.119 73.008 228.251 72.93 228.407 72.894C228.575 72.858 228.755 72.888 228.947 72.984C229.427 73.212 229.877 73.374 230.297 73.47C230.717 73.554 231.131 73.596 231.539 73.596C232.115 73.596 232.541 73.5 232.817 73.308C233.105 73.104 233.249 72.84 233.249 72.516C233.249 72.24 233.153 72.03 232.961 71.886C232.781 71.73 232.505 71.616 232.133 71.544L230.333 71.202C229.589 71.058 229.019 70.788 228.623 70.392C228.239 69.984 228.047 69.462 228.047 68.826C228.047 68.25 228.203 67.752 228.515 67.332C228.839 66.912 229.283 66.588 229.847 66.36C230.411 66.132 231.059 66.018 231.791 66.018C232.319 66.018 232.811 66.078 233.267 66.198C233.735 66.306 234.185 66.48 234.617 66.72C234.797 66.816 234.917 66.942 234.977 67.098C235.049 67.254 235.067 67.416 235.031 67.584C234.995 67.74 234.923 67.884 234.815 68.016C234.707 68.136 234.569 68.214 234.401 68.25C234.245 68.274 234.065 68.238 233.861 68.142C233.489 67.95 233.129 67.812 232.781 67.728C232.445 67.644 232.121 67.602 231.809 67.602C231.221 67.602 230.783 67.704 230.495 67.908C230.219 68.112 230.081 68.382 230.081 68.718C230.081 68.97 230.165 69.18 230.333 69.348C230.501 69.516 230.759 69.63 231.107 69.69L232.907 70.032C233.687 70.176 234.275 70.44 234.671 70.824C235.079 71.208 235.283 71.724 235.283 72.372C235.283 73.248 234.941 73.938 234.257 74.442C233.573 74.934 232.661 75.18 231.521 75.18ZM241.426 75.18C240.43 75.18 239.572 74.994 238.852 74.622C238.132 74.25 237.574 73.722 237.178 73.038C236.794 72.354 236.602 71.544 236.602 70.608C236.602 69.696 236.788 68.898 237.16 68.214C237.544 67.53 238.066 66.996 238.726 66.612C239.398 66.216 240.16 66.018 241.012 66.018C241.636 66.018 242.194 66.12 242.686 66.324C243.19 66.528 243.616 66.822 243.964 67.206C244.324 67.59 244.594 68.058 244.774 68.61C244.966 69.15 245.062 69.762 245.062 70.446C245.062 70.662 244.984 70.83 244.828 70.95C244.684 71.058 244.474 71.112 244.198 71.112H238.42V69.816H243.478L243.19 70.086C243.19 69.534 243.106 69.072 242.938 68.7C242.782 68.328 242.548 68.046 242.236 67.854C241.936 67.65 241.558 67.548 241.102 67.548C240.598 67.548 240.166 67.668 239.806 67.908C239.458 68.136 239.188 68.466 238.996 68.898C238.816 69.318 238.726 69.822 238.726 70.41V70.536C238.726 71.52 238.954 72.258 239.41 72.75C239.878 73.23 240.562 73.47 241.462 73.47C241.774 73.47 242.122 73.434 242.506 73.362C242.902 73.278 243.274 73.14 243.622 72.948C243.874 72.804 244.096 72.744 244.288 72.768C244.48 72.78 244.63 72.846 244.738 72.966C244.858 73.086 244.93 73.236 244.954 73.416C244.978 73.584 244.942 73.758 244.846 73.938C244.762 74.118 244.612 74.274 244.396 74.406C243.976 74.67 243.49 74.868 242.938 75C242.398 75.12 241.894 75.18 241.426 75.18ZM250.066 75.18C249.55 75.18 249.004 75.126 248.428 75.018C247.852 74.91 247.336 74.724 246.88 74.46C246.688 74.34 246.55 74.202 246.466 74.046C246.394 73.878 246.364 73.716 246.376 73.56C246.4 73.392 246.46 73.248 246.556 73.128C246.664 73.008 246.796 72.93 246.952 72.894C247.12 72.858 247.3 72.888 247.492 72.984C247.972 73.212 248.422 73.374 248.842 73.47C249.262 73.554 249.676 73.596 250.084 73.596C250.66 73.596 251.086 73.5 251.362 73.308C251.65 73.104 251.794 72.84 251.794 72.516C251.794 72.24 251.698 72.03 251.506 71.886C251.326 71.73 251.05 71.616 250.678 71.544L248.878 71.202C248.134 71.058 247.564 70.788 247.168 70.392C246.784 69.984 246.592 69.462 246.592 68.826C246.592 68.25 246.748 67.752 247.06 67.332C247.384 66.912 247.828 66.588 248.392 66.36C248.956 66.132 249.604 66.018 250.336 66.018C250.864 66.018 251.356 66.078 251.812 66.198C252.28 66.306 252.73 66.48 253.162 66.72C253.342 66.816 253.462 66.942 253.522 67.098C253.594 67.254 253.612 67.416 253.576 67.584C253.54 67.74 253.468 67.884 253.36 68.016C253.252 68.136 253.114 68.214 252.946 68.25C252.79 68.274 252.61 68.238 252.406 68.142C252.034 67.95 251.674 67.812 251.326 67.728C250.99 67.644 250.666 67.602 250.354 67.602C249.766 67.602 249.328 67.704 249.04 67.908C248.764 68.112 248.626 68.382 248.626 68.718C248.626 68.97 248.71 69.18 248.878 69.348C249.046 69.516 249.304 69.63 249.652 69.69L251.452 70.032C252.232 70.176 252.82 70.44 253.216 70.824C253.624 71.208 253.828 71.724 253.828 72.372C253.828 73.248 253.486 73.938 252.802 74.442C252.118 74.934 251.206 75.18 250.066 75.18ZM258.301 71.328C258.073 71.328 257.893 71.256 257.761 71.112C257.641 70.956 257.581 70.752 257.581 70.5C257.581 70.128 257.623 69.78 257.707 69.456C257.803 69.12 257.953 68.784 258.157 68.448C258.361 68.112 258.631 67.758 258.967 67.386C259.219 67.098 259.417 66.846 259.561 66.63C259.717 66.402 259.825 66.186 259.885 65.982C259.957 65.778 259.993 65.568 259.993 65.352C259.993 64.956 259.849 64.644 259.561 64.416C259.273 64.188 258.865 64.074 258.337 64.074C257.857 64.074 257.419 64.14 257.023 64.272C256.639 64.392 256.249 64.566 255.853 64.794C255.589 64.95 255.349 65.022 255.133 65.01C254.929 64.986 254.761 64.908 254.629 64.776C254.497 64.644 254.413 64.482 254.377 64.29C254.341 64.098 254.371 63.9 254.467 63.696C254.563 63.492 254.737 63.306 254.989 63.138C255.481 62.814 256.045 62.568 256.681 62.4C257.317 62.22 257.917 62.13 258.481 62.13C259.237 62.13 259.897 62.256 260.461 62.508C261.037 62.76 261.481 63.108 261.793 63.552C262.117 63.996 262.279 64.518 262.279 65.118C262.279 65.49 262.225 65.844 262.117 66.18C262.009 66.504 261.835 66.834 261.595 67.17C261.355 67.494 261.025 67.848 260.605 68.232C260.233 68.568 259.933 68.874 259.705 69.15C259.489 69.426 259.327 69.69 259.219 69.942C259.123 70.194 259.057 70.464 259.021 70.752C259.009 70.92 258.937 71.058 258.805 71.166C258.685 71.274 258.517 71.328 258.301 71.328ZM258.265 75.09C257.857 75.09 257.527 74.964 257.275 74.712C257.035 74.46 256.915 74.136 256.915 73.74C256.915 73.356 257.035 73.044 257.275 72.804C257.527 72.552 257.857 72.426 258.265 72.426C258.685 72.426 259.009 72.552 259.237 72.804C259.477 73.044 259.597 73.356 259.597 73.74C259.597 74.136 259.477 74.46 259.237 74.712C259.009 74.964 258.685 75.09 258.265 75.09Z" fill="white"/>
<path d="M12.9282 25.622C12.8156 25.716 12.6973 25.7575 12.5734 25.7463C12.4551 25.7305 12.3465 25.6634 12.2478 25.5452L7.82717 20.2512C7.71906 20.1218 7.66777 19.9974 7.67328 19.8782C7.67879 19.7589 7.73221 19.657 7.83353 19.5724C7.92922 19.4925 8.0165 19.4483 8.09536 19.4397C8.17422 19.4312 8.27987 19.4433 8.41229 19.476L15.9547 21.2318L15.7436 21.408L11.9081 16.8149C11.8047 16.691 11.7581 16.5723 11.7683 16.4587C11.7795 16.3347 11.8441 16.2234 11.9623 16.1247C12.0805 16.026 12.1988 15.9845 12.3171 16.0004C12.4307 16.0106 12.5393 16.0776 12.6427 16.2015L17.0774 21.5123C17.1761 21.6305 17.2227 21.7493 17.2172 21.8685C17.2173 21.9831 17.1696 22.0803 17.0739 22.1602C16.9838 22.2354 16.8914 22.2792 16.7965 22.2915C16.7121 22.3047 16.6036 22.295 16.4712 22.2622L8.93724 20.4994L9.13144 20.3373L12.974 24.9389C13.0727 25.0571 13.1193 25.1758 13.1138 25.2951C13.1082 25.4143 13.0464 25.5233 12.9282 25.622ZM20.636 19.2144C20.1913 19.5857 19.738 19.8209 19.2761 19.92C18.8152 20.0087 18.3659 19.9683 17.9282 19.7988C17.4858 19.6237 17.0836 19.3194 16.7217 18.8859C16.3644 18.4581 16.1363 18.0133 16.0373 17.5515C15.9438 17.0849 15.9711 16.637 16.119 16.2078C16.2725 15.7738 16.5435 15.3947 16.9319 15.0704C17.2077 14.84 17.4954 14.6811 17.7948 14.5935C18.0952 14.4955 18.397 14.468 18.7003 14.5109C19.0036 14.5537 19.3005 14.6689 19.5908 14.8564C19.882 15.0336 20.1593 15.2798 20.4225 15.595C20.4977 15.6851 20.5283 15.7789 20.5143 15.8766C20.5012 15.9639 20.4441 16.0499 20.3427 16.1345L17.4551 18.5458L17.0462 18.0561L19.7396 15.807L19.6948 16.045C19.4504 15.7523 19.1985 15.5422 18.9392 15.4148C18.6809 15.277 18.4226 15.2252 18.1645 15.2593C17.9119 15.2886 17.6618 15.4067 17.4141 15.6135C17.1439 15.8391 16.9672 16.0966 16.8839 16.3859C16.796 16.6695 16.7977 16.969 16.8891 17.2844C16.9758 17.5942 17.1437 17.8982 17.3928 18.1966L17.4351 18.2472C17.8581 18.7538 18.2988 19.0355 18.757 19.0923C19.2153 19.1492 19.6724 18.9872 20.1283 18.6065C20.3084 18.4561 20.4726 18.2808 20.6207 18.0806C20.7745 17.8758 20.8893 17.6414 20.9651 17.3775C21.0072 17.2563 21.0644 17.1704 21.1367 17.1196C21.2098 17.0585 21.2877 17.0317 21.3704 17.0391C21.4483 17.0409 21.5188 17.068 21.5817 17.1206C21.64 17.1674 21.6832 17.2364 21.7115 17.3275C21.7398 17.4185 21.7356 17.5223 21.6991 17.6387C21.6215 17.9233 21.4838 18.2103 21.2859 18.4997C21.089 18.7787 20.8724 19.017 20.636 19.2144ZM24.6354 15.8461C24.5284 15.9354 24.4144 15.9876 24.2933 16.0028C24.1675 16.0123 24.0303 15.9739 23.8819 15.8877L19.8248 13.5862C19.6961 13.5122 19.6073 13.4287 19.5583 13.3358C19.5094 13.2429 19.4971 13.1481 19.5214 13.0513C19.5458 12.9546 19.6086 12.8639 19.7099 12.7793C19.8056 12.6994 19.9004 12.6585 19.9943 12.6565C20.0882 12.6545 20.2042 12.6962 20.3423 12.7815L24.198 15.0649L23.9953 15.2341L22.4559 10.9879C22.4107 10.8536 22.4003 10.7382 22.4246 10.6414C22.4498 10.5344 22.5103 10.4409 22.606 10.361C22.7073 10.2764 22.8129 10.2312 22.9227 10.2255C23.0279 10.2141 23.1368 10.2473 23.2496 10.3251L27.1363 12.6113L26.9421 12.7735L25.3857 8.54134C25.3311 8.39586 25.3183 8.27757 25.3474 8.18646C25.3717 8.08973 25.4289 8.00376 25.5189 7.92855C25.6202 7.84395 25.7174 7.80582 25.8104 7.81418C25.9033 7.82254 25.9879 7.86658 26.064 7.94632C26.1411 8.01572 26.2003 8.10955 26.2417 8.22782L27.7827 12.6304C27.842 12.7815 27.853 12.9204 27.8155 13.0472C27.7837 13.1693 27.7144 13.275 27.6074 13.3643C27.5005 13.4536 27.3813 13.5054 27.2498 13.5196C27.124 13.5291 26.9893 13.4936 26.8455 13.413L22.8743 11.1114L23.2627 10.7871L24.8191 15.1051C24.8728 15.2609 24.8837 15.3998 24.8519 15.5219C24.8201 15.644 24.7479 15.7521 24.6354 15.8461Z" fill="white"/>
<g filter="url(#filter1_d_183_2784)">
<rect x="35" y="96" width="123" height="32" rx="16" fill="white"/>
</g>
<path d="M55.584 116C55.408 116 55.272 115.956 55.176 115.868C55.088 115.772 55.044 115.636 55.044 115.46V108.08C55.044 107.904 55.088 107.772 55.176 107.684C55.272 107.588 55.408 107.54 55.584 107.54H60.048C60.184 107.54 60.288 107.576 60.36 107.648C60.432 107.72 60.468 107.82 60.468 107.948C60.468 108.084 60.432 108.188 60.36 108.26C60.288 108.332 60.184 108.368 60.048 108.368H56.004V111.296H59.796C59.932 111.296 60.036 111.332 60.108 111.404C60.18 111.468 60.216 111.568 60.216 111.704C60.216 111.84 60.18 111.944 60.108 112.016C60.036 112.088 59.932 112.124 59.796 112.124H56.004V115.172H60.048C60.184 115.172 60.288 115.208 60.36 115.28C60.432 115.352 60.468 115.452 60.468 115.58C60.468 115.716 60.432 115.82 60.36 115.892C60.288 115.964 60.184 116 60.048 116H55.584ZM61.9321 116.072C61.8281 116.072 61.7361 116.04 61.6561 115.976C61.5761 115.912 61.5321 115.828 61.5241 115.724C61.5241 115.612 61.5761 115.496 61.6801 115.376L63.7801 112.736V113.24L61.8121 110.78C61.7081 110.652 61.6561 110.536 61.6561 110.432C61.6641 110.328 61.7081 110.244 61.7881 110.18C61.8681 110.116 61.9601 110.084 62.0641 110.084C62.1841 110.084 62.2841 110.108 62.3641 110.156C62.4521 110.196 62.5321 110.264 62.6041 110.36L64.3201 112.532H63.9841L65.7121 110.36C65.7841 110.264 65.8601 110.196 65.9401 110.156C66.0201 110.108 66.1201 110.084 66.2401 110.084C66.3521 110.084 66.4441 110.116 66.5161 110.18C66.5961 110.244 66.6361 110.332 66.6361 110.444C66.6441 110.548 66.5961 110.664 66.4921 110.792L64.5361 113.216V112.772L66.6361 115.376C66.7321 115.496 66.7761 115.612 66.7681 115.724C66.7681 115.828 66.7281 115.912 66.6481 115.976C66.5681 116.04 66.4721 116.072 66.3601 116.072C66.2481 116.072 66.1481 116.048 66.0601 116C65.9801 115.96 65.9001 115.892 65.8201 115.796L63.9721 113.468H64.3201L62.4721 115.796C62.4001 115.884 62.3201 115.952 62.2321 116C62.1521 116.048 62.0521 116.072 61.9321 116.072ZM68.6928 118.244C68.5328 118.244 68.4128 118.2 68.3328 118.112C68.2528 118.032 68.2128 117.912 68.2128 117.752V110.576C68.2128 110.416 68.2528 110.296 68.3328 110.216C68.4128 110.128 68.5288 110.084 68.6808 110.084C68.8408 110.084 68.9608 110.128 69.0408 110.216C69.1288 110.296 69.1728 110.416 69.1728 110.576V111.716L69.0408 111.548C69.1688 111.092 69.4208 110.732 69.7968 110.468C70.1808 110.196 70.6368 110.06 71.1648 110.06C71.6848 110.06 72.1368 110.184 72.5208 110.432C72.9128 110.672 73.2128 111.02 73.4208 111.476C73.6368 111.924 73.7448 112.46 73.7448 113.084C73.7448 113.7 73.6368 114.236 73.4208 114.692C73.2128 115.14 72.9168 115.488 72.5328 115.736C72.1488 115.984 71.6928 116.108 71.1648 116.108C70.6368 116.108 70.1848 115.976 69.8088 115.712C69.4328 115.44 69.1768 115.08 69.0408 114.632H69.1848V117.752C69.1848 117.912 69.1408 118.032 69.0528 118.112C68.9648 118.2 68.8448 118.244 68.6928 118.244ZM70.9608 115.328C71.3288 115.328 71.6448 115.24 71.9088 115.064C72.1808 114.888 72.3888 114.632 72.5328 114.296C72.6848 113.96 72.7608 113.556 72.7608 113.084C72.7608 112.356 72.5968 111.8 72.2688 111.416C71.9488 111.032 71.5128 110.84 70.9608 110.84C70.6008 110.84 70.2848 110.928 70.0128 111.104C69.7408 111.272 69.5288 111.524 69.3768 111.86C69.2328 112.188 69.1608 112.596 69.1608 113.084C69.1608 113.804 69.3248 114.36 69.6528 114.752C69.9808 115.136 70.4168 115.328 70.9608 115.328ZM76.9849 116.108C76.4089 116.108 75.9689 115.932 75.6649 115.58C75.3609 115.228 75.2089 114.724 75.2089 114.068V107.948C75.2089 107.788 75.2489 107.668 75.3289 107.588C75.4089 107.5 75.5289 107.456 75.6889 107.456C75.8409 107.456 75.9609 107.5 76.0489 107.588C76.1369 107.668 76.1809 107.788 76.1809 107.948V113.996C76.1809 114.428 76.2649 114.752 76.4329 114.968C76.6089 115.176 76.8649 115.28 77.2009 115.28C77.2729 115.28 77.3369 115.276 77.3929 115.268C77.4489 115.26 77.5049 115.256 77.5609 115.256C77.6489 115.248 77.7089 115.268 77.7409 115.316C77.7809 115.364 77.8009 115.46 77.8009 115.604C77.8009 115.748 77.7689 115.856 77.7049 115.928C77.6409 116 77.5369 116.048 77.3929 116.072C77.3289 116.08 77.2609 116.088 77.1889 116.096C77.1169 116.104 77.0489 116.108 76.9849 116.108ZM81.1251 116.108C80.5571 116.108 80.0651 115.984 79.6491 115.736C79.2331 115.488 78.9091 115.14 78.6771 114.692C78.4531 114.236 78.3411 113.7 78.3411 113.084C78.3411 112.62 78.4051 112.204 78.5331 111.836C78.6611 111.46 78.8491 111.14 79.0971 110.876C79.3451 110.612 79.6371 110.412 79.9731 110.276C80.3171 110.132 80.7011 110.06 81.1251 110.06C81.6931 110.06 82.1851 110.184 82.6011 110.432C83.0171 110.68 83.3371 111.032 83.5611 111.488C83.7931 111.936 83.9091 112.468 83.9091 113.084C83.9091 113.548 83.8451 113.964 83.7171 114.332C83.5891 114.7 83.4011 115.02 83.1531 115.292C82.9051 115.556 82.6091 115.76 82.2651 115.904C81.9291 116.04 81.5491 116.108 81.1251 116.108ZM81.1251 115.328C81.4851 115.328 81.8011 115.24 82.0731 115.064C82.3451 114.888 82.5531 114.632 82.6971 114.296C82.8491 113.96 82.9251 113.556 82.9251 113.084C82.9251 112.356 82.7611 111.8 82.4331 111.416C82.1131 111.032 81.6771 110.84 81.1251 110.84C80.7571 110.84 80.4371 110.928 80.1651 111.104C79.9011 111.272 79.6931 111.524 79.5411 111.86C79.3971 112.188 79.3251 112.596 79.3251 113.084C79.3251 113.804 79.4891 114.36 79.8171 114.752C80.1451 115.136 80.5811 115.328 81.1251 115.328ZM85.861 116.084C85.701 116.084 85.577 116.04 85.489 115.952C85.409 115.864 85.369 115.74 85.369 115.58V110.576C85.369 110.416 85.409 110.296 85.489 110.216C85.569 110.128 85.685 110.084 85.837 110.084C85.989 110.084 86.105 110.128 86.185 110.216C86.273 110.296 86.317 110.416 86.317 110.576V111.548H86.197C86.325 111.076 86.569 110.712 86.929 110.456C87.289 110.2 87.733 110.064 88.261 110.048C88.381 110.04 88.477 110.068 88.549 110.132C88.621 110.188 88.661 110.288 88.669 110.432C88.677 110.568 88.645 110.676 88.573 110.756C88.501 110.836 88.389 110.884 88.237 110.9L88.045 110.924C87.501 110.972 87.081 111.148 86.785 111.452C86.497 111.748 86.353 112.156 86.353 112.676V115.58C86.353 115.74 86.309 115.864 86.221 115.952C86.141 116.04 86.021 116.084 85.861 116.084ZM92.2275 116.108C91.6115 116.108 91.0795 115.988 90.6315 115.748C90.1915 115.5 89.8475 115.152 89.5995 114.704C89.3595 114.256 89.2395 113.72 89.2395 113.096C89.2395 112.488 89.3595 111.96 89.5995 111.512C89.8395 111.056 90.1675 110.7 90.5835 110.444C91.0075 110.188 91.4955 110.06 92.0475 110.06C92.4395 110.06 92.7915 110.128 93.1035 110.264C93.4155 110.392 93.6795 110.58 93.8955 110.828C94.1195 111.076 94.2875 111.376 94.3995 111.728C94.5195 112.08 94.5795 112.476 94.5795 112.916C94.5795 113.044 94.5435 113.14 94.4715 113.204C94.3995 113.26 94.2955 113.288 94.1595 113.288H89.9835V112.652H93.9315L93.7395 112.808C93.7395 112.376 93.6755 112.012 93.5475 111.716C93.4195 111.412 93.2315 111.18 92.9835 111.02C92.7435 110.86 92.4395 110.78 92.0715 110.78C91.6635 110.78 91.3155 110.876 91.0275 111.068C90.7475 111.252 90.5355 111.512 90.3915 111.848C90.2475 112.176 90.1755 112.56 90.1755 113V113.072C90.1755 113.808 90.3515 114.368 90.7035 114.752C91.0635 115.136 91.5715 115.328 92.2275 115.328C92.4995 115.328 92.7675 115.292 93.0315 115.22C93.3035 115.148 93.5675 115.028 93.8235 114.86C93.9355 114.788 94.0355 114.756 94.1235 114.764C94.2195 114.764 94.2955 114.792 94.3515 114.848C94.4075 114.896 94.4435 114.96 94.4595 115.04C94.4835 115.112 94.4755 115.192 94.4355 115.28C94.4035 115.368 94.3355 115.444 94.2315 115.508C93.9675 115.7 93.6555 115.848 93.2955 115.952C92.9355 116.056 92.5795 116.108 92.2275 116.108ZM99.68 116.084C99.528 116.084 99.412 116.044 99.332 115.964C99.252 115.876 99.212 115.752 99.212 115.592V107.96C99.212 107.8 99.252 107.676 99.332 107.588C99.412 107.5 99.516 107.456 99.644 107.456C99.772 107.456 99.864 107.48 99.92 107.528C99.984 107.568 100.056 107.644 100.136 107.756L105.368 114.728H105.08V107.936C105.08 107.784 105.12 107.668 105.2 107.588C105.28 107.5 105.396 107.456 105.548 107.456C105.692 107.456 105.8 107.5 105.872 107.588C105.952 107.668 105.992 107.784 105.992 107.936V115.604C105.992 115.756 105.956 115.876 105.884 115.964C105.82 116.044 105.724 116.084 105.596 116.084C105.476 116.084 105.38 116.06 105.308 116.012C105.236 115.964 105.16 115.888 105.08 115.784L99.86 108.812H100.136V115.592C100.136 115.752 100.096 115.876 100.016 115.964C99.936 116.044 99.824 116.084 99.68 116.084ZM110.387 116.108C109.819 116.108 109.327 115.984 108.911 115.736C108.495 115.488 108.171 115.14 107.939 114.692C107.715 114.236 107.603 113.7 107.603 113.084C107.603 112.62 107.667 112.204 107.795 111.836C107.923 111.46 108.111 111.14 108.359 110.876C108.607 110.612 108.899 110.412 109.235 110.276C109.579 110.132 109.963 110.06 110.387 110.06C110.955 110.06 111.447 110.184 111.863 110.432C112.279 110.68 112.599 111.032 112.823 111.488C113.055 111.936 113.171 112.468 113.171 113.084C113.171 113.548 113.107 113.964 112.979 114.332C112.851 114.7 112.663 115.02 112.415 115.292C112.167 115.556 111.871 115.76 111.527 115.904C111.191 116.04 110.811 116.108 110.387 116.108ZM110.387 115.328C110.747 115.328 111.063 115.24 111.335 115.064C111.607 114.888 111.815 114.632 111.959 114.296C112.111 113.96 112.187 113.556 112.187 113.084C112.187 112.356 112.023 111.8 111.695 111.416C111.375 111.032 110.939 110.84 110.387 110.84C110.019 110.84 109.699 110.928 109.427 111.104C109.163 111.272 108.955 111.524 108.803 111.86C108.659 112.188 108.587 112.596 108.587 113.084C108.587 113.804 108.751 114.36 109.079 114.752C109.407 115.136 109.843 115.328 110.387 115.328ZM116.565 116.084C116.429 116.084 116.309 116.048 116.205 115.976C116.101 115.904 116.017 115.788 115.953 115.628L114.165 110.768C114.117 110.632 114.101 110.512 114.117 110.408C114.141 110.304 114.193 110.224 114.273 110.168C114.353 110.112 114.453 110.084 114.573 110.084C114.693 110.084 114.789 110.112 114.861 110.168C114.941 110.224 115.005 110.328 115.053 110.48L116.733 115.28H116.445L118.173 110.48C118.229 110.336 118.297 110.236 118.377 110.18C118.465 110.116 118.577 110.084 118.713 110.084C118.841 110.084 118.949 110.116 119.037 110.18C119.125 110.244 119.193 110.344 119.241 110.48L120.933 115.28H120.657L122.361 110.456C122.417 110.312 122.485 110.216 122.565 110.168C122.645 110.112 122.741 110.084 122.853 110.084C122.981 110.084 123.077 110.116 123.141 110.18C123.213 110.244 123.253 110.328 123.261 110.432C123.269 110.536 123.249 110.648 123.201 110.768L121.413 115.628C121.357 115.78 121.273 115.896 121.161 115.976C121.057 116.048 120.937 116.084 120.801 116.084C120.665 116.084 120.545 116.048 120.441 115.976C120.337 115.896 120.257 115.78 120.201 115.628L118.425 110.756H118.941L117.177 115.628C117.121 115.78 117.041 115.896 116.937 115.976C116.833 116.048 116.709 116.084 116.565 116.084Z" fill="black"/>
<defs>
<filter id="filter0_d_183_2784" x="-22.5" y="-19.2856" width="103.5" height="90.9185" filterUnits="userSpaceOnUse" color-interpolation-filters="sRGB">
<feFlood flood-opacity="0" result="BackgroundImageFix"/>
<feColorMatrix in="SourceAlpha" type="matrix" values="0 0 0 0 0 0 0 0 0 0 0 0 0 0 0 0 0 0 127 0" result="hardAlpha"/>
<feOffset dy="4"/>
<feGaussianBlur stdDeviation="5"/>
<feComposite in2="hardAlpha" operator="out"/>
<feColorMatrix type="matrix" values="0 0 0 0 0 0 0 0 0 0 0 0 0 0 0 0 0 0 0.05 0"/>
<feBlend mode="normal" in2="BackgroundImageFix" result="effect1_dropShadow_183_2784"/>
<feBlend mode="normal" in="SourceGraphic" in2="effect1_dropShadow_183_2784" result="shape"/>
</filter>
<filter id="filter1_d_183_2784" x="32" y="92" width="137" height="46" filterUnits="userSpaceOnUse" color-interpolation-filters="sRGB">
<feFlood flood-opacity="0" result="BackgroundImageFix"/>
<feColorMatrix in="SourceAlpha" type="matrix" values="0 0 0 0 0 0 0 0 0 0 0 0 0 0 0 0 0 0 127 0" result="hardAlpha"/>
<feMorphology radius="2" operator="erode" in="SourceAlpha" result="effect1_dropShadow_183_2784"/>
<feOffset dx="4" dy="3"/>
<feGaussianBlur stdDeviation="4.5"/>
<feComposite in2="hardAlpha" operator="out"/>
<feColorMatrix type="matrix" values="0 0 0 0 0 0 0 0 0 0 0 0 0 0 0 0 0 0 0.25 0"/>
<feBlend mode="normal" in2="BackgroundImageFix" result="effect1_dropShadow_183_2784"/>
<feBlend mode="normal" in="SourceGraphic" in2="effect1_dropShadow_183_2784" result="shape"/>
</filter>
<linearGradient id="paint0_linear_183_2784" x1="182" y1="1" x2="378.94" y2="147.035" gradientUnits="userSpaceOnUse">
<stop stop-color="#2A8CC1"/>
<stop offset="1" stop-color="#2255A4"/>
</linearGradient>
<linearGradient id="paint1_linear_183_2784" x1="29.25" y1="-13.2856" x2="29.25" y2="57.6327" gradientUnits="userSpaceOnUse">
<stop stop-color="#D6B268"/>
<stop offset="1" stop-color="#FFDE86"/>
</linearGradient>
</defs>
</svg>
