<svg xmlns="http://www.w3.org/2000/svg" width="383" height="150" fill="none" viewBox="0 0 383 150"><rect width="383" height="150" fill="url(#paint0_linear_8_21)" rx="10"/><mask id="mask0_8_21" style="mask-type:alpha" width="383" height="150" x="0" y="0" maskUnits="userSpaceOnUse"><rect width="383" height="150" fill="#2688BE" rx="10"/></mask><g mask="url(#mask0_8_21)"><g filter="url(#filter0_d_8_21)"><path fill="url(#paint1_linear_8_21)" d="M-13 56.9184L70.5 -14L-7 -4.81633L-13 56.9184Z"/></g><path fill="#000" d="M12.4282 24.9077C12.3156 25.0017 12.1973 25.0431 12.0734 25.032C11.9551 25.0161 11.8465 24.9491 11.7478 24.8309L7.32717 19.5369C7.21906 19.4074 7.16777 19.2831 7.17328 19.1638C7.17879 19.0446 7.23221 18.9426 7.33353 18.858C7.42922 18.7781 7.5165 18.7339 7.59536 18.7254C7.67422 18.7168 7.77987 18.7289 7.91229 18.7617L15.4547 20.5174L15.2436 20.6937L11.4081 16.1005C11.3047 15.9767 11.2581 15.8579 11.2683 15.7443C11.2795 15.6204 11.3441 15.509 11.4623 15.4103C11.5805 15.3116 11.6988 15.2702 11.8171 15.286C11.9307 15.2963 12.0393 15.3633 12.1427 15.4871L16.5774 20.798C16.6761 20.9162 16.7227 21.0349 16.7172 21.1542C16.7173 21.2687 16.6696 21.366 16.5739 21.4459C16.4838 21.5211 16.3914 21.5648 16.2965 21.5771C16.2121 21.5903 16.1036 21.5806 15.9712 21.5479L8.43724 19.7851L8.63144 19.6229L12.474 24.2245C12.5727 24.3427 12.6193 24.4615 12.6138 24.5807C12.6082 24.7 12.5464 24.8089 12.4282 24.9077ZM20.136 18.5C19.6913 18.8714 19.238 19.1066 18.7761 19.2056C18.3152 19.2943 17.8659 19.2539 17.4282 19.0844C16.9858 18.9093 16.5836 18.605 16.2217 18.1716C15.8644 17.7438 15.6363 17.299 15.5373 16.8371C15.4438 16.3705 15.4711 15.9226 15.619 15.4934C15.7725 15.0595 16.0435 14.6803 16.4319 14.356C16.7077 14.1257 16.9954 13.9667 17.2948 13.8791C17.5952 13.7811 17.897 13.7536 18.2003 13.7965C18.5036 13.8394 18.8005 13.9546 19.0908 14.1421C19.382 14.3192 19.6593 14.5654 19.9225 14.8807C19.9977 14.9707 20.0283 15.0646 20.0143 15.1622C20.0012 15.2496 19.9441 15.3355 19.8427 15.4202L16.9551 17.8314L16.5462 17.3417L19.2396 15.0926L19.1948 15.3307C18.9504 15.038 18.6985 14.8279 18.4392 14.7005C18.1809 14.5627 17.9226 14.5108 17.6645 14.5449C17.4119 14.5743 17.1618 14.6923 16.9141 14.8992C16.6439 15.1248 16.4672 15.3822 16.3839 15.6715C16.296 15.9552 16.2977 16.2547 16.3891 16.5701C16.4758 16.8798 16.6437 17.1839 16.8928 17.4822L16.9351 17.5329C17.3581 18.0395 17.7988 18.3212 18.257 18.378C18.7153 18.4348 19.1724 18.2728 19.6283 17.8921C19.8084 17.7417 19.9726 17.5664 20.1207 17.3663C20.2745 17.1614 20.3893 16.9271 20.4651 16.6631C20.5072 16.542 20.5644 16.456 20.6367 16.4052C20.7098 16.3441 20.7877 16.3173 20.8704 16.3247C20.9483 16.3265 21.0188 16.3537 21.0817 16.4062C21.14 16.4531 21.1832 16.5221 21.2115 16.6131C21.2398 16.7042 21.2356 16.8079 21.1991 16.9244C21.1215 17.209 20.9838 17.4959 20.7859 17.7853C20.589 18.0644 20.3724 18.3026 20.136 18.5ZM24.1354 15.1317C24.0284 15.221 23.9144 15.2733 23.7933 15.2884C23.6675 15.2979 23.5303 15.2596 23.3819 15.1733L19.3248 12.8719C19.1961 12.7978 19.1073 12.7143 19.0583 12.6214C19.0094 12.5285 18.9971 12.4337 19.0214 12.337C19.0458 12.2402 19.1086 12.1496 19.2099 12.065C19.3056 11.985 19.4004 11.9441 19.4943 11.9421C19.5882 11.9402 19.7042 11.9818 19.8423 12.0671L23.698 14.3505L23.4953 14.5197L21.9559 10.2735C21.9107 10.1393 21.9003 10.0238 21.9246 9.92708C21.9498 9.82002 22.0103 9.72653 22.106 9.64662C22.2073 9.56202 22.3129 9.51684 22.4227 9.5111C22.5279 9.49973 22.6368 9.53295 22.7496 9.61077L26.6363 11.8969L26.4421 12.0591L24.8857 7.82699C24.8311 7.68151 24.8183 7.56322 24.8474 7.47211C24.8717 7.37537 24.9289 7.2894 25.0189 7.2142C25.1202 7.12959 25.2174 7.09147 25.3104 7.09983C25.4033 7.10818 25.4879 7.15223 25.564 7.23196C25.6411 7.30136 25.7003 7.3952 25.7417 7.51346L27.2827 11.916C27.342 12.0671 27.353 12.2061 27.3155 12.3329C27.2837 12.455 27.2144 12.5607 27.1074 12.65C27.0005 12.7393 26.8813 12.791 26.7498 12.8052C26.624 12.8148 26.4893 12.7792 26.3455 12.6986L22.3743 10.397L22.7627 10.0727L24.3191 14.3907C24.3728 14.5465 24.3837 14.6855 24.3519 14.8076C24.3201 14.9297 24.2479 15.0377 24.1354 15.1317Z"/></g><path fill="#fff" d="M40.85 51.144C40.526 51.144 40.262 51.066 40.058 50.91C39.866 50.754 39.71 50.508 39.59 50.172L35.828 39.534C35.696 39.15 35.72 38.826 35.9 38.562C36.092 38.298 36.41 38.166 36.854 38.166C37.178 38.166 37.43 38.244 37.61 38.4C37.79 38.544 37.934 38.778 38.042 39.102L41.282 48.714H40.562L43.946 39.12C44.066 38.796 44.216 38.556 44.396 38.4C44.576 38.244 44.81 38.166 45.098 38.166C45.386 38.166 45.614 38.244 45.782 38.4C45.95 38.556 46.094 38.802 46.214 39.138L49.49 48.714H48.86L52.154 39.102C52.262 38.79 52.406 38.556 52.586 38.4C52.766 38.244 53.012 38.166 53.324 38.166C53.708 38.166 53.99 38.298 54.17 38.562C54.35 38.826 54.374 39.15 54.242 39.534L50.444 50.19C50.324 50.514 50.168 50.754 49.976 50.91C49.784 51.066 49.526 51.144 49.202 51.144C48.878 51.144 48.62 51.066 48.428 50.91C48.236 50.754 48.08 50.508 47.96 50.172L44.828 41.244H45.242L42.074 50.19C41.954 50.514 41.798 50.754 41.606 50.91C41.426 51.066 41.174 51.144 40.85 51.144ZM58.2215 51.144C57.8615 51.144 57.5855 51.048 57.3935 50.856C57.2015 50.652 57.1055 50.364 57.1055 49.992V39.3C57.1055 38.928 57.2015 38.646 57.3935 38.454C57.5855 38.262 57.8615 38.166 58.2215 38.166C58.5815 38.166 58.8575 38.262 59.0495 38.454C59.2535 38.646 59.3555 38.928 59.3555 39.3V43.962H59.1035C59.3675 43.326 59.7755 42.846 60.3275 42.522C60.8915 42.186 61.5275 42.018 62.2355 42.018C62.9435 42.018 63.5255 42.15 63.9815 42.414C64.4375 42.678 64.7795 43.08 65.0075 43.62C65.2355 44.148 65.3495 44.82 65.3495 45.636V49.992C65.3495 50.364 65.2535 50.652 65.0615 50.856C64.8695 51.048 64.5935 51.144 64.2335 51.144C63.8735 51.144 63.5915 51.048 63.3875 50.856C63.1955 50.652 63.0995 50.364 63.0995 49.992V45.744C63.0995 45.06 62.9675 44.562 62.7035 44.25C62.4515 43.938 62.0555 43.782 61.5155 43.782C60.8555 43.782 60.3275 43.992 59.9315 44.412C59.5475 44.82 59.3555 45.366 59.3555 46.05V49.992C59.3555 50.76 58.9775 51.144 58.2215 51.144ZM69.779 54.384C69.515 54.384 69.299 54.312 69.131 54.168C68.963 54.036 68.861 53.856 68.825 53.628C68.801 53.4 68.843 53.16 68.951 52.908L70.175 50.19V51.126L66.899 43.548C66.791 43.284 66.755 43.038 66.791 42.81C66.827 42.582 66.935 42.402 67.115 42.27C67.307 42.126 67.565 42.054 67.889 42.054C68.165 42.054 68.387 42.12 68.555 42.252C68.723 42.372 68.873 42.606 69.005 42.954L71.435 49.02H70.895L73.379 42.936C73.511 42.6 73.667 42.372 73.847 42.252C74.027 42.12 74.267 42.054 74.567 42.054C74.831 42.054 75.041 42.126 75.197 42.27C75.353 42.402 75.449 42.582 75.485 42.81C75.521 43.026 75.479 43.266 75.359 43.53L70.985 53.52C70.829 53.856 70.661 54.084 70.481 54.204C70.301 54.324 70.067 54.384 69.779 54.384ZM84.1403 54.384C83.8763 54.384 83.6603 54.312 83.4923 54.168C83.3243 54.036 83.2223 53.856 83.1863 53.628C83.1623 53.4 83.2043 53.16 83.3123 52.908L84.5363 50.19V51.126L81.2603 43.548C81.1523 43.284 81.1163 43.038 81.1523 42.81C81.1883 42.582 81.2963 42.402 81.4763 42.27C81.6683 42.126 81.9263 42.054 82.2503 42.054C82.5263 42.054 82.7483 42.12 82.9163 42.252C83.0843 42.372 83.2343 42.606 83.3663 42.954L85.7963 49.02H85.2563L87.7403 42.936C87.8723 42.6 88.0283 42.372 88.2083 42.252C88.3883 42.12 88.6283 42.054 88.9283 42.054C89.1923 42.054 89.4023 42.126 89.5583 42.27C89.7143 42.402 89.8103 42.582 89.8463 42.81C89.8823 43.026 89.8403 43.266 89.7203 43.53L85.3463 53.52C85.1903 53.856 85.0223 54.084 84.8423 54.204C84.6623 54.324 84.4283 54.384 84.1403 54.384ZM95.2211 51.18C94.3091 51.18 93.5171 50.994 92.8451 50.622C92.1731 50.25 91.6511 49.722 91.2791 49.038C90.9071 48.342 90.7211 47.526 90.7211 46.59C90.7211 45.882 90.8231 45.252 91.0271 44.7C91.2431 44.136 91.5491 43.656 91.9451 43.26C92.3411 42.852 92.8151 42.546 93.3671 42.342C93.9191 42.126 94.5371 42.018 95.2211 42.018C96.1331 42.018 96.9251 42.204 97.5971 42.576C98.2691 42.948 98.7911 43.476 99.1631 44.16C99.5351 44.844 99.7211 45.654 99.7211 46.59C99.7211 47.298 99.6131 47.934 99.3971 48.498C99.1931 49.062 98.8931 49.548 98.4971 49.956C98.1011 50.352 97.6271 50.658 97.0751 50.874C96.5231 51.078 95.9051 51.18 95.2211 51.18ZM95.2211 49.47C95.6651 49.47 96.0551 49.362 96.3911 49.146C96.7271 48.93 96.9851 48.612 97.1651 48.192C97.3571 47.76 97.4531 47.226 97.4531 46.59C97.4531 45.63 97.2491 44.916 96.8411 44.448C96.4331 43.968 95.8931 43.728 95.2211 43.728C94.7771 43.728 94.3871 43.836 94.0511 44.052C93.7151 44.256 93.4511 44.574 93.2591 45.006C93.0791 45.426 92.9891 45.954 92.9891 46.59C92.9891 47.538 93.1931 48.258 93.6011 48.75C94.0091 49.23 94.5491 49.47 95.2211 49.47ZM104.764 51.18C104.032 51.18 103.426 51.048 102.946 50.784C102.466 50.508 102.106 50.1 101.866 49.56C101.638 49.02 101.524 48.348 101.524 47.544V43.188C101.524 42.804 101.62 42.522 101.812 42.342C102.004 42.15 102.28 42.054 102.64 42.054C103 42.054 103.276 42.15 103.468 42.342C103.672 42.522 103.774 42.804 103.774 43.188V47.58C103.774 48.204 103.9 48.666 104.152 48.966C104.404 49.266 104.806 49.416 105.358 49.416C105.958 49.416 106.45 49.212 106.834 48.804C107.218 48.384 107.41 47.832 107.41 47.148V43.188C107.41 42.804 107.506 42.522 107.698 42.342C107.89 42.15 108.166 42.054 108.526 42.054C108.886 42.054 109.162 42.15 109.354 42.342C109.558 42.522 109.66 42.804 109.66 43.188V49.992C109.66 50.76 109.294 51.144 108.562 51.144C108.214 51.144 107.944 51.048 107.752 50.856C107.56 50.652 107.464 50.364 107.464 49.992V48.624L107.716 49.164C107.464 49.812 107.08 50.31 106.564 50.658C106.06 51.006 105.46 51.18 104.764 51.18ZM118.041 51.144C117.681 51.144 117.405 51.048 117.213 50.856C117.021 50.652 116.925 50.364 116.925 49.992V43.188C116.925 42.816 117.021 42.534 117.213 42.342C117.405 42.15 117.675 42.054 118.023 42.054C118.371 42.054 118.641 42.15 118.833 42.342C119.025 42.534 119.121 42.816 119.121 43.188V44.502L118.923 43.962C119.163 43.362 119.535 42.888 120.039 42.54C120.543 42.192 121.143 42.018 121.839 42.018C122.547 42.018 123.129 42.186 123.585 42.522C124.041 42.858 124.359 43.374 124.539 44.07H124.287C124.527 43.434 124.923 42.936 125.475 42.576C126.027 42.204 126.663 42.018 127.383 42.018C128.055 42.018 128.607 42.15 129.039 42.414C129.483 42.678 129.813 43.08 130.029 43.62C130.245 44.148 130.353 44.82 130.353 45.636V49.992C130.353 50.364 130.251 50.652 130.047 50.856C129.855 51.048 129.579 51.144 129.219 51.144C128.859 51.144 128.583 51.048 128.391 50.856C128.199 50.652 128.103 50.364 128.103 49.992V45.726C128.103 45.054 127.989 44.562 127.761 44.25C127.545 43.938 127.173 43.782 126.645 43.782C126.057 43.782 125.595 43.992 125.259 44.412C124.923 44.82 124.755 45.39 124.755 46.122V49.992C124.755 50.364 124.659 50.652 124.467 50.856C124.275 51.048 123.999 51.144 123.639 51.144C123.279 51.144 122.997 51.048 122.793 50.856C122.601 50.652 122.505 50.364 122.505 49.992V45.726C122.505 45.054 122.391 44.562 122.163 44.25C121.947 43.938 121.581 43.782 121.065 43.782C120.477 43.782 120.015 43.992 119.679 44.412C119.343 44.82 119.175 45.39 119.175 46.122V49.992C119.175 50.76 118.797 51.144 118.041 51.144ZM135.86 51.18C135.128 51.18 134.522 51.048 134.042 50.784C133.562 50.508 133.202 50.1 132.962 49.56C132.734 49.02 132.62 48.348 132.62 47.544V43.188C132.62 42.804 132.716 42.522 132.908 42.342C133.1 42.15 133.376 42.054 133.736 42.054C134.096 42.054 134.372 42.15 134.564 42.342C134.768 42.522 134.87 42.804 134.87 43.188V47.58C134.87 48.204 134.996 48.666 135.248 48.966C135.5 49.266 135.902 49.416 136.454 49.416C137.054 49.416 137.546 49.212 137.93 48.804C138.314 48.384 138.506 47.832 138.506 47.148V43.188C138.506 42.804 138.602 42.522 138.794 42.342C138.986 42.15 139.262 42.054 139.622 42.054C139.982 42.054 140.258 42.15 140.45 42.342C140.654 42.522 140.756 42.804 140.756 43.188V49.992C140.756 50.76 140.39 51.144 139.658 51.144C139.31 51.144 139.04 51.048 138.848 50.856C138.656 50.652 138.56 50.364 138.56 49.992V48.624L138.812 49.164C138.56 49.812 138.176 50.31 137.66 50.658C137.156 51.006 136.556 51.18 135.86 51.18ZM146.32 51.18C145.804 51.18 145.258 51.126 144.682 51.018C144.106 50.91 143.59 50.724 143.134 50.46C142.942 50.34 142.804 50.202 142.72 50.046C142.648 49.878 142.618 49.716 142.63 49.56C142.654 49.392 142.714 49.248 142.81 49.128C142.918 49.008 143.05 48.93 143.206 48.894C143.374 48.858 143.554 48.888 143.746 48.984C144.226 49.212 144.676 49.374 145.096 49.47C145.516 49.554 145.93 49.596 146.338 49.596C146.914 49.596 147.34 49.5 147.616 49.308C147.904 49.104 148.048 48.84 148.048 48.516C148.048 48.24 147.952 48.03 147.76 47.886C147.58 47.73 147.304 47.616 146.932 47.544L145.132 47.202C144.388 47.058 143.818 46.788 143.422 46.392C143.038 45.984 142.846 45.462 142.846 44.826C142.846 44.25 143.002 43.752 143.314 43.332C143.638 42.912 144.082 42.588 144.646 42.36C145.21 42.132 145.858 42.018 146.59 42.018C147.118 42.018 147.61 42.078 148.066 42.198C148.534 42.306 148.984 42.48 149.416 42.72C149.596 42.816 149.716 42.942 149.776 43.098C149.848 43.254 149.866 43.416 149.83 43.584C149.794 43.74 149.722 43.884 149.614 44.016C149.506 44.136 149.368 44.214 149.2 44.25C149.044 44.274 148.864 44.238 148.66 44.142C148.288 43.95 147.928 43.812 147.58 43.728C147.244 43.644 146.92 43.602 146.608 43.602C146.02 43.602 145.582 43.704 145.294 43.908C145.018 44.112 144.88 44.382 144.88 44.718C144.88 44.97 144.964 45.18 145.132 45.348C145.3 45.516 145.558 45.63 145.906 45.69L147.706 46.032C148.486 46.176 149.074 46.44 149.47 46.824C149.878 47.208 150.082 47.724 150.082 48.372C150.082 49.248 149.74 49.938 149.056 50.442C148.372 50.934 147.46 51.18 146.32 51.18ZM155.831 51.18C155.051 51.18 154.397 51.048 153.869 50.784C153.353 50.52 152.969 50.136 152.717 49.632C152.465 49.116 152.339 48.48 152.339 47.724V43.89H151.403C151.115 43.89 150.893 43.818 150.737 43.674C150.581 43.518 150.503 43.308 150.503 43.044C150.503 42.768 150.581 42.558 150.737 42.414C150.893 42.27 151.115 42.198 151.403 42.198H152.339V40.56C152.339 40.188 152.435 39.906 152.627 39.714C152.831 39.522 153.113 39.426 153.473 39.426C153.833 39.426 154.109 39.522 154.301 39.714C154.493 39.906 154.589 40.188 154.589 40.56V42.198H156.497C156.785 42.198 157.007 42.27 157.163 42.414C157.319 42.558 157.397 42.768 157.397 43.044C157.397 43.308 157.319 43.518 157.163 43.674C157.007 43.818 156.785 43.89 156.497 43.89H154.589V47.598C154.589 48.174 154.715 48.606 154.967 48.894C155.219 49.182 155.627 49.326 156.191 49.326C156.395 49.326 156.575 49.308 156.731 49.272C156.887 49.236 157.025 49.212 157.145 49.2C157.289 49.188 157.409 49.236 157.505 49.344C157.601 49.44 157.649 49.644 157.649 49.956C157.649 50.196 157.607 50.412 157.523 50.604C157.451 50.784 157.313 50.91 157.109 50.982C156.953 51.03 156.749 51.072 156.497 51.108C156.245 51.156 156.023 51.18 155.831 51.18ZM164.71 51.144C164.35 51.144 164.074 51.048 163.882 50.856C163.69 50.652 163.594 50.364 163.594 49.992V39.3C163.594 38.928 163.69 38.646 163.882 38.454C164.074 38.262 164.35 38.166 164.71 38.166C165.07 38.166 165.346 38.262 165.538 38.454C165.742 38.646 165.844 38.928 165.844 39.3V43.962H165.592C165.856 43.326 166.264 42.846 166.816 42.522C167.38 42.186 168.016 42.018 168.724 42.018C169.432 42.018 170.014 42.15 170.47 42.414C170.926 42.678 171.268 43.08 171.496 43.62C171.724 44.148 171.838 44.82 171.838 45.636V49.992C171.838 50.364 171.742 50.652 171.55 50.856C171.358 51.048 171.082 51.144 170.722 51.144C170.362 51.144 170.08 51.048 169.876 50.856C169.684 50.652 169.588 50.364 169.588 49.992V45.744C169.588 45.06 169.456 44.562 169.192 44.25C168.94 43.938 168.544 43.782 168.004 43.782C167.344 43.782 166.816 43.992 166.42 44.412C166.036 44.82 165.844 45.366 165.844 46.05V49.992C165.844 50.76 165.466 51.144 164.71 51.144ZM177.021 51.18C176.385 51.18 175.815 51.06 175.311 50.82C174.819 50.568 174.429 50.232 174.141 49.812C173.865 49.392 173.727 48.918 173.727 48.39C173.727 47.742 173.895 47.232 174.231 46.86C174.567 46.476 175.113 46.2 175.869 46.032C176.625 45.864 177.639 45.78 178.911 45.78H179.811V47.076H178.929C178.185 47.076 177.591 47.112 177.147 47.184C176.703 47.256 176.385 47.382 176.193 47.562C176.013 47.73 175.923 47.97 175.923 48.282C175.923 48.678 176.061 49.002 176.337 49.254C176.613 49.506 176.997 49.632 177.489 49.632C177.885 49.632 178.233 49.542 178.533 49.362C178.845 49.17 179.091 48.912 179.271 48.588C179.451 48.264 179.541 47.892 179.541 47.472V45.402C179.541 44.802 179.409 44.37 179.145 44.106C178.881 43.842 178.437 43.71 177.813 43.71C177.465 43.71 177.087 43.752 176.679 43.836C176.283 43.92 175.863 44.064 175.419 44.268C175.191 44.376 174.987 44.406 174.807 44.358C174.639 44.31 174.507 44.214 174.411 44.07C174.315 43.914 174.267 43.746 174.267 43.566C174.267 43.386 174.315 43.212 174.411 43.044C174.507 42.864 174.669 42.732 174.897 42.648C175.449 42.42 175.977 42.258 176.481 42.162C176.997 42.066 177.465 42.018 177.885 42.018C178.749 42.018 179.457 42.15 180.009 42.414C180.573 42.678 180.993 43.08 181.269 43.62C181.545 44.148 181.683 44.832 181.683 45.672V49.992C181.683 50.364 181.593 50.652 181.413 50.856C181.233 51.048 180.975 51.144 180.639 51.144C180.303 51.144 180.039 51.048 179.847 50.856C179.667 50.652 179.577 50.364 179.577 49.992V49.128H179.721C179.637 49.548 179.469 49.914 179.217 50.226C178.977 50.526 178.671 50.76 178.299 50.928C177.927 51.096 177.501 51.18 177.021 51.18ZM187.443 51.144C187.143 51.144 186.879 51.066 186.651 50.91C186.435 50.754 186.255 50.514 186.111 50.19L183.249 43.548C183.141 43.284 183.099 43.038 183.123 42.81C183.159 42.582 183.267 42.402 183.447 42.27C183.639 42.126 183.897 42.054 184.221 42.054C184.497 42.054 184.719 42.12 184.887 42.252C185.055 42.372 185.205 42.606 185.337 42.954L187.767 49.02H187.227L189.729 42.936C189.861 42.6 190.011 42.372 190.179 42.252C190.359 42.12 190.599 42.054 190.899 42.054C191.163 42.054 191.373 42.126 191.529 42.27C191.685 42.402 191.781 42.582 191.817 42.81C191.853 43.026 191.811 43.266 191.691 43.53L188.775 50.19C188.643 50.514 188.463 50.754 188.235 50.91C188.019 51.066 187.755 51.144 187.443 51.144ZM197.533 51.18C196.537 51.18 195.679 50.994 194.959 50.622C194.239 50.25 193.681 49.722 193.285 49.038C192.901 48.354 192.709 47.544 192.709 46.608C192.709 45.696 192.895 44.898 193.267 44.214C193.651 43.53 194.173 42.996 194.833 42.612C195.505 42.216 196.267 42.018 197.119 42.018C197.743 42.018 198.301 42.12 198.793 42.324C199.297 42.528 199.723 42.822 200.071 43.206C200.431 43.59 200.701 44.058 200.881 44.61C201.073 45.15 201.169 45.762 201.169 46.446C201.169 46.662 201.091 46.83 200.935 46.95C200.791 47.058 200.581 47.112 200.305 47.112H194.527V45.816H199.585L199.297 46.086C199.297 45.534 199.213 45.072 199.045 44.7C198.889 44.328 198.655 44.046 198.343 43.854C198.043 43.65 197.665 43.548 197.209 43.548C196.705 43.548 196.273 43.668 195.913 43.908C195.565 44.136 195.295 44.466 195.103 44.898C194.923 45.318 194.833 45.822 194.833 46.41V46.536C194.833 47.52 195.061 48.258 195.517 48.75C195.985 49.23 196.669 49.47 197.569 49.47C197.881 49.47 198.229 49.434 198.613 49.362C199.009 49.278 199.381 49.14 199.729 48.948C199.981 48.804 200.203 48.744 200.395 48.768C200.587 48.78 200.737 48.846 200.845 48.966C200.965 49.086 201.037 49.236 201.061 49.416C201.085 49.584 201.049 49.758 200.953 49.938C200.869 50.118 200.719 50.274 200.503 50.406C200.083 50.67 199.597 50.868 199.045 51C198.505 51.12 198.001 51.18 197.533 51.18ZM210.736 51.18C210.1 51.18 209.53 51.06 209.026 50.82C208.534 50.568 208.144 50.232 207.856 49.812C207.58 49.392 207.442 48.918 207.442 48.39C207.442 47.742 207.61 47.232 207.946 46.86C208.282 46.476 208.828 46.2 209.584 46.032C210.34 45.864 211.354 45.78 212.626 45.78H213.526V47.076H212.644C211.9 47.076 211.306 47.112 210.862 47.184C210.418 47.256 210.1 47.382 209.908 47.562C209.728 47.73 209.638 47.97 209.638 48.282C209.638 48.678 209.776 49.002 210.052 49.254C210.328 49.506 210.712 49.632 211.204 49.632C211.6 49.632 211.948 49.542 212.248 49.362C212.56 49.17 212.806 48.912 212.986 48.588C213.166 48.264 213.256 47.892 213.256 47.472V45.402C213.256 44.802 213.124 44.37 212.86 44.106C212.596 43.842 212.152 43.71 211.528 43.71C211.18 43.71 210.802 43.752 210.394 43.836C209.998 43.92 209.578 44.064 209.134 44.268C208.906 44.376 208.702 44.406 208.522 44.358C208.354 44.31 208.222 44.214 208.126 44.07C208.03 43.914 207.982 43.746 207.982 43.566C207.982 43.386 208.03 43.212 208.126 43.044C208.222 42.864 208.384 42.732 208.612 42.648C209.164 42.42 209.692 42.258 210.196 42.162C210.712 42.066 211.18 42.018 211.6 42.018C212.464 42.018 213.172 42.15 213.724 42.414C214.288 42.678 214.708 43.08 214.984 43.62C215.26 44.148 215.398 44.832 215.398 45.672V49.992C215.398 50.364 215.308 50.652 215.128 50.856C214.948 51.048 214.69 51.144 214.354 51.144C214.018 51.144 213.754 51.048 213.562 50.856C213.382 50.652 213.292 50.364 213.292 49.992V49.128H213.436C213.352 49.548 213.184 49.914 212.932 50.226C212.692 50.526 212.386 50.76 212.014 50.928C211.642 51.096 211.216 51.18 210.736 51.18ZM37.286 77.384C36.926 77.384 36.65 77.288 36.458 77.096C36.266 76.904 36.17 76.622 36.17 76.25V66.188C36.17 65.816 36.266 65.534 36.458 65.342C36.65 65.15 36.92 65.054 37.268 65.054C37.628 65.054 37.904 65.15 38.096 65.342C38.288 65.534 38.384 65.816 38.384 66.188V67.592L38.186 67.052C38.366 66.44 38.732 65.948 39.284 65.576C39.848 65.204 40.502 65.018 41.246 65.018C42.014 65.018 42.686 65.204 43.262 65.576C43.85 65.948 44.306 66.476 44.63 67.16C44.954 67.832 45.116 68.642 45.116 69.59C45.116 70.526 44.954 71.342 44.63 72.038C44.306 72.722 43.856 73.25 43.28 73.622C42.704 73.994 42.026 74.18 41.246 74.18C40.514 74.18 39.872 74 39.32 73.64C38.768 73.268 38.396 72.788 38.204 72.2H38.42V76.25C38.42 76.622 38.318 76.904 38.114 77.096C37.922 77.288 37.646 77.384 37.286 77.384ZM40.616 72.47C41.06 72.47 41.45 72.362 41.786 72.146C42.122 71.93 42.38 71.612 42.56 71.192C42.752 70.76 42.848 70.226 42.848 69.59C42.848 68.63 42.644 67.916 42.236 67.448C41.828 66.968 41.288 66.728 40.616 66.728C40.172 66.728 39.782 66.836 39.446 67.052C39.11 67.256 38.846 67.574 38.654 68.006C38.474 68.426 38.384 68.954 38.384 69.59C38.384 70.538 38.588 71.258 38.996 71.75C39.404 72.23 39.944 72.47 40.616 72.47ZM50.977 74.18C50.065 74.18 49.273 73.994 48.601 73.622C47.929 73.25 47.407 72.722 47.035 72.038C46.663 71.342 46.477 70.526 46.477 69.59C46.477 68.882 46.579 68.252 46.783 67.7C46.999 67.136 47.305 66.656 47.701 66.26C48.097 65.852 48.571 65.546 49.123 65.342C49.675 65.126 50.293 65.018 50.977 65.018C51.889 65.018 52.681 65.204 53.353 65.576C54.025 65.948 54.547 66.476 54.919 67.16C55.291 67.844 55.477 68.654 55.477 69.59C55.477 70.298 55.369 70.934 55.153 71.498C54.949 72.062 54.649 72.548 54.253 72.956C53.857 73.352 53.383 73.658 52.831 73.874C52.279 74.078 51.661 74.18 50.977 74.18ZM50.977 72.47C51.421 72.47 51.811 72.362 52.147 72.146C52.483 71.93 52.741 71.612 52.921 71.192C53.113 70.76 53.209 70.226 53.209 69.59C53.209 68.63 53.005 67.916 52.597 67.448C52.189 66.968 51.649 66.728 50.977 66.728C50.533 66.728 50.143 66.836 49.807 67.052C49.471 67.256 49.207 67.574 49.015 68.006C48.835 68.426 48.745 68.954 48.745 69.59C48.745 70.538 48.949 71.258 49.357 71.75C49.765 72.23 50.305 72.47 50.977 72.47ZM60.3401 74.18C59.3441 74.18 58.5941 73.898 58.0901 73.334C57.5861 72.758 57.3341 71.918 57.3341 70.814V62.3C57.3341 61.928 57.4301 61.646 57.6221 61.454C57.8141 61.262 58.0901 61.166 58.4501 61.166C58.8101 61.166 59.0861 61.262 59.2781 61.454C59.4821 61.646 59.5841 61.928 59.5841 62.3V70.706C59.5841 71.258 59.6981 71.666 59.9261 71.93C60.1661 72.194 60.5021 72.326 60.9341 72.326C61.0301 72.326 61.1201 72.326 61.2041 72.326C61.2881 72.314 61.3721 72.302 61.4561 72.29C61.6241 72.266 61.7381 72.314 61.7981 72.434C61.8581 72.542 61.8881 72.77 61.8881 73.118C61.8881 73.418 61.8281 73.652 61.7081 73.82C61.5881 73.988 61.3901 74.09 61.1141 74.126C60.9941 74.138 60.8681 74.15 60.7361 74.162C60.6041 74.174 60.4721 74.18 60.3401 74.18ZM64.1981 74.126C63.8381 74.126 63.5621 74.018 63.3701 73.802C63.1781 73.586 63.0821 73.286 63.0821 72.902V66.296C63.0821 65.9 63.1781 65.6 63.3701 65.396C63.5621 65.18 63.8381 65.072 64.1981 65.072C64.5581 65.072 64.8341 65.18 65.0261 65.396C65.2301 65.6 65.3321 65.9 65.3321 66.296V72.902C65.3321 73.286 65.2361 73.586 65.0441 73.802C64.8521 74.018 64.5701 74.126 64.1981 74.126ZM64.1981 63.398C63.7781 63.398 63.4481 63.296 63.2081 63.092C62.9801 62.876 62.8661 62.582 62.8661 62.21C62.8661 61.826 62.9801 61.532 63.2081 61.328C63.4481 61.124 63.7781 61.022 64.1981 61.022C64.6301 61.022 64.9601 61.124 65.1881 61.328C65.4161 61.532 65.5301 61.826 65.5301 62.21C65.5301 62.582 65.4161 62.876 65.1881 63.092C64.9601 63.296 64.6301 63.398 64.1981 63.398ZM71.738 74.18C70.814 74.18 70.01 73.994 69.326 73.622C68.642 73.238 68.114 72.698 67.742 72.002C67.37 71.306 67.184 70.49 67.184 69.554C67.184 68.846 67.286 68.216 67.49 67.664C67.706 67.1 68.012 66.626 68.408 66.242C68.804 65.846 69.284 65.546 69.848 65.342C70.412 65.126 71.042 65.018 71.738 65.018C72.134 65.018 72.56 65.072 73.016 65.18C73.484 65.288 73.922 65.468 74.33 65.72C74.522 65.84 74.648 65.984 74.708 66.152C74.768 66.32 74.78 66.494 74.744 66.674C74.708 66.842 74.63 66.992 74.51 67.124C74.402 67.244 74.264 67.322 74.096 67.358C73.928 67.382 73.742 67.34 73.538 67.232C73.274 67.076 73.004 66.962 72.728 66.89C72.452 66.806 72.188 66.764 71.936 66.764C71.54 66.764 71.192 66.83 70.892 66.962C70.592 67.082 70.334 67.262 70.118 67.502C69.914 67.73 69.758 68.018 69.65 68.366C69.542 68.714 69.488 69.116 69.488 69.572C69.488 70.46 69.698 71.162 70.118 71.678C70.55 72.182 71.156 72.434 71.936 72.434C72.188 72.434 72.446 72.398 72.71 72.326C72.986 72.254 73.262 72.14 73.538 71.984C73.742 71.876 73.922 71.84 74.078 71.876C74.246 71.912 74.384 71.996 74.492 72.128C74.6 72.248 74.666 72.398 74.69 72.578C74.714 72.746 74.69 72.914 74.618 73.082C74.558 73.25 74.438 73.388 74.258 73.496C73.862 73.736 73.442 73.91 72.998 74.018C72.554 74.126 72.134 74.18 71.738 74.18ZM78.5329 77.384C78.2689 77.384 78.0529 77.312 77.8849 77.168C77.7169 77.036 77.6149 76.856 77.5789 76.628C77.5549 76.4 77.5969 76.16 77.7049 75.908L78.9289 73.19V74.126L75.6529 66.548C75.5449 66.284 75.5089 66.038 75.5449 65.81C75.5809 65.582 75.6889 65.402 75.8689 65.27C76.0609 65.126 76.3189 65.054 76.6429 65.054C76.9189 65.054 77.1409 65.12 77.3089 65.252C77.4769 65.372 77.6269 65.606 77.7589 65.954L80.1889 72.02H79.6489L82.1329 65.936C82.2649 65.6 82.4209 65.372 82.6009 65.252C82.7809 65.12 83.0209 65.054 83.3209 65.054C83.5849 65.054 83.7949 65.126 83.9509 65.27C84.1069 65.402 84.2029 65.582 84.2389 65.81C84.2749 66.026 84.2329 66.266 84.1129 66.53L79.7389 76.52C79.5829 76.856 79.4149 77.084 79.2349 77.204C79.0549 77.324 78.8209 77.384 78.5329 77.384ZM94.0642 74.144C93.7642 74.144 93.5062 74.072 93.2902 73.928C93.0742 73.772 92.9002 73.532 92.7682 73.208L90.1582 66.548C90.0502 66.26 90.0142 66.008 90.0502 65.792C90.0982 65.564 90.2122 65.384 90.3922 65.252C90.5722 65.12 90.8122 65.054 91.1122 65.054C91.3762 65.054 91.5922 65.12 91.7602 65.252C91.9282 65.372 92.0722 65.606 92.1922 65.954L94.3702 71.948H93.9562L96.2062 65.81C96.3022 65.546 96.4282 65.354 96.5842 65.234C96.7522 65.114 96.9682 65.054 97.2322 65.054C97.4962 65.054 97.7122 65.12 97.8802 65.252C98.0482 65.372 98.1742 65.558 98.2582 65.81L100.472 71.948H100.094L102.29 65.9C102.41 65.576 102.56 65.354 102.74 65.234C102.932 65.114 103.142 65.054 103.37 65.054C103.658 65.054 103.88 65.126 104.036 65.27C104.192 65.414 104.282 65.6 104.306 65.828C104.33 66.044 104.288 66.284 104.18 66.548L101.588 73.208C101.468 73.52 101.294 73.754 101.066 73.91C100.85 74.066 100.592 74.144 100.292 74.144C99.9922 74.144 99.7282 74.066 99.5002 73.91C99.2842 73.754 99.1162 73.52 98.9962 73.208L96.6382 66.962H97.6642L95.3602 73.19C95.2402 73.514 95.0722 73.754 94.8562 73.91C94.6402 74.066 94.3762 74.144 94.0642 74.144ZM107.124 74.126C106.764 74.126 106.488 74.018 106.296 73.802C106.104 73.586 106.008 73.286 106.008 72.902V66.296C106.008 65.9 106.104 65.6 106.296 65.396C106.488 65.18 106.764 65.072 107.124 65.072C107.484 65.072 107.76 65.18 107.952 65.396C108.156 65.6 108.258 65.9 108.258 66.296V72.902C108.258 73.286 108.162 73.586 107.97 73.802C107.778 74.018 107.496 74.126 107.124 74.126ZM107.124 63.398C106.704 63.398 106.374 63.296 106.134 63.092C105.906 62.876 105.792 62.582 105.792 62.21C105.792 61.826 105.906 61.532 106.134 61.328C106.374 61.124 106.704 61.022 107.124 61.022C107.556 61.022 107.886 61.124 108.114 61.328C108.342 61.532 108.456 61.826 108.456 62.21C108.456 62.582 108.342 62.876 108.114 63.092C107.886 63.296 107.556 63.398 107.124 63.398ZM114.628 74.18C113.848 74.18 113.194 74.048 112.666 73.784C112.15 73.52 111.766 73.136 111.514 72.632C111.262 72.116 111.136 71.48 111.136 70.724V66.89H110.2C109.912 66.89 109.69 66.818 109.534 66.674C109.378 66.518 109.3 66.308 109.3 66.044C109.3 65.768 109.378 65.558 109.534 65.414C109.69 65.27 109.912 65.198 110.2 65.198H111.136V63.56C111.136 63.188 111.232 62.906 111.424 62.714C111.628 62.522 111.91 62.426 112.27 62.426C112.63 62.426 112.906 62.522 113.098 62.714C113.29 62.906 113.386 63.188 113.386 63.56V65.198H115.294C115.582 65.198 115.804 65.27 115.96 65.414C116.116 65.558 116.194 65.768 116.194 66.044C116.194 66.308 116.116 66.518 115.96 66.674C115.804 66.818 115.582 66.89 115.294 66.89H113.386V70.598C113.386 71.174 113.512 71.606 113.764 71.894C114.016 72.182 114.424 72.326 114.988 72.326C115.192 72.326 115.372 72.308 115.528 72.272C115.684 72.236 115.822 72.212 115.942 72.2C116.086 72.188 116.206 72.236 116.302 72.344C116.398 72.44 116.446 72.644 116.446 72.956C116.446 73.196 116.404 73.412 116.32 73.604C116.248 73.784 116.11 73.91 115.906 73.982C115.75 74.03 115.546 74.072 115.294 74.108C115.042 74.156 114.82 74.18 114.628 74.18ZM118.849 74.144C118.489 74.144 118.213 74.048 118.021 73.856C117.829 73.652 117.733 73.364 117.733 72.992V62.3C117.733 61.928 117.829 61.646 118.021 61.454C118.213 61.262 118.489 61.166 118.849 61.166C119.209 61.166 119.485 61.262 119.677 61.454C119.881 61.646 119.983 61.928 119.983 62.3V66.962H119.731C119.995 66.326 120.403 65.846 120.955 65.522C121.519 65.186 122.155 65.018 122.863 65.018C123.571 65.018 124.153 65.15 124.609 65.414C125.065 65.678 125.407 66.08 125.635 66.62C125.863 67.148 125.977 67.82 125.977 68.636V72.992C125.977 73.364 125.881 73.652 125.689 73.856C125.497 74.048 125.221 74.144 124.861 74.144C124.501 74.144 124.219 74.048 124.015 73.856C123.823 73.652 123.727 73.364 123.727 72.992V68.744C123.727 68.06 123.595 67.562 123.331 67.25C123.079 66.938 122.683 66.782 122.143 66.782C121.483 66.782 120.955 66.992 120.559 67.412C120.175 67.82 119.983 68.366 119.983 69.05V72.992C119.983 73.76 119.605 74.144 118.849 74.144ZM135.381 77.384C135.117 77.384 134.901 77.312 134.733 77.168C134.565 77.036 134.463 76.856 134.427 76.628C134.403 76.4 134.445 76.16 134.553 75.908L135.777 73.19V74.126L132.501 66.548C132.393 66.284 132.357 66.038 132.393 65.81C132.429 65.582 132.537 65.402 132.717 65.27C132.909 65.126 133.167 65.054 133.491 65.054C133.767 65.054 133.989 65.12 134.157 65.252C134.325 65.372 134.475 65.606 134.607 65.954L137.037 72.02H136.497L138.981 65.936C139.113 65.6 139.269 65.372 139.449 65.252C139.629 65.12 139.869 65.054 140.169 65.054C140.433 65.054 140.643 65.126 140.799 65.27C140.955 65.402 141.051 65.582 141.087 65.81C141.123 66.026 141.081 66.266 140.961 66.53L136.587 76.52C136.431 76.856 136.263 77.084 136.083 77.204C135.903 77.324 135.669 77.384 135.381 77.384ZM146.461 74.18C145.549 74.18 144.757 73.994 144.085 73.622C143.413 73.25 142.891 72.722 142.519 72.038C142.147 71.342 141.961 70.526 141.961 69.59C141.961 68.882 142.063 68.252 142.267 67.7C142.483 67.136 142.789 66.656 143.185 66.26C143.581 65.852 144.055 65.546 144.607 65.342C145.159 65.126 145.777 65.018 146.461 65.018C147.373 65.018 148.165 65.204 148.837 65.576C149.509 65.948 150.031 66.476 150.403 67.16C150.775 67.844 150.961 68.654 150.961 69.59C150.961 70.298 150.853 70.934 150.637 71.498C150.433 72.062 150.133 72.548 149.737 72.956C149.341 73.352 148.867 73.658 148.315 73.874C147.763 74.078 147.145 74.18 146.461 74.18ZM146.461 72.47C146.905 72.47 147.295 72.362 147.631 72.146C147.967 71.93 148.225 71.612 148.405 71.192C148.597 70.76 148.693 70.226 148.693 69.59C148.693 68.63 148.489 67.916 148.081 67.448C147.673 66.968 147.133 66.728 146.461 66.728C146.017 66.728 145.627 66.836 145.291 67.052C144.955 67.256 144.691 67.574 144.499 68.006C144.319 68.426 144.229 68.954 144.229 69.59C144.229 70.538 144.433 71.258 144.841 71.75C145.249 72.23 145.789 72.47 146.461 72.47ZM156.004 74.18C155.272 74.18 154.666 74.048 154.186 73.784C153.706 73.508 153.346 73.1 153.106 72.56C152.878 72.02 152.764 71.348 152.764 70.544V66.188C152.764 65.804 152.86 65.522 153.052 65.342C153.244 65.15 153.52 65.054 153.88 65.054C154.24 65.054 154.516 65.15 154.708 65.342C154.912 65.522 155.014 65.804 155.014 66.188V70.58C155.014 71.204 155.14 71.666 155.392 71.966C155.644 72.266 156.046 72.416 156.598 72.416C157.198 72.416 157.69 72.212 158.074 71.804C158.458 71.384 158.65 70.832 158.65 70.148V66.188C158.65 65.804 158.746 65.522 158.938 65.342C159.13 65.15 159.406 65.054 159.766 65.054C160.126 65.054 160.402 65.15 160.594 65.342C160.798 65.522 160.9 65.804 160.9 66.188V72.992C160.9 73.76 160.534 74.144 159.802 74.144C159.454 74.144 159.184 74.048 158.992 73.856C158.8 73.652 158.704 73.364 158.704 72.992V71.624L158.956 72.164C158.704 72.812 158.32 73.31 157.804 73.658C157.3 74.006 156.7 74.18 156.004 74.18ZM165.91 70.328C165.682 70.328 165.502 70.256 165.37 70.112C165.25 69.956 165.19 69.752 165.19 69.5C165.19 69.128 165.232 68.78 165.316 68.456C165.412 68.12 165.562 67.784 165.766 67.448C165.97 67.112 166.24 66.758 166.576 66.386C166.828 66.098 167.026 65.846 167.17 65.63C167.326 65.402 167.434 65.186 167.494 64.982C167.566 64.778 167.602 64.568 167.602 64.352C167.602 63.956 167.458 63.644 167.17 63.416C166.882 63.188 166.474 63.074 165.946 63.074C165.466 63.074 165.028 63.14 164.632 63.272C164.248 63.392 163.858 63.566 163.462 63.794C163.198 63.95 162.958 64.022 162.742 64.01C162.538 63.986 162.37 63.908 162.238 63.776C162.106 63.644 162.022 63.482 161.986 63.29C161.95 63.098 161.98 62.9 162.076 62.696C162.172 62.492 162.346 62.306 162.598 62.138C163.09 61.814 163.654 61.568 164.29 61.4C164.926 61.22 165.526 61.13 166.09 61.13C166.846 61.13 167.506 61.256 168.07 61.508C168.646 61.76 169.09 62.108 169.402 62.552C169.726 62.996 169.888 63.518 169.888 64.118C169.888 64.49 169.834 64.844 169.726 65.18C169.618 65.504 169.444 65.834 169.204 66.17C168.964 66.494 168.634 66.848 168.214 67.232C167.842 67.568 167.542 67.874 167.314 68.15C167.098 68.426 166.936 68.69 166.828 68.942C166.732 69.194 166.666 69.464 166.63 69.752C166.618 69.92 166.546 70.058 166.414 70.166C166.294 70.274 166.126 70.328 165.91 70.328ZM165.874 74.09C165.466 74.09 165.136 73.964 164.884 73.712C164.644 73.46 164.524 73.136 164.524 72.74C164.524 72.356 164.644 72.044 164.884 71.804C165.136 71.552 165.466 71.426 165.874 71.426C166.294 71.426 166.618 71.552 166.846 71.804C167.086 72.044 167.206 72.356 167.206 72.74C167.206 73.136 167.086 73.46 166.846 73.712C166.618 73.964 166.294 74.09 165.874 74.09Z"/><g filter="url(#filter1_d_8_21)"><rect width="123" height="32" x="35" y="95" fill="#fff" rx="16"/></g><path fill="#000" d="M60.8837 115.111C60.7237 115.111 60.5997 115.067 60.5117 114.979C60.4317 114.883 60.3917 114.755 60.3917 114.595V106.987C60.3917 106.819 60.4317 106.695 60.5117 106.615C60.5997 106.527 60.7237 106.483 60.8837 106.483C61.0437 106.483 61.1637 106.527 61.2437 106.615C61.3317 106.695 61.3757 106.819 61.3757 106.987V110.407H61.3997L65.3117 106.759C65.4077 106.663 65.5037 106.595 65.5997 106.555C65.6957 106.507 65.7997 106.483 65.9117 106.483C66.0637 106.483 66.1717 106.519 66.2357 106.591C66.3077 106.663 66.3357 106.751 66.3197 106.855C66.3037 106.959 66.2477 107.059 66.1517 107.155L62.0597 110.947L62.0717 110.419L66.3437 114.367C66.4637 114.479 66.5277 114.595 66.5357 114.715C66.5437 114.827 66.5077 114.923 66.4277 115.003C66.3557 115.075 66.2437 115.111 66.0917 115.111C65.9717 115.111 65.8677 115.083 65.7797 115.027C65.6997 114.979 65.6077 114.903 65.5037 114.799L61.3997 111.043H61.3757V114.595C61.3757 114.755 61.3357 114.883 61.2557 114.979C61.1757 115.067 61.0517 115.111 60.8837 115.111ZM68.2397 115.111C68.0797 115.111 67.9597 115.067 67.8797 114.979C67.7997 114.891 67.7597 114.767 67.7597 114.607V109.603C67.7597 109.443 67.7997 109.323 67.8797 109.243C67.9597 109.155 68.0757 109.111 68.2277 109.111C68.3797 109.111 68.4957 109.155 68.5757 109.243C68.6637 109.323 68.7077 109.443 68.7077 109.603V110.635L68.5757 110.491C68.7437 110.027 69.0157 109.679 69.3917 109.447C69.7757 109.207 70.2157 109.087 70.7117 109.087C71.1757 109.087 71.5597 109.171 71.8637 109.339C72.1757 109.507 72.4077 109.763 72.5597 110.107C72.7117 110.443 72.7877 110.871 72.7877 111.391V114.607C72.7877 114.767 72.7437 114.891 72.6557 114.979C72.5757 115.067 72.4597 115.111 72.3077 115.111C72.1477 115.111 72.0237 115.067 71.9357 114.979C71.8557 114.891 71.8157 114.767 71.8157 114.607V111.451C71.8157 110.907 71.7077 110.511 71.4917 110.263C71.2837 110.007 70.9477 109.879 70.4837 109.879C69.9477 109.879 69.5197 110.047 69.1997 110.383C68.8877 110.711 68.7317 111.151 68.7317 111.703V114.607C68.7317 114.943 68.5677 115.111 68.2397 115.111ZM77.004 115.135C76.436 115.135 75.944 115.011 75.528 114.763C75.112 114.515 74.788 114.167 74.556 113.719C74.332 113.263 74.22 112.727 74.22 112.111C74.22 111.647 74.284 111.231 74.412 110.863C74.54 110.487 74.728 110.167 74.976 109.903C75.224 109.639 75.516 109.439 75.852 109.303C76.196 109.159 76.58 109.087 77.004 109.087C77.572 109.087 78.064 109.211 78.48 109.459C78.896 109.707 79.216 110.059 79.44 110.515C79.672 110.963 79.788 111.495 79.788 112.111C79.788 112.575 79.724 112.991 79.596 113.359C79.468 113.727 79.28 114.047 79.032 114.319C78.784 114.583 78.488 114.787 78.144 114.931C77.808 115.067 77.428 115.135 77.004 115.135ZM77.004 114.355C77.364 114.355 77.68 114.267 77.952 114.091C78.224 113.915 78.432 113.659 78.576 113.323C78.728 112.987 78.804 112.583 78.804 112.111C78.804 111.383 78.64 110.827 78.312 110.443C77.992 110.059 77.556 109.867 77.004 109.867C76.636 109.867 76.316 109.955 76.044 110.131C75.78 110.299 75.572 110.551 75.42 110.887C75.276 111.215 75.204 111.623 75.204 112.111C75.204 112.831 75.368 113.387 75.696 113.779C76.024 114.163 76.46 114.355 77.004 114.355ZM83.1819 115.111C83.0459 115.111 82.9259 115.075 82.8219 115.003C82.7179 114.931 82.6339 114.815 82.5699 114.655L80.7819 109.795C80.7339 109.659 80.7179 109.539 80.7339 109.435C80.7579 109.331 80.8099 109.251 80.8899 109.195C80.9699 109.139 81.0699 109.111 81.1899 109.111C81.3099 109.111 81.4059 109.139 81.4779 109.195C81.5579 109.251 81.6219 109.355 81.6699 109.507L83.3499 114.307H83.0619L84.7899 109.507C84.8459 109.363 84.9139 109.263 84.9939 109.207C85.0819 109.143 85.1939 109.111 85.3299 109.111C85.4579 109.111 85.5659 109.143 85.6539 109.207C85.7419 109.271 85.8099 109.371 85.8579 109.507L87.5499 114.307H87.2739L88.9779 109.483C89.0339 109.339 89.1019 109.243 89.1819 109.195C89.2619 109.139 89.3579 109.111 89.4699 109.111C89.5979 109.111 89.6939 109.143 89.7579 109.207C89.8299 109.271 89.8699 109.355 89.8779 109.459C89.8859 109.563 89.8659 109.675 89.8179 109.795L88.0299 114.655C87.9739 114.807 87.8899 114.923 87.7779 115.003C87.6739 115.075 87.5539 115.111 87.4179 115.111C87.2819 115.111 87.1619 115.075 87.0579 115.003C86.9539 114.923 86.8739 114.807 86.8179 114.655L85.0419 109.783H85.5579L83.7939 114.655C83.7379 114.807 83.6579 114.923 83.5539 115.003C83.4499 115.075 83.3259 115.111 83.1819 115.111ZM94.8535 115.111C94.6935 115.111 94.5735 115.067 94.4935 114.979C94.4135 114.891 94.3735 114.767 94.3735 114.607V109.603C94.3735 109.443 94.4135 109.323 94.4935 109.243C94.5735 109.155 94.6895 109.111 94.8415 109.111C94.9935 109.111 95.1095 109.155 95.1895 109.243C95.2775 109.323 95.3215 109.443 95.3215 109.603V110.659L95.1895 110.491C95.3415 110.043 95.5855 109.699 95.9215 109.459C96.2655 109.211 96.6735 109.087 97.1455 109.087C97.6415 109.087 98.0415 109.207 98.3455 109.447C98.6575 109.679 98.8655 110.043 98.9695 110.539H98.7895C98.9335 110.091 99.1895 109.739 99.5575 109.483C99.9335 109.219 100.37 109.087 100.866 109.087C101.306 109.087 101.666 109.171 101.946 109.339C102.234 109.507 102.45 109.763 102.594 110.107C102.738 110.443 102.81 110.871 102.81 111.391V114.607C102.81 114.767 102.766 114.891 102.678 114.979C102.598 115.067 102.478 115.111 102.318 115.111C102.166 115.111 102.046 115.067 101.958 114.979C101.878 114.891 101.838 114.767 101.838 114.607V111.439C101.838 110.903 101.746 110.511 101.562 110.263C101.378 110.007 101.066 109.879 100.626 109.879C100.146 109.879 99.7655 110.047 99.4855 110.383C99.2135 110.711 99.0775 111.159 99.0775 111.727V114.607C99.0775 114.767 99.0335 114.891 98.9455 114.979C98.8655 115.067 98.7455 115.111 98.5855 115.111C98.4335 115.111 98.3135 115.067 98.2255 114.979C98.1455 114.891 98.1055 114.767 98.1055 114.607V111.439C98.1055 110.903 98.0095 110.511 97.8175 110.263C97.6335 110.007 97.3255 109.879 96.8935 109.879C96.4135 109.879 96.0335 110.047 95.7535 110.383C95.4815 110.711 95.3455 111.159 95.3455 111.727V114.607C95.3455 114.943 95.1815 115.111 94.8535 115.111ZM107.051 115.135C106.483 115.135 105.991 115.011 105.575 114.763C105.159 114.515 104.835 114.167 104.603 113.719C104.379 113.263 104.267 112.727 104.267 112.111C104.267 111.647 104.331 111.231 104.459 110.863C104.587 110.487 104.775 110.167 105.023 109.903C105.271 109.639 105.563 109.439 105.899 109.303C106.243 109.159 106.627 109.087 107.051 109.087C107.619 109.087 108.111 109.211 108.527 109.459C108.943 109.707 109.263 110.059 109.487 110.515C109.719 110.963 109.835 111.495 109.835 112.111C109.835 112.575 109.771 112.991 109.643 113.359C109.515 113.727 109.327 114.047 109.079 114.319C108.831 114.583 108.535 114.787 108.191 114.931C107.855 115.067 107.475 115.135 107.051 115.135ZM107.051 114.355C107.411 114.355 107.727 114.267 107.999 114.091C108.271 113.915 108.479 113.659 108.623 113.323C108.775 112.987 108.851 112.583 108.851 112.111C108.851 111.383 108.687 110.827 108.359 110.443C108.039 110.059 107.603 109.867 107.051 109.867C106.683 109.867 106.363 109.955 106.091 110.131C105.827 110.299 105.619 110.551 105.467 110.887C105.323 111.215 105.251 111.623 105.251 112.111C105.251 112.831 105.415 113.387 105.743 113.779C106.071 114.163 106.507 114.355 107.051 114.355ZM111.787 115.111C111.627 115.111 111.503 115.067 111.415 114.979C111.335 114.891 111.295 114.767 111.295 114.607V109.603C111.295 109.443 111.335 109.323 111.415 109.243C111.495 109.155 111.611 109.111 111.763 109.111C111.915 109.111 112.031 109.155 112.111 109.243C112.199 109.323 112.243 109.443 112.243 109.603V110.575H112.123C112.251 110.103 112.495 109.739 112.855 109.483C113.215 109.227 113.659 109.091 114.187 109.075C114.307 109.067 114.403 109.095 114.475 109.159C114.547 109.215 114.587 109.315 114.595 109.459C114.603 109.595 114.571 109.703 114.499 109.783C114.427 109.863 114.315 109.911 114.163 109.927L113.971 109.951C113.427 109.999 113.007 110.175 112.711 110.479C112.423 110.775 112.279 111.183 112.279 111.703V114.607C112.279 114.767 112.235 114.891 112.147 114.979C112.067 115.067 111.947 115.111 111.787 115.111ZM118.153 115.135C117.537 115.135 117.005 115.015 116.557 114.775C116.117 114.527 115.773 114.179 115.525 113.731C115.285 113.283 115.165 112.747 115.165 112.123C115.165 111.515 115.285 110.987 115.525 110.539C115.765 110.083 116.093 109.727 116.509 109.471C116.933 109.215 117.421 109.087 117.973 109.087C118.365 109.087 118.717 109.155 119.029 109.291C119.341 109.419 119.605 109.607 119.821 109.855C120.045 110.103 120.213 110.403 120.325 110.755C120.445 111.107 120.505 111.503 120.505 111.943C120.505 112.071 120.469 112.167 120.397 112.231C120.325 112.287 120.221 112.315 120.085 112.315H115.909V111.679H119.857L119.665 111.835C119.665 111.403 119.601 111.039 119.473 110.743C119.345 110.439 119.157 110.207 118.909 110.047C118.669 109.887 118.365 109.807 117.997 109.807C117.589 109.807 117.241 109.903 116.953 110.095C116.673 110.279 116.461 110.539 116.317 110.875C116.173 111.203 116.101 111.587 116.101 112.027V112.099C116.101 112.835 116.277 113.395 116.629 113.779C116.989 114.163 117.497 114.355 118.153 114.355C118.425 114.355 118.693 114.319 118.957 114.247C119.229 114.175 119.493 114.055 119.749 113.887C119.861 113.815 119.961 113.783 120.049 113.791C120.145 113.791 120.221 113.819 120.277 113.875C120.333 113.923 120.369 113.987 120.385 114.067C120.409 114.139 120.401 114.219 120.361 114.307C120.329 114.395 120.261 114.471 120.157 114.535C119.893 114.727 119.581 114.875 119.221 114.979C118.861 115.083 118.505 115.135 118.153 115.135Z"/><path fill="#000" d="M135.279 114.803L138.79 111.502C138.866 111.43 138.92 111.353 138.952 111.269C138.984 111.185 139 111.096 139 111C139 110.904 138.984 110.815 138.952 110.731C138.92 110.647 138.866 110.57 138.79 110.498L135.279 107.197C135.139 107.066 134.961 107 134.744 107C134.528 107 134.35 107.066 134.21 107.197C134.07 107.329 134 107.496 134 107.7C134 107.903 134.07 108.07 134.21 108.202L137.187 111L134.21 113.798C134.07 113.93 134 114.097 134 114.3C134 114.504 134.07 114.671 134.21 114.803C134.35 114.934 134.528 115 134.744 115C134.961 115 135.139 114.934 135.279 114.803Z"/><defs><filter id="filter0_d_8_21" width="103.5" height="90.918" x="-23" y="-20" color-interpolation-filters="sRGB" filterUnits="userSpaceOnUse"><feFlood flood-opacity="0" result="BackgroundImageFix"/><feColorMatrix in="SourceAlpha" result="hardAlpha" type="matrix" values="0 0 0 0 0 0 0 0 0 0 0 0 0 0 0 0 0 0 127 0"/><feOffset dy="4"/><feGaussianBlur stdDeviation="5"/><feComposite in2="hardAlpha" operator="out"/><feColorMatrix type="matrix" values="0 0 0 0 0 0 0 0 0 0 0 0 0 0 0 0 0 0 0.1 0"/><feBlend in2="BackgroundImageFix" mode="normal" result="effect1_dropShadow_8_21"/><feBlend in="SourceGraphic" in2="effect1_dropShadow_8_21" mode="normal" result="shape"/></filter><filter id="filter1_d_8_21" width="137" height="46" x="32" y="91" color-interpolation-filters="sRGB" filterUnits="userSpaceOnUse"><feFlood flood-opacity="0" result="BackgroundImageFix"/><feColorMatrix in="SourceAlpha" result="hardAlpha" type="matrix" values="0 0 0 0 0 0 0 0 0 0 0 0 0 0 0 0 0 0 127 0"/><feMorphology in="SourceAlpha" operator="erode" radius="2" result="effect1_dropShadow_8_21"/><feOffset dx="4" dy="3"/><feGaussianBlur stdDeviation="4.5"/><feComposite in2="hardAlpha" operator="out"/><feColorMatrix type="matrix" values="0 0 0 0 0 0 0 0 0 0 0 0 0 0 0 0 0 0 0.25 0"/><feBlend in2="BackgroundImageFix" mode="normal" result="effect1_dropShadow_8_21"/><feBlend in="SourceGraphic" in2="effect1_dropShadow_8_21" mode="normal" result="shape"/></filter><linearGradient id="paint0_linear_8_21" x1="262" x2="264.579" y1="0" y2="152.948" gradientUnits="userSpaceOnUse"><stop stop-color="#FF6984"/><stop offset="1" stop-color="#E12B5C"/></linearGradient><linearGradient id="paint1_linear_8_21" x1="29" x2="8" y1="72.027" y2="0" gradientUnits="userSpaceOnUse"><stop stop-color="#D6B268"/><stop offset="1" stop-color="#FFEC86"/></linearGradient></defs></svg>