<svg xmlns="http://www.w3.org/2000/svg" width="16" height="18" fill="none" viewBox="0 0 16 18"><path id="Vector" fill="#000" d="M13 2.5H16V17.5H0V2.5H3V1.5C3 1.09 3.15 0.74 3.44 0.44C3.73 0.15 4.09 0 4.5 0C4.91 0 5.27 0.15 5.56 0.44C5.85 0.74 6 1.09 6 1.5V2.5H10V1.5C10 1.09 10.15 0.74 10.44 0.44C10.73 0.15 11.09 0 11.5 0C11.91 0 12.27 0.15 12.56 0.44C12.85 0.74 13 1.09 13 1.5V2.5ZM4 1.5V4C3.99878 4.066 4.01088 4.13156 4.03557 4.19278C4.06027 4.25399 4.09705 4.3096 4.14373 4.35627C4.1904 4.40295 4.24601 4.43973 4.30722 4.46443C4.36844 4.48912 4.434 4.50122 4.5 4.5C4.566 4.50122 4.63156 4.48912 4.69278 4.46443C4.75399 4.43973 4.8096 4.40295 4.85627 4.35627C4.90295 4.3096 4.93973 4.25399 4.96443 4.19278C4.98912 4.13156 5.00122 4.066 5 4V1.5C5 1.36 4.95 1.24 4.85 1.15C4.76 1.05 4.64 1 4.5 1C4.36 1 4.24 1.05 4.15 1.15C4.05 1.24 4 1.36 4 1.5ZM11 1.5V4C11 4.14 11.05 4.26 11.14 4.36C11.24 4.45 11.36 4.5 11.5 4.5C11.64 4.5 11.76 4.45 11.86 4.36C11.95 4.26 12 4.14 12 4V1.5C12.0012 1.434 11.9891 1.36844 11.9644 1.30722C11.9397 1.24601 11.9029 1.1904 11.8563 1.14373C11.8096 1.09705 11.754 1.06027 11.6928 1.03557C11.6316 1.01088 11.566 0.998779 11.5 1C11.434 0.998779 11.3684 1.01088 11.3072 1.03557C11.246 1.06027 11.1904 1.09705 11.1437 1.14373C11.0971 1.1904 11.0603 1.24601 11.0356 1.30722C11.0109 1.36844 10.9988 1.434 11 1.5V1.5ZM15 16.5V6.5H1V16.5H15ZM5 7.5V9.5H3V7.5H5ZM7 7.5H9V9.5H7V7.5ZM11 9.5V7.5H13V9.5H11ZM5 10.5V12.5H3V10.5H5ZM7 10.5H9V12.5H7V10.5ZM11 12.5V10.5H13V12.5H11ZM5 13.5V15.5H3V13.5H5ZM9 15.5H7V13.5H9V15.5ZM13 15.5H11V13.5H13V15.5Z"/></svg>