<svg width="10" height="9" viewBox="0 0 10 9" fill="none" xmlns="http://www.w3.org/2000/svg">
<path d="M4.79282 5.86793C5.55698 5.86793 6.17646 5.27795 6.17646 4.55018C6.17646 3.8224 5.55698 3.23242 4.79282 3.23242C4.02866 3.23242 3.40918 3.8224 3.40918 4.55018C3.40918 5.27795 4.02866 5.86793 4.79282 5.86793Z" fill="white"/>
<path d="M8.48275 1.03573H7.02071L6.4488 0.44274C6.36285 0.352866 6.25816 0.281055 6.14142 0.231893C6.02468 0.182732 5.89846 0.157301 5.77082 0.157227H3.81527C3.55699 0.157227 3.30794 0.262647 3.13268 0.44274L2.56538 1.03573H1.10334C0.596 1.03573 0.180908 1.43105 0.180908 1.91423V7.18524C0.180908 7.66842 0.596 8.06375 1.10334 8.06375H8.48275C8.99009 8.06375 9.40518 7.66842 9.40518 7.18524V1.91423C9.40518 1.43105 8.99009 1.03573 8.48275 1.03573ZM4.79304 6.74599C3.5201 6.74599 2.48698 5.76207 2.48698 4.54974C2.48698 3.3374 3.5201 2.35348 4.79304 2.35348C6.06599 2.35348 7.09911 3.3374 7.09911 4.54974C7.09911 5.76207 6.06599 6.74599 4.79304 6.74599Z" fill="white"/>
</svg>
