<svg width="22" height="22" viewBox="0 0 22 22" fill="none" xmlns="http://www.w3.org/2000/svg">
<circle cx="11" cy="11" r="11" fill="#00BD79"/>
<path d="M8.71223 13.4843L6.20997 11.2576C6.14454 11.1987 6.06661 11.1519 5.98071 11.12C5.8948 11.088 5.80263 11.0716 5.70952 11.0716C5.61642 11.0716 5.52425 11.088 5.43834 11.12C5.35243 11.1519 5.27451 11.1987 5.20907 11.2576C5.14284 11.3159 5.09026 11.3852 5.05437 11.4617C5.01848 11.5381 5 11.6201 5 11.703C5 11.7858 5.01848 11.8678 5.05437 11.9443C5.09026 12.0207 5.14284 12.0901 5.20907 12.1483L8.20463 14.8139C8.48345 15.062 8.93385 15.062 9.21268 14.8139L16.7909 8.07671C16.8572 8.01848 16.9097 7.94914 16.9456 7.87269C16.9815 7.79625 17 7.71422 17 7.63138C17 7.54853 16.9815 7.46651 16.9456 7.39006C16.9097 7.31362 16.8572 7.24427 16.7909 7.18605C16.7255 7.12711 16.6476 7.08032 16.5617 7.04838C16.4758 7.01644 16.3836 7 16.2905 7C16.1974 7 16.1052 7.01644 16.0193 7.04838C15.9334 7.08032 15.8555 7.12711 15.79 7.18605L8.71223 13.4843Z" fill="white" stroke="white"/>
</svg>
