<svg width="25" height="25" viewBox="0 0 25 25" fill="none" xmlns="http://www.w3.org/2000/svg">
<g id="close">
<circle id="Ellipse 2043" cx="12.5" cy="12.5" r="12.5" fill="#104E9E"/>
<path id="Vector" d="M12.4997 13.3871L9.39448 16.4923C9.2783 16.6085 9.13043 16.6666 8.95088 16.6666C8.77133 16.6666 8.62346 16.6085 8.50728 16.4923C8.3911 16.3761 8.33301 16.2283 8.33301 16.0487C8.33301 15.8692 8.3911 15.7213 8.50728 15.6051L11.6125 12.4999L8.50728 9.39472C8.3911 9.27854 8.33301 9.13067 8.33301 8.95112C8.33301 8.77157 8.3911 8.6237 8.50728 8.50752C8.62346 8.39134 8.77133 8.33325 8.95088 8.33325C9.13043 8.33325 9.2783 8.39134 9.39448 8.50752L12.4997 11.6127L15.6049 8.50752C15.7211 8.39134 15.8689 8.33325 16.0485 8.33325C16.228 8.33325 16.3759 8.39134 16.4921 8.50752C16.6082 8.6237 16.6663 8.77157 16.6663 8.95112C16.6663 9.13067 16.6082 9.27854 16.4921 9.39472L13.3869 12.4999L16.4921 15.6051C16.6082 15.7213 16.6663 15.8692 16.6663 16.0487C16.6663 16.2283 16.6082 16.3761 16.4921 16.4923C16.3759 16.6085 16.228 16.6666 16.0485 16.6666C15.8689 16.6666 15.7211 16.6085 15.6049 16.4923L12.4997 13.3871Z" fill="white"/>
</g>
</svg>
