<svg xmlns="http://www.w3.org/2000/svg" width="42" height="41" fill="none" viewBox="0 0 42 41"><rect width="41.5" height="40.5" x=".25" y=".25" stroke="#FFE7A6" stroke-width=".5" rx="9.75"/><path fill="#2255A4" d="M26.342 18.1428C26.342 14.1964 22.2371 11 17.171 11C12.1049 11 8 14.1964 8 18.1428C8 19.6741 8.62169 21.0848 9.67547 22.2499C9.08465 23.5981 8.11023 24.6696 8.097 24.683C8 24.7856 7.97355 24.9374 8.03086 25.0713C8.08818 25.2053 8.21164 25.2856 8.35273 25.2856C9.96648 25.2856 11.3024 24.7365 12.2636 24.1696C13.6834 24.8705 15.3633 25.2856 17.171 25.2856C22.2371 25.2856 26.342 22.0892 26.342 18.1428ZM31.7212 27.9642C32.775 26.8035 33.3967 25.3883 33.3967 23.8571C33.3967 20.8705 31.0378 18.3125 27.6956 17.2455C27.7353 17.5401 27.753 17.8392 27.753 18.1428C27.753 22.8705 23.0043 26.7142 17.171 26.7142C16.6948 26.7142 16.2319 26.6785 15.7733 26.6294C17.1622 29.1963 20.425 30.9999 24.2257 30.9999C26.0334 30.9999 27.7133 30.5892 29.133 29.8838C30.0942 30.4508 31.4302 30.9999 33.0439 30.9999C33.185 30.9999 33.3129 30.9151 33.3658 30.7856C33.4231 30.6561 33.3967 30.5043 33.2997 30.3972C33.2864 30.3838 32.312 29.3169 31.7212 27.9642Z"/><path fill="#D6B268" d="M31.7213 27.9643C32.7751 26.8036 33.3968 25.3885 33.3968 23.8572C33.3968 20.8706 31.0379 18.3126 27.6958 17.2457C27.7354 17.5403 27.7531 17.8394 27.7531 18.143C27.7531 22.8706 23.0044 26.7144 17.1711 26.7144C16.6949 26.7144 16.232 26.6786 15.7734 26.6295C17.1623 29.1965 20.4251 31 24.2258 31C26.0335 31 27.7134 30.5893 29.1331 29.884C30.0943 30.4509 31.4303 31 33.0441 31C33.1851 31 33.313 30.9152 33.3659 30.7858C33.4232 30.6563 33.3968 30.5045 33.2998 30.3974C33.2866 30.384 32.3121 29.317 31.7213 27.9643Z"/></svg>