<svg width="64" height="64" viewBox="0 0 64 64" fill="none" xmlns="http://www.w3.org/2000/svg">
<g id="Group 386">
<circle id="Ellipse 44" cx="32" cy="32" r="31.75" fill="white" stroke="#FFE7A6" stroke-width="0.5"/>
<g id="Group">
<g id="Group_2">
<path id="Vector" d="M19.5054 38.1341H20.936V44.1381C21.1064 44.101 21.2769 44.0862 21.4548 44.0862C21.6327 44.0862 21.8106 44.1084 21.9737 44.1381V38.1341H23.8194V41.1212C23.8194 41.4103 24.0492 41.6401 24.3383 41.6401C24.6273 41.6401 24.8571 41.4103 24.8571 41.1212V38.1341H36.161V44.1381C36.3315 44.101 36.502 44.0862 36.6799 44.0862C36.8578 44.0862 37.0283 44.1084 37.1988 44.1381V38.1341H38.6294V35.8955H19.5054V38.1341Z" fill="#2255A4"/>
<path id="Vector_2" d="M23.8789 46.043C23.916 46.2135 23.9308 46.3839 23.9308 46.5618C23.9308 46.7397 23.9086 46.9176 23.8789 47.0807H34.2637C34.2266 46.9102 34.2118 46.7397 34.2118 46.5618C34.2118 46.3839 34.234 46.2135 34.2637 46.043H23.8789Z" fill="#2255A4"/>
<g id="Group_3">
<path id="Vector_3" d="M21.4546 48C22.2488 48 22.8926 47.3562 22.8926 46.562C22.8926 45.7678 22.2488 45.124 21.4546 45.124C20.6604 45.124 20.0166 45.7678 20.0166 46.562C20.0166 47.3562 20.6604 48 21.4546 48Z" fill="#D6B268"/>
</g>
<g id="Group_4">
<path id="Vector_4" d="M36.6875 48C37.4817 48 38.1255 47.3562 38.1255 46.562C38.1255 45.7678 37.4817 45.124 36.6875 45.124C35.8933 45.124 35.2495 45.7678 35.2495 46.562C35.2495 47.3562 35.8933 48 36.6875 48Z" fill="#D6B268"/>
</g>
<path id="Vector_5" d="M23.9748 43.7081C23.9971 43.7304 24.0267 43.7526 24.0564 43.7748C24.086 43.7971 24.1157 43.8119 24.1453 43.8193C24.175 43.8341 24.212 43.8416 24.2417 43.849C24.2787 43.8564 24.3084 43.8564 24.3454 43.8564C24.3751 43.8564 24.4122 43.8564 24.4492 43.849C24.4863 43.8416 24.5159 43.8341 24.5456 43.8193C24.5752 43.8045 24.6049 43.7897 24.6345 43.7748C24.6642 43.7526 24.6864 43.7378 24.7161 43.7081C24.7383 43.6859 24.7605 43.6562 24.7828 43.6266C24.805 43.597 24.8198 43.5673 24.8272 43.5377C24.8421 43.508 24.8495 43.4709 24.8569 43.4413C24.8643 43.4042 24.8643 43.3746 24.8643 43.3375C24.8643 43.3005 24.8569 43.2708 24.8569 43.2337C24.8495 43.2041 24.8421 43.167 24.8272 43.1374C24.8124 43.1077 24.7976 43.0781 24.7828 43.0484C24.7605 43.0188 24.7457 42.9965 24.7161 42.9669C24.6938 42.9447 24.6642 42.9224 24.6345 42.9002C24.6049 42.8779 24.5752 42.8631 24.5456 42.8557C24.5159 42.8409 24.4789 42.8335 24.4492 42.8261C24.3825 42.8112 24.3158 42.8112 24.2491 42.8261C24.212 42.8335 24.1824 42.8409 24.1527 42.8557C24.1231 42.8705 24.0934 42.8854 24.0638 42.9002C24.0341 42.915 24.0119 42.9372 23.9822 42.9669C23.96 42.9891 23.9378 43.0188 23.9155 43.0484C23.8933 43.0781 23.8785 43.1077 23.871 43.1374C23.8562 43.167 23.8488 43.2041 23.8414 43.2337C23.834 43.2708 23.834 43.3005 23.834 43.3375C23.834 43.3746 23.834 43.4042 23.8414 43.4413C23.8488 43.4709 23.8562 43.508 23.871 43.5377C23.8859 43.5673 23.9007 43.597 23.9155 43.6266C23.9229 43.6637 23.9452 43.6859 23.9748 43.7081Z" fill="#2255A4"/>
<path id="Vector_6" d="M38.1921 26.7115C39.2442 26.7115 40.0971 25.8089 40.0971 24.6954C40.0971 23.5819 39.2442 22.6792 38.1921 22.6792C37.14 22.6792 36.2871 23.5819 36.2871 24.6954C36.2871 25.8089 37.14 26.7115 38.1921 26.7115Z" fill="#2255A4"/>
<path id="Vector_7" d="M34.8563 26.3337H27.4587C26.9176 26.3337 26.4729 26.771 26.4729 27.3196V27.6383H19.8906V27.1787C19.8906 26.9045 19.7795 26.6599 19.6016 26.482C19.4237 26.3041 19.1791 26.1929 18.9048 26.1929C18.3637 26.1929 17.9189 26.6302 17.9189 27.1787V29.0615H34.8489V26.3337H34.8563Z" fill="#2255A4"/>
<path id="Vector_8" d="M29.7716 18.0317H31.5654V19.9737C31.5654 20.2406 31.7804 20.4629 32.0546 20.4629H32.8404V25.3032H33.8781V20.4629H34.6638C34.9307 20.4629 35.153 20.248 35.153 19.9737V16.2156C35.153 15.9488 34.9381 15.7264 34.6638 15.7264H32.0546C31.7878 15.7264 31.5654 15.9414 31.5654 16.2156V16.9939H29.7716V15.5189C29.7716 15.2298 29.5418 15 29.2528 15C28.9637 15 28.7339 15.2298 28.7339 15.5189V25.2958H29.7716V18.0317Z" fill="#2255A4"/>
<g id="Group_5">
<g id="Group_6">
<path id="Vector_9" d="M44.1887 24.436L38.5256 30.0991H17V31.9522H22.6186C22.9077 31.9522 23.1375 32.182 23.1375 32.4711C23.1375 32.7602 22.9077 32.9899 22.6186 32.9899H17V34.8579H40.4973L47.5539 27.8013L44.1887 24.436ZM25.717 32.5748C25.7096 32.6119 25.7022 32.6416 25.6873 32.6712C25.6725 32.7009 25.6577 32.7305 25.6429 32.7602C25.628 32.7898 25.5984 32.812 25.5761 32.8417C25.5539 32.8713 25.5243 32.8862 25.4946 32.9084C25.465 32.9306 25.4353 32.9455 25.4057 32.9529C25.376 32.9677 25.3389 32.9751 25.3093 32.9825C25.2796 32.9899 25.2426 32.9899 25.2055 32.9899C25.0721 32.9899 24.9387 32.9306 24.8423 32.8417C24.8201 32.8195 24.7978 32.7898 24.7756 32.7602C24.7534 32.7305 24.7385 32.7009 24.7311 32.6712C24.7163 32.6416 24.7089 32.6045 24.7015 32.5748C24.6941 32.5378 24.6941 32.5081 24.6941 32.4711C24.6941 32.3377 24.7534 32.2042 24.8497 32.1005C24.9683 31.9819 25.1536 31.9226 25.3167 31.9596C25.3464 31.967 25.3834 31.9744 25.4131 31.9893C25.4427 32.0041 25.4724 32.0189 25.502 32.0337C25.5317 32.056 25.5539 32.0708 25.5836 32.1005C25.6799 32.1968 25.7318 32.3302 25.7318 32.4711C25.7318 32.5081 25.7244 32.5378 25.717 32.5748Z" fill="#D6B268"/>
</g>
</g>
</g>
</g>
</g>
</svg>
