<svg xmlns="http://www.w3.org/2000/svg" width="19" height="15" fill="none" viewBox="0 0 19 15"><g clip-path="url(#clip0_1_1922)"><path fill="#fff" d="M6.65 7.5C8.74891 7.5 10.45 5.82129 10.45 3.75C10.45 1.67871 8.74891 0 6.65 0C4.55109 0 2.85 1.67871 2.85 3.75C2.85 5.82129 4.55109 7.5 6.65 7.5ZM9.31 8.4375H8.81422C8.15516 8.73633 7.42187 8.90625 6.65 8.90625C5.87812 8.90625 5.14781 8.73633 4.48578 8.4375H3.99C1.78719 8.4375 0 10.2012 0 12.375V13.5938C0 14.3701 0.638281 15 1.425 15H9.58609C9.51484 14.8008 9.48516 14.5898 9.50891 14.376L9.71078 12.5918L9.74641 12.2666L9.98094 12.0352L12.2758 9.77051C11.5484 8.95898 10.4945 8.4375 9.31 8.4375ZM10.6548 12.6943L10.453 14.4814C10.4203 14.7803 10.6756 15.0322 10.9755 14.9971L12.7834 14.7979L16.8773 10.7578L14.7487 8.65723L10.6548 12.6943ZM18.7922 7.87793L17.667 6.76758C17.3909 6.49512 16.9397 6.49512 16.6636 6.76758L15.5414 7.875L15.4197 7.99512L17.5512 10.0957L18.7922 8.87109C19.0683 8.5957 19.0683 8.15332 18.7922 7.87793Z"/></g><defs><clipPath id="clip0_1_1922"><rect width="19" height="15" fill="#fff"/></clipPath></defs></svg>