<svg width="18" height="18" viewBox="0 0 18 18" fill="none" xmlns="http://www.w3.org/2000/svg">
<path d="M9 0C13.9707 0 18 4.0302 18 9C18 13.9698 13.9707 18 9 18C4.0293 18 0 13.9698 0 9C0 4.0302 4.0293 0 9 0ZM9 1.5003C4.8645 1.5003 1.5003 4.8645 1.5003 9C1.5003 13.1355 4.8645 16.4997 9 16.4997C13.1355 16.4997 16.4997 13.1355 16.4997 9C16.4997 4.8645 13.1355 1.5003 9 1.5003ZM8.9991 11.2518C9.23756 11.2518 9.46625 11.3465 9.63486 11.5151C9.80347 11.6838 9.8982 11.9124 9.8982 12.1509C9.8982 12.3894 9.80347 12.618 9.63486 12.7867C9.46625 12.9553 9.23756 13.05 8.9991 13.05C8.76064 13.05 8.53195 12.9553 8.36334 12.7867C8.19473 12.618 8.1 12.3894 8.1 12.1509C8.1 11.9124 8.19473 11.6838 8.36334 11.5151C8.53195 11.3465 8.76064 11.2518 8.9991 11.2518ZM8.9946 4.5C9.15787 4.49979 9.31568 4.55876 9.4388 4.66599C9.56192 4.77323 9.642 4.92145 9.6642 5.0832L9.6705 5.1741L9.6741 9.2259C9.67428 9.397 9.60947 9.56178 9.49279 9.68692C9.3761 9.81206 9.21625 9.88822 9.04556 9.89999C8.87486 9.91177 8.70607 9.85828 8.5733 9.75035C8.44054 9.64242 8.35372 9.4881 8.3304 9.3186L8.3241 9.2268L8.3205 5.1759C8.32038 5.08718 8.33775 4.99931 8.37162 4.91731C8.40549 4.83531 8.45519 4.7608 8.51788 4.69802C8.58058 4.63525 8.65503 4.58544 8.73698 4.55147C8.81893 4.51749 8.90678 4.5 8.9955 4.5H8.9946Z" fill="#FF5353"/>
</svg>
