<svg xmlns="http://www.w3.org/2000/svg" width="70" height="70" fill="none" viewBox="0 0 70 70"><g clip-path="url(#clip0_16_2979)"><path fill="#1877F2" d="M55 34.5C55 23.7305 46.4933 15 36 15C25.5067 15 17 23.7304 17 34.5C17 44.2329 23.9481 52.3003 33.0312 53.7631V40.1367H28.207V34.5H33.0312V30.2039C33.0312 25.3167 35.8679 22.6172 40.2078 22.6172C42.2866 22.6172 44.4609 22.998 44.4609 22.998V27.7969H42.0652C39.7047 27.7969 38.9688 29.3001 38.9688 30.8422V34.5H44.2383L43.3959 40.1367H38.9688V53.7631C48.0519 52.3003 55 44.2331 55 34.5Z"/><path fill="#fff" d="M43.3959 40.1367L44.2383 34.5H38.9688V30.8422C38.9688 29.2999 39.7049 27.7969 42.0652 27.7969H44.4609V22.998C44.4609 22.998 42.2866 22.6172 40.2078 22.6172C35.8679 22.6172 33.0312 25.3167 33.0312 30.2039V34.5H28.207V40.1367H33.0312V53.7631C34.0133 53.9211 35.0059 54.0003 36 54C36.9941 54.0003 37.9867 53.9211 38.9688 53.7631V40.1367H43.3959Z"/></g><circle cx="35" cy="35" r="34.5" stroke="#DBE9F5"/><defs><clipPath id="clip0_16_2979"><rect width="38" height="39" fill="#fff" transform="translate(17 15)"/></clipPath></defs></svg>