<svg xmlns="http://www.w3.org/2000/svg" width="26" height="27" fill="none" viewBox="0 0 26 27"><g clip-path="url(#clip0_1_1970)"><path fill="#1877F2" d="M26 13.5C26 6.0442 20.1797 0 13 0C5.82034 0 0 6.0441 0 13.5C0 20.2382 4.75394 25.8233 10.9688 26.836V17.4023H7.66797V13.5H10.9688V10.5258C10.9688 7.14234 12.9096 5.27344 15.879 5.27344C17.3014 5.27344 18.7891 5.53711 18.7891 5.53711V8.85938H17.1498C15.5348 8.85938 15.0312 9.90003 15.0312 10.9677V13.5H18.6367L18.0604 17.4023H15.0312V26.836C21.2461 25.8233 26 20.2383 26 13.5Z"/><path fill="#fff" d="M18.0604 17.4023L18.6367 13.5H15.0312V10.9677C15.0312 9.89993 15.5349 8.85938 17.1498 8.85938H18.7891V5.53711C18.7891 5.53711 17.3014 5.27344 15.879 5.27344C12.9096 5.27344 10.9688 7.14234 10.9688 10.5258V13.5H7.66797V17.4023H10.9688V26.836C11.6407 26.9454 12.3198 27.0002 13 27C13.6802 27.0002 14.3593 26.9454 15.0312 26.836V17.4023H18.0604Z"/></g><defs><clipPath id="clip0_1_1970"><rect width="26" height="27" fill="#fff"/></clipPath></defs></svg>