<svg width="14" height="14" viewBox="0 0 14 14" fill="none" xmlns="http://www.w3.org/2000/svg">
<g id="Group">
<path id="Vector" d="M1 2.3335H3.66667M13 2.3335H6.33333M1 7.00016H9M13 7.00016H11.6667M1 11.6668H2.33333M13 11.6668H5" stroke="black" stroke-width="1.2" stroke-linecap="round"/>
<path id="Vector_2" d="M5.00008 3.66667C5.73646 3.66667 6.33341 3.06971 6.33341 2.33333C6.33341 1.59695 5.73646 1 5.00008 1C4.2637 1 3.66675 1.59695 3.66675 2.33333C3.66675 3.06971 4.2637 3.66667 5.00008 3.66667Z" stroke="black" stroke-width="1.2" stroke-linecap="round"/>
<path id="Vector_3" d="M10.3333 8.33317C11.0697 8.33317 11.6667 7.73622 11.6667 6.99984C11.6667 6.26346 11.0697 5.6665 10.3333 5.6665C9.59695 5.6665 9 6.26346 9 6.99984C9 7.73622 9.59695 8.33317 10.3333 8.33317Z" stroke="black" stroke-width="1.2" stroke-linecap="round"/>
<path id="Vector_4" d="M3.66659 13.0002C4.40297 13.0002 4.99992 12.4032 4.99992 11.6668C4.99992 10.9304 4.40297 10.3335 3.66659 10.3335C2.93021 10.3335 2.33325 10.9304 2.33325 11.6668C2.33325 12.4032 2.93021 13.0002 3.66659 13.0002Z" stroke="black" stroke-width="1.2" stroke-linecap="round"/>
</g>
</svg>
