<svg xmlns="http://www.w3.org/2000/svg" width="241" height="194" fill="none" viewBox="0 0 241 194"><g clip-path="url(#clip0_16_4171)"><path fill="#E6E6E6" d="M67.8395 129.004C82.9402 129.004 95.1817 116.778 95.1817 101.697C95.1817 86.6154 82.9402 74.3896 67.8395 74.3896C52.7388 74.3896 40.4973 86.6154 40.4973 101.697C40.4973 116.778 52.7388 129.004 67.8395 129.004Z"/><path fill="#CCC" d="M60.4524 141.572L67.1782 145.735V117.599L59.6393 112.933C59.0161 112.547 58.5606 111.942 58.3633 111.237C59.0835 111.099 59.8291 111.237 60.4524 111.623L67.1782 115.785V104.875C67.1782 102.764 67.4374 100.661 67.9499 98.6138C68.4625 100.661 68.7217 102.764 68.7217 104.875V122.682L78.6441 116.542C79.4364 116.051 80.3531 115.799 81.2851 115.814C80.884 116.654 80.2495 117.362 79.4572 117.852L68.7216 124.496V191.035H67.1781V147.548L59.6393 142.883C59.0161 142.497 58.5606 141.891 58.3633 141.186C59.0835 141.049 59.8291 141.187 60.4524 141.572Z"/><path fill="#E6E6E6" d="M27.3422 131.322C42.4428 131.322 54.6844 119.097 54.6844 104.015C54.6844 88.9342 42.4428 76.7085 27.3422 76.7085C12.2415 76.7085 0 88.9342 0 104.015C0 119.097 12.2415 131.322 27.3422 131.322Z"/><path fill="#CCC" d="M34.7295 143.891L28.0036 148.053V119.917L35.5425 115.251C36.1657 114.866 36.6212 114.26 36.8185 113.555C36.0983 113.418 35.3527 113.555 34.7294 113.941L28.0036 118.103V107.193C28.0036 105.082 27.7444 102.98 27.2319 100.932C26.7193 102.98 26.4601 105.082 26.4601 107.193V125.001L16.5377 118.86C15.7454 118.37 14.8287 118.117 13.8967 118.132C14.2979 118.973 14.9324 119.68 15.7247 120.17L26.4601 126.814V191.182H28.0036V149.866L35.5425 145.201C36.1657 144.815 36.6212 144.21 36.8185 143.504C36.0983 143.367 35.3527 143.505 34.7295 143.891Z"/><path fill="#E6E6E6" d="M47.204 94.0313C73.2035 94.0313 94.2803 72.9817 94.2803 47.0156C94.2803 21.0496 73.2035 0 47.204 0C21.2045 0 0.127686 21.0496 0.127686 47.0156C0.127686 72.9817 21.2045 94.0313 47.204 94.0313Z"/><path fill="#CCC" d="M59.9231 115.671L48.343 122.838V74.3945L61.3229 66.3616C62.396 65.6975 63.1802 64.655 63.52 63.4408L63.52 63.4407H63.52C62.28 63.2042 60.9962 63.4415 59.9231 64.1056L48.343 71.2721V52.4873C48.343 48.8533 47.8967 45.233 47.0142 41.7075C46.1317 45.233 45.6855 48.8533 45.6855 52.4873V83.1477L28.6015 72.5749C27.2374 71.7307 25.659 71.2958 24.0544 71.3221C24.7451 72.7688 25.8376 73.9868 27.2017 74.831L45.6854 86.27V191.286H48.343V125.96L61.3229 117.927C62.396 117.263 63.1802 116.221 63.52 115.006L63.52 115.006H63.52C62.28 114.77 60.9962 115.007 59.9231 115.671Z"/><path fill="#3F3D56" d="M241 191.035H18.7754V191.597H241V191.035Z"/><path fill="#FF6584" d="M183.769 84.8235L172.739 91.1831L179.107 102.198L190.136 95.8386L183.769 84.8235Z"/><path fill="#2F2E41" d="M183.908 104.494L177.259 92.9921L188.776 86.3516L195.425 97.8535L183.908 104.494ZM178.028 93.1978L184.115 103.726L194.657 97.6478L188.57 87.1192L178.028 93.1978Z"/><path fill="#D0CDE1" d="M173.591 135.402C176.542 135.402 178.935 133.012 178.935 130.064C178.935 127.116 176.542 124.726 173.591 124.726C170.639 124.726 168.246 127.116 168.246 130.064C168.246 133.012 170.639 135.402 173.591 135.402Z"/><path fill="#2F2E41" d="M177.529 135.683C176.416 135.683 175.328 135.353 174.403 134.736C173.478 134.118 172.757 133.241 172.331 132.214C171.905 131.188 171.794 130.058 172.011 128.968C172.228 127.878 172.764 126.877 173.551 126.091C174.337 125.305 175.34 124.77 176.431 124.553C177.523 124.336 178.654 124.448 179.682 124.873C180.71 125.298 181.588 126.018 182.207 126.942C182.825 127.866 183.155 128.953 183.155 130.064C183.155 131.554 182.562 132.983 181.507 134.037C180.452 135.091 179.021 135.683 177.529 135.683ZM177.529 125.007C176.527 125.007 175.548 125.304 174.716 125.859C173.883 126.415 173.234 127.205 172.851 128.129C172.468 129.053 172.367 130.07 172.563 131.051C172.758 132.031 173.24 132.933 173.948 133.64C174.657 134.347 175.559 134.829 176.541 135.024C177.523 135.219 178.541 135.119 179.466 134.736C180.392 134.353 181.182 133.705 181.739 132.873C182.295 132.042 182.592 131.064 182.592 130.064C182.592 128.723 182.059 127.437 181.109 126.488C180.16 125.54 178.872 125.007 177.529 125.007Z"/><path fill="#03045E" d="M207.307 192.313H155.549C154.915 192.312 154.307 192.061 153.859 191.613C153.411 191.165 153.158 190.558 153.158 189.925V141.886C153.158 141.252 153.411 140.645 153.859 140.198C154.307 139.75 154.915 139.498 155.549 139.498H207.307C207.941 139.498 208.549 139.75 208.997 140.198C209.446 140.645 209.698 141.252 209.698 141.886V189.925C209.698 190.558 209.446 191.165 208.997 191.613C208.549 192.061 207.941 192.312 207.307 192.313Z"/><path fill="#9B96D6" d="M185.085 194H177.771C177.137 193.999 176.529 193.747 176.081 193.3C175.633 192.852 175.381 192.245 175.38 191.612V140.458C175.381 139.825 175.633 139.218 176.081 138.771C176.529 138.323 177.137 138.071 177.771 138.07H185.085C185.719 138.071 186.326 138.323 186.775 138.771C187.223 139.218 187.475 139.825 187.476 140.458V191.612C187.475 192.245 187.223 192.852 186.775 193.3C186.326 193.747 185.719 193.999 185.085 194Z"/><path fill="#9B96D6" d="M221.059 134.742C220.757 139.698 214.054 143.322 214.054 143.322C214.054 143.322 207.841 138.912 208.143 133.956C208.446 129 215.149 125.376 215.149 125.376C215.149 125.376 221.361 129.786 221.059 134.742Z"/><path fill="#9B96D6" d="M221.363 150.205C216.4 149.918 212.75 143.235 212.75 143.235C212.75 143.235 217.146 137.017 222.109 137.303C227.072 137.59 230.723 144.273 230.723 144.273C230.723 144.273 226.326 150.491 221.363 150.205Z"/><path fill="#000" d="M209.558 145.375V163.714L191.293 139.638H205.206L209.558 145.375Z" opacity=".1"/><path fill="#03045E" d="M225.063 176.768C224.694 176.769 224.329 176.684 223.998 176.52C223.667 176.356 223.378 176.117 223.155 175.823L185.103 125.665C184.913 125.415 184.775 125.13 184.695 124.827C184.616 124.523 184.597 124.207 184.64 123.897C184.683 123.586 184.786 123.287 184.945 123.016C185.104 122.746 185.314 122.509 185.564 122.319L191.17 118.078C191.42 117.889 191.705 117.75 192.009 117.671C192.313 117.592 192.629 117.573 192.94 117.616C193.251 117.659 193.551 117.762 193.822 117.921C194.093 118.079 194.33 118.289 194.519 118.539L232.572 168.697C232.761 168.947 232.9 169.232 232.979 169.536C233.059 169.839 233.077 170.155 233.035 170.466C232.992 170.776 232.888 171.075 232.729 171.346C232.571 171.617 232.36 171.853 232.11 172.043L226.505 176.284C226.09 176.599 225.584 176.769 225.063 176.768Z"/><path fill="#9B96D6" d="M209.832 137.793L200.191 145.088L207.496 154.716L217.137 147.421L209.832 137.793Z"/><path fill="#D0CDE1" d="M160.237 101.101L156.941 113.387L169.243 116.679L172.539 104.393L160.237 101.101Z"/><path fill="#2F2E41" d="M164.024 118.515L151.179 115.078L154.621 102.25L167.466 105.687L164.024 118.515ZM151.868 114.681L163.626 117.827L166.777 106.084L155.018 102.938L151.868 114.681Z"/><path fill="#FFB8B8" d="M109.916 148.333C110.254 148.01 110.517 147.616 110.687 147.18C110.856 146.745 110.927 146.277 110.896 145.811C110.865 145.344 110.732 144.89 110.506 144.481C110.28 144.071 109.967 143.716 109.589 143.441L104.423 101.854L97.7488 103.836L104.954 144.307C104.533 144.972 104.37 145.768 104.498 146.545C104.625 147.322 105.033 148.025 105.645 148.521C106.256 149.018 107.029 149.272 107.816 149.238C108.604 149.203 109.351 148.881 109.916 148.333Z"/><path fill="#FFB8B8" d="M116.103 188.082H120.007L121.865 173.045H116.103V188.082Z"/><path fill="#2F2E41" d="M127.535 191.703H115.267V186.969H123.228C124.371 186.969 125.466 187.422 126.274 188.228C127.081 189.035 127.535 190.129 127.535 191.27V191.703Z"/><path fill="#FFB8B8" d="M89.1089 182.01L92.7677 183.37L99.7579 169.923L94.3582 167.917L89.1089 182.01Z"/><path fill="#2F2E41" d="M98.5601 189.384L87.0615 185.112L88.714 180.675L96.1763 183.447C97.2468 183.845 98.1153 184.651 98.5907 185.688C99.066 186.726 99.1094 187.909 98.7112 188.978L98.5601 189.384L98.5601 189.384Z"/><path fill="#FFB8B8" d="M109.1 91.0582C113.177 91.0582 116.481 87.7579 116.481 83.6868C116.481 79.6157 113.177 76.3154 109.1 76.3154C105.024 76.3154 101.719 79.6157 101.719 83.6868C101.719 87.7579 105.024 91.0582 109.1 91.0582Z"/><path fill="#2F2E41" d="M97.5559 102.605C97.3248 95.8157 104.47 91.1055 110.482 94.2845C111.247 94.6896 119.156 101.4 119.454 105.567C119.752 109.734 120.348 116.581 120.348 116.581L128.693 178.791L110.811 177.898L112.97 159.751L101.347 178.205L87.2654 173.731L104.552 124.022C104.552 124.022 97.9061 112.895 97.5559 102.605Z"/><path fill="#2F2E41" d="M97.6967 104.97L98.845 119.878C98.857 120.034 98.9274 120.179 99.0421 120.286C99.1568 120.392 99.3074 120.451 99.4637 120.451H104.516C104.618 120.451 104.719 120.425 104.809 120.377C104.899 120.329 104.976 120.26 105.032 120.175C105.089 120.09 105.124 119.993 105.134 119.891C105.144 119.79 105.129 119.687 105.089 119.593L98.8885 104.684C98.8319 104.548 98.7285 104.437 98.5969 104.37C98.4654 104.303 98.3143 104.285 98.1708 104.319C98.0272 104.354 97.9006 104.438 97.8137 104.557C97.7268 104.676 97.6853 104.823 97.6967 104.97Z"/><path fill="#FFB8B8" d="M123.644 145.75C123.941 145.389 124.156 144.968 124.273 144.515C124.391 144.063 124.407 143.59 124.321 143.13C124.235 142.671 124.05 142.235 123.778 141.855C123.505 141.475 123.153 141.159 122.745 140.93L112.741 100.232L106.345 102.981L118.244 142.332C117.903 143.041 117.835 143.851 118.053 144.608C118.27 145.364 118.758 146.015 119.423 146.436C120.089 146.858 120.886 147.02 121.664 146.894C122.442 146.768 123.146 146.36 123.644 145.75Z"/><path fill="#2F2E41" d="M107.234 96.6376C107.234 96.6376 105.148 100.805 107.234 108.246C109.32 115.688 110.811 121.939 110.811 121.939C110.811 121.939 115.579 118.962 117.666 119.855C119.752 120.748 114.365 100.018 114.365 100.018C114.365 100.018 111.109 93.0657 107.234 96.6376Z"/><path fill="#2F2E41" d="M110.832 84.837C110.932 83.3075 112.864 83.2551 114.399 83.2406C115.933 83.2261 117.768 83.2808 118.637 82.017C119.211 81.1818 119.101 80.0223 118.627 79.1268C118.153 78.2314 117.373 77.5426 116.606 76.8801C114.625 75.1695 112.584 73.4725 110.206 72.3777C107.828 71.2828 105.041 70.8404 102.575 71.7193C99.545 72.7989 95.4495 78.3566 95.0959 81.5497C94.7422 84.7427 96.0199 87.9978 98.1738 90.3839C100.328 92.77 105.257 91.8072 108.36 92.6561C106.474 89.9901 107.717 85.146 110.738 83.901L110.832 84.837Z"/></g><defs><clipPath id="clip0_16_4171"><rect width="241" height="194" fill="#fff"/></clipPath></defs></svg>