<svg xmlns="http://www.w3.org/2000/svg" width="70" height="70" fill="none" viewBox="0 0 70 70"><g clip-path="url(#clip0_16_2972)"><path fill="#4285F4" d="M53.9818 34.865C53.9818 33.2672 53.8525 32.1012 53.5727 30.8921H35.3784V38.1038H46.058C45.8428 39.896 44.6801 42.5951 42.0963 44.4087L42.06 44.6502L47.8127 49.1192L48.2113 49.1591C51.8716 45.7691 53.9818 40.7813 53.9818 34.865"/><path fill="#34A853" d="M35.3784 53.8659C40.6105 53.8659 45.003 52.1385 48.2113 49.1589L42.0963 44.4084C40.4599 45.5528 38.2636 46.3517 35.3784 46.3517C30.2539 46.3517 25.9045 42.9619 24.3541 38.2764L24.1269 38.2957L18.1451 42.9381L18.0669 43.1561C21.2536 49.5042 27.7992 53.8659 35.3784 53.8659Z"/><path fill="#FBBC05" d="M24.3542 38.2765C23.9451 37.0674 23.7084 35.7718 23.7084 34.4331C23.7084 33.0943 23.9451 31.7988 24.3327 30.5897L24.3219 30.3322L18.2652 25.6152L18.067 25.7098C16.7536 28.344 16 31.3022 16 34.4331C16 37.564 16.7536 40.522 18.067 43.1563L24.3542 38.2765"/><path fill="#EB4335" d="M35.3784 22.514C39.0172 22.514 41.4718 24.0903 42.8714 25.4075L48.3404 20.0526C44.9816 16.9217 40.6105 15 35.3784 15C27.7992 15 21.2536 19.3616 18.0669 25.7097L24.3326 30.5896C25.9045 25.9041 30.2539 22.514 35.3784 22.514"/></g><circle cx="35" cy="35" r="34.5" stroke="#DBE9F5"/><defs><clipPath id="clip0_16_2972"><rect width="38" height="39" fill="#fff" transform="translate(16 15)"/></clipPath></defs></svg>