<svg xmlns="http://www.w3.org/2000/svg" width="64" height="64" fill="none" viewBox="0 0 64 64"><g id="Group 326"><circle id="Ellipse 44" cx="32" cy="32" r="31.75" fill="#fff" stroke="#FFE7A6" stroke-width=".5"/><g id="Group 341"><path id="Vector 30" fill="#D6B268" d="M20.8796 26.92H18.1211C17.933 26.92 17.8489 26.6839 17.9947 26.565L29.593 17.1033C29.6666 17.0432 29.7724 17.0433 29.846 17.1035L32.9129 19.6127C33.0435 19.7196 33.2396 19.6267 33.2396 19.458V18.16C33.2396 18.0495 33.3291 17.96 33.4396 17.96H36.5596C36.67 17.96 36.7596 18.0495 36.7596 18.16V22.6648C36.7596 22.725 36.7867 22.7821 36.8335 22.82L41.4424 26.5648C41.5885 26.6835 41.5046 26.92 41.3163 26.92H38.5596C38.4491 26.92 38.3596 27.0095 38.3596 27.12V38.5528C38.3596 38.7638 38.0264 38.8594 37.895 38.6942C36.7601 37.2675 34.424 35.6511 33.2396 35.56H26.8396C25.6507 35.56 24.7378 36.1122 24.3575 36.4472C24.3073 36.4914 24.2402 36.5121 24.1746 36.499L21.2403 35.9122C21.1469 35.8935 21.0796 35.8114 21.0796 35.716V27.12C21.0796 27.0095 20.99 26.92 20.8796 26.92Z"/><path id="Vector 31" fill="#fff" d="M26.5195 30.1199V35.8799H32.9195V30.1199C32.9195 29.0533 32.2795 26.9199 29.7195 26.9199C27.1595 26.9199 26.5195 29.0533 26.5195 30.1199Z"/><g id="Vector 32"><path fill="#2255A4" d="M24.6975 36.2649C24.8759 36.1529 25.0877 36.0409 25.3375 35.9299C26.2974 35.2403 29.848 35.3042 32.92 35.5602C34.2 35.5602 37.4334 36.6979 38.4574 38.4899H42.2974V44.8898H38.4574L29.8174 45.8498C29.0707 45.8498 27.3214 45.6578 26.2974 44.8898L15.4174 37.5298C14.9907 37.3164 14.5214 36.6338 16.0574 35.6098C16.5908 35.2898 18.2975 34.9696 20.8575 35.6099L24.6975 36.2649Z"/><path stroke="#fff" stroke-linecap="round" stroke-linejoin="round" d="M32.0575 41.0499L25.2841 38.6939M25.2841 38.6939L24.6975 38.4899C23.9508 38.0632 23.0335 36.9539 25.3375 35.9299C26.2974 35.2403 29.848 35.3042 32.92 35.5602C34.2 35.5602 37.4334 36.6979 38.4574 38.4899H42.2974V44.8898H38.4574L29.8174 45.8498C29.0707 45.8498 27.3214 45.6578 26.2974 44.8898L15.4174 37.5298C14.9907 37.3164 14.5214 36.6338 16.0574 35.6098C16.5908 35.2898 18.2975 34.9696 20.8575 35.6099L24.6975 36.2649C24.1414 36.7238 22.68 37.8003 25.2841 38.6939Z"/></g><path id="Vector 33" fill="#2255A4" stroke="#fff" stroke-linecap="round" d="M42.5195 34.6001V47.7201H49.5V34.6001H42.5195Z"/></g></g></svg>