<svg xmlns="http://www.w3.org/2000/svg" width="29" height="29" fill="none" viewBox="0 0 29 29"><g clip-path="url(#clip0_1_1351)"><path fill="#138808" d="M0 21.7499C0 22.6045 0.339483 23.4241 0.943767 24.0284C1.54805 24.6327 2.36764 24.9722 3.22222 24.9722H25.7778C26.6324 24.9722 27.452 24.6327 28.0562 24.0284C28.6605 23.4241 29 22.6045 29 21.7499V17.7222H0V21.7499Z"/><path fill="#F93" d="M29 11.2778V7.25005C29 6.39547 28.6605 5.57588 28.0562 4.9716C27.452 4.36732 26.6324 4.02783 25.7778 4.02783H3.22222C2.36764 4.02783 1.54805 4.36732 0.943767 4.9716C0.339483 5.57588 0 6.39547 0 7.25005L0 11.2778H29Z"/><path fill="#F7F7F7" d="M0 11.0098H29V17.9915H0V11.0098Z"/><path fill="navy" d="M14.5001 17.7223C16.2796 17.7223 17.7223 16.2796 17.7223 14.5001C17.7223 12.7205 16.2796 11.2778 14.5001 11.2778C12.7205 11.2778 11.2778 12.7205 11.2778 14.5001C11.2778 16.2796 12.7205 17.7223 14.5001 17.7223Z"/><path fill="#F7F7F7" d="M14.5 17.2188C16.0015 17.2188 17.2188 16.0015 17.2188 14.5C17.2188 12.9985 16.0015 11.7812 14.5 11.7812C12.9985 11.7812 11.7812 12.9985 11.7812 14.5C11.7812 16.0015 12.9985 17.2188 14.5 17.2188Z"/><path fill="#6666B3" d="M14.5807 13.4932L14.5001 14.0168L14.4196 13.4932L14.5001 11.9224L14.5807 13.4932ZM13.8331 12.0102L14.1618 13.548L14.3753 14.0329L14.3173 13.5069L13.8331 12.0102ZM13.2113 12.2679L13.9266 13.668L14.2585 14.0813L14.0668 13.5874L13.2113 12.2679ZM12.6772 12.6772L13.7308 13.8452L14.1586 14.1586L13.8452 13.7308L12.6772 12.6772ZM12.2679 13.2113L13.5874 14.0668L14.0813 14.2585L13.668 13.9266L12.2679 13.2113ZM12.0102 13.8331L13.5069 14.3173L14.0329 14.3753L13.548 14.1618L12.0102 13.8331ZM11.9224 14.5001L13.4932 14.5807L14.0168 14.5001L13.4932 14.4196L11.9224 14.5001ZM12.0102 15.1671L13.548 14.8385L14.0329 14.625L13.5069 14.683L12.0102 15.1671ZM12.2679 15.789L13.668 15.0737L14.0813 14.7418L13.5874 14.9335L12.2679 15.789ZM12.6772 16.3231L13.8452 15.2694L14.1586 14.8417L13.7308 15.1551L12.6772 16.3231ZM13.2113 16.7323L14.0668 15.4128L14.2585 14.919L13.9266 15.3323L13.2113 16.7323ZM13.8331 16.9901L14.3173 15.4934L14.3753 14.9674L14.1618 15.4523L13.8331 16.9901ZM14.5001 17.0779L14.5807 15.5071L14.5001 14.9835L14.4196 15.5071L14.5001 17.0779ZM15.1671 16.9901L14.8385 15.4523L14.625 14.9674L14.683 15.4934L15.1671 16.9901ZM15.789 16.7323L15.0737 15.3323L14.7418 14.919L14.9335 15.4128L15.789 16.7323ZM16.3231 16.3231L15.2694 15.1551L14.8417 14.8417L15.1551 15.2694L16.3231 16.3231ZM16.7323 15.789L15.4128 14.9335L14.919 14.7418L15.3323 15.0737L16.7323 15.789ZM16.9901 15.1671L15.4934 14.683L14.9674 14.625L15.4523 14.8385L16.9901 15.1671ZM17.0779 14.5001L15.5071 14.4196L14.9835 14.5001L15.5071 14.5807L17.0779 14.5001ZM16.9901 13.8331L15.4523 14.1618L14.9674 14.3753L15.4934 14.3173L16.9901 13.8331ZM16.7323 13.2113L15.3323 13.9266L14.919 14.2585L15.4128 14.0668L16.7323 13.2113ZM16.3231 12.6772L15.1551 13.7308L14.8417 14.1586L15.2694 13.8452L16.3231 12.6772ZM15.789 12.2679L14.9335 13.5874L14.7418 14.0813L15.0737 13.668L15.789 12.2679ZM15.1671 12.0102L14.683 13.5069L14.625 14.0329L14.8385 13.548L15.1671 12.0102Z"/><path fill="navy" d="M14.1455 11.9697C14.2345 11.9697 14.3066 11.8976 14.3066 11.8086C14.3066 11.7196 14.2345 11.6475 14.1455 11.6475C14.0565 11.6475 13.9844 11.7196 13.9844 11.8086C13.9844 11.8976 14.0565 11.9697 14.1455 11.9697Z"/><path fill="navy" d="M13.4609 12.1533C13.5499 12.1533 13.622 12.0811 13.622 11.9922C13.622 11.9032 13.5499 11.8311 13.4609 11.8311C13.3719 11.8311 13.2998 11.9032 13.2998 11.9922C13.2998 12.0811 13.3719 12.1533 13.4609 12.1533Z"/><path fill="navy" d="M12.8471 12.5068C12.9361 12.5068 13.0083 12.4347 13.0083 12.3457C13.0083 12.2567 12.9361 12.1846 12.8471 12.1846C12.7582 12.1846 12.686 12.2567 12.686 12.3457C12.686 12.4347 12.7582 12.5068 12.8471 12.5068Z"/><path fill="navy" d="M12.3457 13.0083C12.4347 13.0083 12.5068 12.9361 12.5068 12.8471C12.5068 12.7582 12.4347 12.686 12.3457 12.686C12.2567 12.686 12.1846 12.7582 12.1846 12.8471C12.1846 12.9361 12.2567 13.0083 12.3457 13.0083Z"/><path fill="navy" d="M11.9922 13.622C12.0811 13.622 12.1533 13.5499 12.1533 13.4609C12.1533 13.3719 12.0811 13.2998 11.9922 13.2998C11.9032 13.2998 11.8311 13.3719 11.8311 13.4609C11.8311 13.5499 11.9032 13.622 11.9922 13.622Z"/><path fill="navy" d="M11.8086 14.3066C11.8976 14.3066 11.9697 14.2345 11.9697 14.1455C11.9697 14.0565 11.8976 13.9844 11.8086 13.9844C11.7196 13.9844 11.6475 14.0565 11.6475 14.1455C11.6475 14.2345 11.7196 14.3066 11.8086 14.3066Z"/><path fill="navy" d="M11.8086 15.0156C11.8976 15.0156 11.9697 14.9435 11.9697 14.8545C11.9697 14.7655 11.8976 14.6934 11.8086 14.6934C11.7196 14.6934 11.6475 14.7655 11.6475 14.8545C11.6475 14.9435 11.7196 15.0156 11.8086 15.0156Z"/><path fill="navy" d="M11.9922 15.7002C12.0811 15.7002 12.1533 15.628 12.1533 15.539C12.1533 15.4501 12.0811 15.3779 11.9922 15.3779C11.9032 15.3779 11.8311 15.4501 11.8311 15.539C11.8311 15.628 11.9032 15.7002 11.9922 15.7002Z"/><path fill="navy" d="M12.3457 16.3139C12.4347 16.3139 12.5068 16.2418 12.5068 16.1528C12.5068 16.0638 12.4347 15.9917 12.3457 15.9917C12.2567 15.9917 12.1846 16.0638 12.1846 16.1528C12.1846 16.2418 12.2567 16.3139 12.3457 16.3139Z"/><path fill="navy" d="M12.8471 16.8149C12.9361 16.8149 13.0083 16.7428 13.0083 16.6538C13.0083 16.5648 12.9361 16.4927 12.8471 16.4927C12.7582 16.4927 12.686 16.5648 12.686 16.6538C12.686 16.7428 12.7582 16.8149 12.8471 16.8149Z"/><path fill="navy" d="M13.4609 17.1689C13.5499 17.1689 13.622 17.0968 13.622 17.0078C13.622 16.9188 13.5499 16.8467 13.4609 16.8467C13.3719 16.8467 13.2998 16.9188 13.2998 17.0078C13.2998 17.0968 13.3719 17.1689 13.4609 17.1689Z"/><path fill="navy" d="M14.1455 17.3525C14.2345 17.3525 14.3066 17.2804 14.3066 17.1914C14.3066 17.1024 14.2345 17.0303 14.1455 17.0303C14.0565 17.0303 13.9844 17.1024 13.9844 17.1914C13.9844 17.2804 14.0565 17.3525 14.1455 17.3525Z"/><path fill="navy" d="M14.8545 17.3525C14.9435 17.3525 15.0156 17.2804 15.0156 17.1914C15.0156 17.1024 14.9435 17.0303 14.8545 17.0303C14.7655 17.0303 14.6934 17.1024 14.6934 17.1914C14.6934 17.2804 14.7655 17.3525 14.8545 17.3525Z"/><path fill="navy" d="M15.539 17.1689C15.628 17.1689 15.7002 17.0968 15.7002 17.0078C15.7002 16.9188 15.628 16.8467 15.539 16.8467C15.4501 16.8467 15.3779 16.9188 15.3779 17.0078C15.3779 17.0968 15.4501 17.1689 15.539 17.1689Z"/><path fill="navy" d="M16.1528 16.8149C16.2418 16.8149 16.3139 16.7428 16.3139 16.6538C16.3139 16.5648 16.2418 16.4927 16.1528 16.4927C16.0638 16.4927 15.9917 16.5648 15.9917 16.6538C15.9917 16.7428 16.0638 16.8149 16.1528 16.8149Z"/><path fill="navy" d="M16.6538 16.3139C16.7428 16.3139 16.8149 16.2418 16.8149 16.1528C16.8149 16.0638 16.7428 15.9917 16.6538 15.9917C16.5648 15.9917 16.4927 16.0638 16.4927 16.1528C16.4927 16.2418 16.5648 16.3139 16.6538 16.3139Z"/><path fill="navy" d="M17.0078 15.7002C17.0968 15.7002 17.1689 15.628 17.1689 15.539C17.1689 15.4501 17.0968 15.3779 17.0078 15.3779C16.9188 15.3779 16.8467 15.4501 16.8467 15.539C16.8467 15.628 16.9188 15.7002 17.0078 15.7002Z"/><path fill="navy" d="M17.1914 15.0156C17.2804 15.0156 17.3525 14.9435 17.3525 14.8545C17.3525 14.7655 17.2804 14.6934 17.1914 14.6934C17.1024 14.6934 17.0303 14.7655 17.0303 14.8545C17.0303 14.9435 17.1024 15.0156 17.1914 15.0156Z"/><path fill="navy" d="M17.1914 14.3066C17.2804 14.3066 17.3525 14.2345 17.3525 14.1455C17.3525 14.0565 17.2804 13.9844 17.1914 13.9844C17.1024 13.9844 17.0303 14.0565 17.0303 14.1455C17.0303 14.2345 17.1024 14.3066 17.1914 14.3066Z"/><path fill="navy" d="M17.0078 13.622C17.0968 13.622 17.1689 13.5499 17.1689 13.4609C17.1689 13.3719 17.0968 13.2998 17.0078 13.2998C16.9188 13.2998 16.8467 13.3719 16.8467 13.4609C16.8467 13.5499 16.9188 13.622 17.0078 13.622Z"/><path fill="navy" d="M16.6538 13.0083C16.7428 13.0083 16.8149 12.9361 16.8149 12.8471C16.8149 12.7582 16.7428 12.686 16.6538 12.686C16.5648 12.686 16.4927 12.7582 16.4927 12.8471C16.4927 12.9361 16.5648 13.0083 16.6538 13.0083Z"/><path fill="navy" d="M16.1528 12.5068C16.2418 12.5068 16.3139 12.4347 16.3139 12.3457C16.3139 12.2567 16.2418 12.1846 16.1528 12.1846C16.0638 12.1846 15.9917 12.2567 15.9917 12.3457C15.9917 12.4347 16.0638 12.5068 16.1528 12.5068Z"/><path fill="navy" d="M15.539 12.1533C15.628 12.1533 15.7002 12.0811 15.7002 11.9922C15.7002 11.9032 15.628 11.8311 15.539 11.8311C15.4501 11.8311 15.3779 11.9032 15.3779 11.9922C15.3779 12.0811 15.4501 12.1533 15.539 12.1533Z"/><path fill="navy" d="M14.8545 11.9697C14.9435 11.9697 15.0156 11.8976 15.0156 11.8086C15.0156 11.7196 14.9435 11.6475 14.8545 11.6475C14.7655 11.6475 14.6934 11.7196 14.6934 11.8086C14.6934 11.8976 14.7655 11.9697 14.8545 11.9697Z"/><path fill="navy" d="M14.4999 15.2249C14.9003 15.2249 15.2249 14.9003 15.2249 14.4999C15.2249 14.0995 14.9003 13.7749 14.4999 13.7749C14.0995 13.7749 13.7749 14.0995 13.7749 14.4999C13.7749 14.9003 14.0995 15.2249 14.4999 15.2249Z"/></g><defs><clipPath id="clip0_1_1351"><rect width="29" height="29" fill="#fff"/></clipPath></defs></svg>