<svg width="27" height="27" viewBox="0 0 27 27" fill="none" xmlns="http://www.w3.org/2000/svg">
<path d="M19.964 8.14209C20.8218 8.14209 21.5172 7.44668 21.5172 6.58886C21.5172 5.73104 20.8218 5.03564 19.964 5.03564C19.1062 5.03564 18.4108 5.73104 18.4108 6.58886C18.4108 7.44668 19.1062 8.14209 19.964 8.14209Z" fill="url(#paint0_linear_1_1975)" stroke="#C78000" stroke-miterlimit="10"/>
<path d="M13.0845 20.2459C9.36489 20.2459 6.33875 17.2197 6.33875 13.5001C6.33875 9.78049 9.36489 6.75439 13.0845 6.75439C16.8041 6.75439 19.8303 9.78054 19.8303 13.5001C19.8303 17.2198 16.8041 20.2459 13.0845 20.2459ZM13.0845 8.86373C10.528 8.86373 8.44808 10.9436 8.44808 13.5001C8.44808 16.0567 10.528 18.1366 13.0845 18.1366C15.6411 18.1366 17.7209 16.0567 17.7209 13.5001C17.7209 10.9436 15.6411 8.86373 13.0845 8.86373Z" fill="url(#paint1_linear_1_1975)"/>
<path d="M17.3802 27H8.78889C3.94267 27 0 23.0573 0 18.2111V8.78889C0 3.94267 3.94267 0 8.78889 0H17.3802C22.2264 0 26.1691 3.94267 26.1691 8.78889V18.2111C26.1691 23.0573 22.2264 27 17.3802 27ZM8.78889 2.10933C5.10576 2.10933 2.10933 5.10576 2.10933 8.78889V18.2111C2.10933 21.8942 5.10576 24.8907 8.78889 24.8907H17.3802C21.0633 24.8907 24.0597 21.8942 24.0597 18.2111V8.78889C24.0597 5.10576 21.0633 2.10933 17.3802 2.10933H8.78889Z" fill="url(#paint2_linear_1_1975)"/>
<defs>
<linearGradient id="paint0_linear_1_1975" x1="20.7407" y1="7.93425" x2="19.1872" y2="5.24354" gradientUnits="userSpaceOnUse">
<stop offset="0.2" stop-color="#DA1C5C"/>
<stop offset="0.3454" stop-color="#DF3158"/>
<stop offset="0.647" stop-color="#EB684E"/>
<stop offset="1" stop-color="#FBB040"/>
</linearGradient>
<linearGradient id="paint1_linear_1_1975" x1="15.3918" y1="19.8394" x2="10.7772" y2="7.16083" gradientUnits="userSpaceOnUse">
<stop stop-color="#20254C"/>
<stop offset="0.1235" stop-color="#582251"/>
<stop offset="0.2623" stop-color="#8F2056"/>
<stop offset="0.3819" stop-color="#B81E59"/>
<stop offset="0.4761" stop-color="#D11C5B"/>
<stop offset="0.5333" stop-color="#DA1C5C"/>
<stop offset="0.5935" stop-color="#DC265A"/>
<stop offset="0.696" stop-color="#E24155"/>
<stop offset="0.8284" stop-color="#EC6D4D"/>
<stop offset="0.9842" stop-color="#FAA941"/>
<stop offset="1" stop-color="#FBB040"/>
</linearGradient>
<linearGradient id="paint2_linear_1_1975" x1="18.1073" y1="27.2999" x2="8.06177" y2="-0.299967" gradientUnits="userSpaceOnUse">
<stop stop-color="#20254C"/>
<stop offset="0.1235" stop-color="#582251"/>
<stop offset="0.2623" stop-color="#8F2056"/>
<stop offset="0.3819" stop-color="#B81E59"/>
<stop offset="0.4761" stop-color="#D11C5B"/>
<stop offset="0.5333" stop-color="#DA1C5C"/>
<stop offset="0.5935" stop-color="#DC265A"/>
<stop offset="0.696" stop-color="#E24155"/>
<stop offset="0.8284" stop-color="#EC6D4D"/>
<stop offset="0.9842" stop-color="#FAA941"/>
<stop offset="1" stop-color="#FBB040"/>
</linearGradient>
</defs>
</svg>
