<svg xmlns="http://www.w3.org/2000/svg" width="652" height="420" fill="none" viewBox="0 0 652 420"><path fill="#007A3D" d="M0 10C0 4.47716 4.47715 0 10 0H642C647.523 0 652 4.47715 652 10V410C652 415.523 647.523 420 642 420H9.99999C4.47714 420 0 415.523 0 410V10Z"/><path fill="#fff" d="M0 10C0 4.47715 4.47715 0 10 0H641.976C647.499 0 651.976 4.47715 651.976 10V270C651.976 275.523 647.499 280 641.976 280H9.99997C4.47713 280 0 275.523 0 270V10Z"/><path fill="#000" d="M0 10C0 4.47716 4.47715 0 10 0H641.976C647.499 0 651.976 4.47715 651.976 10V130C651.976 135.523 647.499 140 641.976 140H9.99997C4.47713 140 0 135.523 0 130V10Z"/><path fill="#CE1126" d="M14.7035 7.83692C8.04257 4.28665 0 9.11364 0 16.6617V403.338C0 410.886 8.04258 415.713 14.7036 412.163L377.443 218.825C384.505 215.061 384.505 204.939 377.443 201.175L14.7035 7.83692Z"/><path fill="#fff" d="M117.251 192.156C118.798 187.978 124.707 187.978 126.254 192.156V192.156C127.15 194.574 129.803 195.85 132.254 195.05V195.05C136.399 193.697 140.094 198.089 138.024 201.927L137.615 202.688C136.387 204.965 137.029 207.799 139.119 209.324L139.45 209.566C143.065 212.205 141.673 217.9 137.255 218.619V218.619C134.712 219.033 132.889 221.318 133.065 223.889L133.112 224.578C133.409 228.922 128.175 231.326 125.072 228.27V228.27C123.231 226.456 120.274 226.456 118.433 228.271V228.271C115.331 231.327 110.097 228.922 110.394 224.578L110.441 223.889C110.617 221.318 108.795 219.033 106.251 218.619V218.619C101.833 217.9 100.441 212.205 104.056 209.566L104.387 209.324C106.477 207.799 107.119 204.965 105.892 202.688L105.481 201.927C103.412 198.088 107.106 193.697 111.252 195.05V195.05C113.703 195.85 116.355 194.574 117.251 192.156V192.156Z"/></svg>