<svg width="15" height="17" viewBox="0 0 15 17" fill="none" xmlns="http://www.w3.org/2000/svg">
<path d="M5 16.2308L9.38461 6L13.7692 16.2308M6.34736 13.3077H12.4219" stroke="black" stroke-width="1.2" stroke-linecap="round" stroke-linejoin="round"/>
<path d="M3.80952 0C2.34667 0 1.14286 1.185 1.14286 2.625V2.625C1.14286 3.66018 1.04384 4.97859 0.531227 5.87794C0.190727 6.47532 0 7.15871 0 7.875C0 10.1475 1.8819 12 4.19048 12C5.27367 12 6.34692 11.7749 7.32188 11.3405C7.70516 11.1697 7.82694 10.7003 7.61446 10.3384V10.3384C7.40558 9.98273 6.95142 9.86495 6.57059 10.0235C5.81831 10.3366 5.00888 10.5 4.19048 10.5C2.71238 10.5 1.52381 9.3375 1.52381 7.875C1.52246 7.29733 1.71527 6.73545 2.07221 6.27692C2.42915 5.81839 2.93015 5.48897 3.49714 5.34L6.73609 4.48325C7.13856 4.37679 7.37707 3.96265 7.26716 3.56111V3.56111C7.15836 3.16358 6.74891 2.92857 6.35077 3.03514L4.24435 3.59895C3.87175 3.69868 3.45541 3.76321 3.14113 3.5396C2.85343 3.33491 2.66667 3.00531 2.66667 2.625C2.66667 1.995 3.16952 1.5 3.80952 1.5V1.5C4.14445 1.5 4.51345 1.42436 4.68305 1.13555L4.74925 1.02279C4.96609 0.653532 4.83891 0.166529 4.42172 0.0699568C4.22118 0.0235361 4.01535 0 3.80952 0Z" fill="black"/>
</svg>
