<svg width="27" height="27" viewBox="0 0 27 27" fill="none" xmlns="http://www.w3.org/2000/svg">
<g clip-path="url(#clip0_1_1973)">
<path d="M23.005 23.0056H19.0045V16.7405C19.0045 15.2465 18.9778 13.3233 16.9238 13.3233C14.8402 13.3233 14.5213 14.9511 14.5213 16.6317V23.0052H10.5209V10.1216H14.3613V11.8823H14.4151C14.7995 11.2251 15.3548 10.6845 16.0221 10.318C16.6894 9.95149 17.4436 9.77284 18.2044 9.80107C22.2591 9.80107 23.0067 12.4682 23.0067 15.9379L23.005 23.0056ZM6.00683 8.36057C4.72465 8.36079 3.68504 7.3215 3.68483 6.03931C3.68462 4.75713 4.72381 3.71752 6.00599 3.71731C7.28817 3.717 8.32778 4.75629 8.32799 6.03847C8.3281 6.6542 8.08362 7.24476 7.64832 7.68023C7.21302 8.11571 6.62256 8.36043 6.00683 8.36057ZM8.00715 23.0058H4.0024V10.1216H8.00705V23.0056L8.00715 23.0058ZM24.9994 0.00196508H1.99217C0.904783 -0.0102693 0.0130449 0.860797 -0.000244141 1.94818V25.0514C0.012623 26.1393 0.904256 27.0112 1.99206 26.9999H24.9994C26.0896 27.0134 26.9847 26.1414 26.9998 25.0514V1.94639C26.9843 0.856895 26.089 -0.0140662 24.9994 0.000172114" fill="#0A66C2"/>
</g>
<defs>
<clipPath id="clip0_1_1973">
<rect width="27" height="27" fill="white"/>
</clipPath>
</defs>
</svg>
