<svg width="14" height="16" viewBox="0 0 14 16" fill="none" xmlns="http://www.w3.org/2000/svg">
<path d="M7 3.2378e-09C8.20741 -4.55817e-05 9.36784 0.481253 10.2375 1.34277C11.1071 2.20429 11.6183 3.37897 11.6636 4.62L11.6667 4.8H12.4444C12.8369 4.79987 13.2149 4.95233 13.5026 5.2268C13.7904 5.50127 13.9667 5.87748 13.9961 6.28L14 6.4V14.4C14.0001 14.8037 13.8519 15.1925 13.5851 15.4884C13.3182 15.7844 12.9525 15.9657 12.5611 15.996L12.4444 16H1.55556C1.16311 16.0001 0.785115 15.8477 0.497352 15.5732C0.209588 15.2987 0.0333227 14.9225 0.00388906 14.52L7.79862e-08 14.4V6.4C-0.000124117 5.99634 0.148094 5.60755 0.414942 5.31156C0.68179 5.01558 1.04755 4.83427 1.43889 4.804L1.55556 4.8H2.33333C2.33333 3.52696 2.825 2.30606 3.70017 1.40589C4.57534 0.505713 5.76232 3.2378e-09 7 3.2378e-09V3.2378e-09ZM12.4444 6.4H1.55556V14.4H12.4444V6.4ZM7 8C7.33179 8.00011 7.65486 8.10933 7.92201 8.31172C8.18916 8.51411 8.3864 8.79905 8.48491 9.12493C8.58343 9.45081 8.57806 9.80056 8.46959 10.1231C8.36112 10.4456 8.15523 10.724 7.882 10.9176L7.77778 10.9856V12C7.77756 12.2039 7.70165 12.4 7.56556 12.5483C7.42948 12.6966 7.24348 12.7858 7.04558 12.7977C6.84768 12.8097 6.65282 12.7435 6.5008 12.6126C6.34878 12.4817 6.25108 12.2961 6.22767 12.0936L6.22222 12V10.9856C5.92569 10.8095 5.69394 10.5376 5.56291 10.2123C5.43188 9.88686 5.40889 9.52608 5.49752 9.18588C5.58614 8.84568 5.78143 8.54507 6.05308 8.33065C6.32474 8.11624 6.65758 8.00002 7 8V8ZM7 1.6C6.17488 1.6 5.38356 1.93714 4.80011 2.53726C4.21667 3.13737 3.88889 3.95131 3.88889 4.8H10.1111C10.1111 3.95131 9.78333 3.13737 9.19989 2.53726C8.61644 1.93714 7.82512 1.6 7 1.6Z" fill="#939EAA"/>
</svg>
