<svg xmlns="http://www.w3.org/2000/svg" width="42" height="41" fill="none" viewBox="0 0 42 41"><rect width="41.5" height="40.5" x=".25" y=".25" stroke="#FFE7A6" stroke-width=".5" rx="9.75"/><path fill="#D6B268" d="M11 21.001L16 25.001V22.001H25V20.001H16V17.001L11 21.001Z"/><path fill="#2255A4" d="M22.0007 12C20.8182 11.9968 19.6469 12.2281 18.5545 12.6808C17.4621 13.1335 16.4703 13.7984 15.6367 14.637L17.0507 16.051C18.3727 14.729 20.1307 14 22.0007 14C23.8707 14 25.6287 14.729 26.9507 16.051C28.2727 17.373 29.0017 19.131 29.0017 21.001C29.0017 22.871 28.2727 24.629 26.9507 25.951C25.6287 27.273 23.8707 28.002 22.0007 28.002C20.1307 28.002 18.3727 27.273 17.0507 25.951L15.6367 27.365C17.3357 29.065 19.5957 30.002 22.0007 30.002C24.4057 30.002 26.6657 29.065 28.3647 27.365C30.0647 25.666 31.0017 23.406 31.0017 21.001C31.0017 18.596 30.0647 16.336 28.3647 14.637C27.5311 13.7984 26.5394 13.1335 25.447 12.6808C24.3546 12.2281 23.1832 11.9968 22.0007 12V12Z"/></svg>