<svg xmlns="http://www.w3.org/2000/svg" width="269" height="204" fill="none" viewBox="0 0 269 204"><path fill="#EF7C00" fill-rule="evenodd" d="M117.59 23.5172C116.81 22.1025 115.983 20.7118 115.13 19.3453C114.238 17.9065 113.764 16.2667 114.455 13.6864C115.918 8.26864 123.177 5.51956 128 4.33794C139.334 1.5567 149.936 5.37487 152.693 15.9934C153.328 19.1765 152.79 19.5141 156.053 17.0223C159.068 14.7314 159.164 14.434 155.161 10.1978C145.483 -0.05094 127.574 -0.814579 113.426 7.8185C111.955 8.71074 108.997 10.5676 108.153 11.5402C106.755 13.18 108.427 14.5385 109.697 16.5078L130.749 48.2348C132.011 50.0514 133.61 52.4308 134.671 54.3117L146.737 72.1405C147.147 72.8479 147.34 73.3222 147.838 74.0778C148.73 75.4282 149.381 76.8751 150.121 78.0085C151.97 80.846 155.892 87.5338 153.32 91.577C152.428 92.9757 150.732 94.3261 149.389 95.3148C141.335 101.239 126.979 100.395 120.982 95.347C119.648 94.2216 117.912 91.1992 117.365 89.6639C116.955 88.5064 116.272 85.1384 116.095 85.0258C115.227 84.5033 112.558 87.2444 111.553 87.8875C111.087 88.9967 111.119 89.1254 111.602 89.7684C113.925 92.8551 116.143 94.5833 119.543 96.7376C123.016 98.94 128.337 100.451 133.482 100.749C141.102 101.191 151.327 98.0076 158.424 92.9114C159.494 92.1477 160.691 91.5529 160.924 89.889C160.691 88.7556 159.759 87.8473 159.26 87.0917C142.661 62.1972 133.771 48.7573 117.59 23.5172Z" clip-rule="evenodd"/><path fill="#EF7C00" d="M119.31 22.7858C118.683 21.6604 118.04 20.5512 117.373 19.4499C116.899 18.6622 116.368 17.9709 116.127 17.0786C115.677 15.4388 116.256 13.5177 117.228 12.1753C119.254 9.36193 122.807 7.87486 125.998 6.82989C132.413 4.7319 140.491 4.32999 146.126 8.84748C148.706 10.9053 150.466 13.9759 151.021 17.2153C151.262 18.622 151.568 20.3422 153.32 20.511C154.952 20.6717 156.616 18.9596 157.789 18.0352C158.874 17.1751 160 16.1623 160.096 14.6913C160.209 12.9631 158.907 11.5242 157.829 10.3346C155.056 7.25591 151.954 4.7319 148.184 2.97153C140.837 -0.460804 132.163 -0.750184 124.382 1.23526C120.018 2.35258 115.942 4.10492 112.1 6.45209C109.262 8.18835 104.094 10.7767 106.345 14.8601C107.1 16.2266 108.113 17.4645 108.981 18.7747C109.897 20.1493 110.806 21.5318 111.722 22.9064C114.608 27.2551 117.486 31.5957 120.371 35.9444C122.895 39.7465 125.419 43.5566 127.943 47.3587C128.393 48.0339 128.836 48.7172 129.286 49.3844C130.765 51.5708 132.115 53.8375 133.594 56.0239C136.231 59.9225 138.867 63.821 141.504 67.7196C142.621 69.3755 143.746 71.0314 144.864 72.6872C144.976 72.848 145.089 73.0088 145.193 73.1776C145.217 73.2178 145.242 73.2499 145.266 73.2901C145.266 73.2981 145.274 73.2981 145.274 73.3062C145.033 72.9123 145.555 73.8689 145.611 73.9573C146.688 75.9025 147.83 77.8478 149.02 79.7287C150.611 82.2527 152.669 85.8217 152.267 89.0451C152.034 90.934 150.386 92.1961 148.971 93.2973C147.516 94.4226 145.981 95.3069 144.269 95.974C140.813 97.3164 136.97 97.7746 133.289 97.5415C130.009 97.3325 126.392 96.6171 123.651 94.9532C121.127 93.4259 119.431 90.3955 118.772 87.767C118.434 86.4326 118.33 84.1899 117.019 83.4183C115.428 82.4858 113.667 83.8122 112.454 84.7848C111.087 85.878 109.528 86.8506 109.391 88.7718C109.311 89.8569 109.922 90.6527 110.557 91.4565C111.24 92.3247 111.979 93.1365 112.767 93.9082C115.886 96.9547 119.768 99.4144 123.908 100.797C128.305 102.268 133.015 102.927 137.645 102.541C142.01 102.18 146.335 101.014 150.394 99.3822C152.484 98.5463 154.502 97.5576 156.439 96.4161C158.151 95.4033 160.128 94.3262 161.495 92.8632C162.178 92.1317 162.693 91.1511 162.781 90.1383C162.902 88.8361 161.953 87.5741 161.214 86.5934C159.662 84.5517 158.32 82.3331 156.905 80.195C146.93 65.2117 137.002 50.1882 127.236 35.0682C124.503 30.8401 121.778 26.5959 119.061 22.3598C118.514 21.5077 117.172 21.4756 116.441 22.0543C115.58 22.7295 115.588 23.8227 116.135 24.6748C125.668 39.5375 135.29 54.344 145.041 69.062C147.541 72.84 150.048 76.6099 152.564 80.3798C153.947 82.4617 155.338 84.5356 156.72 86.6175C157.347 87.558 158.006 88.4663 158.657 89.3827C158.698 89.4389 158.818 89.6479 158.899 89.7364C158.947 89.8328 158.987 89.9212 159.035 90.0177C159.116 89.6721 159.1 89.6721 158.987 90.0177C158.81 90.2347 158.69 90.4116 158.481 90.5884C155.442 93.1446 151.568 94.9612 147.878 96.3438C144.036 97.7826 139.977 98.7392 135.869 98.908C131.167 99.1009 126.135 98.0318 121.923 95.9258C119.961 94.9451 118.088 93.6027 116.424 92.188C115.653 91.5369 114.953 90.8376 114.286 90.074C113.917 89.656 113.531 88.9325 113.097 88.5949C112.711 88.2975 113.056 88.4181 113.04 88.5467C113.137 88.7476 113.161 88.9406 113.097 89.1335C113.161 88.9486 113.233 88.7557 113.314 88.5788C113.121 88.8361 112.936 89.0853 112.743 89.3425C113.434 88.8763 114.045 88.2895 114.696 87.767C115.05 87.4776 115.412 87.1802 115.806 86.939C115.757 86.9712 116.039 86.7943 116.047 86.8104C116.183 86.7542 116.151 86.7542 115.926 86.8185C115.757 86.8185 115.597 86.7944 115.436 86.7461C115.179 86.5532 114.929 86.3683 114.672 86.1754C114.214 85.6449 114.552 85.8378 114.576 86.1272C114.552 85.7494 114.608 86.2558 114.648 86.4166C114.793 86.9873 114.921 87.5499 115.066 88.1207C115.339 89.2299 115.621 90.3231 116.103 91.3601C117.22 93.7314 118.699 96.0866 120.902 97.5736C125.283 100.54 130.901 101.408 136.086 101.271C141.793 101.127 147.372 99.4144 151.833 95.7972C154.373 93.7394 156.125 91.3842 156.053 88.0081C155.989 85.251 154.855 82.518 153.577 80.1226C152.203 77.5584 150.603 75.1068 149.14 72.5908C148.602 71.6664 148.111 70.7741 147.508 69.8899C145.611 67.0846 143.706 64.2712 141.809 61.4658C140.049 58.8615 138.288 56.2571 136.528 53.6527C136.408 53.4839 136.287 53.307 136.174 53.1302C136.464 53.5723 135.933 52.7122 135.869 52.5997C135.676 52.2781 135.483 51.9566 135.282 51.6351C134.8 50.8634 134.31 50.0998 133.803 49.3442C133.176 48.4037 132.525 47.4793 131.898 46.5308C128.538 41.4667 125.186 36.4106 121.826 31.3465C118.418 26.2101 115.01 21.0656 111.593 15.9292C111.063 15.1253 110.492 14.3537 109.938 13.5579C109.793 13.3489 109.696 13.0997 109.552 12.8988C109.359 12.6415 109.552 12.7219 109.479 12.8988C109.528 12.7943 109.777 12.4888 109.616 12.6817C109.471 12.8505 109.664 12.6335 109.688 12.6174C109.93 12.3924 110.187 12.1914 110.452 11.9985C111.513 11.1946 112.638 10.4793 113.764 9.77189C118.804 6.62893 124.455 4.55507 130.371 3.92005C135.901 3.32522 141.6 4.0165 146.672 6.35563C149.036 7.4408 151.246 8.91982 153.119 10.7284C154.148 11.7252 155.177 12.8023 156.029 13.9518C156.093 14.0402 156.415 14.5466 156.254 14.2492C156.302 14.3456 156.342 14.4421 156.391 14.5305C156.535 14.8119 156.286 14.4903 156.383 14.4421C156.399 14.4341 156.399 14.7958 156.407 14.4421C156.415 14.0643 156.326 14.6833 156.423 14.3135C156.439 14.2492 156.64 14.0884 156.399 14.2813C156.061 14.5466 156.511 14.209 156.246 14.4501C156.053 14.627 155.852 14.7958 155.651 14.9566C155.121 15.3826 154.574 15.7925 154.035 16.1944C153.81 16.3632 153.585 16.524 153.36 16.6848C153.264 16.7571 153.159 16.8295 153.055 16.8857C153.183 16.8134 153.32 16.8214 153.119 16.8375C152.982 16.8455 152.701 16.8697 153.376 16.8295C153.947 16.7973 154.445 16.934 154.815 17.4645C154.863 17.5368 154.944 17.9066 154.879 17.5288C154.469 14.836 153.593 12.3361 152.146 10.0211C149.317 5.51162 144.454 2.81077 139.293 1.91048C133.835 0.961972 128.104 1.95068 122.976 3.92005C117.887 5.8653 112.47 9.54681 112.293 15.5594C112.196 18.9033 114.335 21.4273 115.886 24.2086C116.376 25.0928 117.333 25.6233 118.338 25.1973C119.174 24.8757 119.801 23.67 119.31 22.7858Z"/><path fill="#fff" fill-rule="evenodd" d="M138.136 51.6513L136.126 51.1449C136.416 50.8234 136.721 50.4938 137.034 50.1562L134.261 46.2979L128.208 52.6079L130.861 56L129.663 57.2138L131.014 58.2829L138.136 51.6513Z" clip-rule="evenodd"/><path fill="#104E9E" fill-rule="evenodd" d="M157.21 30.0922C159.276 28.2113 161.302 26.266 163.295 24.2967C165.385 22.2308 167.829 20.7518 171.768 20.8322C180.047 21.001 186.598 32.4796 188.768 39.9471C193.865 57.5107 187.78 76.7141 171.35 84.9372C166.615 87.3085 166.06 86.5529 170.071 90.9096C173.769 94.9287 174.219 94.977 180.28 86.6011C187.707 76.3363 192.37 63.7243 192.265 51.0801C192.161 38.7735 187.498 26.4348 180.529 16.6844C179.066 14.6347 176.036 10.503 174.501 9.5304C171.92 7.89864 170.007 11.2345 167.146 14.1443L138.779 44.5209C136.15 47.3503 132.686 50.9917 129.945 53.5317L115.701 67.2611C114.664 68.2257 113.965 68.7562 112.879 69.8815C110.91 71.9152 108.788 73.5952 107.14 75.2913C103.016 79.5194 98.5632 83.6832 92.2693 81.111C90.0909 80.2187 87.9206 77.9841 86.329 76.1755C80.8228 69.9378 77.6477 60.1713 77.6317 51.1524C77.6236 48.2587 78.13 43.3714 78.8615 41.0644C79.7779 38.1546 80.5495 35.4216 81.9161 32.8976C82.4144 31.9732 82.5109 31.8124 83.0655 31.0649C83.596 30.3495 83.5639 30.0279 84.014 29.2723C85.5976 26.6036 90.0186 22.48 92.2854 20.9447C93.9975 19.7792 99.0134 17.2632 99.1661 16.9176C99.8815 15.2617 95.5409 11.9981 94.4879 10.5995C92.7838 10.294 92.5908 10.3985 91.6584 11.4676C87.1891 16.596 84.7696 20.9688 81.7955 27.4718C78.757 34.1194 76.1365 42.9293 76.3375 52.0366C76.2812 64.8014 82.4225 80.492 90.6697 90.0897C91.9076 91.5285 92.8963 93.2729 95.4203 92.9594C97.1083 92.1073 98.4025 90.1942 99.5037 89.0447C118.08 68.6999 137.589 49.384 157.21 30.0922Z" clip-rule="evenodd"/><path fill="#104E9E" d="M158.368 31.5553C160.747 29.385 162.942 26.9655 165.401 24.8916C167.234 23.3483 169.469 22.5605 171.88 22.6972C176.253 22.9464 179.629 26.644 181.984 30.0281C187.531 37.994 189.613 48.2106 188.254 57.76C186.88 67.4461 181.711 76.2801 173.432 81.6175C171.527 82.8474 169.421 83.6432 167.459 84.7444C165.53 85.8215 165.04 87.598 166.326 89.4548C167.467 91.0946 169.027 92.6701 170.514 94.0125C171.551 94.953 172.845 95.6121 174.276 95.3388C176.076 94.9931 177.411 93.3775 178.512 92.0431C180.385 89.7683 182.121 87.3407 183.721 84.865C187.169 79.5356 189.926 73.724 191.711 67.631C193.487 61.5541 194.339 55.2601 194.05 48.926C193.752 42.5356 192.265 36.1934 189.95 30.237C187.748 24.5701 184.717 19.2648 181.132 14.3615C179.709 12.4163 178.247 10.4308 176.486 8.77494C174.533 6.93418 172.081 6.84576 169.967 8.50967C167.95 10.1093 166.342 12.2796 164.581 14.1686C162.998 15.8647 161.414 17.5607 159.823 19.2649C155.096 24.3209 150.378 29.385 145.651 34.441C142.862 37.4313 140.065 40.4215 137.276 43.4117C132.509 48.5241 127.469 53.339 122.437 58.186C117.381 63.0652 112.285 67.8962 107.148 72.687C103.587 76.0068 99.5762 81.3362 94.0137 79.7687C91.2968 79.0051 89.247 76.7624 87.4786 74.6885C85.6941 72.5986 84.2714 70.2595 83.1219 67.7676C78.3472 57.3902 78.2346 45.0355 83.0656 34.7224C83.5881 33.6131 84.2633 32.6887 84.8823 31.6518C85.4691 30.655 85.8951 29.7146 86.6266 28.7982C88.1458 26.9092 89.9223 25.2131 91.7871 23.6698C93.4109 22.3274 94.7532 21.604 96.586 20.5912C97.4782 20.1008 98.3785 19.6105 99.2627 19.088C99.954 18.6781 100.621 18.3083 100.919 17.5045C101.714 15.3502 99.7209 13.2844 98.3383 11.9018C97.5827 11.1462 96.9075 10.5755 96.2082 9.78775C95.7178 9.23311 95.324 8.87943 94.5523 8.73474C93.9735 8.62221 93.3305 8.54987 92.7437 8.63026C91.4817 8.8071 90.702 9.71542 89.9142 10.6237C88.9577 11.733 88.0413 12.8744 87.1812 14.048C85.5173 16.3148 84.0704 18.7263 82.7602 21.2021C76.9003 32.2788 73.3796 44.5451 74.7219 57.1571C75.9277 68.475 80.5014 79.9214 87.3661 88.9886C88.1297 89.9934 88.9416 90.9499 89.7454 91.9225C90.5492 92.8952 91.4013 93.8196 92.5508 94.3742C94.0298 95.0816 95.6937 95.0333 97.0522 94.1411C98.2097 93.3775 99.1261 92.2923 100.018 91.2473C104.439 86.0787 109.246 81.2076 113.932 76.2801C123.707 66.0153 133.691 55.9514 143.754 45.9679C148.609 41.153 153.489 36.3542 158.368 31.5553C159.083 30.848 159.341 29.7789 158.673 28.9349C158.095 28.2114 156.776 27.922 156.053 28.6294C146.624 37.9055 137.203 47.1897 127.903 56.5945C118.619 65.9831 109.447 75.4843 100.501 85.1865C99.4878 86.2797 98.4589 87.3649 97.4782 88.4902C96.6905 89.3985 95.9509 90.331 94.9783 91.0464C94.6648 91.2714 94.8979 91.1348 94.7291 91.1268C94.5282 91.1187 94.3594 91.0785 94.1745 91.0062C93.8369 90.8695 93.5555 90.6043 93.3144 90.3471C92.5588 89.5673 91.8836 88.667 91.2003 87.815C87.9207 83.7396 85.3244 79.1578 83.2505 74.367C78.8616 64.2147 77.0048 53.2023 79.0144 42.2462C80.0433 36.6033 82.0287 31.2579 84.4804 26.0893C86.7793 21.2503 89.5123 16.7569 93.0331 12.7056C93.1295 12.5931 93.443 12.2475 93.435 12.2555C93.3546 12.3921 93.5153 12.1671 93.5395 12.1832C93.5475 12.1912 93.2903 12.2957 93.2742 12.3037C93.1858 12.3198 93.2822 12.3037 93.3224 12.3118C93.6279 12.352 93.9333 12.3922 94.2468 12.4484C93.8369 12.2153 93.4269 11.9902 93.025 11.7571C93.9173 12.8986 95.0507 13.7747 96.0233 14.8197C96.2886 15.101 96.5538 15.3904 96.795 15.6959C96.8673 15.7923 97.3174 16.4273 97.1888 16.1942C97.2692 16.3309 97.3174 16.556 97.4139 16.6685C97.2531 16.4675 97.5264 16.4836 97.3898 16.6283C97.3898 16.556 97.3898 16.4916 97.3818 16.4193C98.0409 15.5673 98.2177 15.2779 97.8962 15.5512C97.8158 15.5833 97.7354 15.6718 97.6631 15.72C97.5908 15.7602 97.5184 15.8164 97.4461 15.8566C97.012 16.1299 97.8158 15.6476 97.3094 15.937C97.012 16.1058 96.7065 16.2746 96.4091 16.4434C95.7018 16.8373 94.9944 17.2231 94.287 17.609C92.9607 18.3485 91.6183 19.0719 90.4046 19.9963C87.5831 22.1425 84.6894 24.8112 82.7441 27.7934C82.2457 28.5651 81.9322 29.4252 81.4098 30.1727C80.8873 30.9123 80.4452 31.708 80.0272 32.5119C78.8857 34.7144 78.1623 37.1017 77.4228 39.4569C74.9068 47.5193 75.3811 56.498 77.9051 64.4961C79.1912 68.5795 81.1123 72.5343 83.7328 75.9425C86.4578 79.4874 89.9705 83.0162 94.5925 83.6673C98.8286 84.2621 102.615 82.0998 105.653 79.3588C109.085 76.264 112.252 72.8639 115.709 69.7852C118.659 67.1567 121.448 64.3272 124.294 61.5862C127.252 58.7326 130.25 55.9192 133.176 53.0335C136.327 49.9308 139.325 46.6833 142.34 43.46C148.907 36.4265 155.482 29.385 162.049 22.3515C164.18 20.0687 166.31 17.8019 168.432 15.511C168.496 15.4467 168.56 15.3743 168.617 15.31C168.633 15.294 168.641 15.2859 168.657 15.2698C168.745 15.1734 168.102 15.8566 168.753 15.1734C169.059 14.8519 169.364 14.5303 169.67 14.1927C170.337 13.4532 170.972 12.6735 171.695 11.9822C171.985 11.7089 172.306 11.3874 172.636 11.1784C172.861 11.0417 173.102 10.9533 173.158 10.9613C173.528 11.0096 174.026 11.4999 174.171 11.6446C174.774 12.2314 175.313 12.8905 175.843 13.5416C176.976 14.9322 178.046 16.3791 179.091 17.8421C184.468 25.382 188.27 34.1758 189.757 43.3314C191.252 52.5512 190.103 61.9399 186.807 70.6614C185.167 75.0101 183.045 79.1739 180.489 83.0564C179.203 85.0097 177.812 86.9067 176.382 88.7555C175.457 89.9532 174.79 90.7409 173.801 91.5689C173.464 91.8502 174.083 91.4161 173.85 91.5528C173.769 91.601 173.657 91.6171 173.592 91.6734C173.359 91.8582 173.745 91.6573 173.769 91.6332C173.737 91.6573 173.512 91.6894 173.472 91.6734C173.472 91.6734 173.97 91.7135 173.665 91.6653C173.633 91.6573 173.6 91.6573 173.568 91.6492C173.866 91.7377 173.93 91.7537 173.737 91.6975C173.737 91.6975 173.536 91.609 173.544 91.6171C173.424 91.3679 173.817 91.81 173.568 91.6332C173.391 91.5045 173.215 91.384 173.054 91.2473C172.981 91.1911 172.443 90.6847 172.732 90.966C172.21 90.4515 171.711 89.8969 171.213 89.3583C170.65 88.7474 170.072 88.1365 169.549 87.4854C169.437 87.3488 169.332 87.2121 169.236 87.0674C169.051 86.8022 169.3 87.1237 169.276 87.1398C169.228 87.18 169.163 86.6334 169.236 87.0755C169.308 87.5095 169.212 87.6944 169.059 88.0963C168.794 88.8037 168.81 88.1928 168.938 88.2249C168.962 88.233 169.22 88.024 169.252 88.0079C168.858 88.2651 169.517 87.8873 169.646 87.8311C170.465 87.4372 171.293 87.0675 172.113 86.6575C179.042 83.185 184.589 77.6225 188.109 70.7337C191.566 63.9816 192.844 56.2327 192.281 48.7009C191.719 41.2012 189.251 33.8864 184.942 27.705C182.86 24.7148 180.248 21.9818 176.976 20.2937C173.641 18.5736 169.421 18.4932 166.012 20.0928C164.308 20.8886 162.942 22.0622 161.615 23.3643C159.799 25.1488 157.958 26.9012 156.077 28.6214C154.284 30.2371 156.583 33.1871 158.368 31.5553Z"/><path fill="#104E9E" fill-rule="evenodd" d="M247.689 137.604C251.049 147.395 256.065 158.415 259.658 168.374C261.354 173.085 261.129 176.582 267.174 176.172C269.537 171.839 268.54 171.919 266.732 167.289L252.102 129.598C250.985 126.769 249.088 121.946 245.253 125.185C244.184 126.093 226.83 170.722 226.661 172.032C226.09 176.533 230.953 177.884 232.955 174.685C235.881 170.022 244.337 142.845 247.689 137.604Z" clip-rule="evenodd"/><path fill="#004F9B" fill-rule="evenodd" d="M101.409 131.149C101.634 138.086 100.814 172.418 102.382 174.861C103.282 176.268 105.211 176.831 106.963 175.858C109.897 174.226 108.66 167.032 108.66 163.519L108.724 131.238C115.058 131.19 123.562 132.636 124.768 128.794C126.754 122.444 113.973 124.148 105.943 124.156C103.547 124.156 88.1379 123.497 86.474 125.072C84.7377 126.72 85.1879 129.638 87.2055 130.635C89.207 131.624 98.5555 131.149 101.409 131.149Z" clip-rule="evenodd"/><path fill="#104E9E" fill-rule="evenodd" d="M9.162 137.91C9.11377 137.05 9.25042 136.101 9.75683 135.024C10.6008 133.232 12.7953 131.584 15.0781 131.335C22.3286 130.547 20.9461 139.196 27.232 134.767C30.5598 130.008 18.5105 120.234 8.96104 125.893C3.09312 129.365 1.44529 135.788 2.45007 140.667C3.13332 143.995 6.29234 147.668 9.25042 149.268C14.8933 152.314 25.3832 152.909 22.4492 163.126C21.348 166.976 17.2083 169.991 12.2728 169.259C5.66537 168.278 7.61062 162.354 0.906727 164.219C-4.84062 173.109 18.2613 183.326 27.2882 169.155C30.9698 163.375 30.7447 155.401 26.4603 150.924C24.3945 148.762 22.4573 146.977 19.2661 145.554C17.8915 144.935 16.3402 144.284 14.8129 143.673C12.9239 142.91 11.5011 142.588 10.5526 141.76C9.74076 141.069 9.27453 139.984 9.162 137.91Z" clip-rule="evenodd"/><path fill="#104E9E" fill-rule="evenodd" d="M86.9561 127.87C89.247 131.793 95.1872 128.827 102.639 130.089C103.547 132.942 102.824 147.974 102.952 152.821C103.057 156.727 102.968 160.779 102.976 164.701C102.992 172.45 101.417 174.636 105.323 174.468C109.278 174.299 107.719 168.664 107.727 165.312L107.614 140.932C107.743 136.535 106.626 132.765 108.836 130.225L122.164 129.55C123.176 127.91 123.305 127.774 122.766 126.085C118.94 125.748 94.8898 124.984 90.3 125.507C88.3708 125.732 87.8001 125.539 86.9561 127.87Z" clip-rule="evenodd"/><path fill="#104E9E" d="M55.5345 124.727C47.3355 126.608 43.445 129.856 39.4419 135.04C25.8975 152.604 41.2907 180.802 66.0244 175.907C79.183 173.302 88.845 160.497 86.2084 145.233C84.1185 133.159 70.9036 121.206 55.5345 124.727ZM66.0807 168.68C42.3679 175.907 30.3426 139.124 55.6149 131.945C79.5769 125.145 90.0427 161.374 66.0807 168.68Z"/><path fill="#104E9E" d="M202.104 165.401C199.684 161.719 197.707 158.664 195.488 154.605C196.597 153.054 198.784 151.607 200.086 150.12C207.055 142.146 204.025 124.357 186.148 124.148C177.675 124.044 171.55 122.701 171.542 128.473V168.27C171.55 171.895 170.819 176.188 174.926 176.365C179.798 176.582 178.487 168.76 178.487 162.33V156.293L187.916 156.325L197.884 171.944C199.097 173.945 200.022 176.316 202.755 176.284C209.748 176.188 203.543 167.587 202.104 165.401ZM178.479 149.268L178.527 131.27C182.032 131.142 188.889 130.82 191.525 132.042C196.935 134.542 204.419 150.779 178.479 149.268Z"/><path fill="#004F9B" fill-rule="evenodd" d="M140.997 131.206C142.677 131.206 164.614 132.379 166.366 129.654C167.58 124.076 164.847 124.18 160.008 124.164L136.841 124.156C133.787 124.164 127.678 124.028 130.162 129.172C131.609 132.17 137.493 131.206 140.997 131.206Z" clip-rule="evenodd"/><path fill="#004F9B" fill-rule="evenodd" d="M140.402 176.469H155.844C159.903 176.469 167.371 177.868 166.719 172.466C166.189 168.109 158.657 169.403 154.662 169.403H142.187C137.677 169.403 131.038 168.358 129.969 172.112C128.361 177.771 137.066 176.469 140.402 176.469Z" clip-rule="evenodd"/><path fill="#104E9E" fill-rule="evenodd" d="M214.041 128.907C214.218 137.21 213.454 160.071 214.226 170.432C214.676 176.453 218.743 175.553 219.917 172.514C220.922 169.91 220.487 153.158 220.552 147.877C220.64 140.369 220.737 132.492 220.246 128.28C219.796 124.534 213.936 124.06 214.041 128.907Z" clip-rule="evenodd"/><path fill="#004F9B" fill-rule="evenodd" d="M138.031 153.753L158.826 153.761C161.864 153.761 164.975 153.44 164.195 149.348C163.544 145.924 159.043 146.84 155.852 146.84H140.41C137.066 146.84 133.313 146.229 132.589 149.372C131.616 153.568 135.065 153.753 138.031 153.753Z" clip-rule="evenodd"/><path fill="#104E9E" fill-rule="evenodd" d="M132.091 174.186C134.928 175.81 159.172 174.958 164.726 174.982L164.943 173.624C164.927 171.791 165.297 171.003 162.467 170.4L133.715 170.425C132.758 170.553 130.893 169.597 132.091 174.186Z" clip-rule="evenodd"/><path fill="#104E9E" fill-rule="evenodd" d="M136.842 130.249L155.257 129.831C158.818 129.831 165.008 131.519 164.766 126.688C160.964 124.124 149.984 125.466 143.377 125.466C140.869 125.466 135.395 125.016 133.321 125.804C130.427 126.897 131.432 130.386 136.842 130.249Z" clip-rule="evenodd"/><path fill="#104E9E" fill-rule="evenodd" d="M162.628 151.486C162.363 148.183 161.318 148.384 157.668 148.078C154.485 147.821 134.607 147.13 133.98 149.404C132.846 153.488 143.602 152.668 146.937 152.676C151.672 152.684 159.292 153.576 162.628 151.486Z" clip-rule="evenodd"/><path fill="#EF7C00" d="M3.81641 202.111V190.118C3.81641 189.499 3.94502 189.025 4.21028 188.719C4.47555 188.406 4.81315 188.253 5.2231 188.253C5.64913 188.253 5.99477 188.406 6.26003 188.711C6.52529 189.017 6.65391 189.491 6.65391 190.118V202.111C6.65391 202.738 6.52529 203.212 6.26003 203.526C5.99477 203.839 5.64913 203.992 5.2231 203.992C4.81315 203.992 4.47555 203.831 4.21028 203.518C3.95306 203.204 3.81641 202.73 3.81641 202.111Z"/><path fill="#EF7C00" d="M17.0876 194.033V194.378C17.5458 193.719 18.0522 193.237 18.5988 192.931C19.1454 192.626 19.7724 192.473 20.4798 192.473C21.1711 192.473 21.782 192.634 22.3286 192.963C22.8752 193.285 23.2771 193.751 23.5423 194.346C23.7111 194.692 23.8237 195.069 23.88 195.463C23.9282 195.865 23.9523 196.38 23.9523 196.999V202.272C23.9523 202.842 23.8317 203.268 23.5906 203.558C23.3494 203.847 23.044 203.992 22.6581 203.992C22.2723 203.992 21.9508 203.839 21.7096 203.542C21.4685 203.244 21.3479 202.818 21.3479 202.264V197.537C21.3479 196.605 21.2273 195.889 20.9862 195.391C20.745 194.893 20.2708 194.651 19.5554 194.651C19.0892 194.651 18.6631 194.804 18.2853 195.102C17.8995 195.399 17.6262 195.817 17.4413 196.339C17.3127 196.766 17.2484 197.553 17.2484 198.703V202.256C17.2484 202.826 17.1278 203.26 16.8786 203.55C16.6295 203.839 16.316 203.984 15.9221 203.984C15.5443 203.984 15.2388 203.831 14.9896 203.534C14.7485 203.236 14.6279 202.81 14.6279 202.256V194.065C14.6279 193.526 14.7405 193.124 14.9575 192.859C15.1745 192.594 15.4719 192.457 15.8497 192.457C16.0829 192.457 16.2838 192.513 16.4687 192.634C16.6536 192.754 16.8063 192.931 16.9108 193.164C17.0314 193.406 17.0876 193.695 17.0876 194.033Z"/><path fill="#EF7C00" d="M40.0288 200.278C40.0288 201.058 39.8519 201.733 39.4983 202.288C39.1446 202.842 38.6301 203.268 37.9388 203.558C37.2556 203.847 36.4196 203.992 35.4389 203.992C34.4985 203.992 33.6946 203.839 33.0275 203.525C32.3603 203.212 31.8619 202.826 31.5404 202.36C31.2189 201.894 31.0581 201.428 31.0581 200.953C31.0581 200.64 31.1626 200.375 31.3636 200.157C31.5645 199.932 31.8217 199.828 32.1352 199.828C32.4085 199.828 32.6175 199.9 32.7703 200.045C32.9149 200.19 33.0596 200.391 33.1882 200.656C33.4535 201.162 33.775 201.54 34.1528 201.789C34.5226 202.038 35.037 202.159 35.6801 202.159C36.2026 202.159 36.6286 202.03 36.9662 201.781C37.3038 201.532 37.4726 201.243 37.4726 200.913C37.4726 200.415 37.2958 200.053 36.9501 199.82C36.6045 199.595 36.0257 199.37 35.23 199.169C34.3297 198.928 33.5982 198.67 33.0355 198.405C32.4728 198.14 32.0227 197.786 31.6851 197.352C31.3475 196.918 31.1787 196.38 31.1787 195.744C31.1787 195.174 31.3314 194.643 31.6449 194.137C31.9584 193.63 32.4166 193.229 33.0275 192.931C33.6384 192.626 34.3699 192.481 35.23 192.481C35.9052 192.481 36.5161 192.553 37.0546 192.706C37.5932 192.859 38.0433 193.06 38.4051 193.317C38.7668 193.574 39.0401 193.856 39.225 194.169C39.4098 194.482 39.5063 194.788 39.5063 195.085C39.5063 195.407 39.4018 195.68 39.2009 195.881C38.9999 196.09 38.7186 196.195 38.3408 196.195C38.0755 196.195 37.8424 196.114 37.6575 195.945C37.4726 195.777 37.2556 195.527 37.0144 195.198C36.8135 194.925 36.5804 194.7 36.3151 194.531C36.0499 194.362 35.6801 194.282 35.2219 194.282C34.7477 194.282 34.3618 194.394 34.0483 194.611C33.7348 194.828 33.5821 195.101 33.5821 195.423C33.5821 195.72 33.6947 195.961 33.9278 196.154C34.1609 196.347 34.4663 196.5 34.8522 196.629C35.238 196.757 35.7766 196.902 36.4598 197.087C37.2717 197.304 37.9308 197.561 38.4453 197.859C38.9597 198.156 39.3455 198.51 39.6108 198.912C39.8921 199.297 40.0288 199.764 40.0288 200.278Z"/><path fill="#EF7C00" d="M54.0797 202.392V202.031C53.7662 202.457 53.4367 202.818 53.091 203.108C52.7454 203.397 52.3676 203.614 51.9576 203.759C51.5477 203.903 51.0815 203.968 50.559 203.968C49.924 203.968 49.3613 203.823 48.8629 203.542C48.3645 203.26 47.9787 202.867 47.6974 202.368C47.3678 201.765 47.207 200.897 47.207 199.772V194.153C47.207 193.582 47.3276 193.164 47.5607 192.883C47.7938 192.602 48.1073 192.465 48.5012 192.465C48.8951 192.465 49.2166 192.61 49.4577 192.891C49.6989 193.172 49.8195 193.598 49.8195 194.161V198.695C49.8195 199.354 49.8677 199.9 49.9722 200.351C50.0767 200.801 50.2535 201.146 50.5188 201.396C50.7841 201.645 51.1458 201.773 51.5959 201.773C52.038 201.773 52.448 201.629 52.8418 201.347C53.2277 201.066 53.5171 200.696 53.6939 200.238C53.8386 199.836 53.9109 198.96 53.9109 197.602V194.153C53.9109 193.59 54.0315 193.172 54.2727 192.883C54.5138 192.602 54.8273 192.457 55.2212 192.457C55.607 192.457 55.9205 192.594 56.1616 192.875C56.3947 193.156 56.5153 193.582 56.5153 194.145V202.36C56.5153 202.899 56.4028 203.309 56.1777 203.574C55.9526 203.847 55.6552 203.976 55.3015 203.976C54.9479 203.976 54.6504 203.839 54.4173 203.558C54.2003 203.285 54.0797 202.899 54.0797 202.392Z"/><path fill="#EF7C00" d="M66.7877 199.9V202.263C66.7877 202.834 66.6672 203.268 66.418 203.558C66.1688 203.847 65.8553 203.992 65.4695 203.992C65.0917 203.992 64.7862 203.847 64.537 203.558C64.2959 203.268 64.1753 202.834 64.1753 202.272V194.378C64.1753 193.108 64.6013 192.465 65.4453 192.465C65.8794 192.465 66.1929 192.618 66.3858 192.915C66.5787 193.212 66.6832 193.655 66.6993 194.233C67.0128 193.655 67.3343 193.212 67.6639 192.915C67.9935 192.618 68.4356 192.465 68.9822 192.465C69.5288 192.465 70.0673 192.618 70.5818 192.915C71.0962 193.212 71.3535 193.606 71.3535 194.097C71.3535 194.442 71.2409 194.732 71.0239 194.957C70.8068 195.182 70.5657 195.294 70.3085 195.294C70.212 195.294 69.9789 195.23 69.6172 195.101C69.2474 194.973 68.9259 194.908 68.6446 194.908C68.2587 194.908 67.9452 195.021 67.7041 195.238C67.4629 195.455 67.27 195.777 67.1414 196.211C67.0048 196.637 66.9163 197.151 66.8681 197.738C66.8118 198.325 66.7877 199.048 66.7877 199.9Z"/><path fill="#EF7C00" d="M83.9494 202.392C83.3144 202.923 82.7035 203.324 82.1167 203.59C81.5299 203.855 80.8627 203.992 80.1312 203.992C79.4641 203.992 78.8692 203.847 78.3628 203.558C77.8564 203.268 77.4625 202.882 77.1892 202.392C76.9159 201.902 76.7793 201.371 76.7793 200.792C76.7793 200.021 77.0044 199.354 77.4545 198.807C77.9046 198.26 78.5316 197.891 79.3194 197.706C79.4882 197.666 79.8981 197.569 80.5573 197.424C81.2164 197.28 81.7791 197.143 82.2453 197.022C82.7115 196.902 83.226 196.757 83.7726 196.58C83.7404 195.833 83.6038 195.286 83.3546 194.932C83.1054 194.587 82.599 194.41 81.8273 194.41C81.1601 194.41 80.6618 194.515 80.3322 194.707C79.9946 194.908 79.7132 195.206 79.4721 195.608C79.231 196.01 79.0622 196.275 78.9657 196.404C78.8692 196.532 78.6522 196.596 78.3307 196.596C78.0413 196.596 77.7841 196.492 77.567 196.291C77.35 196.09 77.2455 195.825 77.2455 195.511C77.2455 195.013 77.4063 194.531 77.7359 194.056C78.0574 193.582 78.5718 193.196 79.2551 192.891C79.9464 192.585 80.7984 192.433 81.8273 192.433C82.9768 192.433 83.8771 192.577 84.5362 192.875C85.1953 193.172 85.6615 193.638 85.9268 194.273C86.2001 194.908 86.3368 195.752 86.3368 196.805C86.3368 197.473 86.3368 198.035 86.3287 198.501C86.3287 198.968 86.3207 199.482 86.3127 200.045C86.3127 200.575 86.393 201.13 86.5538 201.709C86.7146 202.287 86.7949 202.657 86.7949 202.826C86.7949 203.115 86.6663 203.381 86.4171 203.622C86.168 203.863 85.8786 203.984 85.5571 203.984C85.2918 203.984 85.0265 203.847 84.7613 203.574C84.5282 203.308 84.2468 202.906 83.9494 202.392ZM83.7806 198.292C83.3948 198.445 82.8401 198.606 82.1086 198.775C81.3772 198.944 80.8708 199.072 80.5894 199.145C80.3081 199.225 80.0428 199.378 79.7856 199.611C79.5284 199.844 79.3998 200.165 79.3998 200.583C79.3998 201.009 79.5525 201.379 79.8499 201.677C80.1473 201.974 80.5412 202.127 81.0235 202.127C81.5379 202.127 82.0202 202.006 82.4543 201.757C82.8884 201.508 83.2099 201.194 83.4189 200.808C83.652 200.382 83.7726 199.675 83.7726 198.686V198.292H83.7806Z"/><path fill="#EF7C00" d="M96.4328 194.033V194.378C96.891 193.719 97.3974 193.237 97.944 192.931C98.4906 192.626 99.1176 192.473 99.825 192.473C100.516 192.473 101.127 192.634 101.674 192.963C102.22 193.285 102.622 193.751 102.888 194.346C103.056 194.692 103.169 195.069 103.225 195.463C103.273 195.865 103.298 196.38 103.298 196.999V202.272C103.298 202.842 103.177 203.268 102.936 203.558C102.695 203.847 102.389 203.992 102.003 203.992C101.618 203.992 101.296 203.839 101.055 203.542C100.814 203.244 100.693 202.818 100.693 202.264V197.537C100.693 196.605 100.573 195.889 100.331 195.391C100.09 194.893 99.616 194.651 98.9006 194.651C98.4344 194.651 98.0083 194.804 97.6305 195.102C97.2447 195.399 96.9714 195.817 96.7865 196.339C96.6579 196.766 96.5936 197.553 96.5936 198.703V202.256C96.5936 202.826 96.473 203.26 96.2239 203.55C95.9747 203.839 95.6612 203.984 95.2673 203.984C94.8895 203.984 94.584 203.831 94.3349 203.534C94.0937 203.236 93.9731 202.81 93.9731 202.256V194.065C93.9731 193.526 94.0857 193.124 94.3027 192.859C94.5197 192.594 94.8172 192.457 95.195 192.457C95.4281 192.457 95.629 192.513 95.8139 192.634C95.9988 192.754 96.1515 192.931 96.256 193.164C96.3766 193.406 96.4328 193.695 96.4328 194.033Z"/><path fill="#EF7C00" d="M120.323 200.479C120.323 200.833 120.226 201.211 120.033 201.613C119.841 202.014 119.543 202.392 119.141 202.762C118.739 203.124 118.241 203.421 117.63 203.638C117.027 203.863 116.344 203.968 115.58 203.968C113.965 203.968 112.703 203.461 111.802 202.44C110.894 201.42 110.444 200.053 110.444 198.333C110.444 197.167 110.653 196.139 111.063 195.246C111.481 194.354 112.076 193.663 112.863 193.172C113.651 192.682 114.584 192.441 115.677 192.441C116.352 192.441 116.971 192.545 117.542 192.762C118.104 192.98 118.587 193.253 118.98 193.59C119.374 193.928 119.672 194.29 119.881 194.676C120.09 195.061 120.194 195.415 120.194 195.753C120.194 196.09 120.074 196.38 119.849 196.613C119.615 196.846 119.334 196.966 119.005 196.966C118.788 196.966 118.611 196.902 118.466 196.782C118.321 196.661 118.161 196.468 117.984 196.195C117.662 195.672 117.333 195.27 116.987 195.013C116.641 194.748 116.199 194.619 115.661 194.619C114.889 194.619 114.27 194.949 113.796 195.6C113.322 196.251 113.088 197.151 113.088 198.285C113.088 198.815 113.145 199.306 113.273 199.756C113.394 200.206 113.571 200.584 113.796 200.897C114.029 201.211 114.302 201.452 114.632 201.613C114.961 201.773 115.315 201.854 115.701 201.854C116.223 201.854 116.673 201.725 117.043 201.46C117.413 201.195 117.751 200.793 118.032 200.254C118.193 199.933 118.362 199.683 118.546 199.507C118.731 199.33 118.956 199.233 119.23 199.233C119.551 199.233 119.816 199.362 120.025 199.627C120.218 199.9 120.323 200.182 120.323 200.479Z"/><path fill="#EF7C00" d="M134.952 198.92H129.84C129.848 199.563 129.969 200.133 130.202 200.624C130.435 201.114 130.74 201.484 131.126 201.733C131.512 201.982 131.938 202.111 132.404 202.111C132.718 202.111 132.999 202.071 133.256 201.99C133.514 201.91 133.763 201.789 134.012 201.62C134.253 201.452 134.478 201.267 134.679 201.074C134.88 200.881 135.145 200.616 135.475 200.286C135.612 200.157 135.804 200.101 136.046 200.101C136.311 200.101 136.528 200.182 136.697 200.342C136.866 200.503 136.946 200.728 136.946 201.018C136.946 201.275 136.857 201.572 136.673 201.918C136.488 202.263 136.206 202.593 135.837 202.906C135.467 203.22 134.993 203.485 134.43 203.686C133.867 203.895 133.216 204 132.485 204C130.805 204 129.502 203.477 128.57 202.44C127.638 201.403 127.171 199.997 127.171 198.212C127.171 197.376 127.284 196.596 127.517 195.881C127.75 195.166 128.08 194.547 128.522 194.04C128.964 193.526 129.502 193.132 130.146 192.859C130.789 192.585 131.504 192.449 132.292 192.449C133.313 192.449 134.189 192.682 134.92 193.148C135.652 193.614 136.198 194.217 136.56 194.957C136.922 195.696 137.107 196.452 137.107 197.223C137.107 197.939 136.922 198.397 136.544 198.606C136.166 198.815 135.636 198.92 134.952 198.92ZM129.848 197.312H134.583C134.518 196.339 134.277 195.616 133.859 195.134C133.441 194.651 132.895 194.41 132.211 194.41C131.56 194.41 131.022 194.651 130.612 195.142C130.186 195.632 129.937 196.355 129.848 197.312Z"/><path fill="#EF7C00" d="M164.782 199.161C164.782 200.085 164.565 200.905 164.131 201.644C163.697 202.376 163.054 202.955 162.21 203.365C161.366 203.783 160.369 203.992 159.212 203.992C157.829 203.992 156.688 203.71 155.787 203.14C155.152 202.73 154.63 202.183 154.236 201.508C153.834 200.825 153.641 200.165 153.641 199.522C153.641 199.145 153.762 198.831 154.003 198.566C154.244 198.3 154.549 198.164 154.919 198.164C155.217 198.164 155.474 198.268 155.683 198.477C155.892 198.686 156.069 198.992 156.213 199.402C156.39 199.884 156.583 200.294 156.792 200.616C157.001 200.937 157.29 201.21 157.668 201.419C158.046 201.628 158.536 201.733 159.155 201.733C159.999 201.733 160.683 201.524 161.205 201.098C161.736 200.672 161.993 200.141 161.993 199.506C161.993 199 161.848 198.59 161.567 198.276C161.285 197.963 160.916 197.722 160.466 197.553C160.015 197.384 159.413 197.207 158.665 197.022C157.66 196.765 156.816 196.468 156.133 196.122C155.458 195.777 154.911 195.31 154.517 194.723C154.115 194.129 153.922 193.397 153.922 192.521C153.922 191.685 154.131 190.937 154.557 190.286C154.975 189.635 155.586 189.137 156.382 188.783C157.178 188.438 158.118 188.261 159.196 188.261C160.056 188.261 160.803 188.373 161.43 188.606C162.057 188.839 162.58 189.145 162.998 189.531C163.416 189.917 163.713 190.319 163.906 190.745C164.099 191.171 164.195 191.581 164.195 191.982C164.195 192.352 164.075 192.682 163.834 192.971C163.592 193.269 163.295 193.413 162.941 193.413C162.612 193.413 162.371 193.325 162.202 193.148C162.033 192.971 161.848 192.682 161.655 192.28C161.398 191.709 161.093 191.259 160.739 190.937C160.377 190.616 159.806 190.455 159.019 190.455C158.287 190.455 157.692 190.632 157.242 190.978C156.792 191.323 156.567 191.749 156.567 192.24C156.567 192.545 156.647 192.81 156.8 193.027C156.953 193.252 157.162 193.437 157.435 193.598C157.7 193.759 157.974 193.879 158.247 193.976C158.52 194.064 158.979 194.201 159.606 194.37C160.393 194.571 161.117 194.796 161.752 195.037C162.395 195.278 162.941 195.576 163.392 195.921C163.842 196.267 164.195 196.709 164.445 197.231C164.662 197.746 164.782 198.389 164.782 199.161Z"/><path fill="#EF7C00" d="M181.855 198.228C181.855 199.072 181.735 199.852 181.494 200.567C181.252 201.283 180.899 201.894 180.441 202.408C179.982 202.923 179.436 203.316 178.793 203.59C178.158 203.863 177.434 204 176.639 204C175.851 204 175.135 203.863 174.5 203.582C173.865 203.308 173.319 202.907 172.861 202.392C172.402 201.878 172.049 201.267 171.808 200.567C171.566 199.868 171.446 199.088 171.446 198.236C171.446 197.376 171.566 196.588 171.808 195.881C172.049 195.166 172.394 194.563 172.852 194.056C173.303 193.55 173.857 193.164 174.5 192.891C175.143 192.618 175.859 192.481 176.639 192.481C177.426 192.481 178.15 192.618 178.793 192.899C179.436 193.172 179.99 193.566 180.449 194.081C180.907 194.595 181.26 195.206 181.494 195.905C181.735 196.597 181.855 197.376 181.855 198.228ZM179.235 198.228C179.235 197.071 179.002 196.17 178.527 195.527C178.061 194.884 177.426 194.563 176.639 194.563C176.124 194.563 175.674 194.708 175.288 194.997C174.902 195.286 174.597 195.712 174.388 196.267C174.179 196.83 174.074 197.481 174.074 198.228C174.074 198.968 174.179 199.619 174.388 200.174C174.597 200.728 174.894 201.154 175.28 201.444C175.666 201.741 176.124 201.886 176.647 201.886C177.434 201.886 178.069 201.564 178.536 200.913C179.002 200.262 179.235 199.37 179.235 198.228Z"/><path fill="#EF7C00" d="M188.969 202.264V189.973C188.969 189.402 189.09 188.976 189.323 188.687C189.556 188.398 189.87 188.253 190.263 188.253C190.657 188.253 190.979 188.398 191.22 188.687C191.461 188.976 191.582 189.402 191.582 189.981V202.272C191.582 202.842 191.461 203.276 191.212 203.566C190.963 203.855 190.649 204 190.255 204C189.87 204 189.564 203.847 189.323 203.55C189.09 203.244 188.969 202.818 188.969 202.264Z"/><path fill="#EF7C00" d="M206.131 202.392V202.031C205.817 202.457 205.488 202.818 205.142 203.108C204.797 203.397 204.419 203.614 204.009 203.759C203.599 203.903 203.133 203.968 202.61 203.968C201.975 203.968 201.413 203.823 200.914 203.542C200.416 203.26 200.03 202.867 199.749 202.368C199.419 201.765 199.258 200.897 199.258 199.772V194.153C199.258 193.582 199.379 193.164 199.612 192.883C199.845 192.602 200.159 192.465 200.552 192.465C200.946 192.465 201.268 192.61 201.509 192.891C201.75 193.172 201.871 193.598 201.871 194.161V198.695C201.871 199.354 201.919 199.9 202.023 200.351C202.128 200.801 202.305 201.146 202.57 201.396C202.835 201.645 203.197 201.773 203.647 201.773C204.089 201.773 204.499 201.629 204.893 201.347C205.279 201.066 205.568 200.696 205.745 200.238C205.89 199.836 205.962 198.96 205.962 197.602V194.153C205.962 193.59 206.083 193.172 206.324 192.883C206.565 192.602 206.879 192.457 207.272 192.457C207.658 192.457 207.972 192.594 208.213 192.875C208.446 193.156 208.567 193.582 208.567 194.145V202.36C208.567 202.899 208.454 203.309 208.229 203.574C208.004 203.847 207.707 203.976 207.353 203.976C206.999 203.976 206.702 203.839 206.469 203.558C206.244 203.285 206.131 202.899 206.131 202.392Z"/><path fill="#EF7C00" d="M216.38 192.714H216.669V191.01C216.669 190.552 216.677 190.198 216.701 189.933C216.725 189.676 216.781 189.45 216.886 189.266C216.99 189.073 217.135 188.912 217.328 188.791C217.521 188.671 217.73 188.606 217.971 188.606C218.301 188.606 218.606 188.743 218.871 189.008C219.048 189.185 219.161 189.41 219.209 189.667C219.257 189.925 219.281 190.294 219.281 190.777V192.706H220.238C220.608 192.706 220.889 192.802 221.082 192.995C221.275 193.188 221.371 193.429 221.371 193.727C221.371 194.105 221.235 194.378 220.953 194.523C220.68 194.675 220.278 194.748 219.764 194.748H219.273V199.956C219.273 200.399 219.289 200.736 219.313 200.977C219.346 201.218 219.418 201.411 219.547 201.556C219.667 201.709 219.876 201.781 220.158 201.781C220.31 201.781 220.519 201.749 220.776 201.693C221.034 201.636 221.243 201.604 221.387 201.604C221.596 201.604 221.789 201.693 221.958 201.878C222.127 202.062 222.215 202.288 222.215 202.561C222.215 203.019 221.982 203.365 221.524 203.606C221.066 203.847 220.407 203.968 219.539 203.968C218.719 203.968 218.1 203.815 217.682 203.517C217.264 203.22 216.982 202.81 216.854 202.28C216.725 201.757 216.661 201.05 216.661 200.173V194.732H216.315C215.937 194.732 215.648 194.635 215.455 194.442C215.254 194.249 215.158 194 215.158 193.703C215.158 193.405 215.262 193.164 215.471 192.971C215.688 192.81 215.986 192.714 216.38 192.714Z"/><path fill="#EF7C00" d="M229.555 191.147C229.193 191.147 228.879 191.026 228.622 190.785C228.365 190.544 228.236 190.198 228.236 189.756C228.236 189.354 228.373 189.024 228.63 188.767C228.895 188.51 229.201 188.381 229.555 188.381C229.892 188.381 230.19 188.502 230.455 188.735C230.72 188.968 230.849 189.314 230.849 189.764C230.849 190.198 230.72 190.544 230.463 190.785C230.214 191.026 229.908 191.147 229.555 191.147ZM230.849 194.072V202.263C230.849 202.834 230.72 203.26 230.479 203.55C230.23 203.839 229.916 203.984 229.53 203.984C229.145 203.984 228.839 203.831 228.598 203.533C228.357 203.236 228.236 202.81 228.236 202.255V194.145C228.236 193.582 228.357 193.164 228.598 192.875C228.839 192.593 229.153 192.449 229.53 192.449C229.916 192.449 230.23 192.593 230.479 192.875C230.728 193.172 230.849 193.566 230.849 194.072Z"/><path fill="#EF7C00" d="M248.388 198.228C248.388 199.072 248.267 199.852 248.026 200.567C247.785 201.283 247.431 201.894 246.973 202.408C246.515 202.923 245.969 203.316 245.325 203.59C244.69 203.863 243.967 204 243.171 204C242.383 204 241.668 203.863 241.033 203.582C240.398 203.3 239.851 202.907 239.393 202.392C238.935 201.878 238.581 201.267 238.34 200.567C238.099 199.868 237.979 199.088 237.979 198.236C237.979 197.376 238.099 196.588 238.34 195.881C238.581 195.166 238.927 194.563 239.385 194.056C239.835 193.55 240.39 193.164 241.033 192.891C241.676 192.618 242.392 192.481 243.171 192.481C243.959 192.481 244.682 192.618 245.325 192.899C245.969 193.172 246.523 193.566 246.981 194.081C247.44 194.595 247.793 195.206 248.026 195.905C248.267 196.597 248.388 197.376 248.388 198.228ZM245.768 198.228C245.768 197.071 245.534 196.17 245.06 195.527C244.594 194.884 243.959 194.563 243.171 194.563C242.657 194.563 242.207 194.708 241.821 194.997C241.435 195.286 241.129 195.712 240.92 196.267C240.711 196.83 240.607 197.481 240.607 198.228C240.607 198.968 240.711 199.619 240.92 200.174C241.129 200.728 241.427 201.154 241.813 201.444C242.199 201.741 242.657 201.886 243.179 201.886C243.967 201.886 244.602 201.564 245.068 200.913C245.534 200.262 245.768 199.37 245.768 198.228Z"/><path fill="#EF7C00" d="M257.881 194.033V194.378C258.339 193.719 258.846 193.237 259.392 192.931C259.939 192.626 260.566 192.473 261.273 192.473C261.965 192.473 262.575 192.634 263.122 192.963C263.669 193.285 264.071 193.751 264.336 194.346C264.505 194.692 264.617 195.069 264.673 195.463C264.722 195.865 264.746 196.38 264.746 196.999V202.272C264.746 202.842 264.625 203.268 264.384 203.558C264.143 203.847 263.837 203.992 263.452 203.992C263.066 203.992 262.744 203.839 262.503 203.542C262.262 203.244 262.141 202.818 262.141 202.264V197.537C262.141 196.605 262.021 195.889 261.78 195.391C261.538 194.893 261.064 194.651 260.349 194.651C259.883 194.651 259.457 194.804 259.079 195.102C258.693 195.399 258.42 195.817 258.235 196.339C258.106 196.766 258.042 197.553 258.042 198.703V202.256C258.042 202.826 257.921 203.26 257.672 203.55C257.423 203.839 257.109 203.984 256.716 203.984C256.338 203.984 256.032 203.831 255.783 203.534C255.542 203.236 255.421 202.81 255.421 202.256V194.065C255.421 193.526 255.534 193.124 255.751 192.859C255.968 192.594 256.265 192.457 256.643 192.457C256.876 192.457 257.077 192.513 257.262 192.634C257.447 192.754 257.6 192.931 257.704 193.164C257.825 193.406 257.881 193.695 257.881 194.033Z"/></svg>