<svg width="64" height="64" viewBox="0 0 64 64" fill="none" xmlns="http://www.w3.org/2000/svg">
<circle cx="32" cy="32" r="31.75" fill="white" stroke="#FFE7A6" stroke-width="0.5"/>
<path d="M27.1752 22.2254C27.1752 21.7507 27.5647 21.3612 28.0394 21.3612H36.8393C37.314 21.3612 37.7034 21.7507 37.7034 22.2254V25.536H40.0647V22.2254C40.0647 20.4484 38.6163 19 36.8393 19H28.0394C26.2624 19 24.814 20.4484 24.814 22.2254V25.536H27.1752V22.2254Z" fill="#2255A4"/>
<path d="M21.3511 33.1674C21.2963 33.1674 21.2354 33.1674 21.1807 33.1614V42.4785C21.1807 43.3184 21.9779 44 22.9577 44H41.9268C42.9066 44 43.7038 43.3184 43.7038 42.4785V33.1553C43.649 33.1614 43.5942 33.1614 43.5334 33.1614H21.3511V33.1674ZM36.1697 40.2208H34.0823V42.3081H30.796V40.2208H28.7087V36.9345H30.796V34.8471H34.0823V36.9345H36.1697V40.2208Z" fill="#2255A4"/>
<path d="M41.4946 28.1898H44.8844V27.7456C44.8844 26.997 44.2758 26.3945 43.5333 26.3945H21.351C20.6025 26.3945 20 27.0031 20 27.7456V30.9588C20 31.7073 20.6086 32.3159 21.351 32.3159H43.5333C44.2819 32.3159 44.8844 31.7073 44.8844 30.9588V29.0418H41.4946C41.2573 29.0418 41.0686 28.8531 41.0686 28.6158C41.0686 28.3785 41.2573 28.1898 41.4946 28.1898ZM40.4662 28.914C40.3871 28.9931 40.2775 29.0357 40.168 29.0357C40.0523 29.0357 39.9489 28.987 39.8637 28.914C39.7846 28.8349 39.742 28.7253 39.742 28.6097C39.742 28.4941 39.7907 28.3906 39.8637 28.3054C39.9428 28.2263 40.0523 28.1837 40.168 28.1837C40.2836 28.1837 40.3871 28.2263 40.4662 28.3054C40.5453 28.3846 40.594 28.4941 40.594 28.6097C40.594 28.7253 40.5453 28.8349 40.4662 28.914Z" fill="#D6B268"/>
</svg>
