<svg xmlns="http://www.w3.org/2000/svg" width="42" height="41" fill="none" viewBox="0 0 42 41"><rect width="41.5" height="40.5" x=".25" y=".25" stroke="#FFE7A6" stroke-width=".5" rx="9.75"/><g filter="url(#filter0_b_7_11)"><path fill="#D6B268" d="M30.6755 9.12288C30.7753 9.18886 30.857 9.2781 30.9136 9.38273C30.9702 9.48736 30.9999 9.60416 31 9.72283V20.5652C31 20.7096 30.9562 20.8506 30.8744 20.9702C30.7927 21.0897 30.6765 21.1823 30.5411 21.236L30.5367 21.2374L30.5279 21.2418L30.4943 21.2548C30.3022 21.3303 30.1087 21.4026 29.9141 21.4716C29.5282 21.609 28.9918 21.794 28.3838 21.9776C27.1912 22.3419 25.6376 22.7337 24.4231 22.7337C23.1852 22.7337 22.1606 22.3289 21.2691 21.9747L21.2282 21.9603C20.3015 21.5916 19.5123 21.288 18.5769 21.288C17.5538 21.288 16.1829 21.6205 15.0152 21.9776C14.4923 22.1388 13.9742 22.3148 13.4615 22.5053V31.4076C13.4615 31.5993 13.3845 31.7832 13.2475 31.9187C13.1105 32.0543 12.9246 32.1304 12.7308 32.1304C12.537 32.1304 12.3511 32.0543 12.214 31.9187C12.077 31.7832 12 31.5993 12 31.4076V9.72283C12 9.53112 12.077 9.34727 12.214 9.21171C12.3511 9.07615 12.537 9 12.7308 9C12.9246 9 13.1105 9.07615 13.2475 9.21171C13.3845 9.34727 13.4615 9.53112 13.4615 9.72283V10.1305C13.7918 10.0163 14.1865 9.88474 14.6162 9.75463C15.8088 9.39322 17.3638 9 18.5769 9C19.8046 9 20.8043 9.40045 21.6768 9.75029L21.7397 9.77632C22.6488 10.1392 23.4409 10.4457 24.4231 10.4457C25.4462 10.4457 26.8171 10.1132 27.9848 9.75608C28.6503 9.55052 29.3079 9.32099 29.9565 9.06795L29.9842 9.05783L29.9901 9.05493H29.9915"/></g><path fill="#2255A4" d="M29.0516 9.1141C29.1426 9.17537 29.2173 9.25823 29.2689 9.35539C29.3206 9.45255 29.3477 9.56101 29.3478 9.6712V19.7391C29.3478 19.8732 29.3079 20.0041 29.2332 20.1151C29.1585 20.2262 29.0525 20.3121 28.9288 20.362L28.9248 20.3633L28.9168 20.3674L28.8861 20.3795C28.7107 20.4496 28.534 20.5167 28.3563 20.5808C28.004 20.7083 27.5143 20.8802 26.9592 21.0506C25.8703 21.3889 24.4517 21.7527 23.3428 21.7527C22.2125 21.7527 21.2771 21.3768 20.4631 21.048L20.4257 21.0345C19.5797 20.6922 18.8591 20.4103 18.005 20.4103C17.0709 20.4103 15.8192 20.7191 14.753 21.0506C14.2756 21.2003 13.8025 21.3637 13.3344 21.5406V29.8071C13.3344 29.9851 13.2642 30.1558 13.139 30.2817C13.0139 30.4075 12.8442 30.4783 12.6672 30.4783C12.4903 30.4783 12.3206 30.4075 12.1954 30.2817C12.0703 30.1558 12 29.9851 12 29.8071V9.6712C12 9.49318 12.0703 9.32246 12.1954 9.19659C12.3206 9.07072 12.4903 9 12.6672 9C12.8442 9 13.0139 9.07072 13.139 9.19659C13.2642 9.32246 13.3344 9.49318 13.3344 9.6712V10.0498C13.636 9.9437 13.9963 9.82154 14.3887 9.70073C15.4776 9.36513 16.8974 9 18.005 9C19.126 9 20.0387 9.37184 20.8354 9.6967L20.8928 9.72086C21.7228 10.0578 22.4461 10.3424 23.3428 10.3424C24.2769 10.3424 25.5286 10.0336 26.5949 9.70207C27.2025 9.5112 27.8029 9.29806 28.395 9.06309L28.4204 9.0537L28.4257 9.05101H28.4271"/><defs><filter id="filter0_b_7_11" width="27" height="31.13" x="8" y="5" color-interpolation-filters="sRGB" filterUnits="userSpaceOnUse"><feFlood flood-opacity="0" result="BackgroundImageFix"/><feGaussianBlur in="BackgroundImageFix" stdDeviation="2"/><feComposite in2="SourceAlpha" operator="in" result="effect1_backgroundBlur_7_11"/><feBlend in="SourceGraphic" in2="effect1_backgroundBlur_7_11" mode="normal" result="shape"/></filter></defs></svg>