<svg xmlns="http://www.w3.org/2000/svg" width="42" height="41" fill="none" viewBox="0 0 42 41"><rect width="41.5" height="40.5" x=".25" y=".25" stroke="#FFE7A6" stroke-width=".5" rx="9.75"/><path fill="#2255A4" d="M9.33333 10C8.04514 10 7 11.0078 7 12.25V15.25C7 15.6672 7.34635 16 7.77778 16H11.6667V12.25C11.6667 11.0078 10.6215 10 9.33333 10ZM19.4444 26.3406V23.5H30.3333V14.5C30.3333 12.0156 28.2431 10 25.6667 10H12.425C12.9208 10.6272 13.2222 11.4006 13.2222 12.25V26.5C13.2222 28.3225 14.9051 29.7639 16.8559 29.4592C18.3896 29.2188 19.4444 27.8359 19.4444 26.3406ZM21 25V26.5C21 28.9787 18.9097 31 16.3333 31H29.5556C32.5636 31 35 28.6502 35 25.75C35 25.334 34.6536 25 34.2222 25H21Z"/><path fill="#D6B268" d="M9.33333 10C8.04514 10 7 11.0078 7 12.25V15.25C7 15.6672 7.34635 16 7.77778 16H11.6667V12.25C11.6667 11.0078 10.6215 10 9.33333 10ZM21 25V26.5C21 28.9787 18.9097 31 16.3333 31H29.5556C32.5636 31 35 28.6502 35 25.75C35 25.334 34.6536 25 34.2222 25H21Z"/></svg>