<svg xmlns="http://www.w3.org/2000/svg" width="42" height="41" fill="none" viewBox="0 0 42 41"><rect width="41.5" height="40.5" x=".25" y=".25" stroke="#FFE7A6" stroke-width=".5" rx="9.75"/><path fill="#2255A4" d="M26.2826 15.1107C27.8266 13.7167 29.3799 11.6589 28.5488 9.43917C28.2454 8.6109 27.6574 7.9175 26.8899 7.48289C26.1223 7.04827 25.2252 6.90076 24.3589 7.06672C23.164 7.28312 21.8483 8.0996 21.0013 9.69407C20.153 8.10093 18.8373 7.28445 17.6425 7.06672C16.7761 6.90034 15.8788 7.04749 15.111 7.48187C14.3432 7.91626 13.7548 8.60956 13.4512 9.43784C12.6201 11.6536 14.1734 13.7154 15.7174 15.1094H8V20.0986H34V15.1107H26.2826ZM15.1306 10.0724C15.2822 9.63611 15.588 9.27016 15.9903 9.0433C16.3927 8.81645 16.8641 8.7443 17.3159 8.84041C18.5983 9.07275 20.0946 10.5119 20.0946 13.8044C20.0899 13.9256 20.1098 14.0465 20.1529 14.1598C20.1961 14.2732 20.2617 14.3766 20.3458 14.464C20.4299 14.5514 20.5308 14.6209 20.6424 14.6684C20.754 14.7159 20.8741 14.7404 20.9954 14.7404C21.1166 14.7404 21.2367 14.7159 21.3483 14.6684C21.4599 14.6209 21.5608 14.5514 21.6449 14.464C21.729 14.3766 21.7946 14.2732 21.8378 14.1598C21.8809 14.0465 21.9008 13.9256 21.8961 13.8044C21.8961 10.5119 23.3937 9.07275 24.6735 8.83909C25.6626 8.66915 26.5096 9.14576 26.8588 10.0724C27.6182 12.0984 24.4173 14.3885 23.3034 15.1174H18.6793C17.2243 14.1841 14.4376 11.9377 15.1359 10.0724H15.1306Z"/><path fill="#D6B268" d="M26.2826 15.1107C27.8266 13.7167 29.3799 11.6589 28.5488 9.43917C28.2454 8.6109 27.6574 7.9175 26.8899 7.48289C26.1223 7.04827 25.2252 6.90076 24.3589 7.06672C23.164 7.28312 21.8483 8.0996 21.0013 9.69407C20.153 8.10093 18.8373 7.28445 17.6425 7.06672C16.7761 6.90034 15.8788 7.04749 15.111 7.48187C14.3432 7.91626 13.7548 8.60956 13.4512 9.43784C12.6201 11.6536 14.1734 13.7154 15.7174 15.1094H8V20.0986H34V15.1107H26.2826ZM15.1306 10.0724C15.2822 9.63611 15.588 9.27016 15.9903 9.0433C16.3927 8.81645 16.8641 8.7443 17.3159 8.84041C18.5983 9.07275 20.0946 10.5119 20.0946 13.8044C20.0899 13.9256 20.1098 14.0465 20.1529 14.1598C20.1961 14.2732 20.2617 14.3766 20.3458 14.464C20.4299 14.5514 20.5308 14.6209 20.6424 14.6684C20.754 14.7159 20.8741 14.7404 20.9954 14.7404C21.1166 14.7404 21.2367 14.7159 21.3483 14.6684C21.4599 14.6209 21.5608 14.5514 21.6449 14.464C21.729 14.3766 21.7946 14.2732 21.8378 14.1598C21.8809 14.0465 21.9008 13.9256 21.8961 13.8044C21.8961 10.5119 23.3937 9.07275 24.6735 8.83909C25.6626 8.66915 26.5096 9.14576 26.8588 10.0724C27.6182 12.0984 24.4173 14.3885 23.3034 15.1174H18.6793C17.2243 14.1841 14.4376 11.9377 15.1359 10.0724H15.1306Z"/><path fill="#2255A4" d="M30.5748 21.9008H11.4293V33.8626H30.5748V21.9008Z"/></svg>