<svg xmlns="http://www.w3.org/2000/svg" width="70" height="65" fill="none" viewBox="0 0 70 65"><rect width="69.5" height="64.5" x=".25" y=".25" fill="#fff" stroke="#DBE9F5" stroke-width=".5" rx="4.75"/><path fill="#939EAA" d="M41 23.6667C40.7167 23.6667 40.4793 23.576 40.288 23.3947C40.096 23.214 40 22.9898 40 22.7222V21.7778H39C38.7167 21.7778 38.4793 21.6874 38.288 21.5067C38.096 21.3254 38 21.1009 38 20.8333C38 20.5657 38.096 20.3413 38.288 20.1599C38.4793 19.9792 38.7167 19.8889 39 19.8889H40V18.9444C40 18.6769 40.096 18.4524 40.288 18.2711C40.4793 18.0904 40.7167 18 41 18C41.2833 18 41.5207 18.0904 41.712 18.2711C41.904 18.4524 42 18.6769 42 18.9444V19.8889H43C43.2833 19.8889 43.5207 19.9792 43.712 20.1599C43.904 20.3413 44 20.5657 44 20.8333C44 21.1009 43.904 21.3254 43.712 21.5067C43.5207 21.6874 43.2833 21.7778 43 21.7778H42V22.7222C42 22.9898 41.904 23.214 41.712 23.3947C41.5207 23.576 41.2833 23.6667 41 23.6667ZM30 31.2222H40C40.2 31.2222 40.35 31.1356 40.45 30.9625C40.55 30.7894 40.5333 30.6241 40.4 30.4667L37.65 26.9958C37.55 26.8699 37.4167 26.8069 37.25 26.8069C37.0833 26.8069 36.95 26.8699 36.85 26.9958L34.25 30.2778L32.4 27.9403C32.3 27.8144 32.1667 27.7514 32 27.7514C31.8333 27.7514 31.7 27.8144 31.6 27.9403L29.6 30.4667C29.4667 30.6241 29.45 30.7894 29.55 30.9625C29.65 31.1356 29.8 31.2222 30 31.2222ZM28 35C27.45 35 26.979 34.8152 26.587 34.4456C26.1957 34.0754 26 33.6306 26 33.1111V19.8889C26 19.3694 26.1957 18.9246 26.587 18.5544C26.979 18.1848 27.45 18 28 18H36V22.7222C36 22.9898 36.096 23.214 36.288 23.3947C36.4793 23.576 36.7167 23.6667 37 23.6667H38V24.6111C38 24.8787 38.096 25.1029 38.288 25.2836C38.4793 25.4649 38.7167 25.5556 39 25.5556H44V33.1111C44 33.6306 43.8043 34.0754 43.413 34.4456C43.021 34.8152 42.55 35 42 35H28Z"/><path fill="#939EAA" d="M7.85507 46.049C7.78041 46.049 7.71974 46.0327 7.67307 46C7.63107 45.9627 7.60541 45.916 7.59607 45.86C7.59141 45.7993 7.60541 45.7317 7.63807 45.657L9.56307 41.275C9.60507 41.1817 9.65407 41.1163 9.71007 41.079C9.77074 41.037 9.83607 41.016 9.90607 41.016C9.97607 41.016 10.0391 41.037 10.0951 41.079C10.1557 41.1163 10.2047 41.1817 10.2421 41.275L12.1741 45.657C12.2114 45.7317 12.2254 45.7993 12.2161 45.86C12.2114 45.9207 12.1881 45.9673 12.1461 46C12.1041 46.0327 12.0457 46.049 11.9711 46.049C11.8871 46.049 11.8194 46.028 11.7681 45.986C11.7167 45.9393 11.6747 45.874 11.6421 45.79L11.1241 44.593L11.4041 44.74H8.39407L8.68107 44.593L8.17007 45.79C8.12807 45.8787 8.08374 45.944 8.03707 45.986C7.99041 46.028 7.92974 46.049 7.85507 46.049ZM9.89907 41.737L8.77207 44.39L8.60407 44.257H11.1941L11.0401 44.39L9.91307 41.737H9.89907ZM14.2435 46.063C13.9402 46.063 13.6742 45.9907 13.4455 45.846C13.2215 45.7013 13.0465 45.4983 12.9205 45.237C12.7992 44.971 12.7385 44.6583 12.7385 44.299C12.7385 43.935 12.7992 43.6223 12.9205 43.361C13.0465 43.095 13.2215 42.892 13.4455 42.752C13.6742 42.6073 13.9402 42.535 14.2435 42.535C14.5515 42.535 14.8152 42.612 15.0345 42.766C15.2538 42.92 15.4008 43.1277 15.4755 43.389H15.3985V41.303C15.3985 41.2097 15.4218 41.1397 15.4685 41.093C15.5198 41.0417 15.5922 41.016 15.6855 41.016C15.7742 41.016 15.8418 41.0417 15.8885 41.093C15.9398 41.1397 15.9655 41.2097 15.9655 41.303V45.755C15.9655 45.8483 15.9422 45.9207 15.8955 45.972C15.8488 46.0233 15.7788 46.049 15.6855 46.049C15.5968 46.049 15.5268 46.0233 15.4755 45.972C15.4288 45.9207 15.4055 45.8483 15.4055 45.755V45.09L15.4825 45.188C15.4078 45.454 15.2585 45.6663 15.0345 45.825C14.8152 45.9837 14.5515 46.063 14.2435 46.063ZM14.3625 45.608C14.5725 45.608 14.7568 45.5567 14.9155 45.454C15.0742 45.3513 15.1955 45.202 15.2795 45.006C15.3682 44.81 15.4125 44.5743 15.4125 44.299C15.4125 43.8743 15.3168 43.55 15.1255 43.326C14.9388 43.102 14.6845 42.99 14.3625 42.99C14.1478 42.99 13.9612 43.0413 13.8025 43.144C13.6485 43.242 13.5272 43.389 13.4385 43.585C13.3545 43.7763 13.3125 44.0143 13.3125 44.299C13.3125 44.719 13.4082 45.0433 13.5995 45.272C13.7908 45.496 14.0452 45.608 14.3625 45.608ZM18.3246 46.063C18.0212 46.063 17.7552 45.9907 17.5266 45.846C17.3026 45.7013 17.1276 45.4983 17.0016 45.237C16.8802 44.971 16.8196 44.6583 16.8196 44.299C16.8196 43.935 16.8802 43.6223 17.0016 43.361C17.1276 43.095 17.3026 42.892 17.5266 42.752C17.7552 42.6073 18.0212 42.535 18.3246 42.535C18.6326 42.535 18.8962 42.612 19.1156 42.766C19.3349 42.92 19.4819 43.1277 19.5566 43.389H19.4796V41.303C19.4796 41.2097 19.5029 41.1397 19.5496 41.093C19.6009 41.0417 19.6732 41.016 19.7666 41.016C19.8552 41.016 19.9229 41.0417 19.9696 41.093C20.0209 41.1397 20.0466 41.2097 20.0466 41.303V45.755C20.0466 45.8483 20.0232 45.9207 19.9766 45.972C19.9299 46.0233 19.8599 46.049 19.7666 46.049C19.6779 46.049 19.6079 46.0233 19.5566 45.972C19.5099 45.9207 19.4866 45.8483 19.4866 45.755V45.09L19.5636 45.188C19.4889 45.454 19.3396 45.6663 19.1156 45.825C18.8962 45.9837 18.6326 46.063 18.3246 46.063ZM18.4436 45.608C18.6536 45.608 18.8379 45.5567 18.9966 45.454C19.1552 45.3513 19.2766 45.202 19.3606 45.006C19.4492 44.81 19.4936 44.5743 19.4936 44.299C19.4936 43.8743 19.3979 43.55 19.2066 43.326C19.0199 43.102 18.7656 42.99 18.4436 42.99C18.2289 42.99 18.0422 43.0413 17.8836 43.144C17.7296 43.242 17.6082 43.389 17.5196 43.585C17.4356 43.7763 17.3936 44.0143 17.3936 44.299C17.3936 44.719 17.4892 45.0433 17.6806 45.272C17.8719 45.496 18.1262 45.608 18.4436 45.608ZM23.2793 46.049C23.186 46.049 23.1136 46.0233 23.0623 45.972C23.0156 45.916 22.9923 45.8413 22.9923 45.748V41.317C22.9923 41.219 23.0156 41.1443 23.0623 41.093C23.1136 41.0417 23.186 41.016 23.2793 41.016C23.3726 41.016 23.4426 41.0417 23.4893 41.093C23.5406 41.1443 23.5663 41.219 23.5663 41.317V43.249H26.5273V41.317C26.5273 41.219 26.5506 41.1443 26.5973 41.093C26.6486 41.0417 26.721 41.016 26.8143 41.016C26.9076 41.016 26.9776 41.0417 27.0243 41.093C27.0756 41.1443 27.1013 41.219 27.1013 41.317V45.748C27.1013 45.8413 27.0756 45.916 27.0243 45.972C26.9776 46.0233 26.9076 46.049 26.8143 46.049C26.721 46.049 26.6486 46.0233 26.5973 45.972C26.5506 45.916 26.5273 45.8413 26.5273 45.748V43.746H23.5663V45.748C23.5663 45.8413 23.543 45.916 23.4963 45.972C23.4496 46.0233 23.3773 46.049 23.2793 46.049ZM29.6545 46.063C29.3232 46.063 29.0362 45.9907 28.7935 45.846C28.5508 45.7013 28.3618 45.4983 28.2265 45.237C28.0958 44.971 28.0305 44.6583 28.0305 44.299C28.0305 44.0283 28.0678 43.7857 28.1425 43.571C28.2172 43.3517 28.3268 43.165 28.4715 43.011C28.6162 42.857 28.7865 42.7403 28.9825 42.661C29.1832 42.577 29.4072 42.535 29.6545 42.535C29.9858 42.535 30.2728 42.6073 30.5155 42.752C30.7582 42.8967 30.9448 43.102 31.0755 43.368C31.2108 43.6293 31.2785 43.9397 31.2785 44.299C31.2785 44.5697 31.2412 44.8123 31.1665 45.027C31.0918 45.2417 30.9822 45.4283 30.8375 45.587C30.6928 45.741 30.5202 45.86 30.3195 45.944C30.1235 46.0233 29.9018 46.063 29.6545 46.063ZM29.6545 45.608C29.8645 45.608 30.0488 45.5567 30.2075 45.454C30.3662 45.3513 30.4875 45.202 30.5715 45.006C30.6602 44.81 30.7045 44.5743 30.7045 44.299C30.7045 43.8743 30.6088 43.55 30.4175 43.326C30.2308 43.102 29.9765 42.99 29.6545 42.99C29.4398 42.99 29.2532 43.0413 29.0945 43.144C28.9405 43.242 28.8192 43.389 28.7305 43.585C28.6465 43.7763 28.6045 44.0143 28.6045 44.299C28.6045 44.719 28.7002 45.0433 28.8915 45.272C29.0828 45.496 29.3372 45.608 29.6545 45.608ZM32.4241 46.049C32.3308 46.049 32.2608 46.0233 32.2141 45.972C32.1675 45.9207 32.1441 45.8483 32.1441 45.755V42.836C32.1441 42.7427 32.1675 42.6727 32.2141 42.626C32.2608 42.5747 32.3285 42.549 32.4171 42.549C32.5058 42.549 32.5735 42.5747 32.6201 42.626C32.6715 42.6727 32.6971 42.7427 32.6971 42.836V43.452L32.6201 43.354C32.7088 43.0927 32.8511 42.892 33.0471 42.752C33.2478 42.6073 33.4858 42.535 33.7611 42.535C34.0505 42.535 34.2838 42.605 34.4611 42.745C34.6431 42.8803 34.7645 43.0927 34.8251 43.382H34.7201C34.8041 43.1207 34.9535 42.9153 35.1681 42.766C35.3875 42.612 35.6418 42.535 35.9311 42.535C36.1878 42.535 36.3978 42.584 36.5611 42.682C36.7291 42.78 36.8551 42.9293 36.9391 43.13C37.0231 43.326 37.0651 43.5757 37.0651 43.879V45.755C37.0651 45.8483 37.0395 45.9207 36.9881 45.972C36.9415 46.0233 36.8715 46.049 36.7781 46.049C36.6895 46.049 36.6195 46.0233 36.5681 45.972C36.5215 45.9207 36.4981 45.8483 36.4981 45.755V43.907C36.4981 43.5943 36.4445 43.3657 36.3371 43.221C36.2298 43.0717 36.0478 42.997 35.7911 42.997C35.5111 42.997 35.2895 43.095 35.1261 43.291C34.9675 43.4823 34.8881 43.7437 34.8881 44.075V45.755C34.8881 45.8483 34.8625 45.9207 34.8111 45.972C34.7645 46.0233 34.6945 46.049 34.6011 46.049C34.5125 46.049 34.4425 46.0233 34.3911 45.972C34.3445 45.9207 34.3211 45.8483 34.3211 45.755V43.907C34.3211 43.5943 34.2651 43.3657 34.1531 43.221C34.0458 43.0717 33.8661 42.997 33.6141 42.997C33.3341 42.997 33.1125 43.095 32.9491 43.291C32.7905 43.4823 32.7111 43.7437 32.7111 44.075V45.755C32.7111 45.951 32.6155 46.049 32.4241 46.049ZM39.6583 46.063C39.2989 46.063 38.9886 45.993 38.7273 45.853C38.4706 45.7083 38.2699 45.5053 38.1253 45.244C37.9853 44.9827 37.9153 44.67 37.9153 44.306C37.9153 43.9513 37.9853 43.6433 38.1253 43.382C38.2653 43.116 38.4566 42.9083 38.6993 42.759C38.9466 42.6097 39.2313 42.535 39.5533 42.535C39.7819 42.535 39.9873 42.5747 40.1693 42.654C40.3513 42.7287 40.5053 42.8383 40.6313 42.983C40.7619 43.1277 40.8599 43.3027 40.9253 43.508C40.9953 43.7133 41.0303 43.9443 41.0303 44.201C41.0303 44.2757 41.0093 44.3317 40.9673 44.369C40.9253 44.4017 40.8646 44.418 40.7853 44.418H38.3493V44.047H40.6523L40.5403 44.138C40.5403 43.886 40.5029 43.6737 40.4283 43.501C40.3536 43.3237 40.2439 43.1883 40.0993 43.095C39.9593 43.0017 39.7819 42.955 39.5673 42.955C39.3293 42.955 39.1263 43.011 38.9583 43.123C38.7949 43.2303 38.6713 43.382 38.5873 43.578C38.5033 43.7693 38.4613 43.9933 38.4613 44.25V44.292C38.4613 44.7213 38.5639 45.048 38.7693 45.272C38.9793 45.496 39.2756 45.608 39.6583 45.608C39.8169 45.608 39.9733 45.587 40.1273 45.545C40.2859 45.503 40.4399 45.433 40.5893 45.335C40.6546 45.293 40.7129 45.2743 40.7643 45.279C40.8203 45.279 40.8646 45.2953 40.8973 45.328C40.9299 45.356 40.9509 45.3933 40.9603 45.44C40.9743 45.482 40.9696 45.5287 40.9463 45.58C40.9276 45.6313 40.8879 45.6757 40.8273 45.713C40.6733 45.825 40.4913 45.9113 40.2813 45.972C40.0713 46.0327 39.8636 46.063 39.6583 46.063ZM41.7244 46.238C41.701 46.2987 41.6684 46.343 41.6264 46.371C41.589 46.399 41.5447 46.413 41.4934 46.413C41.442 46.413 41.3954 46.399 41.3534 46.371C41.316 46.3477 41.288 46.3127 41.2694 46.266C41.2507 46.2193 41.2507 46.1657 41.2694 46.105L42.9354 40.939C42.9587 40.8783 42.9914 40.834 43.0334 40.806C43.0754 40.778 43.1197 40.764 43.1664 40.764C43.2177 40.764 43.262 40.778 43.2994 40.806C43.3414 40.8293 43.3694 40.8643 43.3834 40.911C43.402 40.9577 43.402 41.0113 43.3834 41.072L41.7244 46.238ZM45.9344 46.063C45.4771 46.063 45.0781 45.9603 44.7374 45.755C44.4014 45.545 44.1401 45.251 43.9534 44.873C43.7714 44.495 43.6804 44.047 43.6804 43.529C43.6804 43.137 43.7318 42.787 43.8344 42.479C43.9418 42.1663 44.0934 41.9027 44.2894 41.688C44.4854 41.4687 44.7211 41.3007 44.9964 41.184C45.2764 41.0627 45.5891 41.002 45.9344 41.002C46.4011 41.002 46.8024 41.1047 47.1384 41.31C47.4791 41.5153 47.7404 41.807 47.9224 42.185C48.1091 42.5583 48.2024 43.004 48.2024 43.522C48.2024 43.914 48.1488 44.2663 48.0414 44.579C47.9341 44.8917 47.7824 45.1577 47.5864 45.377C47.3904 45.5963 47.1524 45.7667 46.8724 45.888C46.5971 46.0047 46.2844 46.063 45.9344 46.063ZM45.9344 45.552C46.2891 45.552 46.5878 45.4727 46.8304 45.314C47.0778 45.1553 47.2668 44.9243 47.3974 44.621C47.5281 44.3177 47.5934 43.9537 47.5934 43.529C47.5934 42.8897 47.4488 42.395 47.1594 42.045C46.8748 41.6903 46.4664 41.513 45.9344 41.513C45.5891 41.513 45.2928 41.5923 45.0454 41.751C44.8028 41.9097 44.6161 42.1407 44.4854 42.444C44.3548 42.7427 44.2894 43.1043 44.2894 43.529C44.2894 44.1637 44.4341 44.6607 44.7234 45.02C45.0128 45.3747 45.4164 45.552 45.9344 45.552ZM49.6136 46.049C49.525 46.049 49.455 46.0233 49.4036 45.972C49.357 45.9207 49.3336 45.8483 49.3336 45.755V43.039H48.8856C48.811 43.039 48.7503 43.0203 48.7036 42.983C48.6616 42.941 48.6406 42.885 48.6406 42.815C48.6406 42.745 48.6616 42.6913 48.7036 42.654C48.7503 42.6167 48.811 42.598 48.8856 42.598H49.4876L49.3336 42.745V42.479C49.3336 42.0357 49.441 41.6973 49.6556 41.464C49.875 41.2307 50.1946 41.0953 50.6146 41.058L50.8176 41.037C50.883 41.0323 50.9343 41.044 50.9716 41.072C51.0136 41.1 51.0393 41.135 51.0486 41.177C51.0626 41.219 51.065 41.2633 51.0556 41.31C51.0463 41.352 51.0253 41.3893 50.9926 41.422C50.96 41.4547 50.9203 41.4733 50.8736 41.478L50.7126 41.492C50.428 41.5153 50.2203 41.6017 50.0896 41.751C49.9636 41.9003 49.9006 42.1197 49.9006 42.409V42.703L49.8166 42.598H50.6566C50.736 42.598 50.7966 42.6167 50.8386 42.654C50.8806 42.6913 50.9016 42.745 50.9016 42.815C50.9016 42.885 50.8806 42.941 50.8386 42.983C50.7966 43.0203 50.736 43.039 50.6566 43.039H49.9006V45.755C49.9006 45.951 49.805 46.049 49.6136 46.049ZM51.8353 46.049C51.7466 46.049 51.6766 46.0233 51.6253 45.972C51.5786 45.9207 51.5553 45.8483 51.5553 45.755V43.039H51.1073C51.0326 43.039 50.972 43.0203 50.9253 42.983C50.8833 42.941 50.8623 42.885 50.8623 42.815C50.8623 42.745 50.8833 42.6913 50.9253 42.654C50.972 42.6167 51.0326 42.598 51.1073 42.598H51.7093L51.5553 42.745V42.479C51.5553 42.0403 51.6603 41.7043 51.8703 41.471C52.085 41.2377 52.4 41.1047 52.8153 41.072L53.0253 41.051C53.0953 41.0463 53.1513 41.058 53.1933 41.086C53.2353 41.1093 53.261 41.142 53.2703 41.184C53.2843 41.226 53.2866 41.2703 53.2773 41.317C53.268 41.3637 53.247 41.4033 53.2143 41.436C53.1863 41.4687 53.1513 41.4873 53.1093 41.492L52.8993 41.506C52.624 41.5247 52.4256 41.611 52.3043 41.765C52.183 41.9143 52.1223 42.129 52.1223 42.409V42.703L52.0383 42.598H53.9423C54.031 42.598 54.0986 42.6237 54.1453 42.675C54.1966 42.7263 54.2223 42.801 54.2223 42.899V45.727C54.2223 45.825 54.199 45.902 54.1523 45.958C54.1056 46.0093 54.0356 46.035 53.9423 46.035C53.849 46.035 53.7766 46.0093 53.7253 45.958C53.6786 45.902 53.6553 45.825 53.6553 45.727V43.039H52.1223V45.755C52.1223 45.951 52.0266 46.049 51.8353 46.049ZM53.9493 41.779C53.8326 41.779 53.7416 41.7487 53.6763 41.688C53.6156 41.6227 53.5853 41.5363 53.5853 41.429C53.5853 41.317 53.6156 41.233 53.6763 41.177C53.7416 41.1163 53.8326 41.086 53.9493 41.086C54.066 41.086 54.1546 41.1163 54.2153 41.177C54.2806 41.233 54.3133 41.317 54.3133 41.429C54.3133 41.5363 54.2806 41.6227 54.2153 41.688C54.1546 41.7487 54.066 41.779 53.9493 41.779ZM56.7255 46.063C56.3848 46.063 56.0908 45.9883 55.8435 45.839C55.5961 45.6897 55.4048 45.482 55.2695 45.216C55.1388 44.9453 55.0735 44.6327 55.0735 44.278C55.0735 44.0073 55.1108 43.7647 55.1855 43.55C55.2601 43.3353 55.3698 43.1533 55.5145 43.004C55.6591 42.85 55.8318 42.7333 56.0325 42.654C56.2378 42.5747 56.4688 42.535 56.7255 42.535C56.8935 42.535 57.0685 42.5607 57.2505 42.612C57.4325 42.6633 57.5981 42.752 57.7475 42.878C57.7941 42.9107 57.8245 42.9503 57.8385 42.997C57.8525 43.0437 57.8525 43.0903 57.8385 43.137C57.8245 43.179 57.8011 43.2163 57.7685 43.249C57.7358 43.277 57.6938 43.2933 57.6425 43.298C57.5958 43.3027 57.5468 43.2863 57.4955 43.249C57.3741 43.1557 57.2505 43.0903 57.1245 43.053C56.9985 43.0157 56.8771 42.997 56.7605 42.997C56.5785 42.997 56.4198 43.0273 56.2845 43.088C56.1491 43.144 56.0348 43.2257 55.9415 43.333C55.8481 43.4403 55.7758 43.5733 55.7245 43.732C55.6778 43.8907 55.6545 44.075 55.6545 44.285C55.6545 44.691 55.7501 45.013 55.9415 45.251C56.1328 45.4843 56.4058 45.601 56.7605 45.601C56.8771 45.601 56.9961 45.5823 57.1175 45.545C57.2435 45.5077 57.3695 45.4423 57.4955 45.349C57.5468 45.3117 57.5958 45.2953 57.6425 45.3C57.6891 45.3047 57.7288 45.3233 57.7615 45.356C57.7941 45.384 57.8151 45.4213 57.8245 45.468C57.8385 45.5147 57.8385 45.5613 57.8245 45.608C57.8105 45.65 57.7801 45.6873 57.7335 45.72C57.5841 45.8413 57.4208 45.93 57.2435 45.986C57.0661 46.0373 56.8935 46.063 56.7255 46.063ZM59.9883 46.063C59.629 46.063 59.3187 45.993 59.0573 45.853C58.8007 45.7083 58.6 45.5053 58.4553 45.244C58.3153 44.9827 58.2453 44.67 58.2453 44.306C58.2453 43.9513 58.3153 43.6433 58.4553 43.382C58.5953 43.116 58.7867 42.9083 59.0293 42.759C59.2767 42.6097 59.5613 42.535 59.8833 42.535C60.112 42.535 60.3173 42.5747 60.4993 42.654C60.6813 42.7287 60.8353 42.8383 60.9613 42.983C61.092 43.1277 61.19 43.3027 61.2553 43.508C61.3253 43.7133 61.3603 43.9443 61.3603 44.201C61.3603 44.2757 61.3393 44.3317 61.2973 44.369C61.2553 44.4017 61.1947 44.418 61.1153 44.418H58.6793V44.047H60.9823L60.8703 44.138C60.8703 43.886 60.833 43.6737 60.7583 43.501C60.6837 43.3237 60.574 43.1883 60.4293 43.095C60.2893 43.0017 60.112 42.955 59.8973 42.955C59.6593 42.955 59.4563 43.011 59.2883 43.123C59.125 43.2303 59.0013 43.382 58.9173 43.578C58.8333 43.7693 58.7913 43.9933 58.7913 44.25V44.292C58.7913 44.7213 58.894 45.048 59.0993 45.272C59.3093 45.496 59.6057 45.608 59.9883 45.608C60.147 45.608 60.3033 45.587 60.4573 45.545C60.616 45.503 60.77 45.433 60.9193 45.335C60.9847 45.293 61.043 45.2743 61.0943 45.279C61.1503 45.279 61.1947 45.2953 61.2273 45.328C61.26 45.356 61.281 45.3933 61.2903 45.44C61.3043 45.482 61.2997 45.5287 61.2763 45.58C61.2577 45.6313 61.218 45.6757 61.1573 45.713C61.0033 45.825 60.8213 45.9113 60.6113 45.972C60.4013 46.0327 60.1937 46.063 59.9883 46.063ZM24.0449 54.049C23.9516 54.049 23.8793 54.0233 23.8279 53.972C23.7813 53.916 23.7579 53.8413 23.7579 53.748V49.317C23.7579 49.219 23.7813 49.1443 23.8279 49.093C23.8793 49.0417 23.9516 49.016 24.0449 49.016C24.1383 49.016 24.2083 49.0417 24.2549 49.093C24.3063 49.1443 24.3319 49.219 24.3319 49.317V53.748C24.3319 53.8413 24.3086 53.916 24.2619 53.972C24.2153 54.0233 24.1429 54.049 24.0449 54.049ZM25.7728 54.049C25.6794 54.049 25.6094 54.0233 25.5628 53.972C25.5161 53.9207 25.4928 53.8483 25.4928 53.755V50.836C25.4928 50.7427 25.5161 50.6727 25.5628 50.626C25.6094 50.5747 25.6771 50.549 25.7658 50.549C25.8544 50.549 25.9221 50.5747 25.9688 50.626C26.0201 50.6727 26.0458 50.7427 26.0458 50.836V51.452L25.9688 51.354C26.0574 51.0927 26.1998 50.892 26.3958 50.752C26.5964 50.6073 26.8344 50.535 27.1098 50.535C27.3991 50.535 27.6324 50.605 27.8098 50.745C27.9918 50.8803 28.1131 51.0927 28.1738 51.382H28.0688C28.1528 51.1207 28.3021 50.9153 28.5168 50.766C28.7361 50.612 28.9904 50.535 29.2798 50.535C29.5364 50.535 29.7464 50.584 29.9098 50.682C30.0778 50.78 30.2038 50.9293 30.2878 51.13C30.3718 51.326 30.4138 51.5757 30.4138 51.879V53.755C30.4138 53.8483 30.3881 53.9207 30.3368 53.972C30.2901 54.0233 30.2201 54.049 30.1268 54.049C30.0381 54.049 29.9681 54.0233 29.9168 53.972C29.8701 53.9207 29.8468 53.8483 29.8468 53.755V51.907C29.8468 51.5943 29.7931 51.3657 29.6858 51.221C29.5784 51.0717 29.3964 50.997 29.1398 50.997C28.8598 50.997 28.6381 51.095 28.4748 51.291C28.3161 51.4823 28.2368 51.7437 28.2368 52.075V53.755C28.2368 53.8483 28.2111 53.9207 28.1598 53.972C28.1131 54.0233 28.0431 54.049 27.9498 54.049C27.8611 54.049 27.7911 54.0233 27.7398 53.972C27.6931 53.9207 27.6698 53.8483 27.6698 53.755V51.907C27.6698 51.5943 27.6138 51.3657 27.5018 51.221C27.3944 51.0717 27.2148 50.997 26.9628 50.997C26.6828 50.997 26.4611 51.095 26.2978 51.291C26.1391 51.4823 26.0598 51.7437 26.0598 52.075V53.755C26.0598 53.951 25.9641 54.049 25.7728 54.049ZM32.5449 54.063C32.3116 54.063 32.1016 54.0187 31.9149 53.93C31.7329 53.8367 31.5882 53.7107 31.4809 53.552C31.3736 53.3933 31.3199 53.216 31.3199 53.02C31.3199 52.768 31.3829 52.5697 31.5089 52.425C31.6396 52.2803 31.8519 52.1777 32.1459 52.117C32.4446 52.0563 32.8506 52.026 33.3639 52.026H33.6789V52.397H33.3709C32.9929 52.397 32.6942 52.4157 32.4749 52.453C32.2602 52.4857 32.1086 52.544 32.0199 52.628C31.9359 52.712 31.8939 52.831 31.8939 52.985C31.8939 53.1763 31.9592 53.3327 32.0899 53.454C32.2252 53.5753 32.4072 53.636 32.6359 53.636C32.8226 53.636 32.9859 53.5917 33.1259 53.503C33.2706 53.4143 33.3826 53.293 33.4619 53.139C33.5459 52.985 33.5879 52.8077 33.5879 52.607V51.809C33.5879 51.5197 33.5296 51.312 33.4129 51.186C33.2962 51.0553 33.1049 50.99 32.8389 50.99C32.6756 50.99 32.5122 51.011 32.3489 51.053C32.1856 51.095 32.0129 51.1627 31.8309 51.256C31.7656 51.2887 31.7096 51.3003 31.6629 51.291C31.6162 51.277 31.5789 51.2513 31.5509 51.214C31.5229 51.1767 31.5066 51.1347 31.5019 51.088C31.4972 51.0367 31.5066 50.9877 31.5299 50.941C31.5579 50.8943 31.5999 50.857 31.6559 50.829C31.8612 50.7263 32.0642 50.6517 32.2649 50.605C32.4656 50.5583 32.6569 50.535 32.8389 50.535C33.1329 50.535 33.3756 50.584 33.5669 50.682C33.7582 50.7753 33.9006 50.92 33.9939 51.116C34.0872 51.3073 34.1339 51.5547 34.1339 51.858V53.755C34.1339 53.8483 34.1106 53.9207 34.0639 53.972C34.0219 54.0233 33.9589 54.049 33.8749 54.049C33.7862 54.049 33.7186 54.0233 33.6719 53.972C33.6252 53.9207 33.6019 53.8483 33.6019 53.755V53.209H33.6649C33.6276 53.3863 33.5552 53.538 33.4479 53.664C33.3452 53.79 33.2169 53.888 33.0629 53.958C32.9089 54.028 32.7362 54.063 32.5449 54.063ZM36.6908 55.323C36.4435 55.323 36.2008 55.2927 35.9628 55.232C35.7295 55.176 35.5171 55.085 35.3258 54.959C35.2698 54.9263 35.2325 54.8867 35.2138 54.84C35.1998 54.7933 35.1975 54.7467 35.2068 54.7C35.2161 54.658 35.2371 54.6183 35.2698 54.581C35.3025 54.5483 35.3398 54.5273 35.3818 54.518C35.4285 54.5087 35.4751 54.5157 35.5218 54.539C35.7271 54.665 35.9231 54.7513 36.1098 54.798C36.2965 54.8447 36.4808 54.868 36.6628 54.868C36.9941 54.868 37.2438 54.7793 37.4118 54.602C37.5845 54.4247 37.6708 54.168 37.6708 53.832V53.041H37.7408C37.6708 53.3117 37.5215 53.5263 37.2928 53.685C37.0688 53.8437 36.8051 53.923 36.5018 53.923C36.1891 53.923 35.9185 53.853 35.6898 53.713C35.4611 53.5683 35.2838 53.3677 35.1578 53.111C35.0365 52.8543 34.9758 52.558 34.9758 52.222C34.9758 51.97 35.0108 51.7413 35.0808 51.536C35.1508 51.326 35.2511 51.1487 35.3818 51.004C35.5171 50.8547 35.6781 50.7403 35.8648 50.661C36.0561 50.577 36.2685 50.535 36.5018 50.535C36.8098 50.535 37.0758 50.6143 37.2998 50.773C37.5238 50.927 37.6685 51.137 37.7338 51.403L37.6638 51.487V50.836C37.6638 50.7427 37.6871 50.6727 37.7338 50.626C37.7851 50.5747 37.8551 50.549 37.9438 50.549C38.0371 50.549 38.1071 50.5747 38.1538 50.626C38.2005 50.6727 38.2238 50.7427 38.2238 50.836V53.755C38.2238 54.273 38.0931 54.6627 37.8318 54.924C37.5751 55.19 37.1948 55.323 36.6908 55.323ZM36.6068 53.461C36.8261 53.461 37.0151 53.412 37.1738 53.314C37.3325 53.2113 37.4538 53.0667 37.5378 52.88C37.6265 52.6933 37.6708 52.474 37.6708 52.222C37.6708 51.844 37.5751 51.5453 37.3838 51.326C37.1925 51.102 36.9335 50.99 36.6068 50.99C36.3921 50.99 36.2055 51.0413 36.0468 51.144C35.8881 51.242 35.7645 51.3843 35.6758 51.571C35.5918 51.753 35.5498 51.97 35.5498 52.222C35.5498 52.6 35.6455 52.901 35.8368 53.125C36.0281 53.349 36.2848 53.461 36.6068 53.461ZM40.8204 54.063C40.461 54.063 40.1507 53.993 39.8894 53.853C39.6327 53.7083 39.432 53.5053 39.2874 53.244C39.1474 52.9827 39.0774 52.67 39.0774 52.306C39.0774 51.9513 39.1474 51.6433 39.2874 51.382C39.4274 51.116 39.6187 50.9083 39.8614 50.759C40.1087 50.6097 40.3934 50.535 40.7154 50.535C40.944 50.535 41.1494 50.5747 41.3314 50.654C41.5134 50.7287 41.6674 50.8383 41.7934 50.983C41.924 51.1277 42.022 51.3027 42.0874 51.508C42.1574 51.7133 42.1924 51.9443 42.1924 52.201C42.1924 52.2757 42.1714 52.3317 42.1294 52.369C42.0874 52.4017 42.0267 52.418 41.9474 52.418H39.5114V52.047H41.8144L41.7024 52.138C41.7024 51.886 41.665 51.6737 41.5904 51.501C41.5157 51.3237 41.406 51.1883 41.2614 51.095C41.1214 51.0017 40.944 50.955 40.7294 50.955C40.4914 50.955 40.2884 51.011 40.1204 51.123C39.957 51.2303 39.8334 51.382 39.7494 51.578C39.6654 51.7693 39.6234 51.9933 39.6234 52.25V52.292C39.6234 52.7213 39.726 53.048 39.9314 53.272C40.1414 53.496 40.4377 53.608 40.8204 53.608C40.979 53.608 41.1354 53.587 41.2894 53.545C41.448 53.503 41.602 53.433 41.7514 53.335C41.8167 53.293 41.875 53.2743 41.9264 53.279C41.9824 53.279 42.0267 53.2953 42.0594 53.328C42.092 53.356 42.113 53.3933 42.1224 53.44C42.1364 53.482 42.1317 53.5287 42.1084 53.58C42.0897 53.6313 42.05 53.6757 41.9894 53.713C41.8354 53.825 41.6534 53.9113 41.4434 53.972C41.2334 54.0327 41.0257 54.063 40.8204 54.063ZM44.161 54.063C43.951 54.063 43.7386 54.0373 43.524 53.986C43.314 53.9347 43.118 53.846 42.936 53.72C42.8893 53.6873 42.8566 53.65 42.838 53.608C42.8193 53.5613 42.8123 53.517 42.817 53.475C42.8263 53.4283 42.845 53.3887 42.873 53.356C42.9056 53.3233 42.943 53.3047 42.985 53.3C43.0316 53.2907 43.083 53.3 43.139 53.328C43.321 53.44 43.496 53.5193 43.664 53.566C43.8366 53.608 44.007 53.629 44.175 53.629C44.441 53.629 44.6416 53.58 44.777 53.482C44.9123 53.384 44.98 53.251 44.98 53.083C44.98 52.9523 44.9356 52.8497 44.847 52.775C44.7583 52.6957 44.6183 52.635 44.427 52.593L43.79 52.453C43.496 52.3923 43.2766 52.2873 43.132 52.138C42.992 51.9887 42.922 51.795 42.922 51.557C42.922 51.347 42.9756 51.1673 43.083 51.018C43.195 50.864 43.3513 50.745 43.552 50.661C43.7526 50.577 43.986 50.535 44.252 50.535C44.4573 50.535 44.651 50.563 44.833 50.619C45.0196 50.6703 45.1876 50.7543 45.337 50.871C45.3836 50.9037 45.414 50.9433 45.428 50.99C45.4466 51.032 45.449 51.0763 45.435 51.123C45.4256 51.165 45.4046 51.2023 45.372 51.235C45.3393 51.263 45.2996 51.2793 45.253 51.284C45.2063 51.2887 45.1573 51.2747 45.106 51.242C44.966 51.1487 44.8236 51.081 44.679 51.039C44.5343 50.9923 44.392 50.969 44.252 50.969C43.9906 50.969 43.7923 51.0203 43.657 51.123C43.5216 51.2257 43.454 51.361 43.454 51.529C43.454 51.6597 43.496 51.767 43.58 51.851C43.664 51.935 43.7946 51.9957 43.972 52.033L44.609 52.166C44.9123 52.2313 45.1386 52.3363 45.288 52.481C45.442 52.621 45.519 52.8123 45.519 53.055C45.519 53.363 45.3953 53.608 45.148 53.79C44.9006 53.972 44.5716 54.063 44.161 54.063Z"/></svg>