<svg xmlns="http://www.w3.org/2000/svg" width="17" height="17" fill="none" viewBox="0 0 17 17"><path id="Vector" fill="#939EAA" d="M11.0741 11.9325L15.9623 16.822C16.0188 16.8784 16.0858 16.9232 16.1595 16.9537C16.2333 16.9843 16.3123 17 16.3921 17C16.472 17 16.551 16.9843 16.6248 16.9537C16.6985 16.9232 16.7655 16.8784 16.822 16.822C16.8784 16.7655 16.9232 16.6985 16.9537 16.6248C16.9843 16.551 17 16.472 17 16.3921C17 16.3123 16.9843 16.2333 16.9537 16.1595C16.9232 16.0858 16.8784 16.0188 16.822 15.9623L1.03767 0.178037C0.981229 0.121592 0.914219 0.0768178 0.840471 0.0462702C0.766723 0.0157226 0.68768 5.9474e-10 0.607855 0C0.52803 -5.9474e-10 0.448987 0.0157226 0.375239 0.0462702C0.301491 0.0768178 0.234481 0.121592 0.178037 0.178037C0.121592 0.234481 0.0768178 0.301491 0.0462702 0.375239C0.0157226 0.448987 -5.9474e-10 0.52803 0 0.607855C5.9474e-10 0.68768 0.0157226 0.766723 0.0462702 0.840471C0.0768178 0.914219 0.121592 0.981229 0.178037 1.03767L4.09983 4.95946C3.56605 5.33758 3.08576 5.78602 2.67195 6.29263C2.08599 7.01161 1.6273 7.82551 1.31572 8.69912C1.29022 8.77319 1.25865 8.87518 1.25865 8.87518L1.2368 8.95046C1.2368 8.95046 1.14452 9.55391 1.66783 9.69232C1.82336 9.73343 1.98885 9.71113 2.12795 9.63031C2.26705 9.54949 2.36838 9.41677 2.40969 9.26129L2.41091 9.25765L2.42062 9.22729L2.46312 9.09495C2.72776 8.35736 3.11574 7.67008 3.61051 7.06242C3.99947 6.58435 4.45978 6.16908 4.97525 5.83124L6.89122 7.74721C6.50458 7.98954 6.17755 8.31593 5.93445 8.70209C5.69136 9.08825 5.53845 9.52424 5.4871 9.97765C5.43576 10.4311 5.48729 10.8902 5.63788 11.3209C5.78847 11.7517 6.03423 12.1429 6.35688 12.4656C6.67954 12.7883 7.07079 13.034 7.50153 13.1846C7.93227 13.3352 8.39142 13.3867 8.84483 13.3354C9.29824 13.284 9.73423 13.1311 10.1204 12.888C10.5066 12.6449 10.8329 12.3179 11.0753 11.9313L11.0741 11.9325ZM10.1756 11.034C10.059 11.3084 9.8769 11.55 9.64518 11.7376C9.41346 11.9252 9.13923 12.053 8.84656 12.1099C8.5539 12.1667 8.25175 12.1509 7.96665 12.0637C7.68154 11.9765 7.4222 11.8207 7.21138 11.6099C7.00057 11.3991 6.84473 11.1397 6.75755 10.8546C6.67037 10.5695 6.65452 10.2674 6.71138 9.9747C6.76824 9.68204 6.89607 9.40781 7.08367 9.17609C7.27126 8.94437 7.51287 8.76224 7.78728 8.6457L10.178 11.0352L10.1756 11.034ZM6.46018 3.88613L7.49709 4.92304C7.81278 4.88054 8.14668 4.85747 8.5 4.85747C10.9818 4.85747 12.4898 5.9648 13.3907 7.06363C13.8856 7.67123 14.2736 8.35853 14.5381 9.09616C14.5587 9.15444 14.5721 9.19937 14.5806 9.22851L14.5903 9.25886V9.2625L14.5915 9.26372C14.6364 9.41524 14.7387 9.54328 14.8765 9.62061C15.0144 9.69794 15.1769 9.71847 15.3297 9.67783C15.4824 9.6372 15.6133 9.53861 15.6944 9.40301C15.7756 9.26741 15.8007 9.10549 15.7644 8.95167V8.94803L15.7632 8.94317L15.7583 8.92739C15.7373 8.8507 15.713 8.77495 15.6855 8.70034C15.3739 7.82672 14.9152 7.01283 14.3293 6.29384C13.2414 4.96432 11.4092 3.6433 8.50243 3.6433C7.75207 3.6433 7.07334 3.73072 6.4614 3.88492L6.46018 3.88613Z"/></svg>