<svg xmlns="http://www.w3.org/2000/svg" width="23" height="23" fill="none" viewBox="0 0 23 23"><path id="Vector" fill="#104E9E" fill-rule="evenodd" d="M9.88676 0.668216L8.1556 2.39937C8.0153 2.53967 7.82502 2.6185 7.62662 2.6185H4.89993C3.63993 2.6185 2.6185 3.63993 2.6185 4.89993V7.62662C2.6185 7.82502 2.53967 8.0153 2.39937 8.1556L0.668216 9.88676C-0.222738 10.7777 -0.222739 12.2222 0.668216 13.1132L2.39937 14.8444C2.53967 14.9847 2.6185 15.1749 2.6185 15.3733V18.1C2.6185 19.36 3.63993 20.3815 4.89993 20.3815H7.62662C7.82502 20.3815 8.0153 20.4603 8.1556 20.6006L9.88676 22.3317C10.7777 23.2228 12.2222 23.2228 13.1132 22.3317L14.8444 20.6006C14.9847 20.4603 15.1749 20.3815 15.3733 20.3815H18.1C19.36 20.3815 20.3815 19.36 20.3815 18.1V15.3733C20.3815 15.1749 20.4603 14.9847 20.6006 14.8444L22.3317 13.1132C23.2228 12.2222 23.2228 10.7777 22.3317 9.88676L20.6006 8.1556C20.4603 8.0153 20.3815 7.82502 20.3815 7.62662V4.89993C20.3815 3.63993 19.36 2.6185 18.1 2.6185H15.3733C15.1749 2.6185 14.9847 2.53967 14.8444 2.39937L13.1132 0.668216C12.2222 -0.222738 10.7777 -0.222739 9.88676 0.668216ZM7.12459 14.7912L14.7912 7.12454L15.8755 8.20878L8.20882 15.8755L7.12459 14.7912ZM7.66665 7.66665V9.19998H9.19998V7.66665H7.66665ZM13.8 15.3333H15.3333V13.8H13.8V15.3333Z" clip-rule="evenodd"/></svg>