<svg width="64" height="64" viewBox="0 0 64 64" fill="none" xmlns="http://www.w3.org/2000/svg">
<g id="Group 384">
<circle id="Ellipse 44" cx="32" cy="32" r="31.75" fill="white" stroke="#FFE7A6" stroke-width="0.5"/>
<g id="Group">
<g id="Group_2">
<path id="Vector" d="M38.3112 26.7947C37.9062 26.7947 37.5779 26.4663 37.5779 26.0614V22.7402C37.5779 22.5895 37.455 22.4667 37.3043 22.4667H26.6953C26.5446 22.4667 26.4217 22.5895 26.4217 22.7402V26.0614C26.4217 26.4663 26.0934 26.7947 25.6884 26.7947C25.2834 26.7947 24.9551 26.4663 24.9551 26.0614V22.7402C24.9551 21.7806 25.7357 21 26.6953 21H37.3043C38.2639 21 39.0445 21.7806 39.0445 22.7402V26.0614C39.0445 26.4663 38.7162 26.7947 38.3112 26.7947Z" fill="#2255A4"/>
</g>
<g id="Group_3">
<path id="Vector_2" d="M34.523 36.2306C34.4353 36.2657 34.3429 36.2829 34.2512 36.2829C34.1509 36.2829 34.0539 36.2551 33.9611 36.2146V38.1729H30.0389V36.2188C29.8616 36.2958 29.66 36.304 29.477 36.2306L21 32.8491V42.2663H43V32.8491L34.523 36.2306Z" fill="#2255A4"/>
</g>
<g id="Group_4">
<path id="Vector_3" d="M43 31.2704V26.1411H21V31.2704L29.0155 34.4677V33.5844C29.0155 33.1794 29.3438 32.851 29.7488 32.851H34.2512C34.6562 32.851 34.9845 33.1794 34.9845 33.5844V34.4677L43 31.2704Z" fill="#D6B268"/>
</g>
</g>
</g>
</svg>
