<svg xmlns="http://www.w3.org/2000/svg" width="42" height="41" fill="none" viewBox="0 0 42 41"><rect width="41.5" height="40.5" x=".25" y=".25" stroke="#FFE7A6" stroke-width=".5" rx="9.75"/><path fill="#D6B268" d="M24.7859 32.0001C26.389 31.4818 27.8662 30.6343 29.1227 29.5117C30.3791 28.3892 31.3872 27.0166 32.0822 25.4817H28.2456C27.5739 28.2891 26.3466 30.5843 24.7859 32.0001Z"/><path fill="#2255A4" d="M22.0465 25.4817V31.4492C23.8536 30.8356 25.4095 28.55 26.2358 25.4817H22.0465Z"/><path fill="#2255A4" d="M20.1139 31.4492V25.4817H15.9198C16.746 28.55 18.3019 30.8356 20.1139 31.4492Z"/><path fill="#D6B268" d="M13.9147 25.4817H10.0781C10.7727 27.0177 11.7812 28.3912 13.0386 29.5139C14.2961 30.6365 15.7747 31.4834 17.3793 32.0001C15.8089 30.5891 14.5816 28.2939 13.9147 25.4817Z"/><path fill="#2255A4" d="M32.7642 17.432H28.5991C28.7399 18.4487 28.8109 19.4739 28.8117 20.5003C28.8125 21.5202 28.7431 22.5389 28.6039 23.5493H32.7691C33.2925 21.5436 33.2909 19.4369 32.7642 17.432V17.432Z"/><path fill="#D6B268" d="M26.8785 20.5003C26.8771 19.473 26.798 18.4473 26.6417 17.432H22.0465V23.5493H26.6417C26.798 22.5405 26.8771 21.5212 26.8785 20.5003V20.5003Z"/><path fill="#2255A4" d="M15.2813 20.5003C15.2811 21.5211 15.3587 22.5403 15.5133 23.5493H20.1133V17.432H15.5133C15.3587 18.4475 15.2812 19.4732 15.2813 20.5003V20.5003Z"/><path fill="#2255A4" d="M13.3488 20.5003C13.348 19.474 13.4175 18.4488 13.5566 17.432H9.39625C8.86956 19.4369 8.86789 21.5436 9.39142 23.5493H13.5518C13.4167 22.5386 13.3489 21.52 13.3488 20.5003V20.5003Z"/><path fill="#2255A4" d="M32.0725 15.499C31.3775 13.9681 30.3703 12.5992 29.1155 11.48C27.8607 10.3609 26.386 9.51615 24.7859 9C26.3466 10.4109 27.5691 12.7013 28.2407 15.499H32.0725Z"/><path fill="#2255A4" d="M22.0465 9.55116V15.4993H26.231C25.4047 12.4407 23.8536 10.16 22.0465 9.55116Z"/><path fill="#D6B268" d="M15.9241 15.4993H20.1134V9.55116C18.3014 10.16 16.7503 12.4407 15.9241 15.4993Z"/><path fill="#2255A4" d="M17.3686 9C15.7695 9.51699 14.2958 10.3621 13.0419 11.4811C11.7881 12.6002 10.7815 13.9687 10.0868 15.499H13.9137C14.5854 12.7013 15.8079 10.4109 17.3686 9Z"/></svg>