<svg xmlns="http://www.w3.org/2000/svg" width="64" height="64" fill="none" viewBox="0 0 64 64"><circle cx="32" cy="32" r="31.75" fill="#fff" stroke="#FFE7A6" stroke-width=".5"/><path fill="#2255A4" d="M29.72 17.8499V17.3734C29.72 16.6161 29.1039 16 28.3466 16C27.5894 16 26.9732 16.6161 26.9732 17.3734V17.8499H24.7536V20.6036H22V46H41.1773V43.2464H43.9309V17.8499H29.72ZM27.7993 17.3734C27.7993 17.0716 28.0448 16.8261 28.3466 16.8261C28.6484 16.8261 28.8939 17.0716 28.8939 17.3734V17.8499H27.7993V17.3734ZM40.3512 45.1739H22.8261V21.4296H24.7536V43.2464H40.3512V45.1739ZM43.1048 42.4203H41.1773H40.3512H25.5797V21.4296V20.6036V18.676H28.894V20.6036V21.4296V22.0858C28.894 22.3876 28.6485 22.6331 28.3467 22.6331C28.0449 22.6331 27.7994 22.3876 27.7994 22.0858V21.4296V20.7808H26.9733V21.4296V22.0858C26.9733 22.8431 27.5894 23.4592 28.3467 23.4592C29.104 23.4592 29.7201 22.8431 29.7201 22.0858V21.4296V20.6036V18.676H43.1049V42.4203H43.1048Z"/><path fill="#D6B268" d="M39.7007 36.2555C39.2707 35.9539 38.8818 35.5375 38.5449 35.0179C38.1071 34.3428 37.3684 33.9399 36.5691 33.9399C35.7697 33.9399 35.0311 34.3429 34.5933 35.018C34.2563 35.5375 33.8675 35.9539 33.4374 36.2555C32.807 36.6977 32.4306 37.4183 32.4306 38.1833C32.4306 39.4814 33.4868 40.5376 34.785 40.5376H38.3532C39.1952 40.5376 39.9351 40.093 40.3512 39.4265C40.5767 39.0654 40.7076 38.6393 40.7076 38.1832C40.7076 37.7397 40.5804 37.3116 40.3512 36.9435C40.1851 36.6768 39.9657 36.4413 39.7007 36.2555ZM38.3532 39.7115H34.785C33.9423 39.7115 33.2567 39.0259 33.2567 38.1833C33.2567 37.6873 33.5016 37.2195 33.9118 36.9318C34.4291 36.569 34.8915 36.0763 35.2864 35.4675C35.5713 35.0282 36.0508 34.766 36.5692 34.766C37.0875 34.766 37.5669 35.0282 37.8519 35.4674C38.2467 36.0764 38.7093 36.569 39.2265 36.9318C39.6367 37.2195 39.8816 37.6874 39.8816 38.1833C39.8815 39.0259 39.1959 39.7115 38.3532 39.7115Z"/><path fill="#2255A4" d="M32.7719 35.8117C33.4036 35.8117 33.9175 35.2978 33.9175 34.6661V33.8242C33.9175 33.1925 33.4036 32.6786 32.7719 32.6786C32.1402 32.6786 31.6263 33.1925 31.6263 33.8242V34.6661C31.6264 35.2979 32.1403 35.8117 32.7719 35.8117ZM32.4525 33.8242C32.4525 33.648 32.5958 33.5047 32.772 33.5047C32.9482 33.5047 33.0914 33.648 33.0914 33.8242V34.6661C33.0914 34.8424 32.9482 34.9856 32.772 34.9856C32.5958 34.9856 32.4525 34.8424 32.4525 34.6661V33.8242Z"/><path fill="#2255A4" d="M40.3252 32.6786C39.6935 32.6786 39.1796 33.1925 39.1796 33.8242V34.6661C39.1796 35.2978 39.6935 35.8117 40.3252 35.8117C40.334 35.8117 40.3425 35.8106 40.3512 35.8104C40.6791 35.803 40.9728 35.6572 41.1772 35.4291C41.3591 35.2262 41.4707 34.9593 41.4707 34.6661V33.8242C41.4707 33.531 41.3591 33.264 41.1772 33.0612C40.9728 32.8331 40.6791 32.6873 40.3512 32.6799C40.3425 32.6796 40.334 32.6786 40.3252 32.6786ZM40.6446 33.8241V34.6661C40.6446 34.8334 40.515 34.9695 40.3512 34.983C40.3425 34.9836 40.3341 34.9855 40.3252 34.9855C40.149 34.9855 40.0057 34.8423 40.0057 34.6661V33.8241C40.0057 33.6479 40.149 33.5046 40.3252 33.5046C40.3341 33.5046 40.3425 33.5065 40.3512 33.5072C40.515 33.5207 40.6446 33.6569 40.6446 33.8241Z"/><path fill="#2255A4" d="M36.2997 32.6328V31.7907C36.2997 31.159 35.7858 30.6451 35.1541 30.6451C34.5224 30.6451 34.0085 31.159 34.0085 31.7907V32.6328C34.0085 33.2644 34.5224 33.7783 35.1541 33.7783C35.7858 33.7783 36.2997 33.2644 36.2997 32.6328ZM34.8346 32.6328V31.7907C34.8346 31.6145 34.9779 31.4712 35.1541 31.4712C35.3302 31.4712 35.4736 31.6145 35.4736 31.7907V32.6328C35.4736 32.8089 35.3302 32.9522 35.1541 32.9522C34.9779 32.9522 34.8346 32.8088 34.8346 32.6328Z"/><path fill="#2255A4" d="M39.0885 32.6328V31.7907C39.0885 31.159 38.5746 30.6451 37.943 30.6451C37.3113 30.6451 36.7974 31.159 36.7974 31.7907V32.6328C36.7974 33.2644 37.3113 33.7783 37.943 33.7783C38.5746 33.7783 39.0885 33.2644 39.0885 32.6328ZM37.6235 32.6328V31.7907C37.6235 31.6145 37.7669 31.4712 37.943 31.4712C38.1192 31.4712 38.2625 31.6145 38.2625 31.7907V32.6328C38.2625 32.8089 38.1192 32.9522 37.943 32.9522C37.7669 32.9522 37.6235 32.8088 37.6235 32.6328Z"/><path fill="#2255A4" d="M40.6214 22.1828V21.3567H33.2731V21.4296V22.1828H40.3512H40.6214Z"/><path fill="#2255A4" d="M40.6451 24.2711V23.445H40.3512H33.2731V24.2711H40.3512H40.6451Z"/><path fill="#2255A4" d="M40.6451 26.3363V25.5102H40.3512H33.2731V26.3363H40.3512H40.6451Z"/><path fill="#2255A4" d="M24.9455 21.3967H22.8115L22.3296 45.3875H40.6755L40.3313 42.9781H25.2209L24.9455 21.3967Z"/><path fill="#D6B268" stroke="#D6B268" d="M34.8242 35.8467C35.4301 35.0535 36.3583 34.9596 36.7467 35.0118C37.4457 35.0535 37.8924 35.4292 38.0283 35.6119C38.1739 35.838 38.5584 36.3528 38.9313 36.6032C39.3041 36.8537 39.5138 37.0555 39.5721 37.125C39.8245 37.3685 40.2304 38.0642 39.8342 38.8991C39.4381 39.7339 38.504 39.9774 38.0865 39.9948H35.7272C35.1446 40.0157 34.6883 39.9687 34.533 39.9426C33.8048 39.76 33.4844 39.473 33.2222 39.0295C32.9601 38.586 32.8435 37.7512 33.3678 37.1772C33.8921 36.6032 34.0669 36.838 34.8242 35.8467Z"/><rect width="2.341" height="3.236" x="31.589" y="32.584" fill="#D6B268" rx="1.17"/><rect width="1.377" height="2.134" x="32.071" y="33.134" fill="#fff" rx=".688"/><rect width="2.341" height="3.236" x="33.998" y="30.587" fill="#D6B268" rx="1.17"/><rect width="2.341" height="3.236" x="36.752" y="30.587" fill="#D6B268" rx="1.17"/><rect width="2.341" height="3.236" x="39.161" y="32.652" fill="#D6B268" rx="1.17"/><rect width="1.377" height="2.134" x="34.48" y="31.138" fill="#fff" rx=".688"/><rect width="1.377" height="2.134" x="37.234" y="31.138" fill="#fff" rx=".688"/><path stroke="#D6B268" d="M25.3333 22.0001V42.6668H40.1481"/><rect width="1.377" height="2.134" x="39.643" y="33.203" fill="#fff" rx=".688"/></svg>