<svg width="28" height="21" viewBox="0 0 28 21" fill="none" xmlns="http://www.w3.org/2000/svg">
<g id="Group 370">
<path id="Vector" d="M2.33333 0C1.04514 0 0 1.00781 0 2.25V5.25C0 5.66719 0.346354 6 0.777778 6H4.66667V2.25C4.66667 1.00781 3.62153 0 2.33333 0ZM12.4444 16.3406V13.5H23.3333V4.5C23.3333 2.01562 21.2431 0 18.6667 0H5.425C5.92083 0.627187 6.22222 1.40062 6.22222 2.25V16.5C6.22222 18.3225 7.90514 19.7639 9.8559 19.4592C11.3896 19.2188 12.4444 17.8359 12.4444 16.3406ZM14 15V16.5C14 18.9787 11.9097 21 9.33333 21H22.5556C25.5636 21 28 18.6502 28 15.75C28 15.334 27.6536 15 27.2222 15H14Z" fill="#939EAA"/>
<path id="Vector_2" d="M2.33333 0C1.04514 0 0 1.00781 0 2.25V5.25C0 5.66719 0.346354 6 0.777778 6H4.66667V2.25C4.66667 1.00781 3.62153 0 2.33333 0ZM14 15V16.5C14 18.9787 11.9097 21 9.33333 21H22.5556C25.5636 21 28 18.6502 28 15.75C28 15.334 27.6536 15 27.2222 15H14Z" fill="#939EAA"/>
</g>
</svg>
