<svg width="5" height="8" viewBox="0 0 5 8" fill="none" xmlns="http://www.w3.org/2000/svg">
<path d="M1.27863 7.80269L4.79008 4.50224C4.86641 4.43049 4.92036 4.35277 4.95191 4.26906C4.98397 4.18535 5 4.09566 5 4C5 3.90433 4.98397 3.81465 4.95191 3.73094C4.92036 3.64723 4.86641 3.56951 4.79008 3.49776L1.27863 0.197309C1.13868 0.0657695 0.96056 0 0.744275 0C0.52799 0 0.349873 0.0657695 0.209924 0.197309C0.0699749 0.328849 0 0.496263 0 0.699551C0 0.90284 0.0699749 1.07025 0.209924 1.20179L3.18702 4L0.209924 6.79821C0.0699749 6.92975 0 7.09716 0 7.30045C0 7.50374 0.0699749 7.67115 0.209924 7.80269C0.349873 7.93423 0.52799 8 0.744275 8C0.96056 8 1.13868 7.93423 1.27863 7.80269Z" fill="#939EAA"/>
</svg>
