<svg width="198" height="184" viewBox="0 0 198 184" fill="none" xmlns="http://www.w3.org/2000/svg">
<g filter="url(#filter0_d_1_5087)">
<path d="M135 89.1876V62.0563C135 60.3979 136.902 59.46 138.218 60.4698L156.822 74.7494C157.898 75.5754 157.857 77.2104 156.741 77.9815L138.137 90.8332C136.81 91.7496 135 90.8 135 89.1876Z" fill="white"/>
</g>
<g filter="url(#filter1_d_1_5087)">
<rect x="56" y="56" width="93" height="72" rx="5" fill="white"/>
</g>
<path d="M73.584 84C73.408 84 73.272 83.956 73.176 83.868C73.088 83.772 73.044 83.636 73.044 83.46V76.08C73.044 75.904 73.088 75.772 73.176 75.684C73.272 75.588 73.408 75.54 73.584 75.54H78.048C78.184 75.54 78.288 75.576 78.36 75.648C78.432 75.72 78.468 75.82 78.468 75.948C78.468 76.084 78.432 76.188 78.36 76.26C78.288 76.332 78.184 76.368 78.048 76.368H74.004V79.296H77.796C77.932 79.296 78.036 79.332 78.108 79.404C78.18 79.468 78.216 79.568 78.216 79.704C78.216 79.84 78.18 79.944 78.108 80.016C78.036 80.088 77.932 80.124 77.796 80.124H74.004V83.172H78.048C78.184 83.172 78.288 83.208 78.36 83.28C78.432 83.352 78.468 83.452 78.468 83.58C78.468 83.716 78.432 83.82 78.36 83.892C78.288 83.964 78.184 84 78.048 84H73.584ZM80.3881 84.084C80.2281 84.084 80.1081 84.04 80.0281 83.952C79.9481 83.864 79.9081 83.74 79.9081 83.58V78.576C79.9081 78.416 79.9481 78.296 80.0281 78.216C80.1081 78.128 80.2241 78.084 80.3761 78.084C80.5281 78.084 80.6441 78.128 80.7241 78.216C80.8121 78.296 80.8561 78.416 80.8561 78.576V79.608L80.7241 79.464C80.8921 79 81.1641 78.652 81.5401 78.42C81.9241 78.18 82.3641 78.06 82.8601 78.06C83.3241 78.06 83.7081 78.144 84.0121 78.312C84.3241 78.48 84.5561 78.736 84.7081 79.08C84.8601 79.416 84.9361 79.844 84.9361 80.364V83.58C84.9361 83.74 84.8921 83.864 84.8041 83.952C84.7241 84.04 84.6081 84.084 84.4561 84.084C84.2961 84.084 84.1721 84.04 84.0841 83.952C84.0041 83.864 83.9641 83.74 83.9641 83.58V80.424C83.9641 79.88 83.8561 79.484 83.6401 79.236C83.4321 78.98 83.0961 78.852 82.6321 78.852C82.0961 78.852 81.6681 79.02 81.3481 79.356C81.0361 79.684 80.8801 80.124 80.8801 80.676V83.58C80.8801 83.916 80.7161 84.084 80.3881 84.084ZM89.3084 86.268C88.8844 86.268 88.4684 86.216 88.0604 86.112C87.6604 86.016 87.2964 85.86 86.9684 85.644C86.8724 85.588 86.8084 85.52 86.7764 85.44C86.7524 85.36 86.7484 85.28 86.7644 85.2C86.7804 85.128 86.8164 85.06 86.8724 84.996C86.9284 84.94 86.9924 84.904 87.0644 84.888C87.1444 84.872 87.2244 84.884 87.3044 84.924C87.6564 85.14 87.9924 85.288 88.3124 85.368C88.6324 85.448 88.9484 85.488 89.2604 85.488C89.8284 85.488 90.2564 85.336 90.5444 85.032C90.8404 84.728 90.9884 84.288 90.9884 83.712V82.356H91.1084C90.9884 82.82 90.7324 83.188 90.3404 83.46C89.9564 83.732 89.5044 83.868 88.9844 83.868C88.4484 83.868 87.9844 83.748 87.5924 83.508C87.2004 83.26 86.8964 82.916 86.6804 82.476C86.4724 82.036 86.3684 81.528 86.3684 80.952C86.3684 80.52 86.4284 80.128 86.5484 79.776C86.6684 79.416 86.8404 79.112 87.0644 78.864C87.2964 78.608 87.5724 78.412 87.8924 78.276C88.2204 78.132 88.5844 78.06 88.9844 78.06C89.5124 78.06 89.9684 78.196 90.3524 78.468C90.7364 78.732 90.9844 79.092 91.0964 79.548L90.9764 79.692V78.576C90.9764 78.416 91.0164 78.296 91.0964 78.216C91.1844 78.128 91.3044 78.084 91.4564 78.084C91.6164 78.084 91.7364 78.128 91.8164 78.216C91.8964 78.296 91.9364 78.416 91.9364 78.576V83.58C91.9364 84.468 91.7124 85.136 91.2644 85.584C90.8244 86.04 90.1724 86.268 89.3084 86.268ZM89.1644 83.076C89.5404 83.076 89.8644 82.992 90.1364 82.824C90.4084 82.648 90.6164 82.4 90.7604 82.08C90.9124 81.76 90.9884 81.384 90.9884 80.952C90.9884 80.304 90.8244 79.792 90.4964 79.416C90.1684 79.032 89.7244 78.84 89.1644 78.84C88.7964 78.84 88.4764 78.928 88.2044 79.104C87.9324 79.272 87.7204 79.516 87.5684 79.836C87.4244 80.148 87.3524 80.52 87.3524 80.952C87.3524 81.6 87.5164 82.116 87.8444 82.5C88.1724 82.884 88.6124 83.076 89.1644 83.076ZM95.5357 84.108C94.9597 84.108 94.5197 83.932 94.2157 83.58C93.9117 83.228 93.7597 82.724 93.7597 82.068V75.948C93.7597 75.788 93.7997 75.668 93.8797 75.588C93.9597 75.5 94.0797 75.456 94.2397 75.456C94.3917 75.456 94.5117 75.5 94.5997 75.588C94.6877 75.668 94.7317 75.788 94.7317 75.948V81.996C94.7317 82.428 94.8157 82.752 94.9837 82.968C95.1597 83.176 95.4157 83.28 95.7517 83.28C95.8237 83.28 95.8877 83.276 95.9437 83.268C95.9997 83.26 96.0557 83.256 96.1117 83.256C96.1997 83.248 96.2597 83.268 96.2917 83.316C96.3317 83.364 96.3517 83.46 96.3517 83.604C96.3517 83.748 96.3197 83.856 96.2557 83.928C96.1917 84 96.0877 84.048 95.9437 84.072C95.8797 84.08 95.8117 84.088 95.7397 84.096C95.6677 84.104 95.5997 84.108 95.5357 84.108ZM97.7904 84.06C97.6304 84.06 97.5104 84.016 97.4304 83.928C97.3504 83.832 97.3104 83.7 97.3104 83.532V78.624C97.3104 78.456 97.3504 78.328 97.4304 78.24C97.5104 78.152 97.6304 78.108 97.7904 78.108C97.9424 78.108 98.0624 78.152 98.1504 78.24C98.2384 78.328 98.2824 78.456 98.2824 78.624V83.532C98.2824 83.7 98.2384 83.832 98.1504 83.928C98.0704 84.016 97.9504 84.06 97.7904 84.06ZM97.7904 76.764C97.5904 76.764 97.4344 76.712 97.3224 76.608C97.2104 76.496 97.1544 76.348 97.1544 76.164C97.1544 75.972 97.2104 75.828 97.3224 75.732C97.4344 75.628 97.5904 75.576 97.7904 75.576C97.9984 75.576 98.1544 75.628 98.2584 75.732C98.3704 75.828 98.4264 75.972 98.4264 76.164C98.4264 76.348 98.3704 76.496 98.2584 76.608C98.1544 76.712 97.9984 76.764 97.7904 76.764ZM102.068 84.108C101.708 84.108 101.344 84.064 100.976 83.976C100.616 83.888 100.28 83.736 99.9675 83.52C99.8875 83.464 99.8315 83.4 99.7995 83.328C99.7675 83.248 99.7555 83.172 99.7635 83.1C99.7795 83.02 99.8115 82.952 99.8595 82.896C99.9155 82.84 99.9795 82.808 100.052 82.8C100.132 82.784 100.22 82.8 100.316 82.848C100.628 83.04 100.928 83.176 101.216 83.256C101.512 83.328 101.804 83.364 102.092 83.364C102.548 83.364 102.892 83.28 103.124 83.112C103.356 82.944 103.472 82.716 103.472 82.428C103.472 82.204 103.396 82.028 103.244 81.9C103.092 81.764 102.852 81.66 102.524 81.588L101.432 81.348C100.928 81.244 100.552 81.064 100.304 80.808C100.064 80.552 99.9435 80.22 99.9435 79.812C99.9435 79.452 100.036 79.144 100.22 78.888C100.412 78.624 100.68 78.42 101.024 78.276C101.368 78.132 101.768 78.06 102.224 78.06C102.576 78.06 102.908 78.108 103.22 78.204C103.54 78.292 103.828 78.436 104.084 78.636C104.164 78.692 104.216 78.76 104.24 78.84C104.272 78.912 104.276 78.988 104.252 79.068C104.236 79.14 104.2 79.204 104.144 79.26C104.088 79.308 104.02 79.336 103.94 79.344C103.86 79.352 103.776 79.328 103.688 79.272C103.448 79.112 103.204 78.996 102.956 78.924C102.708 78.844 102.464 78.804 102.224 78.804C101.776 78.804 101.436 78.892 101.204 79.068C100.972 79.244 100.856 79.476 100.856 79.764C100.856 79.988 100.928 80.172 101.072 80.316C101.216 80.46 101.44 80.564 101.744 80.628L102.836 80.856C103.356 80.968 103.744 81.148 104 81.396C104.264 81.636 104.396 81.964 104.396 82.38C104.396 82.908 104.184 83.328 103.76 83.64C103.336 83.952 102.772 84.108 102.068 84.108ZM106.357 84.084C106.197 84.084 106.077 84.04 105.997 83.952C105.917 83.864 105.877 83.74 105.877 83.58V75.948C105.877 75.788 105.917 75.668 105.997 75.588C106.077 75.5 106.197 75.456 106.357 75.456C106.509 75.456 106.629 75.5 106.717 75.588C106.805 75.668 106.849 75.788 106.849 75.948V79.464H106.693C106.861 79 107.133 78.652 107.509 78.42C107.893 78.18 108.333 78.06 108.829 78.06C109.293 78.06 109.677 78.144 109.981 78.312C110.293 78.48 110.525 78.736 110.677 79.08C110.829 79.416 110.905 79.844 110.905 80.364V83.58C110.905 83.74 110.861 83.864 110.773 83.952C110.693 84.04 110.577 84.084 110.425 84.084C110.265 84.084 110.141 84.04 110.053 83.952C109.973 83.864 109.933 83.74 109.933 83.58V80.424C109.933 79.88 109.825 79.484 109.609 79.236C109.401 78.98 109.065 78.852 108.601 78.852C108.065 78.852 107.637 79.02 107.317 79.356C107.005 79.684 106.849 80.124 106.849 80.676V83.58C106.849 83.916 106.685 84.084 106.357 84.084Z" fill="black"/>
<path d="M72.864 110.084C72.736 110.084 72.632 110.056 72.552 110C72.48 109.936 72.436 109.856 72.42 109.76C72.412 109.656 72.436 109.54 72.492 109.412L75.792 101.9C75.864 101.74 75.948 101.628 76.044 101.564C76.148 101.492 76.26 101.456 76.38 101.456C76.5 101.456 76.608 101.492 76.704 101.564C76.808 101.628 76.892 101.74 76.956 101.9L80.268 109.412C80.332 109.54 80.356 109.656 80.34 109.76C80.332 109.864 80.292 109.944 80.22 110C80.148 110.056 80.048 110.084 79.92 110.084C79.776 110.084 79.66 110.048 79.572 109.976C79.484 109.896 79.412 109.784 79.356 109.64L78.468 107.588L78.948 107.84H73.788L74.28 107.588L73.404 109.64C73.332 109.792 73.256 109.904 73.176 109.976C73.096 110.048 72.992 110.084 72.864 110.084ZM76.368 102.692L74.436 107.24L74.148 107.012H78.588L78.324 107.24L76.392 102.692H76.368ZM82.1462 110.084C81.9862 110.084 81.8622 110.04 81.7742 109.952C81.6942 109.864 81.6542 109.74 81.6542 109.58V104.576C81.6542 104.416 81.6942 104.296 81.7742 104.216C81.8542 104.128 81.9702 104.084 82.1222 104.084C82.2742 104.084 82.3902 104.128 82.4702 104.216C82.5582 104.296 82.6022 104.416 82.6022 104.576V105.548H82.4822C82.6102 105.076 82.8542 104.712 83.2142 104.456C83.5742 104.2 84.0182 104.064 84.5462 104.048C84.6662 104.04 84.7622 104.068 84.8342 104.132C84.9062 104.188 84.9462 104.288 84.9542 104.432C84.9622 104.568 84.9302 104.676 84.8582 104.756C84.7862 104.836 84.6742 104.884 84.5222 104.9L84.3302 104.924C83.7862 104.972 83.3662 105.148 83.0702 105.452C82.7822 105.748 82.6382 106.156 82.6382 106.676V109.58C82.6382 109.74 82.5942 109.864 82.5062 109.952C82.4262 110.04 82.3062 110.084 82.1462 110.084ZM87.7324 110.108C87.3324 110.108 86.9724 110.032 86.6524 109.88C86.3404 109.72 86.0924 109.504 85.9084 109.232C85.7244 108.96 85.6324 108.656 85.6324 108.32C85.6324 107.888 85.7404 107.548 85.9564 107.3C86.1804 107.052 86.5444 106.876 87.0484 106.772C87.5604 106.668 88.2564 106.616 89.1364 106.616H89.6764V107.252H89.1484C88.5004 107.252 87.9884 107.284 87.6124 107.348C87.2444 107.404 86.9844 107.504 86.8324 107.648C86.6884 107.792 86.6164 107.996 86.6164 108.26C86.6164 108.588 86.7284 108.856 86.9524 109.064C87.1844 109.272 87.4964 109.376 87.8884 109.376C88.2084 109.376 88.4884 109.3 88.7284 109.148C88.9764 108.996 89.1684 108.788 89.3044 108.524C89.4484 108.26 89.5204 107.956 89.5204 107.612V106.244C89.5204 105.748 89.4204 105.392 89.2204 105.176C89.0204 104.952 88.6924 104.84 88.2364 104.84C87.9564 104.84 87.6764 104.876 87.3964 104.948C87.1164 105.02 86.8204 105.136 86.5084 105.296C86.3964 105.352 86.3004 105.372 86.2204 105.356C86.1404 105.332 86.0764 105.288 86.0284 105.224C85.9804 105.16 85.9524 105.088 85.9444 105.008C85.9364 104.92 85.9524 104.836 85.9924 104.756C86.0404 104.676 86.1124 104.612 86.2084 104.564C86.5604 104.388 86.9084 104.26 87.2524 104.18C87.5964 104.1 87.9244 104.06 88.2364 104.06C88.7404 104.06 89.1564 104.144 89.4844 104.312C89.8124 104.472 90.0564 104.72 90.2164 105.056C90.3764 105.384 90.4564 105.808 90.4564 106.328V109.58C90.4564 109.74 90.4164 109.864 90.3364 109.952C90.2644 110.04 90.1564 110.084 90.0124 110.084C89.8604 110.084 89.7444 110.04 89.6644 109.952C89.5844 109.864 89.5444 109.74 89.5444 109.58V108.644H89.6524C89.5884 108.948 89.4644 109.208 89.2804 109.424C89.1044 109.64 88.8844 109.808 88.6204 109.928C88.3564 110.048 88.0604 110.108 87.7324 110.108ZM95.2117 110.108C94.6837 110.108 94.2277 109.972 93.8437 109.7C93.4677 109.428 93.2157 109.064 93.0877 108.608L93.2197 108.476V109.58C93.2197 109.74 93.1757 109.864 93.0877 109.952C93.0077 110.04 92.8917 110.084 92.7397 110.084C92.5797 110.084 92.4597 110.04 92.3797 109.952C92.2997 109.864 92.2597 109.74 92.2597 109.58V101.948C92.2597 101.788 92.2997 101.668 92.3797 101.588C92.4597 101.5 92.5797 101.456 92.7397 101.456C92.8917 101.456 93.0117 101.5 93.0997 101.588C93.1877 101.668 93.2317 101.788 93.2317 101.948V105.524H93.0877C93.2237 105.076 93.4797 104.72 93.8557 104.456C94.2317 104.192 94.6837 104.06 95.2117 104.06C95.7397 104.06 96.1957 104.184 96.5797 104.432C96.9637 104.672 97.2597 105.02 97.4677 105.476C97.6837 105.924 97.7917 106.46 97.7917 107.084C97.7917 107.7 97.6837 108.236 97.4677 108.692C97.2597 109.14 96.9597 109.488 96.5677 109.736C96.1837 109.984 95.7317 110.108 95.2117 110.108ZM95.0077 109.328C95.3757 109.328 95.6917 109.24 95.9557 109.064C96.2277 108.888 96.4357 108.632 96.5797 108.296C96.7317 107.96 96.8077 107.556 96.8077 107.084C96.8077 106.356 96.6437 105.8 96.3157 105.416C95.9957 105.032 95.5597 104.84 95.0077 104.84C94.6477 104.84 94.3317 104.928 94.0597 105.104C93.7877 105.272 93.5757 105.524 93.4237 105.86C93.2797 106.188 93.2077 106.596 93.2077 107.084C93.2077 107.804 93.3717 108.36 93.6997 108.752C94.0277 109.136 94.4637 109.328 95.0077 109.328ZM99.7358 110.06C99.5758 110.06 99.4558 110.016 99.3758 109.928C99.2958 109.832 99.2558 109.7 99.2558 109.532V104.624C99.2558 104.456 99.2958 104.328 99.3758 104.24C99.4558 104.152 99.5758 104.108 99.7358 104.108C99.8878 104.108 100.008 104.152 100.096 104.24C100.184 104.328 100.228 104.456 100.228 104.624V109.532C100.228 109.7 100.184 109.832 100.096 109.928C100.016 110.016 99.8958 110.06 99.7358 110.06ZM99.7358 102.764C99.5358 102.764 99.3798 102.712 99.2678 102.608C99.1558 102.496 99.0998 102.348 99.0998 102.164C99.0998 101.972 99.1558 101.828 99.2678 101.732C99.3798 101.628 99.5358 101.576 99.7358 101.576C99.9438 101.576 100.1 101.628 100.204 101.732C100.316 101.828 100.372 101.972 100.372 102.164C100.372 102.348 100.316 102.496 100.204 102.608C100.1 102.712 99.9438 102.764 99.7358 102.764ZM104.517 110.108C103.933 110.108 103.429 109.98 103.005 109.724C102.581 109.468 102.253 109.112 102.021 108.656C101.797 108.192 101.685 107.656 101.685 107.048C101.685 106.584 101.749 106.168 101.877 105.8C102.005 105.432 102.193 105.12 102.441 104.864C102.689 104.6 102.985 104.4 103.329 104.264C103.681 104.128 104.077 104.06 104.517 104.06C104.805 104.06 105.105 104.104 105.417 104.192C105.729 104.28 106.013 104.432 106.269 104.648C106.349 104.704 106.401 104.772 106.425 104.852C106.449 104.932 106.449 105.012 106.425 105.092C106.401 105.164 106.361 105.228 106.305 105.284C106.249 105.332 106.177 105.36 106.089 105.368C106.009 105.376 105.925 105.348 105.837 105.284C105.629 105.124 105.417 105.012 105.201 104.948C104.985 104.884 104.777 104.852 104.577 104.852C104.265 104.852 103.993 104.904 103.761 105.008C103.529 105.104 103.333 105.244 103.173 105.428C103.013 105.612 102.889 105.84 102.801 106.112C102.721 106.384 102.681 106.7 102.681 107.06C102.681 107.756 102.845 108.308 103.173 108.716C103.501 109.116 103.969 109.316 104.577 109.316C104.777 109.316 104.981 109.284 105.189 109.22C105.405 109.156 105.621 109.044 105.837 108.884C105.925 108.82 106.009 108.792 106.089 108.8C106.169 108.808 106.237 108.84 106.293 108.896C106.349 108.944 106.385 109.008 106.401 109.088C106.425 109.168 106.425 109.248 106.401 109.328C106.377 109.4 106.325 109.464 106.245 109.52C105.989 109.728 105.709 109.88 105.405 109.976C105.101 110.064 104.805 110.108 104.517 110.108Z" fill="black"/>
<defs>
<filter id="filter0_d_1_5087" x="125" y="55.0527" width="38.6044" height="47.1382" filterUnits="userSpaceOnUse" color-interpolation-filters="sRGB">
<feFlood flood-opacity="0" result="BackgroundImageFix"/>
<feColorMatrix in="SourceAlpha" type="matrix" values="0 0 0 0 0 0 0 0 0 0 0 0 0 0 0 0 0 0 127 0" result="hardAlpha"/>
<feOffset dx="-2" dy="3"/>
<feGaussianBlur stdDeviation="4"/>
<feComposite in2="hardAlpha" operator="out"/>
<feColorMatrix type="matrix" values="0 0 0 0 0 0 0 0 0 0 0 0 0 0 0 0 0 0 0.1 0"/>
<feBlend mode="normal" in2="BackgroundImageFix" result="effect1_dropShadow_1_5087"/>
<feBlend mode="normal" in="SourceGraphic" in2="effect1_dropShadow_1_5087" result="shape"/>
</filter>
<filter id="filter1_d_1_5087" x="0" y="0" width="205" height="184" filterUnits="userSpaceOnUse" color-interpolation-filters="sRGB">
<feFlood flood-opacity="0" result="BackgroundImageFix"/>
<feColorMatrix in="SourceAlpha" type="matrix" values="0 0 0 0 0 0 0 0 0 0 0 0 0 0 0 0 0 0 127 0" result="hardAlpha"/>
<feOffset/>
<feGaussianBlur stdDeviation="28"/>
<feComposite in2="hardAlpha" operator="out"/>
<feColorMatrix type="matrix" values="0 0 0 0 0 0 0 0 0 0 0 0 0 0 0 0 0 0 0.08 0"/>
<feBlend mode="normal" in2="BackgroundImageFix" result="effect1_dropShadow_1_5087"/>
<feBlend mode="normal" in="SourceGraphic" in2="effect1_dropShadow_1_5087" result="shape"/>
</filter>
</defs>
</svg>
