<svg width="64" height="64" viewBox="0 0 64 64" fill="none" xmlns="http://www.w3.org/2000/svg">
<g id="Group 362">
<g id="Group 325">
<circle id="Ellipse 45" cx="32" cy="32" r="31.75" fill="white" stroke="#FFE7A6" stroke-width="0.5"/>
</g>
<g id="Group 339">
<path id="Vector 21" d="M23.8623 35.3794L23.8623 40.207" stroke="url(#paint0_linear_16_12622)" stroke-width="1.5" stroke-linecap="round"/>
<path id="Vector 22" d="M39.3105 35.3794L39.3105 40.207" stroke="url(#paint1_linear_16_12622)" stroke-width="1.5" stroke-linecap="round"/>
<path id="Vector" d="M33.3913 26.5217L43.1304 32.7913V35.2261L33.3913 31.5739V41.5676L37.0435 43.9V46L31.5652 44.6L26.087 46V43.9L29.7391 41.5662V31.5739L20 35.2261V32.7913L29.7391 26.5217V20.1C29.7391 19.543 29.9315 19.0089 30.274 18.6151C30.6164 18.2212 31.0809 18 31.5652 18C32.0495 18 32.514 18.2212 32.8565 18.6151C33.1989 19.0089 33.3913 19.543 33.3913 20.1V26.5217Z" fill="#2255A4"/>
</g>
</g>
<defs>
<linearGradient id="paint0_linear_16_12622" x1="24.3623" y1="35.3794" x2="24.3623" y2="40.207" gradientUnits="userSpaceOnUse">
<stop stop-color="#D6B268"/>
<stop offset="1" stop-color="#D6B268" stop-opacity="0"/>
</linearGradient>
<linearGradient id="paint1_linear_16_12622" x1="39.8105" y1="35.3794" x2="39.8105" y2="40.207" gradientUnits="userSpaceOnUse">
<stop stop-color="#D6B268"/>
<stop offset="1" stop-color="#D6B268" stop-opacity="0"/>
</linearGradient>
</defs>
</svg>
