<svg xmlns="http://www.w3.org/2000/svg" width="64" height="64" fill="none" viewBox="0 0 64 64"><g id="Group 362"><g id="Group 325"><circle id="Ellipse 45" cx="32" cy="32" r="31.75" fill="#fff" stroke="#FFE7A6" stroke-width=".5"/></g><g id="Group 339"><path id="Vector 21" stroke="url(#paint0_linear_16_12622)" stroke-linecap="round" stroke-width="1.5" d="M23.8623 35.3794L23.8623 40.207"/><path id="Vector 22" stroke="url(#paint1_linear_16_12622)" stroke-linecap="round" stroke-width="1.5" d="M39.3105 35.3794L39.3105 40.207"/><path id="Vector" fill="#2255A4" d="M33.3913 26.5217L43.1304 32.7913V35.2261L33.3913 31.5739V41.5676L37.0435 43.9V46L31.5652 44.6L26.087 46V43.9L29.7391 41.5662V31.5739L20 35.2261V32.7913L29.7391 26.5217V20.1C29.7391 19.543 29.9315 19.0089 30.274 18.6151C30.6164 18.2212 31.0809 18 31.5652 18C32.0495 18 32.514 18.2212 32.8565 18.6151C33.1989 19.0089 33.3913 19.543 33.3913 20.1V26.5217Z"/></g></g><defs><linearGradient id="paint0_linear_16_12622" x1="24.362" x2="24.362" y1="35.379" y2="40.207" gradientUnits="userSpaceOnUse"><stop stop-color="#D6B268"/><stop offset="1" stop-color="#D6B268" stop-opacity="0"/></linearGradient><linearGradient id="paint1_linear_16_12622" x1="39.81" x2="39.81" y1="35.379" y2="40.207" gradientUnits="userSpaceOnUse"><stop stop-color="#D6B268"/><stop offset="1" stop-color="#D6B268" stop-opacity="0"/></linearGradient></defs></svg>