<svg width="144" height="112" viewBox="0 0 144 112" fill="none" xmlns="http://www.w3.org/2000/svg">
<g clip-path="url(#clip0_1_1713)">
<path d="M66.731 112C103.586 112 133.462 111.011 133.462 109.792C133.462 108.572 103.586 107.583 66.731 107.583C29.8765 107.583 0 108.572 0 109.792C0 111.011 29.8765 112 66.731 112Z" fill="#E6E6E6"/>
<path d="M65.7291 35.9031C70.2667 35.9031 73.9452 32.2175 73.9452 27.6711C73.9452 23.1246 70.2667 19.439 65.7291 19.439C61.1914 19.439 57.5129 23.1246 57.5129 27.6711C57.5129 32.2175 61.1914 35.9031 65.7291 35.9031Z" fill="#191824"/>
<path d="M63.5559 46.7053L59.8381 43.8545L46.5281 68.0089C46.1101 68.085 45.7236 68.2827 45.417 68.5773C45.1103 68.872 44.897 69.2505 44.8036 69.6658C44.7102 70.0811 44.7408 70.5147 44.8917 70.9126C45.0425 71.3106 45.3069 71.6553 45.652 71.9037C45.997 72.1521 46.4074 72.2933 46.8319 72.3096C47.2565 72.326 47.6764 72.2168 48.0395 71.9956C48.4025 71.7745 48.6925 71.4512 48.8734 71.066C49.0544 70.6808 49.1181 70.2508 49.0568 69.8296L63.5559 46.7053Z" fill="#FFB8B8"/>
<path d="M97.4913 60.4149C97.3393 59.9742 97.0497 59.5943 96.6654 59.3314C96.281 59.0686 95.8224 58.9367 95.3574 58.9554L73.9121 42.1006L70.6954 45.5087L93.287 61.2858C93.31 61.5933 93.3982 61.8924 93.5457 62.163C93.6932 62.4337 93.8967 62.6697 94.1424 62.8554C94.3882 63.041 94.6706 63.1721 94.9709 63.2397C95.2712 63.3073 95.5824 63.31 95.8838 63.2475C96.1852 63.1851 96.4699 63.059 96.7188 62.8776C96.9677 62.6962 97.1751 62.4638 97.3272 62.1957C97.4794 61.9276 97.5727 61.6301 97.601 61.323C97.6293 61.016 97.5919 60.7064 97.4913 60.4149V60.4149Z" fill="#FFB8B8"/>
<path d="M72.6025 107.425H75.1291L76.3315 97.6616H72.6025V107.425Z" fill="#FFB8B8"/>
<path d="M80.0015 109.776H72.0611V106.702H76.9336C77.7473 106.702 78.5276 107.026 79.1029 107.602C79.6782 108.179 80.0015 108.961 80.0015 109.776V109.776Z" fill="#2F2E41"/>
<path d="M52.5835 105.165L54.9047 106.165L59.8572 97.67L56.4312 96.1948L52.5835 105.165Z" fill="#FFB8B8"/>
<path d="M58.4548 110.252L51.1597 107.111L52.371 104.287L56.8476 106.214C57.5951 106.536 58.1844 107.142 58.4858 107.9C58.7872 108.657 58.7761 109.503 58.4548 110.252Z" fill="#2F2E41"/>
<path d="M60.4584 60.6097L48.4399 98.5445L64.2142 100.238L65.7291 78.0679L67.7822 100.238L80.5518 98.7326C80.5518 98.7326 78.2451 63.6201 74.0465 61.3623C69.8478 59.1044 60.4584 60.6097 60.4584 60.6097Z" fill="#03045E"/>
<path d="M66.9749 37.8877C69.8788 37.8877 72.233 35.529 72.233 32.6194C72.233 29.7098 69.8788 27.3511 66.9749 27.3511C64.0709 27.3511 61.7168 29.7098 61.7168 32.6194C61.7168 35.529 64.0709 37.8877 66.9749 37.8877Z" fill="#FFB8B8"/>
<path d="M66.8065 62.3099C63.1554 62.3099 59.6418 62.1477 59.4607 61.8332C59.4453 61.8068 59.4395 61.7759 59.4442 61.7457C59.4489 61.7155 59.4638 61.6879 59.4864 61.6674C59.7376 61.2968 59.1479 55.2731 57.9061 45.5573C57.7653 44.4195 58.0165 43.2677 58.6181 42.2924C59.2197 41.3171 60.1356 40.5769 61.2142 40.1942L61.2374 40.1889L72.2418 39.1001L72.3651 39.1348C73.4537 39.4381 74.4069 40.1033 75.0681 41.0212C75.7294 41.9391 76.0593 43.0551 76.0038 44.1857C75.7201 50.3835 75.2439 60.8809 75.2439 61.5501C75.2439 61.7323 74.991 61.8234 74.7706 61.8827C73.6992 62.1703 70.1937 62.3099 66.8065 62.3099Z" fill="#03045E"/>
<path d="M22.3742 18.5156L10.104 33.8789L25.4375 46.1729L37.7077 30.8096L22.3742 18.5156Z" fill="#F2F2F2"/>
<path d="M25.3311 49.6224C24.4691 49.4907 23.6654 49.1059 23.0217 48.5166C22.378 47.9273 21.9231 47.16 21.7146 46.3117C21.5062 45.4634 21.5535 44.5722 21.8505 43.7508C22.1475 42.9294 22.681 42.2147 23.3834 41.6971C24.0859 41.1795 24.9257 40.8822 25.7968 40.8429C26.6679 40.8035 27.531 41.0238 28.2771 41.476C29.0232 41.9281 29.6187 42.5918 29.9884 43.383C30.358 44.1743 30.4852 45.0576 30.3538 45.9213C30.2665 46.4947 30.0674 47.0453 29.7678 47.5417C29.4681 48.038 29.0738 48.4704 28.6074 48.8141C28.141 49.1578 27.6117 49.406 27.0495 49.5447C26.4873 49.6834 25.9034 49.7098 25.3311 49.6224ZM26.5994 41.2858C25.8158 41.1661 25.0143 41.2819 24.2964 41.6186C23.5785 41.9553 22.9763 42.4978 22.5661 43.1773C22.1558 43.8569 21.9559 44.6431 21.9916 45.4365C22.0274 46.23 22.2971 46.9949 22.7667 47.6348C23.2364 48.2746 23.8848 48.7605 24.6301 49.0311C25.3754 49.3016 26.184 49.3447 26.9537 49.1548C27.7234 48.9649 28.4196 48.5506 28.9543 47.9643C29.4889 47.3779 29.8381 46.6459 29.9575 45.8608C30.1165 44.8081 29.8522 43.7352 29.2227 42.8775C28.5931 42.0199 27.6497 41.4474 26.5994 41.2858Z" fill="#3F3D56"/>
<path d="M15.9469 99.4281C14.442 104.465 16.7776 109.615 16.7776 109.615C16.7776 109.615 21.5532 106.598 23.0582 101.561C24.5631 96.5242 22.2275 91.3745 22.2275 91.3745C22.2275 91.3745 17.4518 94.3912 15.9469 99.4281Z" fill="#E6E6E6"/>
<path d="M18.2318 99.5646C19.4984 104.667 16.9234 109.701 16.9234 109.701C16.9234 109.701 12.2948 106.462 11.0282 101.36C9.7616 96.2575 12.3366 91.2236 12.3366 91.2236C12.3366 91.2236 16.9652 94.4622 18.2318 99.5646Z" fill="#E6E6E6"/>
<path d="M59.5804 29.1301C62.3766 30.6555 65.524 31.4174 68.7068 31.3394C69.9259 31.3077 71.2691 31.0856 72.0411 30.1397C72.9123 29.0725 72.6943 27.4051 71.854 26.3133C71.0137 25.2216 69.699 24.6061 68.3875 24.1888C67.1467 23.7938 65.8171 23.5395 64.5447 23.8156C63.8731 23.9613 63.2408 24.2501 62.6907 24.6625C62.1405 25.075 61.6855 25.6012 61.3565 26.2056C61.0275 26.8099 60.8322 27.4782 60.784 28.1649C60.7357 28.8516 60.8357 29.5407 61.077 30.1853" fill="#191824"/>
<path d="M59.9176 26.4665C62.4631 26.4665 64.5267 24.3989 64.5267 21.8485C64.5267 19.298 62.4631 17.2305 59.9176 17.2305C57.3721 17.2305 55.3086 19.298 55.3086 21.8485C55.3086 24.3989 57.3721 26.4665 59.9176 26.4665Z" fill="#191824"/>
<path d="M143.204 22.3609L125.111 11.7955L127.432 7.8057C127.499 7.6918 127.542 7.56594 127.559 7.4353C127.577 7.30466 127.569 7.17181 127.536 7.04433C127.502 6.91684 127.444 6.79723 127.364 6.6923C127.284 6.58738 127.185 6.49921 127.071 6.43282C126.958 6.36643 126.832 6.32313 126.702 6.30538C126.571 6.28764 126.439 6.2958 126.311 6.32939C126.184 6.36299 126.065 6.42137 125.96 6.50119C125.855 6.58102 125.767 6.68073 125.701 6.79463L123.38 10.7844L105.288 0.218998C104.92 0.00448251 104.483 -0.055037 104.072 0.0535309C103.661 0.162099 103.309 0.429861 103.095 0.797915L88.9682 25.0836C88.7541 25.4517 88.6947 25.8899 88.8031 26.3018C88.9114 26.7138 89.1787 27.0657 89.546 27.2802L107.638 37.8456L91.7958 65.0803C91.7295 65.1942 91.6863 65.3201 91.6685 65.4508C91.6508 65.5814 91.6589 65.7143 91.6924 65.8418C91.7259 65.9693 91.7842 66.089 91.8639 66.1939C91.9436 66.2989 92.0431 66.387 92.1568 66.4534C92.2705 66.5198 92.3962 66.5631 92.5266 66.5809C92.657 66.5986 92.7896 66.5904 92.9169 66.5568C93.0441 66.5232 93.1635 66.4647 93.2682 66.3849C93.373 66.305 93.4609 66.2052 93.5272 66.0913L109.37 38.8566L127.462 49.422C127.644 49.5282 127.845 49.5975 128.054 49.6259C128.262 49.6543 128.474 49.6413 128.678 49.5875C128.882 49.5338 129.073 49.4403 129.24 49.3126C129.408 49.1849 129.548 49.0253 129.654 48.8431L143.782 24.5574C143.888 24.3752 143.957 24.1738 143.985 23.9648C144.013 23.7558 144 23.5432 143.947 23.3392C143.893 23.1353 143.8 22.9439 143.672 22.776C143.545 22.6082 143.386 22.4671 143.204 22.3609Z" fill="#03045E"/>
<path opacity="0.1" d="M118.11 36.9888C118.668 36.0307 116.174 33.534 112.54 31.4121C108.907 29.2903 105.51 28.3468 104.952 29.3049C104.395 30.2629 106.889 32.7597 110.522 34.8815C114.156 37.0034 117.553 37.9468 118.11 36.9888Z" fill="black"/>
<path d="M116.375 34.4578C121.687 34.4578 125.994 30.1429 125.994 24.8202C125.994 19.4975 121.687 15.1826 116.375 15.1826C111.063 15.1826 106.756 19.4975 106.756 24.8202C106.756 30.1429 111.063 34.4578 116.375 34.4578Z" fill="#FFE870"/>
<path d="M120.56 29.5882C120.003 30.5463 116.072 31.1505 113.203 29.4753C110.335 27.8002 109.615 24.48 110.172 23.522C110.729 22.5639 112.353 24.3308 115.221 26.0059C118.09 27.6811 121.117 28.6302 120.56 29.5882Z" fill="url(#paint0_linear_1_1713)"/>
<path d="M114.281 21.6548C115.388 21.6548 116.285 20.7559 116.285 19.647C116.285 18.5381 115.388 17.6392 114.281 17.6392C113.175 17.6392 112.277 18.5381 112.277 19.647C112.277 20.7559 113.175 21.6548 114.281 21.6548Z" fill="black"/>
<path d="M121.553 25.9014C122.66 25.9014 123.557 25.0025 123.557 23.8936C123.557 22.7847 122.66 21.8857 121.553 21.8857C120.446 21.8857 119.549 22.7847 119.549 23.8936C119.549 25.0025 120.446 25.9014 121.553 25.9014Z" fill="black"/>
</g>
<defs>
<linearGradient id="paint0_linear_1_1713" x1="113" y1="29.5001" x2="117" y2="22.5001" gradientUnits="userSpaceOnUse">
<stop/>
<stop offset="1" stop-color="#626262" stop-opacity="0"/>
</linearGradient>
<clipPath id="clip0_1_1713">
<rect width="144" height="112" fill="white"/>
</clipPath>
</defs>
</svg>
