<svg xmlns="http://www.w3.org/2000/svg" width="13" height="13" fill="none" viewBox="0 0 13 13"><circle cx="6.5" cy="6.5" r="6.25" fill="#fff" stroke="#D6B268" stroke-width=".5"/><path fill="#D6B268" d="M6.5 8C6.44021 8 6.38236 7.98855 6.32646 7.96565C6.27025 7.94275 6.22347 7.91221 6.1861 7.87405L4.12332 5.76718C4.04111 5.68321 4 5.57634 4 5.44656C4 5.31679 4.04111 5.20992 4.12332 5.12595C4.20553 5.04198 4.31016 5 4.43722 5C4.56427 5 4.66891 5.04198 4.75112 5.12595L6.5 6.91221L8.24888 5.12595C8.33109 5.04198 8.43572 5 8.56278 5C8.68984 5 8.79447 5.04198 8.87668 5.12595C8.95889 5.20992 9 5.31679 9 5.44656C9 5.57634 8.95889 5.68321 8.87668 5.76718L6.8139 7.87405C6.76906 7.91985 6.72048 7.95221 6.66816 7.97114C6.61584 7.99038 6.55979 8 6.5 8V8Z"/></svg>