<svg xmlns="http://www.w3.org/2000/svg" width="17" height="11" fill="none" viewBox="0 0 17 11"><g id="Group"><path id="Vector" stroke="#939EAA" stroke-linecap="round" stroke-linejoin="round" stroke-width="1.5" d="M1 5.875C4 -0.625 13 -0.625 16 5.875"/><path id="Vector_2" stroke="#939EAA" stroke-linecap="round" stroke-linejoin="round" stroke-width="1.5" d="M8.5 9.375C7.96957 9.375 7.46086 9.16429 7.08579 8.78921C6.71071 8.41414 6.5 7.90543 6.5 7.375C6.5 6.84457 6.71071 6.33586 7.08579 5.96079C7.46086 5.58571 7.96957 5.375 8.5 5.375C9.03043 5.375 9.53914 5.58571 9.91421 5.96079C10.2893 6.33586 10.5 6.84457 10.5 7.375C10.5 7.90543 10.2893 8.41414 9.91421 8.78921C9.53914 9.16429 9.03043 9.375 8.5 9.375Z"/></g></svg>