<svg xmlns="http://www.w3.org/2000/svg" width="20" height="18" fill="none" viewBox="0 0 20 18"><g id="Word"><path id="Vector" fill="#41A5EE" d="M18.5578 1.16217e-06H5.3341C5.22573 -8.97906e-05 5.1184 0.0211652 5.01824 0.0625527C4.91809 0.10394 4.82706 0.16465 4.75037 0.241215C4.67368 0.31778 4.61282 0.408701 4.57126 0.508787C4.5297 0.608873 4.50827 0.716164 4.50818 0.824535V4.49997L12.1713 6.74996L19.3844 4.49997V0.824535C19.3843 0.716106 19.3628 0.608758 19.3212 0.508627C19.2796 0.408496 19.2187 0.317544 19.142 0.24097C19.0652 0.164395 18.9741 0.103701 18.8739 0.0623538C18.7736 0.0210071 18.6662 -0.000180803 18.5578 1.16217e-06Z"/><path id="Vector_2" fill="#2B7CD3" d="M19.3844 4.5H4.50818V8.99997L12.1713 10.35L19.3844 8.99997V4.5Z"/><path id="Vector_3" fill="#185ABD" d="M4.50818 9V13.5L11.7206 14.4L19.3844 13.5V9H4.50818Z"/><path id="Vector_4" fill="#103F91" d="M5.3341 18H18.5571C18.6656 18.0002 18.7731 17.9791 18.8734 17.9378C18.9737 17.8965 19.0649 17.8358 19.1417 17.7592C19.2186 17.6827 19.2795 17.5917 19.3212 17.4915C19.3628 17.3913 19.3843 17.2839 19.3844 17.1754V13.5H4.50818V17.1754C4.50827 17.2838 4.5297 17.3911 4.57126 17.4912C4.61282 17.5913 4.67368 17.6822 4.75037 17.7588C4.82706 17.8353 4.91809 17.896 5.01824 17.9374C5.1184 17.9788 5.22573 18.0001 5.3341 18Z"/><path id="Vector_5" fill="#000" d="M9.99261 3.6001H4.50818V14.85H9.99261C10.2111 14.8489 10.4205 14.7618 10.5752 14.6075C10.7299 14.4531 10.8176 14.244 10.8192 14.0255V4.42463C10.8176 4.2061 10.7299 3.99701 10.5752 3.84267C10.4205 3.68834 10.2111 3.60118 9.99261 3.6001Z" opacity=".1"/><path id="Vector_6" fill="#000" d="M9.54192 4.05005H4.50818V15.3H9.54192C9.76045 15.2989 9.96976 15.2117 10.1245 15.0574C10.2792 14.9031 10.3669 14.694 10.3685 14.4754V4.87458C10.3669 4.65605 10.2792 4.44696 10.1245 4.29263C9.96976 4.13829 9.76045 4.05114 9.54192 4.05005Z" opacity=".2"/><path id="Vector_7" fill="#000" d="M9.54192 4.05005H4.50818V14.4H9.54192C9.76045 14.3989 9.96976 14.3117 10.1245 14.1574C10.2792 14.0031 10.3669 13.794 10.3685 13.5755V4.87458C10.3669 4.65605 10.2792 4.44696 10.1245 4.29263C9.96976 4.13829 9.76045 4.05114 9.54192 4.05005Z" opacity=".2"/><path id="Vector_8" fill="#000" d="M9.09123 4.05005H4.50818V14.4H9.09123C9.30976 14.3989 9.51907 14.3117 9.6738 14.1574C9.82852 14.0031 9.9162 13.794 9.91784 13.5755V4.87458C9.9162 4.65605 9.82852 4.44696 9.6738 4.29263C9.51907 4.13829 9.30976 4.05114 9.09123 4.05005Z" opacity=".2"/><path id="Vector_9" fill="url(#paint0_linear_285_1732)" d="M0.82661 4.05005H9.09133C9.31026 4.04987 9.5203 4.13661 9.6753 4.29122C9.8303 4.44583 9.91757 4.65566 9.91794 4.87458V13.1255C9.91757 13.3444 9.8303 13.5542 9.6753 13.7088C9.5203 13.8634 9.31026 13.9502 9.09133 13.95H0.82661C0.718182 13.9502 0.610781 13.929 0.510545 13.8876C0.410309 13.8463 0.319204 13.7856 0.242437 13.709C0.16567 13.6324 0.104746 13.5415 0.0631476 13.4414C0.0215488 13.3412 9.08109e-05 13.2339 0 13.1255V4.87458C9.08109e-05 4.76616 0.0215488 4.65881 0.0631476 4.55868C0.104746 4.45854 0.16567 4.36759 0.242437 4.29102C0.319204 4.21444 0.410309 4.15375 0.510545 4.1124C0.610781 4.07106 0.718182 4.04987 0.82661 4.05005Z"/><path id="Vector_10" fill="#fff" d="M3.3925 10.3764C3.40842 10.5038 3.4195 10.6146 3.42435 10.7094H3.44373C3.45065 10.6194 3.46588 10.5107 3.48873 10.384C3.51158 10.2573 3.53165 10.15 3.55035 10.0621L4.41919 6.31881H5.54349L6.44348 10.006C6.4959 10.2341 6.53337 10.4654 6.55563 10.6983H6.57087C6.5874 10.4715 6.61862 10.2461 6.66433 10.0233L7.38363 6.31396H8.40616L7.1434 11.6779H5.94779L5.09141 8.12918C5.06649 8.02672 5.03834 7.89334 5.00695 7.72903C4.97557 7.56473 4.95618 7.44473 4.9488 7.36904H4.93426C4.92457 7.45627 4.90518 7.58573 4.87611 7.75742C4.84703 7.9298 4.82418 8.05649 4.80688 8.13957L4.00173 11.68H2.78604L1.51636 6.31881H2.55481L3.33781 10.0697C3.36118 10.171 3.37943 10.2733 3.3925 10.3764Z"/></g><defs><linearGradient id="paint0_linear_285_1732" x1="1.727" x2="8.191" y1="3.402" y2="14.598" gradientUnits="userSpaceOnUse"><stop stop-color="#2368C4"/><stop offset=".5" stop-color="#1A5DBE"/><stop offset="1" stop-color="#1146AC"/></linearGradient></defs></svg>